<svg id="ebd1b0aa-ca0a-4a04-8a55-bbb0741fc13e" data-name="Layer 1" xmlns="http://www.w3.org/2000/svg" viewBox="0 0 95 95"><path d="M76.812,26.452,47.549,9.58a1.493,1.493,0,0,0-1.494,0L16.875,26.452a1.493,1.493,0,0,0-.746,1.293V61.489a1.493,1.493,0,0,0,.746,1.293l29.18,16.871a1.493,1.493,0,0,0,1.494,0L76.812,62.782a1.492,1.492,0,0,0,.748-1.293V27.745A1.492,1.492,0,0,0,76.812,26.452Zm-56.683,4.61L44.694,46.387V74.246l-24.565-14.2ZM48.694,74.376V46.525L73.56,31.058V60.041Z" style="fill:#275bde"/><polygon points="20.201 82.182 29.85 73.641 26.577 71.585 16.903 80.049 16.956 74.213 13.576 72.225 13.644 86.515 31.887 83.203 27.838 80.785 20.201 82.182" style="fill:#275bde"/><polygon points="77.66 74.213 77.712 80.049 68.039 71.585 64.766 73.641 74.415 82.182 66.777 80.785 62.729 83.203 80.972 86.515 81.04 72.225 77.66 74.213" style="fill:#275bde"/></svg>