<svg id="f1c21468-e3c9-4eb6-bf53-396226da4ef7" data-name="Layer 1" xmlns="http://www.w3.org/2000/svg" viewBox="0 0 95 95"><path d="M83.012,81.283a6.8,6.8,0,0,0-4.234-3.792l-1.6-21.1A29.554,29.554,0,0,0,60.485,29.8a6.058,6.058,0,0,0,.173-1.415v-.465a6.088,6.088,0,0,0-3.5-5.5l3.659-12.87a2.5,2.5,0,0,0-2.4-3.184H49.4l-.041-.456a2.5,2.5,0,0,0-2.995-2.226L33.05,6.43a2.5,2.5,0,0,0-1.825,3.356l5.261,13.508a6.071,6.071,0,0,0-2.144,4.628v.465a6.085,6.085,0,0,0,.172,1.412A29.543,29.543,0,0,0,17.82,56.391l-1.6,21.1a6.8,6.8,0,0,0-4.235,3.791,7.192,7.192,0,0,0,.556,6.893,7.094,7.094,0,0,0,5.933,3.192H76.523a7.094,7.094,0,0,0,5.933-3.192A7.19,7.19,0,0,0,83.012,81.283ZM39.342,27.922a1.084,1.084,0,0,1,1.083-1.083h14.15a1.084,1.084,0,0,1,1.083,1.083v.465a1.084,1.084,0,0,1-1.083,1.083H40.425a1.084,1.084,0,0,1-1.083-1.083ZM44.63,9.148l.758,8.482a1.05,1.05,0,0,0,1.14.953l2.887-.258a1.051,1.051,0,0,0,.953-1.141l-.52-5.817H55.1L52.124,21.839H41.284l-4.326-11.11Zm33.655,76.27a2.107,2.107,0,0,1-1.762.949H18.477a2.108,2.108,0,0,1-1.762-.949,2.224,2.224,0,0,1-.126-2.178,1.993,1.993,0,0,1,1.864-1.092h.114a2.5,2.5,0,0,0,2.492-2.311l1.754-23.161c.005-.062.007-.126.007-.188A24.57,24.57,0,0,1,37.73,33.833a6.043,6.043,0,0,0,2.7.637h14.15a6.045,6.045,0,0,0,2.7-.639A24.574,24.574,0,0,1,72.18,56.488c0,.063,0,.126.007.188l1.754,23.161a2.5,2.5,0,0,0,2.493,2.311h.113a1.991,1.991,0,0,1,1.864,1.093A2.222,2.222,0,0,1,78.285,85.418Z" style="fill:#275bde"/><rect x="34.739" y="58.369" width="24.941" height="5" transform="translate(-29.121 50.505) rotate(-44.471)" style="fill:#275bde"/><circle cx="40.248" cy="53.408" r="3.974" style="fill:#275bde"/><circle cx="54.752" cy="67.835" r="3.974" style="fill:#275bde"/></svg>