<svg id="ac83950a-83f7-48a3-9813-971a35e43aeb" data-name="Layer 1" xmlns="http://www.w3.org/2000/svg" viewBox="0 0 95 95"><path d="M90.666,57.67h0L80.636,37.665a1.011,1.011,0,0,0-.911-.562H69.275V11.538a1.084,1.084,0,0,0-1.083-1.083H26.808a1.084,1.084,0,0,0-1.083,1.083V37.1H15.488a1.016,1.016,0,0,0-.907.554L4.339,57.664a1.681,1.681,0,0,0-.182.759V83.617a.929.929,0,0,0,.927.928H89.916a.929.929,0,0,0,.927-.928v-25.2A1.658,1.658,0,0,0,90.666,57.67ZM30.1,46.087V14.833H64.9V46.087Zm42.8,4.378V46.087H69.275V41.481h8.35L84.752,56.03H10.467l7.127-14.549h8.131v4.606H22.1v4.378Zm13.46,10.2V80.086H8.856V60.663Z" style="fill:#275bde"/></svg>