<svg id="Layer_6" data-name="Layer 6" xmlns="http://www.w3.org/2000/svg" viewBox="0 0 600 600"><defs><style>.cls-1{fill:#fff;}.cls-2{fill:#f9d85e;}.cls-3{fill:#ef7730;}</style></defs><circle class="cls-1" cx="300.96" cy="300" r="300"/><path class="cls-2" d="M327.59,369.24C207,315.33,131.72,205.94,127.33,95.84a5.53,5.53,0,0,0-9.2-3.89,276.24,276.24,0,0,0-94.2,210.39C25.16,451.62,146.43,574.16,295.82,577c120.62,2.28,224.08-72.41,264.51-178.22a5.55,5.55,0,0,0-6.47-7.41C483.6,409,403.38,403.11,327.59,369.24Z"/><path class="cls-3" d="M573.48,250h0l-.3-1.68h0c-1.5-8-3.36-15.85-5.53-23.58l-.3-1h0q-1.59-5.58-3.42-11.06c-.09-.29-.19-.57-.28-.85h0q-3.84-11.43-8.61-22.39c-.08-.16-.15-.32-.22-.48h0c-1.55-3.53-3.15-7-4.84-10.46h0c0-.09-.09-.18-.14-.27q-2.61-5.33-5.44-10.52h0l-.15-.29h0q-2.91-5.31-6-10.48a2.75,2.75,0,0,1-.17-.29h0q-2.89-4.76-6-9.39h0l-.69-1.06h0q-6.48-9.67-13.74-18.76l-.87-1.09h0q-3.86-4.77-7.9-9.36l0,0h0q-3.9-4.41-8-8.66l-.32-.33h0q-3.69-3.84-7.52-7.53h0l-1.11-1.06h0c-2.62-2.49-5.28-4.94-8-7.32l-.95-.83h0c-2.77-2.41-5.57-4.78-8.43-7.08h0l-.79-.63h0q-4.53-3.62-9.22-7.06l-.19-.14h0q-4.74-3.47-9.63-6.74l-.13-.09h0q-9.8-6.54-20.18-12.24h0l-.78-.44q-4.95-2.7-10-5.2h0l-1.32-.66h0q-10.55-5.14-21.6-9.41L399.37,41h0q-5.72-2.17-11.54-4.1l-.23-.07h0q-5.43-1.8-11-3.36l-1-.28h0q-5.89-1.65-11.9-3.05l-.21,0h0c-3.8-.87-7.62-1.68-11.47-2.4l-.75-.13h0q-6-1.11-12.15-2h-.09q-9.51-1.32-19.19-2c1.09.08,2.12.2,3.19.29h0c2.53.23,5,.49,7.4.76h0c2.38.27,4.71.57,7,.89l.11,0q3.35.48,6.53,1l.18,0q3.13.55,6.1,1.17l.26.06q2.91.61,5.67,1.31l.37.1c1.8.45,3.54.93,5.25,1.43l.46.15c1.65.5,3.27,1,4.84,1.56l.56.21c1.52.54,3,1.09,4.45,1.68l.67.29c1.39.57,2.74,1.16,4.06,1.78l.8.4c1.25.61,2.48,1.22,3.67,1.87.31.17.6.36.91.53,1.12.63,2.23,1.27,3.3,1.94.37.23.71.48,1.07.71,1,.64,2,1.29,2.91,2,.43.31.83.64,1.25,1,.85.64,1.7,1.27,2.51,1.94.51.41,1,.86,1.48,1.29.7.6,1.4,1.19,2.07,1.82s1.26,1.24,1.89,1.87,1,1,1.48,1.47c1.09,1.16,2.16,2.36,3.19,3.59,1.53,1.84,9.41,11.88,13.67,29.5,5.14,21.23,4.25,43.31,9.11,64.58.82,3.58,1.69,7.05,2.59,10.48.24.92.49,1.81.74,2.72q1.08,4,2.24,7.8c.23.79.47,1.57.71,2.35,25,80.43,74.93,118.65,142,169.83a279.63,279.63,0,0,0-1-94Z"/><path class="cls-2" d="M575.37,261.63C565.56,239,565.56,239,302.77,144.05,170.49,96.26,145.94,50.14,241.68,29.26q7-1.52,14.12-2.68a280,280,0,0,1,45-3.62c140.1,0,255.91,103.83,274.6,238.67"/></svg>