<svg xmlns="http://www.w3.org/2000/svg" viewBox="0 0 600 600"><defs><style>.cls-1{fill:#f9d85e;}.cls-2{fill:#ef7730;}</style></defs><g id="Layer_1" data-name="Layer 1"><g id="Symbol_luna"><path class="cls-1" d="M321.39,355.61C224.52,312.32,164.06,224.45,160.53,136a4.45,4.45,0,0,0-7.39-3.13,221.88,221.88,0,0,0-75.66,169c1,119.9,98.4,218.34,218.39,220.61A222.78,222.78,0,0,0,508.33,379.34a4.45,4.45,0,0,0-5.19-5.95C446.7,387.58,382.27,382.83,321.39,355.61Z"/><path class="cls-2" d="M518.9,259.84h0c-.08-.45-.16-.89-.25-1.34h0q-1.81-9.63-4.45-18.94c-.07-.28-.15-.56-.23-.84h0c-.86-3-1.77-5.95-2.75-8.89-.07-.22-.15-.45-.23-.68h0q-3.08-9.17-6.91-18l-.18-.39h0q-1.86-4.25-3.88-8.4h0l-.12-.23q-2.1-4.28-4.37-8.44h0l-.12-.23h0q-2.34-4.26-4.85-8.41c-.05-.08-.09-.16-.14-.23h0q-2.32-3.82-4.8-7.54h0l-.55-.85h0q-5.2-7.77-11-15.07c-.24-.29-.47-.59-.7-.88h0q-3.09-3.82-6.34-7.51l0,0h0q-3.14-3.55-6.4-7l-.26-.27h0q-3-3.08-6-6.05h0l-.9-.85h0q-3.15-3-6.42-5.88l-.77-.67h0q-3.33-2.91-6.77-5.68h0l-.64-.51h0q-3.64-2.91-7.41-5.67l-.15-.11h0q-3.81-2.79-7.74-5.42l-.1-.07h0q-7.87-5.25-16.21-9.83h0l-.63-.35q-4-2.17-8-4.18h0l-1.07-.53h0q-8.48-4.14-17.35-7.56l-1-.39h0q-4.59-1.75-9.27-3.29l-.19-.06h0q-4.36-1.44-8.8-2.7l-.8-.23h0c-3.16-.88-6.35-1.7-9.56-2.44l-.17,0h0c-3.05-.71-6.12-1.36-9.22-1.93l-.6-.11h0q-4.85-.9-9.75-1.58h-.08c-5.09-.7-10.23-1.24-15.42-1.59.88.07,1.71.16,2.57.24h0q3.06.27,5.95.61h0q2.88.33,5.61.72h.08c1.8.26,3.54.54,5.24.83l.15,0c1.68.3,3.31.61,4.9.94l.21,0c1.56.33,3.08.68,4.55,1l.3.08c1.44.37,2.85.75,4.22,1.16l.37.11c1.33.4,2.63.82,3.89,1.26l.45.16q1.83.65,3.57,1.35l.54.24c1.11.46,2.2.93,3.26,1.43l.64.32c1,.48,2,1,2.95,1.5l.73.43c.9.5,1.8,1,2.65,1.55.3.19.57.39.86.57.79.52,1.58,1,2.34,1.58l1,.77c.67.51,1.36,1,2,1.55.41.34.79.7,1.19,1,.56.49,1.12,1,1.66,1.46s1,1,1.52,1.51.8.77,1.19,1.18c.88.93,1.73,1.89,2.56,2.88,1.23,1.48,7.56,9.55,11,23.7,4.13,17,3.42,34.79,7.32,51.87.66,2.87,1.36,5.67,2.08,8.42.19.74.4,1.46.59,2.18q.87,3.19,1.8,6.27l.57,1.89c20.05,64.61,60.19,95.3,114,136.42a224.61,224.61,0,0,0-.84-75.51Z"/><path class="cls-1" d="M520.41,269.18c-7.87-18.2-7.87-18.2-219-94.45-106.25-38.38-126-75.43-49.06-92.2q5.61-1.22,11.33-2.15a224.12,224.12,0,0,1,36.13-2.91c112.53,0,205.55,83.4,220.56,191.71"/></g></g></svg>