<svg width="32" height="32" viewBox="0 0 90 96" fill="none" xmlns="http://www.w3.org/2000/svg">
  <path d="M58.0815 14.8768C58.0665 14.6777 58.0028 14.4854 57.896 14.3167C57.7892 14.1481 57.6426 14.0083 57.469 13.9097C57.2954 13.8111 57.1003 13.7567 56.9007 13.7514C56.7012 13.746 56.5034 13.7898 56.3248 13.8788C56.2518 13.9153 54.2529 14.9133 51.1947 16.4399L43.6732 18.1473V4.26665C43.6732 4.25995 43.6671 4.2563 43.6659 4.24961C43.6736 4.05421 43.6333 3.85992 43.5485 3.68372C43.4784 3.54002 43.3807 3.41153 43.261 3.30559C43.1413 3.19965 43.0019 3.11833 42.8507 3.06629C42.6996 3.01425 42.5396 2.9925 42.3801 3.00228C42.2205 3.01206 42.0644 3.05319 41.9208 3.12331L6.27163 20.518C2.12056 22.4438 0.696104 24.9386 0.231832 26.6983C0.117458 27.1432 0.0479471 27.5984 0.0243393 28.0571L0 28.0632V84.7062H0.00730177C0.00540953 86.2903 0.50512 87.8344 1.4348 89.1171C3.11786 91.4731 6.6069 93.0022 10.9405 93.0022C14.4343 92.9476 17.8691 92.0923 20.9805 90.502C29.7876 86.1538 57.1414 72.4909 57.4164 72.3552C57.615 72.2552 57.7824 72.1026 57.9004 71.9141C58.0184 71.7257 58.0825 71.5084 58.0857 71.2861H58.0906V14.8798L58.0815 14.8768Z" fill="#459CF4"/>
  <path d="M53.039 15.5192L40.4239 6.56238L7.31639 22.7158C4.68836 23.9327 3.05702 25.5227 2.58544 27.3201C2.415 28.0202 2.40123 28.7493 2.54512 29.4553C2.68901 30.1613 2.98701 30.8268 3.41785 31.4043C5.45322 34.2532 11.5831 35.3186 18.0269 32.8306C18.3525 33.2807 18.5283 33.8218 18.5295 34.3773V59.0744C18.5297 59.1224 18.5458 59.1689 18.5754 59.2067C18.6049 59.2445 18.6462 59.2713 18.6928 59.2831C18.7393 59.2948 18.7884 59.2907 18.8323 59.2714C18.8762 59.2521 18.9125 59.2188 18.9354 59.1766L21.5987 54.2333C21.6143 54.2045 21.6362 54.1796 21.6628 54.1605C21.6895 54.1414 21.7201 54.1286 21.7524 54.1231C21.7847 54.1176 21.8178 54.1195 21.8493 54.1287C21.8808 54.1379 21.9097 54.1541 21.934 54.1761L24.5693 56.5796C24.6002 56.6079 24.6386 56.6265 24.6799 56.6333C24.7212 56.6401 24.7635 56.6347 24.8018 56.6178C24.84 56.6009 24.8726 56.5732 24.8954 56.5381C24.9181 56.503 24.9302 56.462 24.9301 56.4202V31.17C24.9287 30.6614 24.7808 30.1639 24.5042 29.737C33.0406 25.4996 46.785 18.6414 53.039 15.5192Z" fill="#1C1C1C"/>
  <path d="M31.4514 41.3732L45.7976 34.1134V31.3764L31.4514 38.6362V41.3732Z" fill="#1C1C1C"/>
</svg>