<svg width="396" height="96" viewBox="0 0 396 96" fill="none" xmlns="http://www.w3.org/2000/svg">
<path d="M58.0815 14.8768C58.0665 14.6777 58.0028 14.4854 57.896 14.3167C57.7892 14.1481 57.6426 14.0083 57.469 13.9097C57.2954 13.8111 57.1003 13.7567 56.9007 13.7514C56.7012 13.746 56.5034 13.7898 56.3248 13.8788C56.2518 13.9153 54.2529 14.9133 51.1947 16.4399L43.6732 18.1473V4.26665C43.6732 4.25995 43.6671 4.2563 43.6659 4.24961C43.6736 4.05421 43.6333 3.85992 43.5485 3.68372C43.4784 3.54002 43.3807 3.41153 43.261 3.30559C43.1413 3.19965 43.0019 3.11833 42.8507 3.06629C42.6996 3.01425 42.5396 2.9925 42.3801 3.00228C42.2205 3.01206 42.0644 3.05319 41.9208 3.12331L6.27163 20.518C2.12056 22.4438 0.696104 24.9386 0.231832 26.6983C0.117458 27.1432 0.0479471 27.5984 0.0243393 28.0571L0 28.0632V84.7062H0.00730177C0.00540953 86.2903 0.50512 87.8344 1.4348 89.1171C3.11786 91.4731 6.6069 93.0022 10.9405 93.0022C14.4343 92.9476 17.8691 92.0923 20.9805 90.502C29.7876 86.1538 57.1414 72.4909 57.4164 72.3552C57.615 72.2552 57.7824 72.1026 57.9004 71.9141C58.0184 71.7257 58.0825 71.5084 58.0857 71.2861H58.0906V14.8798L58.0815 14.8768Z" fill="#2845AE"/>
<path d="M53.039 15.5192L40.4239 6.56238L7.31639 22.7158C4.68836 23.9327 3.05702 25.5227 2.58544 27.3201C2.415 28.0202 2.40123 28.7493 2.54512 29.4553C2.68901 30.1613 2.98701 30.8268 3.41785 31.4043C5.45322 34.2532 11.5831 35.3186 18.0269 32.8306C18.3525 33.2807 18.5283 33.8218 18.5295 34.3773V59.0744C18.5297 59.1224 18.5458 59.1689 18.5754 59.2067C18.6049 59.2445 18.6462 59.2713 18.6928 59.2831C18.7393 59.2948 18.7884 59.2907 18.8323 59.2714C18.8762 59.2521 18.9125 59.2188 18.9354 59.1766L21.5987 54.2333C21.6143 54.2045 21.6362 54.1796 21.6628 54.1605C21.6895 54.1414 21.7201 54.1286 21.7524 54.1231C21.7847 54.1176 21.8178 54.1195 21.8493 54.1287C21.8808 54.1379 21.9097 54.1541 21.934 54.1761L24.5693 56.5796C24.6002 56.6079 24.6386 56.6265 24.6799 56.6333C24.7212 56.6401 24.7635 56.6347 24.8018 56.6178C24.84 56.6009 24.8726 56.5732 24.8954 56.5381C24.9181 56.503 24.9302 56.462 24.9301 56.4202V31.17C24.9287 30.6614 24.7808 30.1639 24.5042 29.737C33.0406 25.4996 46.785 18.6414 53.039 15.5192Z" fill="#5493F7"/>
<path d="M31.4514 41.3732L45.7976 34.1134V31.3764L31.4514 38.6362V41.3732Z" fill="#5493F7"/>
<path d="M141.801 34.7384C131.577 34.7384 124.395 43.027 124.395 53.2496C124.395 64.0244 132.407 71.4843 142.906 71.4843C149.261 71.4843 153.958 68.9982 157.273 64.8531L151.471 59.8801C148.709 62.367 146.222 63.4722 142.903 63.4722C138.483 63.4722 135.443 60.9853 134.335 56.5652H158.925V53.8018C158.931 43.8558 153.682 34.7384 141.801 34.7384ZM134.065 50.2105C134.894 45.7897 137.657 42.7506 141.801 42.7506C145.945 42.7506 148.709 45.7897 149.261 50.2105H134.065Z" fill="#2845AE"/>
<path d="M201.202 42.474V35.2906H191.256V70.6555H201.202V57.6703C201.202 49.3817 205.347 45.2374 211.978 45.2374H212.53V34.7383C206.452 34.464 203.136 37.501 201.202 42.474Z" fill="#2845AE"/>
<path d="M127.711 24.5158H89.583V33.9096H103.673L103.398 70.6556H113.62V33.9096H127.711V24.5158Z" fill="#2845AE"/>
<path d="M175.232 42.474V35.2906H165.288V70.6555H175.235V57.6703C175.235 49.3817 179.379 45.2374 186.01 45.2374H186.563V34.7383C180.48 34.464 177.168 37.501 175.232 42.474Z" fill="#2845AE"/>
<path d="M230.213 35.0149C225.553 34.9329 220.932 35.8761 216.677 37.7775L219.164 45.5132C222.235 44.2621 225.517 43.6058 228.833 43.5793C233.806 43.5793 236.293 45.7897 236.293 49.934V50.4869C233.538 49.5351 230.64 49.0676 227.725 49.1053C219.437 49.1053 213.635 52.6966 213.635 60.433C213.635 67.34 219.161 71.2078 225.515 71.2078C230.488 71.2078 233.803 69.5518 236.29 66.7877V70.6556H245.96V50.2105C245.96 45.5132 244.855 41.6425 242.091 38.8827C239.607 36.3958 235.739 35.0149 230.213 35.0149ZM236.568 58.2241C236.568 61.8161 233.529 64.3023 228.832 64.0258C225.52 64.0258 223.307 62.6449 223.307 59.8815C223.307 56.5695 226.069 54.9085 230.213 54.9085C232.409 54.8788 234.583 55.3514 236.568 56.2901V58.2241Z" fill="#2845AE"/>
<path d="M379.407 54.3547C375.539 53.2495 371.948 52.1443 371.948 49.3816C371.948 46.8947 374.158 45.2373 377.473 45.2373C380.236 45.2373 383.275 46.3425 386.041 47.9999L387.975 44.6843C384.901 42.5225 381.233 41.3655 377.476 41.3723C371.674 41.3723 367.53 44.6843 367.53 49.6603C367.53 55.1863 372.779 56.5679 377.2 57.9489C381.068 58.7783 384.383 59.8828 384.383 62.9219C384.383 65.9611 381.897 67.6192 378.305 67.6192C374.675 67.6037 371.161 66.3348 368.358 64.0271L366.148 67.067C369.744 69.7399 374.101 71.1919 378.581 71.2106C384.383 71.2106 388.805 68.1715 388.805 62.6426C388.801 57.3938 383.828 55.7356 379.407 54.3547Z" fill="#2845AE"/>
<path d="M352.883 67.6164C346.805 67.6164 342.108 62.6434 342.108 56.2887C342.108 49.934 346.805 44.9609 352.607 44.9609C356.475 44.9609 359.238 46.8948 361.448 49.3817L364.211 46.3426C361.448 43.3035 358.133 41.0931 352.607 41.0931C344.039 41.0931 337.688 48 337.688 56.2887C337.688 64.5773 344.042 71.4843 352.607 71.2078C358.133 71.2078 361.448 68.9981 364.487 65.6825L361.723 63.1956C359.514 65.6825 356.475 67.6164 352.883 67.6164Z" fill="#2845AE"/>
<path d="M279.391 31.4227H265.855V70.6555H279.391C291.548 70.6555 300.113 62.0875 300.113 51.0391C300.113 39.9907 291.824 31.4227 279.391 31.4227ZM279.391 66.5112H270.274V35.567H279.391C289.338 35.567 295.692 42.474 295.692 51.0391C295.692 59.88 289.338 66.5112 279.391 66.5112Z" fill="#2845AE"/>
<path d="M319.453 41.093C317.45 41.0639 315.461 41.4371 313.604 42.1905C311.748 42.9439 310.061 44.0621 308.645 45.4791C307.228 46.896 306.11 48.5828 305.357 50.4395C304.604 52.2963 304.232 54.2852 304.261 56.2886C304.261 64.5773 310.615 71.4842 319.453 71.2077C321.443 71.2272 323.417 70.8521 325.261 70.1041C327.105 69.3561 328.782 68.2501 330.196 66.85C331.61 65.4498 332.732 63.7834 333.498 61.9468C334.264 60.1103 334.658 58.1402 334.658 56.1504C334.658 54.1605 334.264 52.1904 333.498 50.3539C332.732 48.5174 331.61 46.8509 330.196 45.4508C328.782 44.0506 327.105 42.9446 325.261 42.1966C323.417 41.4487 321.443 41.0736 319.453 41.093ZM319.453 67.6164C313.375 67.6164 308.678 62.6433 308.678 56.2886C308.678 49.9339 312.822 44.9609 319.177 44.9609C325.255 44.9609 329.952 49.9339 329.952 56.2886C329.952 62.3669 325.531 67.6164 319.453 67.6164Z" fill="#2845AE"/>
</svg>
