<svg width="18" xmlns="http://www.w3.org/2000/svg" xml:space="preserve" viewBox="0 0 20 20"><path fill="#1e1e1e" d="M0 0h20v20H0z" opacity="0"/><path fill="#8d8d8d" fill-rule="evenodd" d="M10.4 1.7c-4.8 0-8.8 3.9-8.8 8.8 0 3.8 2.5 7.1 6 8.2.4.1.6-.2.6-.4v-1.6c-2.4.5-2.9-1-2.9-1-.4-1-1-1.2-1-1.2-.8-.5.1-.5.1-.5.9.1 1.3.9 1.3.9.8 1.3 2 .9 2.5.8.1-.6.3-.9.6-1.2-1.9-.2-4-1-4-4.3 0-.9.3-1.7.9-2.3 0-.6-.4-1.4.1-2.6 0 0 .8-.2 2.4.9.7-.2 1.5-.3 2.2-.4.8 0 1.5.1 2.2.3C14.2 5 15 5.3 15 5.3c.5 1.2.2 2.1.1 2.3.6.6.9 1.4.9 2.3 0 3.3-2 4.1-4 4.3.3.2.6.8.6 1.6v2.4c0 .2.2.5.6.4 3.5-1.2 5.9-4.4 5.9-8.2 0-4.8-3.9-8.7-8.7-8.7z" clip-rule="evenodd"/></svg>
