<svg width="18" xmlns="http://www.w3.org/2000/svg" xml:space="preserve" viewBox="0 0 20 20"><path fill="#1e1e1e" d="M0 0h20v20H0z" opacity="0"/><path fill="#8d8d8d" d="M18.7 5c-.7.2-1.3.5-2 .6.8-.4 1.2-1.1 1.5-1.9-.7.4-1.4.7-2.2.8-.5-.8-1.4-1.2-2.4-1.2-1.9 0-3.5 1.6-3.5 3.5 0 .2 0 .5.1.8-3-.1-5.6-1.5-7.3-3.6-.3.5-.5 1.1-.5 1.8C2.4 7 3 8 4 8.7c-.6 0-1.1-.2-1.6-.4v.1c0 1.7 1.2 3.1 2.8 3.4-.3.1-.6.1-.9.1-.2 0-.4 0-.7-.1.4 1.3 1.7 2.3 3.2 2.4-1.2.9-2.7 1.5-4.3 1.5-.2 0-.6 0-.8-.1 1.6 1 3.4 1.6 5.3 1.6 6.4 0 9.9-5.3 9.9-9.9v-.5c.8-.6 1.3-1.1 1.8-1.8z"/></svg>
