<svg xmlns="http://www.w3.org/2000/svg" viewBox="0 0 600 600"><defs><style>.cls-1{fill:#0e3ca5;}.cls-2{fill:#5493f7;}</style></defs><g id="Layer_1" data-name="Layer 1"><g id="Symbol_terra"><path class="cls-1" d="M261.21,463.08c15.19,56.2,69.71,99.1,97.24,97.33,1-.06,104.43-19.35,161.06-114,44.08-73.64,29.07-144.74-30.88-146.29C467.07,301.72,232.25,356,261.21,463.08"/><path class="cls-1" d="M483.05,102l-.06,0,.09,0a263.1,263.1,0,0,0-277.29-40,155.52,155.52,0,0,0-16.68,8.16c-3.69,2-7.38,3.92-11,6.06l.88.27a119.75,119.75,0,0,0-27.77,26.28c-75.52,99.77,177.58,172.28,312.9,172.51C526.4,319.87,543.88,149.35,483.05,102Z"/><path class="cls-2" d="M221,104c-34.76,52.25-150.59,89.08-169.63,83.35l-.13-.25q1.17-2.35,2.38-4.7a278.82,278.82,0,0,1,82.58-96.36q10.69-7.83,22.14-14.65c16.21-9.39,32.83-10,38.29-10.2,51.58,1,24.64,42.39,24.37,42.81"/><path class="cls-2" d="M192.52,473.35c2.5,16.43-.06,81.28-3.42,86.75-2.9.18-8.92.55-26.37-9.24a278.87,278.87,0,0,1-86.52-77.22A277.66,277.66,0,0,1,36.85,222.22q1.38-4.18,2.91-8.3l0,0c20,26.6,43.12,50.64,62.79,77.5,18.72,25.57,44.48,67.25,49.73,76.16C184.85,422.85,190,457,192.52,473.35"/><path class="cls-2" d="M577.29,309.86A276.61,276.61,0,0,1,558,411.72c-32.65,35.1-252.87-51.31-255-52.26C272.84,346.27,181.17,306.11,172.9,243,161,152.26,345.12,89,426,86.62c9.7.12,39.22.46,56.44,14.44a276.65,276.65,0,0,1,94.81,208.8"/><path class="cls-2" d="M428.23,555.81c-24,11.21-50.44,3.05-43.57-20.33,13.18-44.89,128.29-90.92,153.71-93.41,3.14-.31,4.47,1.82,3.08,4.26A280.1,280.1,0,0,1,428.23,555.81"/></g></g></svg>