<svg id="e74c79ea-9111-4073-8dca-5b7831d7ae65" data-name="Layer 1" xmlns="http://www.w3.org/2000/svg" viewBox="0 0 95 95"><path d="M38.34,38.548c-.332-.553-1.917-3.133-3.1-4.718-1.216-1.659-2.654-3.17-3.907-4.829-.074.184-.111.332-.185.516a16.38,16.38,0,0,0-.663,2.654,17.847,17.847,0,0,0,0,5.6,16.354,16.354,0,0,0,.663,2.654,15.962,15.962,0,0,0,1.032,2.47,17.759,17.759,0,0,0,1.4,2.249,15.177,15.177,0,0,0,1.733,2.027,14.913,14.913,0,0,0,1.99,1.733c.553.405,1.106.737,1.659,1.069,1.069.627,1.438.59,1.622.59a24.192,24.192,0,0,0,.221-5.382A17.81,17.81,0,0,0,38.34,38.548Z" style="fill:#459CF4"/><path d="M58.909,22.071A16.716,16.716,0,0,0,48.293,18.2a16.482,16.482,0,0,0-6.636,1.4l-.011.005a4.746,4.746,0,0,0-.542-.042,4.937,4.937,0,0,0-2.4.627c-.442.294-.921.589-1.364.921a18.489,18.489,0,0,0-2.027,1.733,14.913,14.913,0,0,0-1.733,1.99,14.688,14.688,0,0,0-1.4,2.286c-.036.11-.11.184-.147.3.684.207,3.257-.425,5.759-1.595a7,7,0,0,0,2.4,2.427,4.253,4.253,0,0,0-.566,2.67c.516,3.907,6.193,6.414,8.073,7.225.014.007.169.069.429.169A9.857,9.857,0,0,0,45.6,40.65a4.525,4.525,0,0,0-.775,3.981c1,3.649,4.387,6.267,6.193,6.267h.111a12.543,12.543,0,0,0,2-.582,2.419,2.419,0,0,0,2.353-.008,17.42,17.42,0,0,0,7.041-6.82c.11-.147,0-.258-.185-.258a5.523,5.523,0,0,0-.819.185,13.053,13.053,0,0,0,.747-1.538,2.023,2.023,0,0,0,1.289-.49,17.749,17.749,0,0,0,1.18-6.341,17.236,17.236,0,0,0-5.121-12.255A4.369,4.369,0,0,0,58.909,22.071ZM41.068,27.038a5.724,5.724,0,0,1-1.959-1.9,10.039,10.039,0,0,0,3.47-2.887,2.668,2.668,0,0,0,.449-1.595,16.294,16.294,0,0,1,5.265-.985,15.008,15.008,0,0,1,6.574,1.537C50.961,21.49,44.074,23.692,41.068,27.038ZM60.162,42.9a12.95,12.95,0,0,1-.953,1.359c-2.513,1.061-5.584,2.8-6.316,4.555a12.414,12.414,0,0,1-1.873.574c-1.032-.037-3.907-2.064-4.755-5.161a3.14,3.14,0,0,1,.553-2.728,9.605,9.605,0,0,1,3.054-2.541c2.788,1,7.643,2.6,10.823,2.9C60.536,42.2,60.363,42.551,60.162,42.9Z" style="fill:#459CF4"/><path d="M16.644,18.359l-5.313-3.325a2.5,2.5,0,0,0-2.652,4.239L13.991,22.6a2.5,2.5,0,1,0,2.653-4.238Z" style="fill:#459CF4"/><path d="M13.991,48.369,8.679,51.694a2.5,2.5,0,1,0,2.652,4.238l5.313-3.324a2.5,2.5,0,1,0-2.653-4.239Z" style="fill:#459CF4"/><path d="M15.319,35.352a2.5,2.5,0,0,0-2.5-2.5H6.8a2.5,2.5,0,0,0,0,5h6.024A2.5,2.5,0,0,0,15.319,35.352Z" style="fill:#459CF4"/><path d="M79.685,22.978a2.488,2.488,0,0,0,1.324-.381l5.312-3.324a2.5,2.5,0,0,0-2.652-4.239l-5.313,3.325a2.5,2.5,0,0,0,1.329,4.619Z" style="fill:#459CF4"/><path d="M86.321,51.694l-5.312-3.325a2.5,2.5,0,1,0-2.653,4.239l5.313,3.324a2.5,2.5,0,0,0,2.652-4.238Z" style="fill:#459CF4"/><path d="M88.205,32.852H82.181a2.5,2.5,0,0,0,0,5h6.024a2.5,2.5,0,0,0,0-5Z" style="fill:#459CF4"/><path d="M67.348,14.334a28.988,28.988,0,0,0-48.79,19.49A29.063,29.063,0,0,0,29.669,58.317,4.145,4.145,0,0,1,31.286,61.6V74.726a7.137,7.137,0,0,0,7.13,7.13h.611v.684A7.984,7.984,0,0,0,47,90.515h1.412a7.983,7.983,0,0,0,7.974-7.975v-.684h.185a7.137,7.137,0,0,0,7.13-7.13V69.258h.011V61.6a4.121,4.121,0,0,1,1.56-3.243,28.99,28.99,0,0,0,2.074-44.027ZM51.388,82.54a2.977,2.977,0,0,1-2.974,2.975H47a2.978,2.978,0,0,1-2.975-2.975v-.684h7.361ZM58.7,74.726a2.132,2.132,0,0,1-2.13,2.13H38.416a2.132,2.132,0,0,1-2.13-2.13V69.258H58.7Zm3.5-20.314A9.16,9.16,0,0,0,58.714,61.6v2.654H36.286V61.6a9.117,9.117,0,0,0-3.539-7.224A23.988,23.988,0,0,1,45.964,11.522a23.988,23.988,0,0,1,16.242,42.89Z" style="fill:#459CF4"/></svg>