<svg id="a4ca8a55-9a4f-4ea7-850f-570ce1a77af4" data-name="Layer 1" xmlns="http://www.w3.org/2000/svg" viewBox="0 0 95 95"><path d="M75.1,44.443V41.649a27.81,27.81,0,0,0-54.882-6.366,23.105,23.105,0,0,0,5.052,45.651h7.291c12.181.156,19.949.226,25.188.226,5.591,0,8.578-.08,9.921-.263l6.911.037A18.249,18.249,0,0,0,75.1,44.443Zm-.519,4.994a13.249,13.249,0,0,1,0,26.5H65.176v.158c-6.268.127-23.9-.047-32.579-.158H25.273a18.105,18.105,0,0,1-2.582-36.025l1.811-.258.3-1.8a22.808,22.808,0,0,1,45.3,3.8v7.788Z" style="fill:#459CF4"/><path d="M60.625,44.943a15.955,15.955,0,0,0-30.048,6.52l-.04.537H35.16l.035-.463A11.392,11.392,0,0,1,46.511,41.049a11.253,11.253,0,0,1,10.725,7.529l-3.177,3.4H64.23L63.553,41.8Z" style="fill:#459CF4"/><path d="M57.819,54.971A11.392,11.392,0,0,1,46.5,65.458,11.254,11.254,0,0,1,35.778,57.93l3.177-3.406H28.785l.676,10.18,2.928-3.14a15.955,15.955,0,0,0,30.048-6.519l.04-.537H57.854Z" style="fill:#459CF4"/></svg>