<svg id="fae29872-1add-4734-859d-97e0a530f8c6" data-name="Layer 1" xmlns="http://www.w3.org/2000/svg" viewBox="0 0 95 95"><path d="M10.52,83.8V14.946a1.165,1.165,0,0,1,1.166-1.165H86.4a1.164,1.164,0,0,1,1.165,1.165V67.2A1.165,1.165,0,0,1,86.4,68.366l-54.284-.117L12.368,84.74A1.165,1.165,0,0,1,10.52,83.8Zm4-66.015V78.249l16.3-14,52.744.117V17.781Z" style="fill:#275bde"/><path d="M50.534,29.826H47.075a.8.8,0,0,1-.8-.8V25.435a.8.8,0,0,1,.8-.8h3.459a.8.8,0,0,1,.8.8v3.591A.8.8,0,0,1,50.534,29.826Z" style="fill:#275bde"/><path d="M50.534,56.631H47.075a.8.8,0,0,1-.8-.8V34.789a.8.8,0,0,1,.8-.8h3.459a.8.8,0,0,1,.8.8V55.83A.8.8,0,0,1,50.534,56.631Z" style="fill:#275bde"/></svg>