<svg id="ba098c14-ad4e-4543-be19-7fac7e326cc2" data-name="Layer 1" xmlns="http://www.w3.org/2000/svg" viewBox="0 0 95 95"><path d="M57.544,42l-9.168,4.78L39.208,42a.78.78,0,0,0-.72,1.383L47.6,48.127v10.66a.78.78,0,0,0,1.559,0V48.127l9.109-4.748A.78.78,0,0,0,57.544,42Z" style="fill:#275bde"/><path d="M62.081,16.783a.78.78,0,0,0,.332,1.051l9.108,4.749V33.242a.78.78,0,1,0,1.559,0V22.583l9.109-4.749a.779.779,0,1,0-.72-1.382L72.3,21.231l-9.167-4.779A.778.778,0,0,0,62.081,16.783Z" style="fill:#275bde"/><path d="M86.84,12.579,73.022,4.6a1.756,1.756,0,0,0-1.757,0L57.448,12.579A1.756,1.756,0,0,0,56.57,14.1V30.055a1.755,1.755,0,0,0,.878,1.521l3.469,2-2.786,1.783L49.1,30.146a1.754,1.754,0,0,0-1.756,0l-9.125,5.269-2.828-1.759,3.6-2.08a1.755,1.755,0,0,0,.878-1.521V14.1a1.756,1.756,0,0,0-.878-1.521L25.173,4.6a1.756,1.756,0,0,0-1.757,0L9.6,12.579A1.756,1.756,0,0,0,8.72,14.1V30.055A1.755,1.755,0,0,0,9.6,31.576l13.818,7.978a1.76,1.76,0,0,0,1.757,0l7.269-4.2,2.828,1.758-1.747,1.009a1.753,1.753,0,0,0-.878,1.521V55.6a1.756,1.756,0,0,0,.878,1.521l1.822,1.052L32.566,59.96l-7.393-4.269a1.756,1.756,0,0,0-1.757,0L9.6,63.668A1.756,1.756,0,0,0,8.72,65.19V81.145A1.756,1.756,0,0,0,9.6,82.666l13.818,7.977a1.753,1.753,0,0,0,1.757,0L38.99,82.666a1.756,1.756,0,0,0,.878-1.521V65.19a1.756,1.756,0,0,0-.878-1.522l-3.5-2.021,2.778-1.787L47.341,65.1a1.751,1.751,0,0,0,1.756,0l8.679-5.01,2.4,1.493-3.615,2.087a1.757,1.757,0,0,0-.879,1.522V81.145a1.757,1.757,0,0,0,.879,1.521l13.817,7.977a1.753,1.753,0,0,0,1.757,0l13.817-7.977a1.757,1.757,0,0,0,.879-1.521V65.19a1.757,1.757,0,0,0-.879-1.522L72.135,55.691a1.756,1.756,0,0,0-1.757,0L63.122,59.88l-2.4-1.493,2.194-1.266a1.756,1.756,0,0,0,.878-1.521V39.645a1.753,1.753,0,0,0-.878-1.521l-1.857-1.072,2.786-1.783,7.421,4.285a1.76,1.76,0,0,0,1.757,0L86.84,31.576a1.757,1.757,0,0,0,.878-1.521V14.1A1.758,1.758,0,0,0,86.84,12.579ZM24.294,36,12.233,29.041V15.114L24.294,8.151l12.061,6.963V29.041ZM36.355,80.13,24.294,87.094,12.233,80.13V66.2l12.061-6.963L36.355,66.2Zm34.9-20.889L83.318,66.2V80.13L71.257,87.094,59.2,80.13V66.2ZM48.219,61.549,36.158,54.586V40.659L48.219,33.7,60.28,40.659V54.586ZM84.205,29.041,72.144,36,60.083,29.041V15.114L72.144,8.151l12.061,6.963Z" style="fill:#275bde"/><path d="M33.619,16.452l-9.168,4.779-9.168-4.779a.779.779,0,1,0-.72,1.382l9.108,4.749V33.242a.78.78,0,1,0,1.559,0V22.583l9.109-4.749a.779.779,0,1,0-.72-1.382Z" style="fill:#275bde"/><path d="M61.525,68.924l9.109,4.748v10.66a.78.78,0,0,0,1.559,0V73.672L81.3,68.924a.78.78,0,1,0-.721-1.383L71.413,72.32l-9.167-4.779a.78.78,0,1,0-.721,1.383Z" style="fill:#275bde"/><path d="M14.232,67.872a.78.78,0,0,0,.331,1.052l9.108,4.748v10.66a.78.78,0,0,0,1.559,0V73.672l9.109-4.748a.78.78,0,0,0-.72-1.383L24.451,72.32l-9.168-4.779A.777.777,0,0,0,14.232,67.872Z" style="fill:#275bde"/></svg>