<svg id="b75fb8e0-308e-437f-8074-111d3ea22b3d" data-name="Layer 1" xmlns="http://www.w3.org/2000/svg" viewBox="0 0 95 95"><path d="M75.272,63.493A8.12,8.12,0,0,0,64.209,53.379a.372.372,0,0,0-.1.6l5.15,5.15-3.31,3.31L60.8,57.288a.372.372,0,0,0-.6.1A8.119,8.119,0,0,0,70.319,68.447l8,8a1.179,1.179,0,0,0,1.667,0l3.286-3.286a1.178,1.178,0,0,0,0-1.667Z" style="fill:#275bde"/><path d="M12.335,19.881A3.169,3.169,0,1,0,15.5,23.049,3.168,3.168,0,0,0,12.335,19.881Z" style="fill:#275bde"/><circle cx="22.287" cy="23.049" r="3.169" style="fill:#275bde"/><path d="M81.271,44.575V19.969a7.869,7.869,0,0,0-7.86-7.86H8.921a7.868,7.868,0,0,0-7.859,7.86V69.512a7.867,7.867,0,0,0,7.859,7.859H53.487a22.228,22.228,0,1,0,27.784-32.8ZM5.562,19.969a3.363,3.363,0,0,1,3.359-3.36h64.49a3.363,3.363,0,0,1,3.36,3.36V29.43H5.562Zm45.49,52.9H8.921a3.362,3.362,0,0,1-3.359-3.359V33.93H76.771V43A22.222,22.222,0,0,0,51.052,72.871ZM71.7,82.379A17.736,17.736,0,1,1,89.438,64.643,17.755,17.755,0,0,1,71.7,82.379Z" style="fill:#275bde"/></svg>