<svg id="ac321800-dd8b-4b20-9d9e-c1c95a0b4284" data-name="Layer 1" xmlns="http://www.w3.org/2000/svg" viewBox="0 0 95 95"><path d="M14.393,34.035h57.5l-6.5,6.7a3.653,3.653,0,0,0,.1,5.2,3.535,3.535,0,0,0,5.1-.1l12.2-12.6a3.552,3.552,0,0,0,.6-5.1c-.2-.2-.4-.5-.7-.6l-12-12.6a3.631,3.631,0,0,0-2.6-1.1,3.671,3.671,0,0,0-3.7,3.6,3.631,3.631,0,0,0,1.1,2.6l6.5,6.7h-57.5a3.757,3.757,0,0,0-3.7,3.7A3.585,3.585,0,0,0,14.393,34.035Z" style="fill:#275bde;fill-rule:evenodd"/><path d="M80.607,60.965h-57.5l6.5-6.7a3.653,3.653,0,0,0-.1-5.2,3.535,3.535,0,0,0-5.1.1l-12.2,12.6a3.552,3.552,0,0,0-.6,5.1c.2.2.4.5.7.6l12,12.6a3.631,3.631,0,0,0,2.6,1.1,3.671,3.671,0,0,0,3.7-3.6,3.631,3.631,0,0,0-1.1-2.6l-6.5-6.7h57.5a3.757,3.757,0,0,0,3.7-3.7A3.585,3.585,0,0,0,80.607,60.965Z" style="fill:#275bde;fill-rule:evenodd"/></svg>