<svg id="aba0ce89-7e56-4d5e-9eb1-f9a359cc31e3" data-name="Layer 1" xmlns="http://www.w3.org/2000/svg" viewBox="0 0 95 95"><path d="M82.727,33.655A37.226,37.226,0,0,0,47.594,8.3c-21.868,0-35.481,17.065-36.926,36.258h5.983C17.862,28.472,31.249,14.3,47.594,14.3A31.186,31.186,0,0,1,77.868,38.514l-6.227,6.228h16.5v-16.5Z" style="fill:#275bde"/><path d="M47.531,80.7A31.185,31.185,0,0,1,17.269,56.536l6.091-6.09H6.86v16.5l5.554-5.554A37.226,37.226,0,0,0,47.531,86.7c21.868,0,35.481-17.065,36.926-36.258H78.474C77.263,66.528,63.876,80.7,47.531,80.7Z" style="fill:#275bde"/></svg>