<svg id="e40b71e7-c524-4318-b594-ccfb048693b6" data-name="Layer 1" xmlns="http://www.w3.org/2000/svg" viewBox="0 0 95 95"><path d="M61.453,55.158a.433.433,0,0,0-.611-.019l-1.577,1.485a.433.433,0,0,1-.611-.018l-2.563-2.722a.433.433,0,0,1,.019-.611l1.577-1.485a.433.433,0,0,0,.019-.611L53.34,46.539a2.192,2.192,0,0,0-3.1-.093l-2.933,2.76L26.754,27.372l-2.1-4.352-7.546-6.339-3.488,3.283L19.5,27.879l4.217,2.356L44.267,52.07l-2.758,2.6a2.193,2.193,0,0,0-.093,3.1L45.781,62.4a.433.433,0,0,0,.611.019l1.578-1.485a.433.433,0,0,1,.611.018l2.562,2.722a.433.433,0,0,1-.019.611l-1.577,1.485a.432.432,0,0,0-.018.611L68.721,86.77a3.53,3.53,0,0,0,4.99.151l6.783-6.386a3.53,3.53,0,0,0,.151-4.99Z" style="fill:#275bde"/><path d="M15.108,74.838a5.018,5.018,0,1,0,5.167-4.865A5.018,5.018,0,0,0,15.108,74.838Z" style="fill:#275bde"/><path d="M46.192,44.373l9.826-9.249L55.7,34.113a12.469,12.469,0,0,1,16.041-15.63l-9.321,8.773,7.906,8.4,9.326-8.779a12.5,12.5,0,0,1-3.422,12.549,12.629,12.629,0,0,1-13.153,2.523l-.99-.383-5.3,4.986,2.31,2.454,3.78-3.559A15.842,15.842,0,0,0,82.232,24.105a2.313,2.313,0,0,0-1.658-1.353,2.357,2.357,0,0,0-2.086.586l-8.023,7.554L67.179,27.4,75.2,19.849A2.343,2.343,0,0,0,75.91,17.8a2.311,2.311,0,0,0-1.255-1.732A15.839,15.839,0,0,0,52.192,34.1l-8.31,7.822Z" style="fill:#275bde"/><path d="M41.221,61.205,28.813,72.886l.1.848a9.056,9.056,0,1,1-15.188-5.476,9.054,9.054,0,0,1,8.333-2.215l.884.212L39.51,50.664,37.2,48.211,21.933,62.583a12.179,12.179,0,0,0-1.621-.156,12.431,12.431,0,0,0-.75,24.851c.127,0,.253.006.379.006A12.447,12.447,0,0,0,32.362,75.227c.01-.332,0-.673-.018-1.038L43.53,63.658Z" style="fill:#275bde"/></svg>