<svg id="b2f2d978-a682-402f-8e91-5768af997f2f" data-name="Layer 1" xmlns="http://www.w3.org/2000/svg" viewBox="0 0 95 95"><path d="M43.179,33.729a1.5,1.5,0,0,0,1.5-1.5V19.713a1.5,1.5,0,0,0-1.5-1.5H41.3V12.276a3.528,3.528,0,0,0-3.524-3.525H8.425A3.528,3.528,0,0,0,4.9,12.276V39.667a3.528,3.528,0,0,0,3.524,3.525H37.778A3.528,3.528,0,0,0,41.3,39.667V33.729Zm-1.5-3H28V21.213H41.679ZM38.3,39.667a.525.525,0,0,1-.524.525H8.425a.525.525,0,0,1-.524-.525V12.276a.525.525,0,0,1,.524-.525H37.778a.525.525,0,0,1,.524.525v5.937h-10.4A2.914,2.914,0,0,0,25,21.124v9.7a2.914,2.914,0,0,0,2.911,2.91H38.3Z" style="fill:#275bde"/><circle cx="32.849" cy="25.986" r="2.416" style="fill:#275bde"/><path d="M88.6,61.271H86.723V55.333A3.528,3.528,0,0,0,83.2,51.808H53.846a3.528,3.528,0,0,0-3.524,3.525V82.724a3.528,3.528,0,0,0,3.524,3.525H83.2a3.528,3.528,0,0,0,3.524-3.525V76.787H88.6a1.5,1.5,0,0,0,1.5-1.5V62.771A1.5,1.5,0,0,0,88.6,61.271ZM83.723,82.724a.525.525,0,0,1-.524.525H53.846a.525.525,0,0,1-.524-.525V55.333a.525.525,0,0,1,.524-.525H83.2a.525.525,0,0,1,.524.525v5.938h-10.4a2.914,2.914,0,0,0-2.911,2.91v9.7a2.914,2.914,0,0,0,2.911,2.911h10.4ZM87.1,73.787H73.415V64.271H87.1Z" style="fill:#275bde"/><path d="M78.269,71.459a2.416,2.416,0,1,0-2.416-2.416A2.416,2.416,0,0,0,78.269,71.459Z" style="fill:#275bde"/><path d="M20.564,46.89a1.921,1.921,0,0,0-1.919,1.919v.11a1.872,1.872,0,0,0,1.919,1.864,1.973,1.973,0,0,0,1.919-1.974A1.921,1.921,0,0,0,20.564,46.89Z" style="fill:#275bde"/><path d="M20.564,68.364a1.921,1.921,0,0,0-1.919,1.918v.112a1.871,1.871,0,0,0,1.919,1.863,1.974,1.974,0,0,0,1.919-1.975A1.921,1.921,0,0,0,20.564,68.364Z" style="fill:#275bde"/><path d="M20.564,61.2a1.921,1.921,0,0,0-1.919,1.919v.112a1.871,1.871,0,0,0,1.919,1.863,1.974,1.974,0,0,0,1.919-1.975A1.921,1.921,0,0,0,20.564,61.2Z" style="fill:#275bde"/><path d="M20.564,54.031a1.921,1.921,0,0,0-1.919,1.919v.111a1.871,1.871,0,0,0,1.919,1.863,1.973,1.973,0,0,0,1.919-1.974A1.921,1.921,0,0,0,20.564,54.031Z" style="fill:#275bde"/><path d="M28.228,68.364a1.921,1.921,0,0,0-1.918,1.918v.112a1.871,1.871,0,0,0,1.918,1.863,1.974,1.974,0,0,0,1.919-1.975A1.921,1.921,0,0,0,28.228,68.364Z" style="fill:#275bde"/><path d="M35.893,68.364a1.921,1.921,0,0,0-1.919,1.918v.112a1.871,1.871,0,0,0,1.919,1.863,1.973,1.973,0,0,0,1.918-1.975A1.921,1.921,0,0,0,35.893,68.364Z" style="fill:#275bde"/><path d="M43.557,68.364a1.921,1.921,0,0,0-1.919,1.918v.112a1.871,1.871,0,0,0,1.919,1.863,1.974,1.974,0,0,0,1.919-1.975A1.921,1.921,0,0,0,43.557,68.364Z" style="fill:#275bde"/><path d="M72.094,48.836a1.921,1.921,0,0,0,1.919-1.919v-.11a1.872,1.872,0,0,0-1.919-1.864,1.974,1.974,0,0,0-1.919,1.974A1.921,1.921,0,0,0,72.094,48.836Z" style="fill:#275bde"/><path d="M72.094,27.361a1.92,1.92,0,0,0,1.919-1.918v-.111a1.871,1.871,0,0,0-1.919-1.863,1.973,1.973,0,0,0-1.919,1.974A1.92,1.92,0,0,0,72.094,27.361Z" style="fill:#275bde"/><path d="M72.094,34.528a1.92,1.92,0,0,0,1.919-1.918V32.5a1.871,1.871,0,0,0-1.919-1.863,1.973,1.973,0,0,0-1.919,1.974A1.92,1.92,0,0,0,72.094,34.528Z" style="fill:#275bde"/><path d="M72.094,41.694a1.92,1.92,0,0,0,1.919-1.918v-.111A1.871,1.871,0,0,0,72.094,37.8a1.973,1.973,0,0,0-1.919,1.974A1.92,1.92,0,0,0,72.094,41.694Z" style="fill:#275bde"/><path d="M64.8,27.361a1.92,1.92,0,0,0,1.919-1.918v-.111A1.871,1.871,0,0,0,64.8,23.469a1.972,1.972,0,0,0-1.918,1.974A1.92,1.92,0,0,0,64.8,27.361Z" style="fill:#275bde"/><path d="M57.507,27.361a1.92,1.92,0,0,0,1.918-1.918v-.111a1.87,1.87,0,0,0-1.918-1.863,1.973,1.973,0,0,0-1.919,1.974A1.92,1.92,0,0,0,57.507,27.361Z" style="fill:#275bde"/><path d="M50.213,23.469A1.972,1.972,0,0,0,48.3,25.443a1.919,1.919,0,0,0,3.837,0v-.111A1.871,1.871,0,0,0,50.213,23.469Z" style="fill:#275bde"/></svg>