<svg id="a64e93af-bfb1-4fb0-983a-962493a2fb7f" data-name="Layer 1" xmlns="http://www.w3.org/2000/svg" viewBox="0 0 95 95"><path d="M72.644,29.636a35.94,35.94,0,0,0-50.288,0l-1.834,1.807a1.734,1.734,0,0,0,0,2.477l5.717,5.632a.9.9,0,0,0,1.257,0l2.463-2.427a25.073,25.073,0,0,1,35.082,0l2.3,2.266a.9.9,0,0,0,1.257,0l5.717-5.632a1.734,1.734,0,0,0,0-2.477ZM89.555,46.3l-5.088-5.012a1.8,1.8,0,0,0-2.514,0L65.669,57.323a.447.447,0,0,1-.628,0L48.757,41.283h0a1.8,1.8,0,0,0-2.514,0L29.96,57.323a.448.448,0,0,1-.629,0L13.047,41.283a1.8,1.8,0,0,0-2.514,0L5.445,46.3a1.732,1.732,0,0,0,0,2.477l22.943,22.6a1.8,1.8,0,0,0,2.515,0L47.186,55.333a.449.449,0,0,1,.628,0L64.1,71.374a1.8,1.8,0,0,0,2.514,0l22.943-22.6A1.732,1.732,0,0,0,89.555,46.3Z" style="fill:#275bde;fill-rule:evenodd"/></svg>