<svg id="becd2209-1ae6-446a-8fa1-de43e6f2f3f3" data-name="Layer 1" xmlns="http://www.w3.org/2000/svg" viewBox="0 0 95 95"><path d="M85.945,11.3a2.769,2.769,0,0,0-.057-.667c-.009-.042-.025-.081-.036-.122a2.706,2.706,0,0,0-.2-.528c-.027-.054-.053-.107-.084-.16a2.471,2.471,0,0,0-.978-.977c-.052-.031-.105-.057-.159-.084a2.679,2.679,0,0,0-.534-.2c-.039-.01-.075-.025-.115-.034a2.794,2.794,0,0,0-.67-.057c-.053,0-.1.011-.157.015a2.8,2.8,0,0,0-.562.112c-.032.01-.066.008-.1.019L5.559,35.526A2.75,2.75,0,0,0,5.18,40.55l31.8,16.88,16.881,31.8a2.749,2.749,0,0,0,2.428,1.461c.069,0,.138,0,.208-.008a2.748,2.748,0,0,0,2.387-1.832L85.8,12.118c.011-.031.009-.064.019-.1a2.743,2.743,0,0,0,.113-.566C85.935,11.4,85.943,11.352,85.945,11.3Zm-10.75,5.023L38.509,52.014l-26.45-13.59ZM55.838,82.5,42.4,55.9,78.324,19.414Z" style="fill:#275bde"/></svg>