<svg xmlns="http://www.w3.org/2000/svg" id="ad13ea61-3f92-4920-8655-7492c9979ce2" data-name="Layer 1" viewBox="0 0 95 95">
  <path fill="#2043b5" d="M75.312 62.728A8.119 8.119 0 0 0 64.25 52.613a.372.372 0 0 0-.1.6l5.15 5.149-3.31 3.31-5.149-5.15a.373.373 0 0 0-.6.1 8.119 8.119 0 0 0 10.118 11.059l8.005 8.005a1.179 1.179 0 0 0 1.667 0l3.286-3.286a1.178 1.178 0 0 0 0-1.666ZM13 25.441a3.169 3.169 0 1 0-3.168-3.169A3.169 3.169 0 0 0 13 25.441Zm9.955 0a3.169 3.169 0 1 0-3.169-3.169 3.169 3.169 0 0 0 3.169 3.169Z"/>
  <path fill="#2043b5" d="M81.891 43.665v-24.13a8.6 8.6 0 0 0-8.595-8.6H9.567a8.605 8.605 0 0 0-8.6 8.6v48.3a8.605 8.605 0 0 0 8.6 8.595h42.99a22.754 22.754 0 1 0 29.334-32.765ZM9.567 15.94H73.3a3.6 3.6 0 0 1 3.595 3.6v8.68H5.972v-8.685a3.6 3.6 0 0 1 3.595-3.595Zm0 55.488a3.6 3.6 0 0 1-3.595-3.595V33.22h70.919v8.6a22.751 22.751 0 0 0-26.806 29.608Zm62.011 10.281A17.762 17.762 0 1 1 76.891 47v.123h.335a17.754 17.754 0 0 1-5.648 34.588Z"/>
</svg>
