<?xml version="1.0" encoding="utf-8"?>
<!-- Generator: Adobe Illustrator 24.1.0, SVG Export Plug-In . SVG Version: 6.00 Build 0)  -->
<svg version="1.1" id="Layer_1" xmlns="http://www.w3.org/2000/svg" xmlns:xlink="http://www.w3.org/1999/xlink" x="0px" y="0px"
	 viewBox="0 0 93.5 93.5" style="enable-background:new 0 0 93.5 93.5;" xml:space="preserve">
<style type="text/css">
	.st0{fill:none;stroke:#2043B5;stroke-width:5;stroke-linecap:round;stroke-linejoin:round;}
	.st1{fill-rule:evenodd;clip-rule:evenodd;fill:#2043B5;}
	.st2{fill-rule:evenodd;clip-rule:evenodd;fill:#366DCE;}
	.st3{fill-rule:evenodd;clip-rule:evenodd;fill:#2845AE;}
	.st4{fill-rule:evenodd;clip-rule:evenodd;fill:#1B306D;}
	.st5{fill-rule:evenodd;clip-rule:evenodd;fill:#5493F7;}
	.st6{fill-rule:evenodd;clip-rule:evenodd;fill:#76A9F4;}
</style>
<g>
	<g transform="translate(0,-952.36218)">
		<path class="st0" d="M3.5,955.9v86.5H90"/>
	</g>
	<path class="st1" d="M14.3,46.8L14.3,46.8c0,2,1.6,3.6,3.6,3.6c12.9,0,57.5,0,57.5,0l-6.5,6.7c-1.4,1.4-1.4,3.8,0.1,5.2
		c1.4,1.4,3.7,1.4,5.1-0.1l12.2-12.6c1.6-1.2,1.9-3.5,0.6-5.1c-0.2-0.2-0.4-0.5-0.7-0.6L74.2,31.3c-0.7-0.7-1.6-1.1-2.6-1.1
		c-2,0-3.7,1.6-3.7,3.6c0,1,0.4,1.9,1.1,2.6l6.5,6.7H18C16,43.1,14.3,44.8,14.3,46.8z"/>
</g>
<g>
	<path class="st2" d="M185.7,26.5c0-4-2.6-5.9-5.8-4.3l-28.4,14.2c-3.2,1.6-5.8,6.1-5.8,10.1v33.8c0,4,2.6,5.9,5.8,4.3l28.4-14.2
		c3.2-1.6,5.8-6.1,5.8-10.1V26.5L185.7,26.5z"/>
	<path class="st3" d="M147.6,84.7L147.6,84.7l-7-3.5l0,0c-1.3-0.7-2.2-2.3-2.2-4.5V42.9c0-4,2.6-8.5,5.8-10.1l28.4-14.2
		c1.4-0.7,2.6-0.7,3.6-0.2l0,0l7.3,3.7l0,0c-1-0.5-2.3-0.5-3.7,0.2l-28.4,14.2c-3.2,1.6-5.8,6.1-5.8,10.1v33.8
		C145.7,82.5,146.5,84,147.6,84.7L147.6,84.7z"/>
	<path class="st4" d="M182.1,21.6c2.1,0,3.6,1.9,3.6,4.9v0.6l-20.4,39.4l-13.7-12.7l4.3-8.3l9.4,8.7L182.1,21.6L182.1,21.6z"/>
	<polygon class="st5" points="162.2,48.6 158.1,46.6 153.8,55 157.8,57 162.2,48.6 	"/>
	<polygon class="st5" points="167.5,67.6 153.8,55 157.8,57 171.6,69.6 167.5,67.6 	"/>
	<polygon class="st5" points="188,15.8 192.1,17.8 171.6,57.3 168.1,54.1 188,15.8 	"/>
	<polygon class="st6" points="171.6,57.3 192.1,17.8 196.4,21.8 171.6,69.6 157.8,57 162.2,48.6 171.6,57.3 	"/>
</g>
</svg>
