<?xml version="1.0" encoding="utf-8"?>
<!-- Generator: Adobe Illustrator 24.0.0, SVG Export Plug-In . SVG Version: 6.00 Build 0)  -->
<svg version="1.1" id="Layer_1" xmlns="http://www.w3.org/2000/svg" xmlns:xlink="http://www.w3.org/1999/xlink" x="0px" y="0px"
	 viewBox="0 0 2500 2500" style="enable-background:new 0 0 2500 2500;" xml:space="preserve">
<style type="text/css">
	.st0{fill:#2043B5;}
</style>
<path class="st0" d="M1879.3,1720.2h310.4V975L1840,625.3l-219.5,219.5l258.8,258.8V1720.2L1879.3,1720.2z M2190.5,1875.7H1107.9
	l-258.8-258.8l109.7-109.7l213.7,213.7h439.7l-433.2-434l110.5-110.5l433.2,433.2v-439.7L1510,957l108.9-108.9l-538-540.4H0
	l309.5,309.5v0.8h642l226.8,226.8l-331.6,331.6L619.9,949.6v-176H309.5v304.6l537.2,537.2L628.1,1834l349.7,349.7H2500
	L2190.5,1875.7L2190.5,1875.7z"/>
</svg>
