<svg xmlns="http://www.w3.org/2000/svg" id="b4658606-9b18-4fe8-8358-748273046d7c" data-name="Layer 1" viewBox="0 0 95 95">
  <path fill="#2043b5" d="M38.877 50.069c-.319-.533-1.846-3.018-2.982-4.545-1.172-1.6-2.557-3.053-3.764-4.651-.071.178-.106.32-.177.5a15.86 15.86 0 0 0-.639 2.557 17.193 17.193 0 0 0 0 5.4 15.86 15.86 0 0 0 .639 2.557 15.252 15.252 0 0 0 .994 2.378 16.864 16.864 0 0 0 1.352 2.159 14.674 14.674 0 0 0 1.669 1.953 14.293 14.293 0 0 0 1.917 1.669c.533.39 1.065.71 1.6 1.029 1.029.6 1.384.568 1.562.568a23.315 23.315 0 0 0 .213-5.183 17.166 17.166 0 0 0-2.384-6.391Zm20.49-15.176a4.216 4.216 0 0 0-.678-.7 16.107 16.107 0 0 0-10.226-3.723 15.87 15.87 0 0 0-6.39 1.35h-.011a4.635 4.635 0 0 0-.522-.041 4.756 4.756 0 0 0-2.308.6c-.426.284-.887.568-1.314.887a17.824 17.824 0 0 0-1.952 1.669 14.356 14.356 0 0 0-1.666 1.926 13.962 13.962 0 0 0-1.349 2.2c-.036.106-.107.177-.142.284.659.2 3.137-.41 5.546-1.537a6.745 6.745 0 0 0 2.313 2.338 4.089 4.089 0 0 0-.545 2.571c.5 3.764 5.965 6.178 7.775 6.959.014.007.163.067.414.163a9.49 9.49 0 0 0-2.437 2.252 4.355 4.355 0 0 0-.746 3.834c.959 3.515 4.225 6.036 5.965 6.036h.106a12.057 12.057 0 0 0 1.924-.56 2.328 2.328 0 0 0 2.266-.008 16.777 16.777 0 0 0 6.781-6.568c.107-.142 0-.249-.177-.249a5.333 5.333 0 0 0-.79.178 12.41 12.41 0 0 0 .72-1.481 1.952 1.952 0 0 0 1.241-.472A17.08 17.08 0 0 0 64.3 46.7a16.6 16.6 0 0 0-4.933-11.807Zm-19.749 2.264a9.679 9.679 0 0 0 3.342-2.781 2.567 2.567 0 0 0 .433-1.536 15.682 15.682 0 0 1 5.07-.949 14.457 14.457 0 0 1 6.332 1.48c-3.761.269-10.394 2.389-13.29 5.612a5.514 5.514 0 0 1-1.887-1.826Zm13.276 22.8a11.962 11.962 0 0 1-1.8.553c-.994-.035-3.764-1.988-4.58-4.97a3.024 3.024 0 0 1 .532-2.628 9.227 9.227 0 0 1 2.942-2.447 51.952 51.952 0 0 0 10.424 2.793c-.153.334-.32.669-.513 1a12.364 12.364 0 0 1-.919 1.309c-2.423 1.022-5.38 2.694-6.086 4.387Z"/>
  <path fill="#2043b5" d="M85.522 41.853a5.284 5.284 0 0 0-4.889 3.286h-9.912a23.2 23.2 0 0 0-5.3-13.027l7.031-7.031a5.286 5.286 0 1 0-2.828-2.828l-7.016 7.016a23.2 23.2 0 0 0-12.958-5.478v-9.935a5.286 5.286 0 1 0-4 0v9.912a23.192 23.192 0 0 0-13.027 5.3l-7.031-7.028a5.286 5.286 0 1 0-2.828 2.828l7.016 7.016a23.2 23.2 0 0 0-5.48 12.955h-9.933a5.286 5.286 0 1 0 0 4h9.912a23.2 23.2 0 0 0 5.3 13.027L22.551 68.9a5.287 5.287 0 1 0 2.828 2.828l7.021-7.019a23.2 23.2 0 0 0 12.95 5.478v9.935a5.286 5.286 0 1 0 4 0V70.21a23.2 23.2 0 0 0 13.027-5.3l7.031 7.031a5.286 5.286 0 1 0 2.828-2.828l-7.016-7.019a23.2 23.2 0 0 0 5.48-12.955h9.935a5.285 5.285 0 1 0 4.889-7.286ZM47.5 67.29a20.3 20.3 0 1 1 20.3-20.3 20.324 20.324 0 0 1-20.3 20.3Z"/>
</svg>
