<svg xmlns="http://www.w3.org/2000/svg" id="ac12d5b3-a305-4453-9664-9b98f2836f0f" data-name="Layer 1" viewBox="0 0 95 95">
  <path fill="#2043b5" d="M47.5 61.033c-18.112 0-33.233-5.6-36.971-13.075a8 8 0 0 0-.907 3.594v4.302c0 9.206 16.959 16.669 37.878 16.669s37.878-7.463 37.878-16.669v-4.302a8 8 0 0 0-.907-3.594C80.733 55.435 65.612 61.033 47.5 61.033Z"/>
  <path fill="#2043b5" d="M47.5 76.557c-18.112 0-33.233-5.6-36.971-13.074a8 8 0 0 0-.907 3.594v4.301c0 9.206 16.959 16.669 37.878 16.669s37.878-7.463 37.878-16.669v-4.301a8 8 0 0 0-.907-3.594C80.733 70.959 65.612 76.557 47.5 76.557Zm0-65.592c-21.279 0-37.947 8.277-37.947 18.844v8.456c0 10.568 16.668 18.845 37.947 18.845s37.947-8.277 37.947-18.845v-8.456c0-10.567-16.668-18.844-37.947-18.844ZM14.553 29.809c0-8.159 17.363-13.844 32.947-13.844s32.947 5.685 32.947 13.844S63.084 43.654 47.5 43.654s-32.947-5.685-32.947-13.845Z"/>
  <path fill="#2043b5" d="m51.131 40.868-.046-2.649c5.237-.388 9.8-1.894 12.233-4.137L57.54 32.5c-1.791 1.62-5.3 2.627-9.131 2.629-5.891 0-10.527-2.323-10.334-5.183s4.828-5.194 10.329-5.2a15.006 15.006 0 0 1 8.1 2.069l4.817-1.931A22.657 22.657 0 0 0 50.8 21.642l-.05-2.892-6.334.013-.086 3.077c-6.816.968-12.195 4.235-12.622 8.109s4.734 7.131 12.169 8.086l-.077 2.833Z"/>
</svg>
