<svg xmlns="http://www.w3.org/2000/svg" viewBox="0 0 144.48 168.12">
  <defs/>
  <defs>
    <style>
      .cls-2{fill:#1148b7}.cls-3{fill:#0e3ca5}.cls-4{fill:#5493f7}
    </style>
  </defs>
  <g style="isolation:isolate">
    <g id="Layer_2" data-name="Layer 2">
      <g id="Terra.js_copy_2" data-name="Terra.js copy 2">
        <path d="M72.12 122.92l-33.69-19.44v-38.9l33.69 19.45v38.89z" class="cls-2"/>
        <path d="M105.8 103.48l-33.68 19.44V84.03l33.68-19.45v38.9z" class="cls-3"/>
        <path d="M72.12 84.03L38.43 64.58l33.69-19.45 33.68 19.45-33.68 19.45z" class="cls-4"/>
        <path d="M110.78 145.76L77.1 126.31v-38.9l33.68 19.45v38.9z" class="cls-2"/>
        <path d="M144.47 126.31l-33.69 19.45v-38.9l33.69-19.45v38.9z" class="cls-3"/>
        <path d="M110.78 106.86L77.1 87.41l33.68-19.44 33.69 19.44-33.69 19.45z" class="cls-4"/>
        <path d="M33.69 145.28L0 125.84v-38.9l33.69 19.45v38.89z" class="cls-2"/>
        <path d="M67.37 125.84l-33.68 19.44v-38.89l33.68-19.45v38.9z" class="cls-3"/>
        <path d="M33.69 106.39L0 86.94l33.69-19.45 33.68 19.45-33.68 19.45z" class="cls-4"/>
        <path d="M72.35 168.12l-33.68-19.45v-38.9l33.68 19.45v38.9z" class="cls-2"/>
        <path d="M106.04 148.67l-33.69 19.45v-38.9l33.69-19.45v38.9z" class="cls-3"/>
        <path d="M72.35 129.22l-33.68-19.45 33.68-19.44 33.69 19.44-33.69 19.45z" class="cls-4"/>
        <path d="M72.13 77.79L38.44 58.34V19.45L72.13 38.9v38.89z" class="cls-2"/>
        <path d="M105.81 58.34L72.13 77.79V38.9l33.68-19.45v38.89z" class="cls-3"/>
        <path d="M72.13 38.9L38.44 19.45 72.13 0l33.68 19.45L72.13 38.9z" class="cls-4"/>
        <path d="M110.79 100.63L77.11 81.18v-38.9l33.68 19.45v38.9z" class="cls-2"/>
        <path d="M144.48 81.18l-33.69 19.45v-38.9l33.69-19.45v38.9z" class="cls-3"/>
        <path d="M110.79 61.73L77.11 42.28l33.68-19.45 33.69 19.45-33.69 19.45z" class="cls-4"/>
        <path d="M33.69 100.15L.01 80.7V41.81l33.68 19.45v38.89z" class="cls-2"/>
        <path d="M67.38 80.7l-33.69 19.45V61.26l33.69-19.45V80.7z" class="cls-3"/>
        <path d="M33.69 61.26L.01 41.81l33.68-19.45 33.69 19.45-33.69 19.45z" class="cls-4"/>
        <g opacity=".8">
          <path d="M72.13 122.92l-33.69-19.44v-38.9l33.69 19.45v38.89z" class="cls-2"/>
          <path d="M105.81 103.48l-33.68 19.44V84.03l33.68-19.45v38.9z" class="cls-3"/>
          <path fill="#5493f7" d="M72.13 84.03L38.44 64.58l33.69-19.45 33.68 19.45-33.68 19.45z" opacity=".6"/>
        </g>
      </g>
    </g>
  </g>
</svg>