<?xml version="1.0" encoding="utf-8"?>
<!-- Generator: Adobe Illustrator 24.3.0, SVG Export Plug-In . SVG Version: 6.00 Build 0)  -->
<svg version="1.1" id="Layer_1" xmlns="http://www.w3.org/2000/svg" xmlns:xlink="http://www.w3.org/1999/xlink" x="0px" y="0px"
	 viewBox="0 0 160 184.8" style="enable-background:new 0 0 160 184.8;" xml:space="preserve">
<style type="text/css">
	.st0{fill:#1D3577;}
	.st1{fill:#5493F7;}
	.st2{fill:#2845AE;}
	.st3{opacity:0.8;}
	.st4{fill:#FFFFFF;}
	.st5{display:none;fill:#5493F7;}
</style>
<g>
	<polygon class="st0" points="149.8,69.9 88.2,38.4 17,71.5 92.5,110.4 149.8,78.5 	"/>
	<path class="st0" d="M16.2,73.6c-0.9,0-1.7-0.5-2.1-1.3c-0.5-1.1-0.1-2.5,1.1-3.1l17.9-8.5c1.1-0.5,2.5-0.1,3.1,1.1
		c0.5,1.1,0.1,2.5-1.1,3.1l-17.9,8.5C16.9,73.5,16.6,73.6,16.2,73.6z"/>
	<path class="st0" d="M58,53.6c-0.9,0-1.7-0.5-2.1-1.3c-0.5-1.1-0.1-2.5,1.1-3.1l22.3-10.6c1.1-0.5,2.5-0.1,3.1,1.1
		c0.5,1.1,0.1,2.5-1.1,3.1L59,53.4C58.7,53.6,58.4,53.6,58,53.6z"/>
	<path class="st0" d="M152.7,73.6c-0.3,0-0.7-0.1-1-0.2l-5.7-2.7c-1.1-0.5-1.6-1.9-1.1-3.1c0.5-1.1,1.9-1.6,3.1-1.1l5.7,2.7
		c1.1,0.5,1.6,1.9,1.1,3.1C154.4,73.1,153.5,73.6,152.7,73.6z"/>
	<g>
		<g>
			<path class="st1" d="M123.9,56.1C123.9,56.2,124,56.2,123.9,56.1L123.9,56.1L123.9,56.1z"/>
			<polygon class="st2" points="126.3,59.2 122.5,55.4 124.3,55.7 			"/>
		</g>
		<g>
			<path class="st1" d="M123.9,56.1L123.9,56.1L123.9,56.1C124,56.2,123.9,56.2,123.9,56.1z"/>
			<polygon class="st2" points="126.3,59.2 122.5,55.4 124.3,55.7 			"/>
		</g>
		<g>
			<path class="st1" d="M84.6,100.8c0.2,0.6,0.4,0.9,0.3,1L61.8,91.3c-0.4,0.4-1,0.6-1.5,0.6c-0.6,0-1.2-0.3-1.7-0.8
				c-0.8-0.9-0.8-2.4,0.2-3.2l4.4-4c-0.3-1.9-0.4-3.8-0.4-5.7c0-1.9,0.1-3.8,0.4-5.7l-4.4-4c-0.6-0.6-0.9-1.4-0.7-2.3
				c1-4,2.6-7.8,4.6-11.4l-3.8-6.8c2.1-4.2,3.1-9,3-13.9c-0.1-5.3-1.6-10.6-4.3-15.3c-2.9-5.2-7.2-9.4-12.2-12.2
				c-5-2.8-10.5-4.1-15.9-3.8c-0.3,0-0.5,0.1-0.8,0.2c-0.2,0-0.5,0.1-0.7,0.3c-1.1,0.6-1.5,2-0.9,3.1l12.4,21.7
				c0.1,0.2,0.1,0.3,0.1,0.4c0,0,0,0.1-0.1,0.1l-14.4,8.2c0,0-0.1,0-0.1,0c-0.1,0-0.2-0.1-0.3-0.3L12.4,15.1c-0.6-1.1-2-1.5-3.1-0.9
				c-0.3,0.1-0.5,0.3-0.7,0.6c-0.2,0.2-0.4,0.4-0.5,0.6c-2.9,4.5-4.4,9.8-4.5,15.4C3.5,36.5,5,42.2,7.9,47.2
				c5.3,9.3,14.7,15.3,24.7,16l13.7,24c0.4,0.7,1.2,1.2,2,1.2c0.4,0,0.8-0.1,1.1-0.3c1.1-0.6,1.5-2,0.9-3.1l5.4,3.9l3.2,5.5
				c-3.9,13.5,31.5,13.7,31.9,13.5c0,0-1-1.8-2.5-4.8c-0.4,0-0.7-0.1-1.1-0.4C86.3,102.2,85.4,101.5,84.6,100.8z"/>
			<path class="st2" d="M89.2,108.4c-5.4,0-21.5-1.1-28-6.3c-2.7-2.1-3.6-4.7-2.8-7.6l-3-5.3l-4.2-3.1c0,0.9-0.5,1.9-1.4,2.4
				c-0.4,0.2-0.9,0.4-1.4,0.4c-1,0-1.9-0.5-2.4-1.4L32.3,63.7c-10.1-0.8-19.6-7-24.9-16.2C4.5,42.4,3,36.6,3.1,30.8
				c0.1-5.7,1.7-11.1,4.6-15.7c0.2-0.3,0.4-0.5,0.6-0.7C8.5,14.2,8.7,14,9,13.8c0.6-0.4,1.4-0.5,2.1-0.3c0.7,0.2,1.3,0.7,1.7,1.3
				l12.3,21.5l14-8L26.7,6.7c-0.8-1.3-0.3-3,1-3.8c0.3-0.1,0.5-0.3,0.8-0.3c0.2-0.1,0.5-0.2,0.8-0.2c5.5-0.3,11.1,1,16.2,3.8
				C50.7,9.1,55,13.4,58,18.7c2.7,4.8,4.2,10.2,4.4,15.6c0.1,4.8-0.9,9.6-3,13.9l3.8,6.8l-0.1,0.2c-2,3.6-3.6,7.4-4.6,11.3
				c-0.2,0.7,0,1.3,0.5,1.8l4.6,4.2l0,0.3c-0.3,1.9-0.4,3.7-0.4,5.6c0,1.9,0.1,3.7,0.4,5.6l0,0.3L59,88.2c-0.7,0.7-0.8,1.8-0.1,2.5
				c0.6,0.7,1.8,0.8,2.5,0.1l0.2-0.2L84.2,101l-0.8-1.9l1.6,1.4c0.8,0.7,1.6,1.3,2.5,1.9c0.2,0.2,0.5,0.3,0.8,0.3l0.3,0l2.9,5.4
				l-0.4,0.2C90.9,108.4,90.2,108.4,89.2,108.4z M48.8,83.2l7.3,5.4l3.3,5.7l-0.1,0.2c-0.6,2.1-0.2,4,1.2,5.6
				c5.7,6.5,25.3,7.3,29.4,7.2l-2.1-3.9c-0.4-0.1-0.7-0.2-1-0.4c-0.5-0.3-1-0.7-1.5-1.1c0,0.1-0.1,0.1-0.1,0.2l-0.2,0.2l-0.3-0.1
				L61.8,91.8c-1.1,0.8-2.8,0.6-3.7-0.4c-1-1.1-0.9-2.9,0.2-3.9l4.2-3.8c-0.2-1.8-0.4-3.7-0.4-5.5c0-1.8,0.1-3.7,0.4-5.5l-4.2-3.8
				c-0.8-0.7-1.1-1.8-0.8-2.8c1-3.9,2.5-7.6,4.5-11.2l-3.8-6.8l0.1-0.2c2-4.2,3.1-8.9,3-13.7c-0.1-5.2-1.6-10.4-4.2-15.1
				C54.2,14.1,50,9.9,45,7.1c-4.9-2.7-10.3-4-15.6-3.7c-0.2,0-0.4,0.1-0.6,0.1c-0.3,0.1-0.5,0.1-0.6,0.2c-0.9,0.5-1.2,1.6-0.7,2.5
				l12.4,21.7c0.2,0.3,0.2,0.6,0.1,0.8c0,0.1-0.1,0.3-0.3,0.4l-14.4,8.2c-0.2,0.1-0.4,0.1-0.5,0c-0.1,0-0.4-0.2-0.6-0.5L12,15.4
				c-0.2-0.4-0.6-0.7-1.1-0.8c-0.5-0.1-1-0.1-1.4,0.2c-0.2,0.1-0.4,0.3-0.5,0.4l-0.1,0.1c-0.2,0.1-0.3,0.3-0.4,0.5
				c-2.8,4.4-4.3,9.7-4.4,15.2C4,36.4,5.4,42,8.3,47c5.2,9,14.5,15.1,24.4,15.7l0.3,0L46.8,87c0.5,0.8,1.6,1.2,2.5,0.7
				c0.9-0.5,1.2-1.6,0.7-2.5L48.8,83.2z"/>
		</g>
		<g>
			<path class="st1" d="M62.6,54.9c-2,3.6-3.6,7.4-4.6,11.4c-0.2,0.8,0,1.7,0.7,2.3l4.4,4c-0.3,1.9-0.4,3.8-0.4,5.7
				c0,1.9,0.1,3.8,0.4,5.7l-4.4,4c-0.9,0.8-1,2.3-0.2,3.2c0.5,0.5,1.1,0.8,1.7,0.8c0.5,0,1.1-0.2,1.5-0.6l23.1,10.6
				c0.1-0.1,0-0.5-0.3-1c0.8,0.7,1.6,1.3,2.5,1.9c0.3,0.2,0.7,0.3,1.1,0.4c-6.4-12.2-23.1-43.7-23.6-44.6L62.6,54.9z"/>
			<path class="st2" d="M89.1,103.7l-0.9-0.1c-0.5,0-0.9-0.2-1.3-0.4c-0.5-0.3-1-0.7-1.5-1.1c0,0.1-0.1,0.1-0.1,0.2l-0.2,0.2
				l-0.3-0.1L61.8,91.8c-1.1,0.8-2.8,0.6-3.7-0.4c-1-1.1-0.9-2.9,0.2-3.9l4.2-3.8c-0.2-1.8-0.4-3.7-0.4-5.5c0-1.8,0.1-3.7,0.4-5.5
				l-4.2-3.8c-0.8-0.7-1.1-1.8-0.8-2.8c1-4,2.6-7.8,4.7-11.5l0.4-0.8l2.4,4.3c0.5,0.9,18.2,34.4,23.6,44.6L89.1,103.7z M83.3,99.1
				l1.6,1.4c0.7,0.6,1.5,1.2,2.2,1.7C76.2,81.4,64.6,59.5,64.2,58.7l-1.6-2.8c-1.8,3.4-3.2,6.9-4.1,10.5c-0.2,0.7,0,1.3,0.5,1.8
				l4.6,4.2l0,0.3c-0.3,1.9-0.4,3.7-0.4,5.6c0,1.9,0.1,3.7,0.4,5.6l0,0.3L59,88.2c-0.7,0.7-0.8,1.8-0.1,2.5c0.6,0.7,1.8,0.8,2.5,0.1
				l0.2-0.2L84.2,101L83.3,99.1z"/>
		</g>
	</g>
	<g>
		<path class="st1" d="M148.7,65.5c-1.1-4.2-2.7-8.2-4.9-11.9c-0.4-0.7-1.2-1.1-2.1-1.1l-5.8,0.3c-2.3-3-4.9-5.6-7.9-7.9l0.3-5.8
			c0-0.8-0.4-1.6-1.1-2.1c-3.7-2.2-7.7-3.9-11.9-4.9c-0.8-0.2-1.7,0-2.2,0.7l-3.9,4.3c-3.7-0.5-7.4-0.5-11.1,0l-3.9-4.3
			c-0.6-0.6-1.4-0.9-2.2-0.7c-4.2,1.1-8.2,2.7-11.9,4.9c-0.7,0.4-1.1,1.2-1.1,2.1l0.3,5.8c-3,2.2-5.6,4.9-7.9,7.9l-5.8-0.3
			c-0.8,0-1.6,0.4-2.1,1.1c-2.2,3.7-3.9,7.7-4.9,11.9c-0.2,0.8,0,1.7,0.7,2.2l4.3,3.9c-0.3,1.8-0.4,3.7-0.4,5.6
			c0,1.9,0.1,3.7,0.4,5.6l-4.3,3.9c-0.9,0.8-1,2.1-0.3,3l-1,0.9l30.3,12.5l-1.1-1.8c0,0,0,0,0,0c0.4,0.3,0.8,0.4,1.3,0.4
			c0.7,0,1.4-0.3,1.9-1c0.7-1,0.4-2.4-0.6-3.1C82.9,93,78.9,85.4,78.9,77.2c0-13.6,11.1-24.7,24.7-24.7c13.6,0,24.7,11.1,24.7,24.7
			c0,0.8,0,1.7-0.1,2.5c-0.1,1.2,0.8,2.3,2,2.5c1.2,0.1,2.3-0.7,2.4-1.9l1.2,2.9l9.2-5.6l-0.2-1c0.8-0.4,1.3-1.1,1.3-2
			c0-1.5-0.1-2-0.3-2.8c0,0,0-0.1,0-0.1l4.3-3.9C148.6,67.2,148.9,66.3,148.7,65.5z"/>
		<path class="st2" d="M89.4,104.1L57,90.8l1.3-1.1c-0.6-1.1-0.4-2.5,0.6-3.3l4.1-3.7c-0.2-1.8-0.4-3.6-0.4-5.4s0.1-3.6,0.4-5.4
			l-4.1-3.7c-0.8-0.7-1.1-1.7-0.8-2.7c1.1-4.2,2.8-8.3,5-12c0.5-0.9,1.5-1.4,2.5-1.3l5.6,0.3c2.2-2.9,4.7-5.4,7.6-7.6l-0.3-5.6
			c-0.1-1,0.5-2,1.3-2.5c3.8-2.2,7.8-3.9,12-5c1-0.3,2,0.1,2.7,0.8l3.7,4.1c3.6-0.5,7.2-0.5,10.7,0l3.7-4.1c0.7-0.8,1.7-1.1,2.7-0.8
			c4.2,1.1,8.3,2.8,12,5c0.9,0.5,1.4,1.5,1.3,2.5l-0.3,5.6c2.9,2.2,5.4,4.7,7.6,7.6l5.6-0.3c1,0,2,0.5,2.5,1.3c2.2,3.8,3.9,7.8,5,12
			l0,0c0.3,1-0.1,2-0.8,2.7l-4.1,3.7c0.2,0.7,0.3,1.3,0.3,2.7c0,0.9-0.5,1.8-1.2,2.3l0.2,1l-9.9,6.1l-1-2.3
			c-0.6,0.8-1.5,1.2-2.5,1.1c-1.5-0.2-2.6-1.5-2.4-3c0.1-0.8,0.1-1.7,0.1-2.5c0-13.3-10.9-24.2-24.2-24.2
			c-13.3,0-24.2,10.9-24.2,24.2c0,8,3.9,15.5,10.6,20c0.6,0.4,1,1,1.1,1.8c0.1,0.7,0,1.4-0.4,2c-0.5,0.8-1.5,1.2-2.4,1.2L89.4,104.1
			z M58.8,90.5L87,102.1l-1.2-2l1.5,0.8c0.9,0.6,2,0.4,2.5-0.4c0.3-0.4,0.4-0.9,0.3-1.3c-0.1-0.5-0.3-0.9-0.7-1.1
			c-6.9-4.7-11-12.5-11-20.8c0-13.9,11.3-25.2,25.2-25.2s25.2,11.3,25.2,25.2c0,0.9,0,1.7-0.1,2.6c-0.1,1,0.6,1.8,1.6,1.9
			c0.9,0.1,1.8-0.6,1.9-1.5l0.3-1.7l1.7,4l8.4-5.1l-0.2-1l0.3-0.2c0.6-0.3,1-0.9,1-1.6c0-1.5-0.1-1.9-0.3-2.7l-0.1-0.4l4.5-4.1
			c0.5-0.4,0.7-1.1,0.5-1.7c-1.1-4.1-2.7-8.1-4.9-11.8c-0.3-0.6-0.9-0.9-1.6-0.9l-6.1,0.3l-0.2-0.2c-2.2-2.9-4.8-5.5-7.8-7.8
			l-0.2-0.2l0.3-6.1c0-0.7-0.3-1.3-0.9-1.6c-3.7-2.2-7.6-3.8-11.8-4.9c-0.6-0.2-1.3,0-1.7,0.5l-4.1,4.5l-0.3,0
			c-3.6-0.5-7.3-0.5-11,0l-0.3,0l-4.1-4.5c-0.4-0.5-1.1-0.7-1.7-0.5c-4.1,1.1-8.1,2.7-11.8,4.9c-0.6,0.3-0.9,0.9-0.9,1.6l0.3,6.1
			l-0.2,0.2c-2.9,2.2-5.5,4.8-7.8,7.8l-0.2,0.2L65.5,53c-0.7,0-1.3,0.3-1.6,0.9c-2.2,3.7-3.8,7.6-4.9,11.8c-0.2,0.6,0,1.3,0.5,1.7
			l4.5,4.1l0,0.3c-0.2,1.8-0.4,3.7-0.4,5.5c0,1.8,0.1,3.7,0.4,5.5l0,0.3l-4.5,4.1c-0.7,0.6-0.8,1.7-0.2,2.4l0.3,0.4L58.8,90.5z"/>
	</g>
	<path class="st2" d="M84.6,182.4c-0.3,0-0.7-0.1-1-0.2L19,152.4c-3.1-1.4-5.1-4.5-5.1-7.9V71.3c0-0.8,0.4-1.5,1.1-1.9
		c0.7-0.4,1.5-0.5,2.2-0.2l68.3,31.5c0.8,0.4,1.3,1.2,1.3,2.1v77.3c0,0.8-0.4,1.5-1.1,1.9C85.4,182.3,85,182.4,84.6,182.4z"/>
	<path class="st2" d="M84.3,182.4c-0.4,0-0.9-0.1-1.2-0.4c-0.7-0.4-1.1-1.1-1.1-1.9v-77.3c0-0.9,0.5-1.7,1.3-2.1l68.3-31.5
		c0.7-0.3,1.5-0.3,2.2,0.2c0.7,0.4,1.1,1.1,1.1,1.9v73.2c0,3.4-2,6.5-5.1,7.9l-64.6,29.7C85,182.3,84.7,182.4,84.3,182.4z"/>
	<path class="st1" d="M156.9,38.4"/>
	<g id="layer1" transform="translate(-473.36088,-251.72485)" class="st3">
		<g id="g1894" transform="translate(428.42338,184.2561)">
			<path id="path8615" class="st4" d="M166,176.9c-8.2,3.5-7.7,6.8-7.7,6.8l0,3.7l7.8-3.3v1.1l-11,4.7c0,0-5.3,1.6-5.3,9.9
				s4.6,6.1,4.6,6.1l2.7-1.2v-3.9c0,0-0.1-4.5,4.5-6.5c4.7-2,7.8-3.3,7.8-3.3s4.4-1.8,4.4-6.1c0-4.3,0-7.1,0-7.1
				S174.6,173.2,166,176.9z M161.6,181.2c0.8-0.3,1.4,0,1.4,0.8s-0.6,1.7-1.4,2c-0.8,0.3-1.4,0-1.4-0.8S160.9,181.5,161.6,181.2z"/>
			<path id="path8620" class="st4" d="M166.2,209c8.2-3.5,7.7-6.8,7.7-6.8l0-3.7l-7.8,3.3v-1.1l11-4.7c0,0,5.3-1.6,5.3-9.9
				s-4.6-6.1-4.6-6.1l-2.7,1.2v3.9c0,0,0.1,4.5-4.5,6.5c-4.7,2-7.8,3.3-7.8,3.3s-4.4,1.8-4.4,6.1s0,7.1,0,7.1S157.6,212.7,166.2,209
				z M170.5,204.7c-0.8,0.3-1.4,0-1.4-0.8c0-0.8,0.6-1.7,1.4-2c0.8-0.3,1.4,0,1.4,0.8C171.9,203.5,171.3,204.4,170.5,204.7z"/>
		</g>
	</g>
	<g id="Symbol_1_" class="st3">
		<g>
			<path class="st5" d="M39.3,111.8c-4.9,5.6,13.9,13.4,20.6,13.5c1.2,0,4.7,0.1,2.3-5c-0.3-0.6-0.8-1.5-1.2-2.1
				c-0.5-0.7-1.1-1.5-1.6-2.2c-0.2-0.2-0.3-0.4-0.5-0.6c-1.3-1.4-4-4.2-10.9-5.5C43.8,109.3,40.9,109.9,39.3,111.8"/>
			<path class="st1" d="M45.7,133.8c0.9,3.4,4.1,6.5,5.7,6.7c0.1,0,6.1-0.1,9.4-5c2.6-3.8,1.7-8.1-1.8-8.8
				C57.6,126.6,44,127.3,45.7,133.8"/>
			<path class="st1" d="M58.6,115.1C58.6,115.1,58.6,115.1,58.6,115.1L58.6,115.1c-2.7-2.8-6.1-4.7-9.9-5.4
				c-2.2-0.4-4.3-0.3-6.2,0.2c-0.3,0.1-0.7,0.2-1,0.3c-0.2,0.1-0.4,0.2-0.6,0.2l0.1,0c-0.6,0.3-1.2,0.7-1.6,1.2
				c-4.4,5,10.3,11.8,18.2,13.2C61.1,128.2,62.1,118.5,58.6,115.1z"/>
			<path class="st5" d="M61.8,133.1c1-3.1-0.1-6-2.9-6.5c-1.3-0.1-14.9,0.6-13.2,7.1c0.9,3.4,4.1,6.5,5.7,6.7c0,0,4.8,0,8.2-3.5
				c1.4-0.7,2.5-1.2,2.5-1.2c0.4-0.6,0.7-1.2,0.9-1.8c0,0,0,0,0,0C62.8,133.8,62.4,133.5,61.8,133.1z"/>
		</g>
		<g>
			<path class="st4" d="M43.3,112.6c-2,2.7-8.8,3.6-9.9,3.1c0,0,0,0,0,0c0-0.1,0.1-0.2,0.1-0.2c0.4-0.7,0.8-1.3,1.3-1.9
				c0.5-0.6,1-1.1,1.6-1.6c0.6-0.5,1.2-0.9,1.9-1.3c0.4-0.2,0.8-0.4,1.3-0.6c0.9-0.4,1.9-0.2,2.2-0.2
				C44.9,110.4,43.3,112.5,43.3,112.6"/>
			<path class="st4" d="M41.7,133.7c0.1,1,0,4.7-0.2,5c-0.2,0-0.5-0.1-1.5-0.8c-0.5-0.4-1-0.8-1.5-1.3c-0.7-0.6-1.3-1.3-1.9-1.9
				c-0.6-0.7-1.1-1.4-1.6-2.2c-0.5-0.8-0.9-1.5-1.3-2.3c-0.4-0.8-0.7-1.6-1-2.5c-0.3-0.8-0.5-1.7-0.6-2.6c-0.1-0.9-0.2-1.8-0.2-2.7
				c0-0.9,0.1-1.8,0.2-2.6c0.1-0.8,0.3-1.6,0.6-2.4c0.1-0.2,0.1-0.3,0.2-0.5l0,0c1.2,1.8,2.5,3.4,3.6,5.1c1.1,1.7,2.6,4.4,2.9,4.9
				C41.2,130.7,41.5,132.8,41.7,133.7"/>
			<path class="st4" d="M64,128.2c0,2.1-0.4,4-1.1,5.7c-1.9,1.7-14.7-5.6-14.8-5.7c-1.8-1.1-7.1-4.3-7.6-8.1
				c-0.7-5.4,10-7.2,14.7-6.5c0.6,0.1,2.3,0.4,3.3,1.4C61.9,118.6,64,123.3,64,128.2"/>
			<path class="st4" d="M55.4,140.9c-1.4,0.4-2.9-0.3-2.5-1.6c0.8-2.5,7.5-4,8.9-3.9c0.2,0,0.3,0.2,0.2,0.3
				C60.4,138.2,58.1,140,55.4,140.9"/>
		</g>
	</g>
</g>
</svg>
