<?xml version="1.0" encoding="UTF-8"?>
<svg width="140px" height="140px" viewBox="0 0 140 140" version="1.1" xmlns="http://www.w3.org/2000/svg" xmlns:xlink="http://www.w3.org/1999/xlink">
    <!-- Generator: Sketch 57.1 (83088) - https://sketch.com -->
    <title>Artboard</title>
    <desc>Created with Sketch.</desc>
    <g id="Artboard" stroke="none" stroke-width="1" fill="none" fill-rule="evenodd">
        <g id="Tutorial" transform="translate(20.000000, 7.000000)" fill-rule="nonzero">
            <path d="M93.1364384,72.9073973 L9.75205479,120.114247 C7.89871612,121.490015 5.4282968,121.703989 3.36601045,120.667371 C1.30372411,119.630752 0.00159452295,117.520488 -1.23256016e-05,115.212329 L-1.23256016e-05,49.8735616 C-0.00399301351,47.8852769 0.962412063,46.0201151 2.5890411,44.8767123 L85.9906849,1.11328767 C87.8571352,-0.193173129 90.2954286,-0.352716508 92.3162058,0.699393697 C94.336983,1.7515039 95.6046592,3.84050544 95.6046592,6.11876712 L95.6046592,68.0054795 C95.606075,69.9384699 94.6901752,71.7574598 93.1364384,72.9073973 Z" id="Path" fill="#5493F7"></path>
            <polygon id="Path" fill="#5493F7" points="98.5561644 5.21260274 92.7135616 0.923424658 80.3983562 18.8223288"></polygon>
            <polygon id="Path" fill="#5493F7" points="9.43273973 125.206027 2.58041096 120.183288 12.9969863 111.717123"></polygon>
            <path d="M98.1246575,78.5342466 L16.1383562,124.74863 C14.2850175,126.124398 11.8145982,126.338373 9.75231182,125.301754 C7.69002548,124.265136 6.38789589,122.154872 6.38628973,119.846712 L6.38628973,52.5316438 C6.38242132,50.541023 7.3484848,48.6733002 8.97534247,47.5261644 L90.9616438,4.76383562 C92.8280941,3.45737482 95.2663876,3.29783144 97.2871647,4.34994164 C99.3079419,5.40205185 100.575641,7.49105338 100.575641,9.76931507 L100.575641,73.6323288 C100.581088,75.5622593 99.6718846,77.3806652 98.1246575,78.5342466 Z" id="Path" fill="#2845AE"></path>
            <path d="M54.1627397,120.191918 L70.56,84.2991781 L36.4019178,109.60274 L52.1605479,120.735616 C52.4883941,120.966956 52.9023418,121.040004 53.2895678,120.934852 C53.6767938,120.8297 53.9969365,120.557308 54.1627397,120.191918 Z" id="Path" fill="#2845AE"></path>
            <polygon id="Path" fill="#5392F7" points="28.7124658 79.3109589 28.7124658 73.9430137 43.1506849 59.0560274 43.1506849 64.5447945 33.0620548 74.590274 43.1506849 75.3583562 43.1506849 80.9247945"></polygon>
            <polygon id="Path" fill="#5392F7" points="58.1153425 45.739726 61.9557534 44.0136986 48.760274 86.0683562 44.919863 87.7943836"></polygon>
            <polygon id="Path" fill="#5392F7" points="64.1650685 65.7530137 74.2191781 55.7075342 64.1478082 54.9394521 64.1478082 49.3730137 78.5687671 50.9868493 78.5687671 56.3547945 64.1650685 71.2331507"></polygon>
        </g>
    </g>
</svg>