<svg xmlns="http://www.w3.org/2000/svg" viewBox="0 0 180 180">
    <path fill="#c19aff" d="M21.2 92.6 7.691 97.532C1.8 99.066-1.383 106.42.58 113.956s8.33 12.4 14.221 10.866L29 122.54a33.257 33.257 0 0 1-7.8-29.94Zm156.475-24.782C170.412 39.94 148.314 21.56 128.3 26.737l-.022.007h-.024c-.674.176-1.335.381-1.988.605l-21 6.362C83.853 39.29 72.28 66.02 79.417 93.411s30.281 45.079 51.693 39.5l21.436-4.693c.678-.122 1.356-.266 2.03-.442l.024-.007.022-.005c19.995-5.241 30.316-32.064 23.053-59.946ZM92.858 137.2l-17.879-1.329a.272.272 0 0 0-.293.272v17.038c0 .171-.01.339-.025.506l18.356-16.01a.273.273 0 0 0-.159-.477Z"/>
    <path fill="#c19aff" d="M73.58 94.937c-4.142-15.9-2.166-32.308 4.56-43.771a.082.082 0 0 0-.118-.111L35.1 79.141a18.014 18.014 0 0 0-7.066 7.678c-3.172 6.238-3.52 13.745-1.774 20.447s5.713 13.085 11.525 16.982a19.142 19.142 0 0 0 7.171 3 .2.2 0 0 0 .227-.191v-1.887a15.036 15.036 0 0 1 14.007-15.162 14.768 14.768 0 0 1 15.5 14.734v4.458a.189.189 0 0 0 .176.188l23.8 1.652a.121.121 0 0 0 .077-.226C87.352 124.057 77.7 110.755 73.58 94.937Z"/>
    <path fill="#1b273c" d="M116.565 48.412a29.532 29.532 0 0 0-2.386 4.132 36.036 36.036 0 0 0-2.8 9.686 50.023 50.023 0 0 0-.636 8.494 56.4 56.4 0 0 0 .815 9.033q.431 2.523 1.078 5c3.335 12.8 10.479 23.083 18.851 28.645 5.955 3.956 12.53 5.527 18.8 3.893 15.089-3.931 22.7-24.872 16.99-46.773a53.344 53.344 0 0 0-12.158-22.914c-4.807-5.164-11.163-9.411-18.326-10.153-8.2-.845-15.661 4.334-20.228 10.957Z"/>
    <path fill="#fff" d="M112.182 82.9c.141.619.281 1.239.441 1.853.178.682.372 1.353.571 2.02l18.976-4.944-1.009-3.873Zm55.577-10.339q-.228-1.017-.494-2.039c-.16-.613-.35-1.221-.529-1.83l-18.969 4.941 1.009 3.874Zm-36.044-34.868a19.326 19.326 0 0 0-3.836 1.153l8.093 31.062 3.873-1.009Zm8.585 48.821 8.118 31.162c.622-.1 1.243-.22 1.859-.381a19.7 19.7 0 0 0 2.008-.653l-8.112-31.137Zm2.168-9.432A2.477 2.477 0 1 0 140.7 80.1a2.476 2.476 0 0 0 1.768-3.018Z"/>
    <path fill="#7e68c1" d="M1.2 115.844c2.457 6.435 8.223 10.38 13.6 8.978L29 122.54a31.612 31.612 0 0 1-6.991-11.971Zm58.734-1.185a10.081 10.081 0 0 0-10.084 10.083v29.034a.36.36 0 0 0 .36.36h19.447a.36.36 0 0 0 .36-.36v-29.034a10.082 10.082 0 0 0-10.083-10.083Z"/>
    <path fill="#7e68c1" d="M98.738 130.814c-8.768-5.2-16.5-14.3-21.472-25.422l-50.192 4.515a28.71 28.71 0 0 0 10.709 14.341 19.165 19.165 0 0 0 7.171 3 .2.2 0 0 0 .227-.191v-1.887a15.036 15.036 0 0 1 14.009-15.162 14.768 14.768 0 0 1 15.5 14.734v4.458a.189.189 0 0 0 .176.189l23.8 1.652a.121.121 0 0 0 .072-.227Z"/>
</svg>