<?xml version="1.0" encoding="UTF-8"?>
<svg width='28px' height='25px' viewBox='-3 -3 34 30' version="1.1" xmlns="http://www.w3.org/2000/svg" xmlns:xlink="http://www.w3.org/1999/xlink">
    <title>Logo/Terra/White</title>
    <defs>
        <polygon id="path-1" points="0 0 8.51514361 0 8.51514361 17.2608512 0 17.2608512"></polygon>
    </defs>
    <g id="01Desktop" stroke="none" stroke-width="1" fill="none" fill-rule="evenodd">
        <g id="Terra_Main" transform="translate(-88.000000, -61.000000)">
            <g id="Logo/Terra/White" transform="translate(88.000000, 61.000000)">
                <path d="M76.1883128,7.76314093 C76.0750673,7.7545662 75.8420714,7.73091179 75.3476942,7.73091179 C74.9177753,7.73091179 74.5186071,7.77112429 74.1469372,7.8482968 C72.5993474,8.1490035 71.6105931,8.98991778 70.7566689,9.88050633 L70.7566689,8.11854844 L65.9072191,8.11854844 L65.9072191,23.8312862 L70.7566689,23.8312862 L70.7566689,17.2680744 C70.7566689,16.4922097 70.7995425,15.7808033 70.8858811,15.1344465 C70.971924,14.4877941 71.1608636,13.9330982 71.4518128,13.4694717 C71.7427621,13.0058453 72.1576013,12.6448199 72.6963305,12.3863954 C73.2350597,12.1276753 73.9680507,11.9981674 74.8950079,11.9981674 C75.2610599,11.9981674 75.6114409,12.0256657 75.9458551,12.0791838 C76.279678,12.1329976 76.6191188,12.2140139 76.9641775,12.3216415 L76.9641775,7.89235314 C76.7267463,7.82789487 76.4680262,7.7844299 76.1883128,7.76314093" id="Fill-1" fill="#FFFFFF"></path>
                <path d="M89.1607167,7.76314093 C89.0474712,7.7545662 88.8144753,7.73091179 88.3200981,7.73091179 C87.8901792,7.73091179 87.491011,7.77112429 87.1193411,7.8482968 C85.5717513,8.1490035 84.5829969,8.98991778 83.7290727,9.88050633 L83.7290727,8.11854844 L78.8796229,8.11854844 L78.8796229,23.8312862 L83.7290727,23.8312862 L83.7290727,17.2680744 C83.7290727,16.4922097 83.7719463,15.7808033 83.8582849,15.1344465 C83.9443279,14.4877941 84.1332675,13.9330982 84.4242167,13.4694717 C84.715166,13.0058453 85.1300052,12.6448199 85.6687344,12.3863954 C86.2074636,12.1276753 86.9404546,11.9981674 87.8674118,11.9981674 C88.2334638,11.9981674 88.5838448,12.0256657 88.918259,12.0791838 C89.2520819,12.1329976 89.5915226,12.2140139 89.9365814,12.3216415 L89.9365814,7.89235314 C89.6991502,7.82789487 89.4404301,7.7844299 89.1607167,7.76314093" id="Fill-3" fill="#FFFFFF"></path>
                <polygon id="Fill-5" fill="#FFFFFF" points="38.0353161 7.47266477 31.5046291 7.47266477 31.5046291 3.01085162 49.6097147 3.01085162 49.6097147 7.47266477 43.0790277 7.47266477 43.0790277 23.8311679 38.0353161 23.8311679"></polygon>
                <path d="M59.1305262,14.1967857 C59.1518151,13.3777518 58.8824505,12.6769899 58.3224324,12.095387 C57.7615272,11.5134885 57.039772,11.2222436 56.1559841,11.2222436 C55.6172549,11.2222436 55.142984,11.3085822 54.7337627,11.4809637 C54.32395,11.6536409 53.9738647,11.874514 53.6829155,12.1438786 C53.3919662,12.4135389 53.1654753,12.7254814 53.0037382,13.0814803 C52.8422969,13.4371835 52.7503404,13.8088534 52.7293471,14.1967857 L59.1305262,14.1967857 Z M63.2366361,21.1154051 C62.4607715,22.1071162 61.4794091,22.8723364 60.2946188,23.4107699 C59.1089415,23.9492034 57.8800949,24.2191594 56.608966,24.2191594 C55.4017041,24.2191594 54.264814,24.0251932 53.1980001,23.6372609 C52.1308905,23.2493286 51.2039333,22.6946326 50.4174241,21.9722861 C49.6303236,21.2502352 49.0111694,20.3830054 48.5584832,19.3697096 C48.1060926,18.3567095 47.8796016,17.2251416 47.8796016,15.975006 C47.8796016,14.7251661 48.1060926,13.5935983 48.5584832,12.5803025 C49.0111694,11.5673023 49.6303236,10.7000725 50.4174241,9.97743028 C51.2039333,9.25567508 52.1308905,8.7003878 53.1980001,8.31275115 C54.264814,7.92481882 55.4017041,7.73085266 56.608966,7.73085266 C57.729298,7.73085266 58.7476204,7.92481882 59.6642288,8.31275115 C60.5796545,8.7003878 61.3558148,9.25567508 61.9918228,9.97743028 C62.6272394,10.7000725 63.1177727,11.5673023 63.4628314,12.5803025 C63.8072988,13.5935983 63.979976,14.7251661 63.979976,15.975006 L63.979976,17.4945062 L52.7293471,17.4945062 C52.9233132,18.4214634 53.3434747,19.159481 53.9898315,19.7091504 C54.6367796,20.2588197 55.4336375,20.5335066 56.3824751,20.5335066 C57.1796287,20.5335066 57.8534837,20.3558028 58.4031531,20.0000996 C58.9525267,19.6443964 59.4324156,19.1866836 59.8416369,18.6257784 L63.2366361,21.1154051 Z" id="Fill-7" fill="#FFFFFF"></path>
                <path d="M101.120771,18.2819024 L101.120771,18.0166773 C101.120771,17.67221 100.897532,17.3715033 100.571397,17.2618059 C99.870931,17.0261489 99.0406612,16.8797872 98.1539165,16.8797872 C96.1657633,16.8797872 94.9419433,17.6553562 94.9419433,19.0876307 L94.9419433,19.1470624 C94.9419433,20.3705868 95.982146,21.0867241 97.4809486,21.0867241 C99.6527191,21.0867241 101.120771,19.9229271 101.120771,18.2819024 M90.4458312,19.3265403 L90.4458312,19.2665172 C90.4458312,15.7757176 93.1681582,14.1645566 97.0525081,14.1645566 C98.7044729,14.1645566 99.8972466,14.4333298 101.059861,14.8209665 L101.059861,14.5524889 C101.059861,12.6728503 99.8667915,11.6285081 97.5421543,11.6285081 C95.7680736,11.6285081 94.5140941,11.9567131 93.0152916,12.4936682 L91.8526773,9.03302795 C93.6575088,8.25686761 95.4315896,7.74977618 98.2151223,7.74977618 C100.753832,7.74977618 102.589118,8.40618607 103.751437,9.54011937 C104.974961,10.7334844 105.525518,12.4936682 105.525518,14.64208 L105.525518,23.9211138 L101.02911,23.9211138 L101.02911,22.190498 C99.8972466,23.4137267 98.3372382,24.2194551 96.0738068,24.2194551 C92.9845408,24.2194551 90.4458312,22.4888393 90.4458312,19.3265403" id="Fill-9" fill="#FFFFFF"></path>
                <path d="M11.889298,21.1293907 C12.6468305,23.9312556 15.3644266,26.06991 16.736678,25.9815017 C16.7848739,25.9782492 21.9424224,25.0166974 24.7655763,20.2997123 C26.9627753,16.6285478 26.2147046,13.0845258 23.2262655,13.0070576 C22.1511726,13.0854128 10.4457876,15.7902946 11.889298,21.1293907" id="Fill-11" fill="#666666"></path>
                <path d="M22.9482079,3.12977417 C22.9473209,3.12888713 22.9461381,3.12800009 22.9452511,3.12711305 L22.9493906,3.1247476 C20.6605308,1.17385011 17.6921979,0 14.4488826,0 C12.5532773,0 10.753768,0.406264497 9.12664027,1.13008945 C8.83391695,1.25279671 8.55686467,1.38851389 8.29518775,1.53694531 C8.11127471,1.63511111 7.92706599,1.73268556 7.74847519,1.83883472 L7.79194017,1.85243601 C7.25202826,2.22499297 6.78810613,2.66023412 6.40786149,3.16259466 C2.64326208,8.13593443 15.2605246,11.750624 22.0058753,11.7624512 C25.109334,13.990401 25.9804076,5.49018864 22.9482079,3.12977417" id="Fill-13" fill="#666666"></path>
                <path d="M9.88665648,3.2308672 C8.15397092,5.83580914 2.38022504,7.67168706 1.43050046,7.38576438 C1.42872638,7.38221622 1.42636094,7.37718965 1.42429118,7.37364149 C1.46332096,7.29499058 1.50264642,7.21693102 1.54315459,7.13916715 C1.87165522,6.50522895 2.24805602,5.89997173 2.66733044,5.32812636 C3.08660487,4.75628099 3.54875291,4.21755179 4.04904369,3.71726102 C4.54933447,3.21697024 5.08776798,2.7548222 5.65990903,2.33554777 C6.01502087,2.07534926 6.38314263,1.83141315 6.76309159,1.60521785 C7.57148107,1.13715621 8.39968111,1.10670116 8.67200251,1.09694371 C11.2432369,1.14602661 9.90055344,3.21016959 9.88665648,3.2308672" id="Fill-15" fill="#FFFFFF"></path>
                <g id="Group-19" transform="translate(0.000000, 8.708164)">
                    <mask id="mask-2" fill="white">
                        <use xlink:href="#path-1"></use>
                    </mask>
                    <g id="Clip-18"></g>
                    <path d="M8.46523339,12.9336402 C8.58971473,13.7520828 8.46198091,16.985345 8.29462596,17.2579621 C8.15033406,17.2668325 7.84992304,17.2851647 6.9800321,16.7969968 C6.52291062,16.5362069 6.08234723,16.2499885 5.65982033,15.9404114 C5.08797496,15.521137 4.54924576,15.058989 4.04895498,14.5586982 C3.54866421,14.0581117 3.08651616,13.5196782 2.66724174,12.9478329 C2.24796732,12.3759875 1.87156651,11.7704346 1.54306589,11.1364964 C1.21426959,10.5022625 0.933373464,9.83964334 0.704812724,9.15307408 C0.476251984,8.46620914 0.300026627,7.75568979 0.180867535,7.02595123 C0.0620041231,6.29591699 -8.87040387e-05,5.54695922 -8.87040387e-05,4.78351313 C-8.87040387e-05,4.02006704 0.0620041231,3.27110927 0.180867535,2.54137071 C0.300026627,1.81163215 0.476251984,1.1011128 0.704812724,0.414543541 C0.750938824,0.27557388 0.799430365,0.13749126 0.849991667,0.000591360258 L0.850878708,0 C1.84732074,1.32553402 3.00047325,2.52451694 3.98094855,3.86335657 C4.91441072,5.13773792 6.19854952,7.21577787 6.45993076,7.65959375 C8.08262331,10.4159239 8.34104774,12.1163803 8.46523339,12.9336402" id="Fill-17" fill="#FFFFFF" mask="url(#mask-2)"></path>
                </g>
                <path d="M27.6460921,13.4916477 C27.6460921,15.2843564 27.3048772,16.9972314 26.6839489,18.5690669 C25.0562298,20.3189019 14.0785137,16.0114338 13.9708861,15.9644207 C12.4691267,15.3065324 7.89909465,13.3044822 7.48691655,10.1596284 C6.89378221,5.63542672 16.0725805,2.48288518 20.1059531,2.36313473 C20.5896858,2.36875265 22.0615815,2.3859021 22.9196452,3.08311584 C25.8164234,5.61679887 27.6460921,9.34059442 27.6460921,13.4916477" id="Fill-20" fill="#FFFFFF"></path>
                <path d="M20.2151478,25.7523791 C19.0182346,26.3109189 17.7009796,25.904063 18.0430815,24.7387876 C18.7003785,22.5007847 24.4386427,20.2063069 25.7059278,20.0821213 C25.8620469,20.0667459 25.9285749,20.1731908 25.8593858,20.2947153 C24.5382869,22.6092993 22.5817715,24.5158448 20.2151478,25.7523791" id="Fill-22" fill="#FFFFFF"></path>
            </g>
        </g>
    </g>
</svg>