<svg xmlns="http://www.w3.org/2000/svg" id="bc1576c8-bfd4-4747-a779-fd2d893d8515" data-name="Layer 1" viewBox="0 0 95 95">
  <path fill="#2845ae" d="M87.45 13.6a1.933 1.933 0 0 0-2.8 0l-3.2 3.2-35.9 36a1.933 1.933 0 0 1-2.8 0l-15.3-15.2a1.933 1.933 0 0 0-2.8 0l-2.8 2.8a1.933 1.933 0 0 0 0 2.8l20.9 20.9a1.933 1.933 0 0 0 2.8 0l4.2-4.2 31.7-31.8 5-5 3.8-3.8a1.933 1.933 0 0 0 0-2.8Z"/>
  <path fill="#2845ae" d="M79.15 41.9v35.6a4.951 4.951 0 0 1-5 5h-60a4.951 4.951 0 0 1-5-5v-60a4.951 4.951 0 0 1 5-5h60.4l3.5-3.5.5-.5a9.2 9.2 0 0 0-4.4-1h-60a10.029 10.029 0 0 0-10 10v60a10.029 10.029 0 0 0 10 10h60a10.029 10.029 0 0 0 10-10V36.9Z"/>
</svg>
