<svg id="e7441bb0-9636-4927-a162-6a3178426e26" data-name="Layer 1" xmlns="http://www.w3.org/2000/svg" viewBox="0 0 95 95"><path d="M71.994,42.292,55.905,49.476a1.408,1.408,0,0,0-.834,1.286V63.6c0,.571.189,14.077,16.629,22l.868.419.868-.419c16.439-7.926,16.629-21.432,16.629-22V50.762a1.408,1.408,0,0,0-.834-1.286L73.142,42.292A1.409,1.409,0,0,0,71.994,42.292Zm14.071,21.3c0,.461-.269,11.155-13.5,17.977C59.339,74.743,59.076,64.049,59.071,63.6V52.442l13.5-6.026,13.5,6.026Z" style="fill:#275bde"/><path d="M56.9,74.914a32.456,32.456,0,0,1-37.985-5.959,25.305,25.305,0,0,1,34.4-12.149V51.874a29.831,29.831,0,0,0-5.828-1.731,14.563,14.563,0,1,0-11.038,0,29.757,29.757,0,0,0-20.712,15.1A32.531,32.531,0,1,1,74.088,40.8l4.786,2.137A37.044,37.044,0,1,0,59.556,78.61,28.091,28.091,0,0,1,56.9,74.914ZM31.911,36.673A10.063,10.063,0,1,1,41.974,46.736,10.074,10.074,0,0,1,31.911,36.673Z" style="fill:#275bde"/><polygon points="71.351 71.722 63.552 63.922 66.38 61.094 71.351 66.066 80.466 56.95 83.294 59.778 71.351 71.722" style="fill:#275bde"/></svg>