<svg id="a592037f-45a8-4992-99e8-7d699890faf1" data-name="Layer 1" xmlns="http://www.w3.org/2000/svg" viewBox="0 0 95 95"><path d="M43.39,55.51a5.719,5.719,0,1,0-8.478,5.008l-.81,8.254h7.14l-.811-8.254A5.714,5.714,0,0,0,43.39,55.51Z" style="fill:#275bde"/><path d="M69.528,89.265A19.27,19.27,0,1,1,88.8,70,19.292,19.292,0,0,1,69.528,89.265Zm0-34.453A15.184,15.184,0,1,0,84.712,70,15.2,15.2,0,0,0,69.528,54.812Z" style="fill:#275bde"/><path d="M50.292,77.888H10.8V38.228H64.543v11.6a20.735,20.735,0,0,1,4.6-.61V33.632H55.186V22.793c0-9.087-8.184-17.058-17.515-17.058S20.158,13.706,20.158,22.793V33.632H6.2V82.485h46.73A20.715,20.715,0,0,1,50.292,77.888ZM42.751,33.632H32.591V22.793a5.353,5.353,0,0,1,5.08-4.624,5.352,5.352,0,0,1,5.08,4.624ZM24.243,22.793c0-6.91,6.275-12.972,13.428-12.972S51.1,15.883,51.1,22.793V33.632H46.837V22.793c0-4.027-4-8.71-9.166-8.71s-9.166,4.683-9.166,8.71V33.632H24.243Z" style="fill:#275bde"/><polygon points="67.365 78.378 59.259 70.271 62.148 67.382 67.365 72.601 76.908 63.058 79.797 65.946 67.365 78.378" style="fill:#275bde"/></svg>