<svg id="fdfdb627-0c5a-44b1-902a-7ad0b0618b43" data-name="Layer 1" xmlns="http://www.w3.org/2000/svg" viewBox="0 0 95 95"><path d="M84.866,40.172H10.134a.933.933,0,0,1-.933-.933v-2.29a.932.932,0,0,1,.4-.764l35.829-25.04a3.712,3.712,0,0,1,2.081-.638h0a3.71,3.71,0,0,1,2.081.638L85.4,36.185a.932.932,0,0,1,.4.764v2.29A.933.933,0,0,1,84.866,40.172ZM15.814,36.113H79.206l-31.7-21.475Z" style="fill:#275bde"/><path d="M83.726,84.493H11.274a1.107,1.107,0,0,1-1.107-1.107V72.817a1.107,1.107,0,0,1,1.107-1.107H83.726a1.107,1.107,0,0,1,1.107,1.107V83.386A1.107,1.107,0,0,1,83.726,84.493Zm-69.5-4.058H80.774V75.769H14.226Z" style="fill:#275bde"/><rect x="23.166" y="41.673" width="7.428" height="28.605" style="fill:#275bde"/><rect x="43.786" y="41.673" width="7.428" height="28.605" style="fill:#275bde"/><rect x="64.405" y="41.673" width="7.428" height="28.605" style="fill:#275bde"/></svg>