<svg id="b3758a83-85fb-4b1e-8c3e-a8988c1e8f4a" data-name="Layer 1" xmlns="http://www.w3.org/2000/svg" viewBox="0 0 95 95"><path d="M85.556,20.475a9.484,9.484,0,0,0-2.672-7.054c-5.516-5.248-20.341-.444-35.144,10.236C37.3,15.894,27.09,11.184,19.95,11.184h-.2a9.492,9.492,0,0,0-7.057,2.673c-5.217,5.487-.5,20.177,10.058,34.9-7.071,9.818-12.369,20.537-12.292,28.4.027,2.842.815,5.027,2.339,6.493a10.128,10.128,0,0,0,7.269,2.506c7.1,0,17.147-4.489,27.7-12.352,9.818,7.115,20.572,12.482,28.489,12.482h.169c2.842-.028,5.026-.815,6.493-2.339C88.65,77.985,84.24,63.855,72.9,48.718,80.844,38.088,85.647,27.68,85.556,20.475Zm-9.077-4.72a4.792,4.792,0,0,1,3.3.926,5.245,5.245,0,0,1,1.275,3.851c.08,6.407-4.65,15.636-11.079,24.46a128.914,128.914,0,0,0-8.68-9.581,126.32,126.32,0,0,0-9.842-8.872C61.932,19.228,71.4,15.755,76.479,15.755ZM67.165,48.692a119.291,119.291,0,0,1-9.015,10.15,121.2,121.2,0,0,1-10.456,9.329A108.084,108.084,0,0,1,37.509,59.2a105.433,105.433,0,0,1-9.184-10.467,107.942,107.942,0,0,1,9.217-10.5,105.262,105.262,0,0,1,10.122-8.9,119.123,119.123,0,0,1,10.452,9.256A121.391,121.391,0,0,1,67.165,48.692ZM15.955,16.959a5.246,5.246,0,0,1,3.852-1.274h.161c6.321,0,15.324,4.588,23.975,10.844A108.612,108.612,0,0,0,25.592,44.976C16.254,31.483,13.319,19.732,15.955,16.959ZM15.918,80.4a4.672,4.672,0,0,1-.958-3.293c-.052-5.33,3.6-14.589,10.6-24.619a110.888,110.888,0,0,0,8.767,9.89,111.723,111.723,0,0,0,9.684,8.577C30.992,80.375,19.592,83.94,15.918,80.4Zm63.76.421a4.672,4.672,0,0,1-3.293.958h-.113c-5.408,0-14.754-3.728-24.843-10.833a128.207,128.207,0,0,0,9.9-8.926,126.638,126.638,0,0,0,8.678-9.605C79.594,65.567,83.24,77.119,79.678,80.824Z" style="fill:#275bde"/><path d="M70.721,29.553a3.9,3.9,0,1,0-3.9-3.9A3.9,3.9,0,0,0,70.721,29.553Z" style="fill:#275bde"/><path d="M25.5,21.759a3.9,3.9,0,1,0,3.9,3.9A3.9,3.9,0,0,0,25.5,21.759Z" style="fill:#275bde"/><path d="M25.5,67.652a3.9,3.9,0,1,0,3.9,3.9A3.9,3.9,0,0,0,25.5,67.652Z" style="fill:#275bde"/><path d="M70.721,75.446a3.9,3.9,0,1,0-3.9-3.9A3.9,3.9,0,0,0,70.721,75.446Z" style="fill:#275bde"/></svg>