<svg id="a105035f-1bd4-4e07-a209-2439fac0b367" data-name="Layer 1" xmlns="http://www.w3.org/2000/svg" viewBox="0 0 95 95"><path d="M57.214,5.155A32.34,32.34,0,0,0,31.371,56.964l-3.62,3.62-2.145-2.145L7.972,76.075a7.833,7.833,0,0,0,0,11.067l.049.05a7.827,7.827,0,0,0,11.068,0L36.725,69.557,34.58,67.413l3.69-3.688A32.351,32.351,0,1,0,57.214,5.155ZM16.261,84.364a3.919,3.919,0,0,1-5.411,0l-.05-.05a3.832,3.832,0,0,1,0-5.411L25.5,64.2l5.462,5.462ZM31.752,64.585l-1.173-1.173L33.691,60.3l1.173,1.173Zm25.462.289A27.36,27.36,0,1,1,84.573,37.515,27.391,27.391,0,0,1,57.214,64.874Z" style="fill:#275bde"/><path d="M51.992,53.2c-1.744-2.379-3.806-4.546-5.6-6.924-.106.264-.159.475-.264.74a23.505,23.505,0,0,0-.951,3.805,25.589,25.589,0,0,0,0,8.034c.072.437.175.882.273,1.325a25.408,25.408,0,0,0,11.767,2.886c.264,0,.52-.032.783-.04-.424-.93-.928-1.939-1.565-3.061C55.956,59.168,53.683,55.469,51.992,53.2Z" style="fill:#275bde"/><path d="M82.485,33.955a23.508,23.508,0,0,0-21.3-1.162l-.017.008a6.52,6.52,0,0,0-.776-.06,7.093,7.093,0,0,0-3.436.9c-.634.423-1.321.846-1.956,1.322A26.521,26.521,0,0,0,52.1,37.445,21.449,21.449,0,0,0,49.613,40.3a20.894,20.894,0,0,0-2.008,3.277c-.053.159-.159.264-.212.423.981.3,4.671-.609,8.257-2.287a10.034,10.034,0,0,0,3.443,3.48,6.1,6.1,0,0,0-.811,3.828c.74,5.6,8.88,9.2,11.575,10.36.014.007.128.053.313.125a25.2,25.2,0,0,0,12.315-25.55Zm-22.141,9.5a8.192,8.192,0,0,1-2.809-2.718A14.4,14.4,0,0,0,62.51,36.6a3.825,3.825,0,0,0,.645-2.286A23.364,23.364,0,0,1,70.7,32.9a21.528,21.528,0,0,1,9.426,2.2C74.529,35.5,64.654,38.659,60.344,43.457Z" style="fill:#275bde"/></svg>