<svg id="aa0a1950-da7f-4cc3-9635-65e96218bc00" data-name="Layer 1" xmlns="http://www.w3.org/2000/svg" viewBox="0 0 95 95"><path d="M37.644,41.452a.838.838,0,0,0-.775,1.486l9.792,5.1V59.5a.839.839,0,0,0,1.677,0V48.043l9.792-5.1a.838.838,0,1,0-.774-1.486L47.5,46.59Z" style="fill:#275bde"/><path d="M63.3,37.288,48.444,28.712a1.884,1.884,0,0,0-1.888,0L31.7,37.288a1.887,1.887,0,0,0-.945,1.635V56.076a1.888,1.888,0,0,0,.945,1.636l14.855,8.576a1.888,1.888,0,0,0,1.888,0L63.3,57.712a1.888,1.888,0,0,0,.945-1.636V38.923A1.887,1.887,0,0,0,63.3,37.288Zm-2.832,17.7L47.5,62.472,34.533,54.986V40.014L47.5,32.528l12.967,7.486Z" style="fill:#275bde"/><path d="M48.986,78.865V70.649a1.75,1.75,0,0,0-3.5,0v8.216a5.6,5.6,0,1,0,3.5,0Zm-1.75,7.4a2.095,2.095,0,1,1,2.1-2.095A2.1,2.1,0,0,1,47.236,86.269Z" style="fill:#275bde"/><path d="M45.486,16.136v8.216a1.75,1.75,0,0,0,3.5,0V16.136a5.6,5.6,0,1,0-3.5,0Zm1.75-7.4a2.095,2.095,0,1,1-2.095,2.1A2.1,2.1,0,0,1,47.236,8.731Z" style="fill:#275bde"/><path d="M26.8,46.272H16.7a5.6,5.6,0,1,0,0,3.5H26.8a1.75,1.75,0,1,0,0-3.5ZM11.389,50.117a2.095,2.095,0,1,1,2.1-2.095A2.1,2.1,0,0,1,11.389,50.117Z" style="fill:#275bde"/><path d="M26.8,33.263H16.921V31.068a5.587,5.587,0,1,0-3.5.058v3.887a1.749,1.749,0,0,0,1.75,1.75H26.8a1.75,1.75,0,0,0,0-3.5ZM15.09,23.692A2.095,2.095,0,1,1,13,25.786,2.1,2.1,0,0,1,15.09,23.692Z" style="fill:#275bde"/><path d="M26.8,59.469H15.171a1.749,1.749,0,0,0-1.75,1.75v3.887a5.6,5.6,0,1,0,3.5.059v-2.2H26.8a1.75,1.75,0,1,0,0-3.5ZM15.09,72.54a2.095,2.095,0,1,1,2.095-2.094A2.1,2.1,0,0,1,15.09,72.54Z" style="fill:#275bde"/><path d="M83.61,42.428A5.6,5.6,0,0,0,78.3,46.272h-10.1a1.75,1.75,0,0,0,0,3.5H78.3a5.593,5.593,0,1,0,5.309-7.344Zm0,7.689a2.095,2.095,0,1,1,2.095-2.095A2.1,2.1,0,0,1,83.61,50.117Z" style="fill:#275bde"/><path d="M68.205,36.763H79.83a1.749,1.749,0,0,0,1.75-1.75V31.126a5.6,5.6,0,1,0-3.5-.058v2.195H68.205a1.75,1.75,0,0,0,0,3.5Zm11.7-13.071a2.095,2.095,0,1,1-2.095,2.094A2.1,2.1,0,0,1,79.91,23.692Z" style="fill:#275bde"/><path d="M83.347,65.106V61.219a1.749,1.749,0,0,0-1.75-1.75H69.972a1.75,1.75,0,0,0,0,3.5h9.875v2.2a5.585,5.585,0,1,0,3.5-.059Zm-1.67,7.434a2.095,2.095,0,1,1,2.094-2.094A2.1,2.1,0,0,1,81.677,72.54Z" style="fill:#275bde"/></svg>