<svg id="b7a6fe77-061f-45c9-9101-a812a454f138" data-name="Layer 1" xmlns="http://www.w3.org/2000/svg" viewBox="0 0 95 95"><path d="M83.048,50.966,70.464,23.247V6.844A2.014,2.014,0,0,0,68.451,4.83H19.667a2.014,2.014,0,0,0-2.013,2.014V64.071a2.013,2.013,0,0,0,2.013,2.013H46.385c.16,4.086.94,8.927,3.449,12.754H48.7a.393.393,0,0,0-.393.393V90.247a1.349,1.349,0,0,0,1.35,1.35H75.2a1.349,1.349,0,0,0,1.349-1.35V79.7a.865.865,0,0,0-.865-.865h-.95l8.757-15.544.059-.114A12.88,12.88,0,0,0,83.048,50.966ZM46.329,52.273v9.811H21.654V8.83h44.81V59.7a2.381,2.381,0,0,1-2.381,2.381H60.828A.832.832,0,0,1,60,61.252V52.036a6.842,6.842,0,0,0-7.733-6.776A6.993,6.993,0,0,0,46.329,52.273ZM72.552,87.6H52.308V82.838H72.552ZM79.976,61.39,70.147,78.838H55c-4.3-3.508-4.673-10.372-4.673-16.557V52.148A2.909,2.909,0,0,1,52.6,49.257,2.839,2.839,0,0,1,56,52.036V63.384a2.7,2.7,0,0,0,2.7,2.7h5.386A6.381,6.381,0,0,0,70.464,59.7V32.925l8.984,19.788.1.188A8.835,8.835,0,0,1,79.976,61.39Z" style="fill:#275bde"/><polygon points="47.352 23.565 30.177 44.807 39.099 44.807 55.818 23.565 47.352 23.565" style="fill:#275bde"/></svg>