<svg id="b35ca486-8814-4fcc-866f-2410a79e26ab" data-name="Layer 1" xmlns="http://www.w3.org/2000/svg" viewBox="0 0 95 95"><path d="M47.5,4.272A43.228,43.228,0,1,0,90.729,47.5,43.278,43.278,0,0,0,47.5,4.272Zm0,81.456A38.228,38.228,0,1,1,85.729,47.5,38.272,38.272,0,0,1,47.5,85.728Z" style="fill:#275bde;fill-rule:evenodd"/><path d="M47.5,14.017A33.483,33.483,0,1,0,80.982,47.5,33.521,33.521,0,0,0,47.5,14.017Zm0,63.966A30.483,30.483,0,1,1,77.982,47.5,30.517,30.517,0,0,1,47.5,77.983Z" style="fill:#275bde;fill-rule:evenodd"/><path d="M48.511,44.648c-5.869-1.492-7.759-3.117-7.759-5.537,0-2.786,2.62-4.742,6.964-4.742,4.576,0,6.3,2.189,6.432,5.438h5.67c-.165-4.443-3.123-9.474-9.162-9.848v-5.67H45.083v5.6c-5.806.039-10.266,4.31-10.266,9.317,0,5.936,4.94,8.92,12.136,10.644,6.466,1.526,7.759,3.814,7.759,6.2,0,1.757-1.293,4.609-6.963,4.609-5.306,0-7.4-2.387-7.693-5.438h-5.7c.331,5.637,4.59,9.344,10.73,9.848v5.637h5.606V65.174c5.873-.2,9.925-3.847,9.958-9.185C60.614,48.694,54.347,46.174,48.511,44.648Z" style="fill:#275bde;fill-rule:evenodd"/></svg>