<svg id="b7b28958-63d9-457e-87c6-aed5871e12de" data-name="Layer 1" xmlns="http://www.w3.org/2000/svg" viewBox="0 0 95 95"><path d="M10.775,35.427h14.1a2.7,2.7,0,0,0,2.711-2.686l-.014-14.1h.014V13.25H24.878a2.681,2.681,0,0,0-.523.052h0a2.681,2.681,0,0,0-.655.234c-.051.025-.1.052-.151.081a2.639,2.639,0,0,0-.572.423l-16.8,16.8a2.692,2.692,0,0,0-.422.572c-.029.05-.056.1-.082.152a2.687,2.687,0,0,0-.285,1.181v2.686h5.388Zm12.26-15.685V30.905H11.589Z" style="fill:#275bde"/><path d="M55.983,13.25H30.169v4.861H53.948V76.779H9.965V38.266H5.387V79.055A2.694,2.694,0,0,0,8.081,81.75h47.9a2.694,2.694,0,0,0,2.694-2.695V15.945A2.694,2.694,0,0,0,55.983,13.25Z" style="fill:#275bde"/><rect x="16.752" y="44.369" width="31.455" height="4.311" style="fill:#275bde"/><rect x="16.752" y="55.381" width="20.202" height="4.311" style="fill:#275bde"/><path d="M78.7,27.917a5.59,5.59,0,0,0,1.844.334,5.665,5.665,0,1,0-5.664-5.665,5.6,5.6,0,0,0,.59,2.471l-4.54,4.715h-8.3v4.31H72.76Z" style="fill:#275bde"/><path d="M83.949,41.35a5.649,5.649,0,0,0-5.289,3.686H62.623v4.31H78.8a5.659,5.659,0,1,0,5.15-8Z" style="fill:#275bde"/><path d="M80.541,66.749a5.627,5.627,0,0,0-1.387.192L72.76,60.3H62.623v4.311h8.3l4.754,4.937a5.648,5.648,0,1,0,4.86-2.8Z" style="fill:#275bde"/></svg>