<svg id="eff4ab1a-8d5b-405b-aeea-3ce7554769bd" data-name="Layer 1" xmlns="http://www.w3.org/2000/svg" viewBox="0 0 95 95"><path d="M46.3,58.512a2.492,2.492,0,0,1-1.767-.732L24.419,37.665a2.5,2.5,0,0,1,0-3.535L52.265,6.284a2.5,2.5,0,0,1,3.535,0L75.915,26.4a2.5,2.5,0,0,1,0,3.535L48.068,57.78A2.493,2.493,0,0,1,46.3,58.512ZM29.721,35.9,46.3,52.476,70.612,28.165,54.033,11.587Z" style="fill:#275bde"/><path d="M88.666,64.236h0l-10.03-20a1.012,1.012,0,0,0-.911-.563H67.28L62.9,48.048H75.625L82.752,62.6H12.467l7.127-14.548h9.822l-4.379-4.379H17.488a1.015,1.015,0,0,0-.907.555L6.339,64.231a1.677,1.677,0,0,0-.182.758V85.021a.929.929,0,0,0,.928.928H87.916a.929.929,0,0,0,.927-.928V64.982A1.661,1.661,0,0,0,88.666,64.236Zm-4.3,17.254H10.856V67.23H84.363Z" style="fill:#275bde"/><polygon points="42.521 58.352 24.335 58.352 26.443 54.051 38.03 54.051 42.521 58.352" style="fill:#275bde"/><polygon points="51.05 58.352 70.665 58.352 68.557 54.051 55.541 54.051 51.05 58.352" style="fill:#275bde"/></svg>