<svg id="b4f502dd-5cb4-400e-bfdb-819475197a21" data-name="Layer 1" xmlns="http://www.w3.org/2000/svg" viewBox="0 0 95 95"><path d="M90.705,18.576a1.846,1.846,0,0,0-.993-1.347L72.494,8.447a1.845,1.845,0,0,0-2.13.361L58.138,21.317,78.486,32.158,90.192,20.18A1.847,1.847,0,0,0,90.705,18.576ZM78.008,29.07,62.257,20.679l9.552-9.774,15.985,8.152Z" style="fill:#275bde"/><path d="M4.8,74.826a1.844,1.844,0,0,0,.479,2.942L22.5,86.552a1.831,1.831,0,0,0,.815.191,1.858,1.858,0,0,0,1.317-.55L37.942,72.621,17.62,61.754Zm29.018-1.574L23.191,84.1,7.208,75.944l10.885-11.1Z" style="fill:#275bde"/><path d="M15.185,41.939l8.251,4.184a.176.176,0,0,0,.208-.277c-2.742-3.126-3.2-8.386-.811-13.1,2.38-4.694,6.863-7.424,10.989-7.09a.175.175,0,0,0,.1-.331l-8.2-4.159c-4.638-2.352-10.757.392-13.666,6.129S10.546,39.587,15.185,41.939Z" style="fill:#275bde"/><path d="M81.389,54.394l-3.83-1.942c.145-4.739-1.9-9.018-5.74-10.967h0L70.2,40.661l7.483-7.649L57.332,22.172l-7.824,8L43.53,27.138c-3.42-1.734-7.487-1.233-10.975.953-2.941.253-5.931,2.495-7.577,5.74-1.708,3.369-1.659,7.046-.154,9.5A11.937,11.937,0,0,0,28.088,51l-9.647,9.88,20.348,10.84,9.6-9.834,10.429,5.233h0c3.845,1.949,8.506,1.07,12.245-1.849l3.825,1.939h0a3.1,3.1,0,0,0,1.417.329c2.064,0,4.477-1.814,5.922-4.665C84.022,59.337,83.647,55.539,81.389,54.394ZM57.809,25.259l15.75,8.391-5.7,5.826L51.846,31.355ZM38.31,68.635,22.559,60.244l10.42-10.672,15.985,8.153ZM80.754,62.13c-1.252,2.469-3.186,3.76-4.449,3.76a1.452,1.452,0,0,1-.67-.15c-1.234-.626-1.545-3.437-.112-6.263,1.252-2.468,3.186-3.76,4.449-3.76a1.452,1.452,0,0,1,.67.15C81.876,56.494,82.187,59.305,80.754,62.13Z" style="fill:#275bde"/></svg>