<svg id="e446fabc-d82d-4ce3-b020-d5800bec6d40" data-name="Layer 1" xmlns="http://www.w3.org/2000/svg" viewBox="0 0 95 95"><path d="M92.93,29.111H89.351V15.88a7.227,7.227,0,0,0-7.218-7.219H16.171A7.227,7.227,0,0,0,8.952,15.88V78.5a7.227,7.227,0,0,0,7.219,7.219H82.133A7.226,7.226,0,0,0,89.351,78.5V65.271H92.93a2.5,2.5,0,0,0,2.5-2.5V31.611A2.5,2.5,0,0,0,92.93,29.111ZM84.351,78.5a2.221,2.221,0,0,1-2.218,2.219H16.171A2.221,2.221,0,0,1,13.952,78.5V15.88a2.221,2.221,0,0,1,2.219-2.219H82.133a2.221,2.221,0,0,1,2.218,2.219V29.111H55.386A7,7,0,0,0,48.4,36.1V58.28a7,7,0,0,0,6.991,6.991H84.351ZM90.43,60.271H55.386A1.993,1.993,0,0,1,53.4,58.28V36.1a1.993,1.993,0,0,1,1.991-1.991H90.43Z" style="fill:#275bde"/><circle cx="64.544" cy="47.191" r="5.919" style="fill:#275bde"/></svg>