<svg xmlns="http://www.w3.org/2000/svg" viewBox="0 0 600 600"><defs><style>.cls-1{fill:#5493f7;}.cls-2{fill:#fff;}</style></defs><g id="Layer_2" data-name="Layer 2"><g id="Symbol"><path class="cls-1" d="M261.35,462.48c15.14,56,69.46,98.74,96.88,97,1-.07,104-19.28,160.48-113.57,43.91-73.37,29-144.2-30.77-145.75-21.49,1.57-255.44,55.63-226.59,162.34"/><path class="cls-1" d="M482.38,102.73l-.06,0,.09-.05A262.17,262.17,0,0,0,206.13,62.76a154.24,154.24,0,0,0-16.61,8.13c-3.68,2-7.36,3.91-10.93,6l.87.27a119.43,119.43,0,0,0-27.66,26.18C76.55,202.78,328.73,275,463.55,275.26,525.57,319.79,543,149.91,482.38,102.73Z"/><path class="cls-2" d="M221.32,104.75c-34.62,52.06-150,88.75-169,83l-.13-.24q1.17-2.36,2.37-4.69a277.67,277.67,0,0,1,82.28-96Q147.49,79,158.9,72.26c16.15-9.36,32.71-10,38.15-10.16,51.39,1,24.55,42.23,24.27,42.65"/><path class="cls-2" d="M192.92,472.72c2.48,16.36-.07,81-3.41,86.43-2.89.18-8.89.54-26.28-9.21A276.56,276.56,0,0,1,37.81,397.16a274.51,274.51,0,0,1-10.47-42.52,279.21,279.21,0,0,1,0-89.63A274.67,274.67,0,0,1,37.81,222.5q1.38-4.16,2.9-8.27h0c19.92,26.49,43,50.45,62.56,77.21,18.65,25.48,44.32,67,49.55,75.88,32.43,55.09,37.59,89.08,40.08,105.41"/><path class="cls-2" d="M576.28,309.83a275.66,275.66,0,0,1-19.23,101.48c-32.54,35-251.95-51.12-254.1-52.06-30-13.15-121.35-53.16-129.59-116C161.51,152.8,345,89.8,425.58,87.41c9.66.11,39.08.45,56.23,14.38a275.65,275.65,0,0,1,94.47,208"/><path class="cls-2" d="M427.76,554.88c-23.92,11.16-50.25,3-43.41-20.26C397.48,489.89,512.17,444,537.5,441.55c3.12-.31,4.45,1.82,3.07,4.24A279.14,279.14,0,0,1,427.76,554.88"/></g></g></svg>