<svg id="Layer_6" data-name="Layer 6" xmlns="http://www.w3.org/2000/svg" viewBox="0 0 600 600"><defs><style>.cls-1{fill:#fff;}.cls-2{fill:#0e3ca5;}.cls-3{fill:#5493f7;}</style></defs><circle class="cls-1" cx="300" cy="300" r="300"/><g id="Symbol"><path class="cls-2" d="M261.24,452.44c15.19,56.16,69.65,99,97.16,97.25,1-.06,104.33-19.33,160.91-113.88,44-73.57,29-144.6-30.85-146.15-21.55,1.57-256.15,55.78-227.22,162.78"/><path class="cls-2" d="M482.89,91.69l-.06,0,.08,0a262.86,262.86,0,0,0-277-40,155.15,155.15,0,0,0-16.66,8.15c-3.68,2-7.38,3.92-11,6l.88.27a119.74,119.74,0,0,0-27.74,26.26C75.93,192,328.81,264.47,464,264.71,526.2,309.36,543.66,139,482.89,91.69Z"/><path class="cls-3" d="M221.11,93.72c-34.73,52.21-150.45,89-169.48,83.27l-.12-.24c.77-1.57,1.57-3.14,2.37-4.7a278.52,278.52,0,0,1,82.51-96.27Q147.07,68,158.51,61.14c16.2-9.38,32.8-10,38.25-10.19,51.53,1,24.62,42.35,24.35,42.77"/><path class="cls-3" d="M192.62,462.71c2.49,16.41-.06,81.21-3.42,86.67-2.89.18-8.91.55-26.35-9.23A277.36,277.36,0,0,1,37.08,211.8C38,209,39,206.25,40,203.51l0,0c20,26.57,43.08,50.6,62.73,77.43,18.71,25.55,44.45,67.19,49.69,76.09,32.52,55.24,37.7,89.32,40.19,105.7"/><path class="cls-3" d="M577,299.37a276.44,276.44,0,0,1-19.28,101.76C525.13,436.2,305.12,349.87,303,348.92c-30.1-13.18-121.69-53.3-129.95-116.34C161.12,141.91,345.08,78.73,425.92,76.33c9.7.11,39.2.46,56.39,14.43A276.38,276.38,0,0,1,577,299.37"/><path class="cls-3" d="M428.11,545.1c-24,11.19-50.39,3-43.53-20.32,13.17-44.85,128.18-90.83,153.58-93.33,3.13-.3,4.46,1.83,3.07,4.26A279.89,279.89,0,0,1,428.11,545.1"/></g></svg>