<svg xmlns="http://www.w3.org/2000/svg" viewBox="0 0 80 80">
  <defs>
    <linearGradient id="a" x1="20.95" x2="79.1" y1="58.17" y2="58.17" gradientUnits="userSpaceOnUse">
      <stop offset=".38" stop-opacity=".06"/>
      <stop offset="1" stop-opacity="0"/>
    </linearGradient>
    <linearGradient id="b" x1="20.95" x2="78.71" y1="58.03" y2="58.03" gradientUnits="userSpaceOnUse">
      <stop offset=".38" stop-opacity=".13"/>
      <stop offset="1" stop-opacity="0"/>
    </linearGradient>
    <linearGradient id="c" x1="20.95" x2="78.31" y1="57.88" y2="57.88" gradientUnits="userSpaceOnUse">
      <stop offset=".38" stop-opacity=".19"/>
      <stop offset="1" stop-opacity="0"/>
    </linearGradient>
    <linearGradient id="d" x1="20.95" x2="77.92" y1="57.74" y2="57.74" gradientUnits="userSpaceOnUse">
      <stop offset=".38" stop-opacity=".25"/>
      <stop offset="1" stop-opacity="0"/>
    </linearGradient>
    <linearGradient id="e" x1="20.95" x2="77.52" y1="57.59" y2="57.59" gradientUnits="userSpaceOnUse">
      <stop offset=".38" stop-opacity=".31"/>
      <stop offset="1" stop-opacity="0"/>
    </linearGradient>
    <linearGradient id="f" x1="20.95" x2="77.13" y1="57.45" y2="57.45" gradientUnits="userSpaceOnUse">
      <stop offset=".38" stop-opacity=".38"/>
      <stop offset="1" stop-opacity="0"/>
    </linearGradient>
    <linearGradient id="g" x1="20.95" x2="76.73" y1="57.3" y2="57.3" gradientUnits="userSpaceOnUse">
      <stop offset=".38" stop-opacity=".44"/>
      <stop offset="1" stop-opacity="0"/>
    </linearGradient>
    <linearGradient id="h" x1="20.95" x2="76.34" y1="57.16" y2="57.16" gradientUnits="userSpaceOnUse">
      <stop offset=".38" stop-opacity=".5"/>
      <stop offset="1" stop-opacity="0"/>
    </linearGradient>
    <linearGradient id="i" x1="20.95" x2="75.94" y1="57.02" y2="57.02" gradientUnits="userSpaceOnUse">
      <stop offset=".38" stop-opacity=".56"/>
      <stop offset="1" stop-opacity="0"/>
    </linearGradient>
    <linearGradient id="j" x1="20.95" x2="75.55" y1="56.87" y2="56.87" gradientUnits="userSpaceOnUse">
      <stop offset=".38" stop-opacity=".63"/>
      <stop offset="1" stop-opacity="0"/>
    </linearGradient>
    <linearGradient id="k" x1="20.95" x2="75.15" y1="56.73" y2="56.73" gradientUnits="userSpaceOnUse">
      <stop offset=".38" stop-opacity=".69"/>
      <stop offset="1" stop-opacity="0"/>
    </linearGradient>
    <linearGradient id="l" x1="20.95" x2="74.75" y1="56.59" y2="56.59" gradientUnits="userSpaceOnUse">
      <stop offset=".38" stop-opacity=".75"/>
      <stop offset="1" stop-opacity="0"/>
    </linearGradient>
    <linearGradient id="m" x1="20.95" x2="74.36" y1="56.45" y2="56.45" gradientUnits="userSpaceOnUse">
      <stop offset=".38" stop-opacity=".81"/>
      <stop offset="1" stop-opacity="0"/>
    </linearGradient>
    <linearGradient id="n" x1="20.95" x2="73.96" y1="56.31" y2="56.31" gradientUnits="userSpaceOnUse">
      <stop offset=".38" stop-opacity=".88"/>
      <stop offset="1" stop-opacity="0"/>
    </linearGradient>
    <linearGradient id="o" x1="20.95" x2="73.57" y1="56.18" y2="56.18" gradientUnits="userSpaceOnUse">
      <stop offset=".38" stop-opacity=".94"/>
      <stop offset="1" stop-opacity="0"/>
    </linearGradient>
    <linearGradient id="p" x1="20.95" x2="73.17" y1="56.05" y2="56.05" gradientUnits="userSpaceOnUse">
      <stop offset=".38"/>
      <stop offset="1" stop-opacity="0"/>
    </linearGradient>
    <linearGradient id="q" x1="20.95" x2="73.17" y1="68.26" y2="68.26" gradientUnits="userSpaceOnUse">
      <stop offset="0" stop-color="#004080"/>
      <stop offset=".32" stop-color="#004383"/>
      <stop offset=".59" stop-color="#004d8d"/>
      <stop offset=".82" stop-color="#005e9d"/>
      <stop offset="1" stop-color="#0070af"/>
    </linearGradient>
    <linearGradient id="r" x1="47.06" x2="47.06" y1="63.55" y2="72.98" gradientUnits="userSpaceOnUse">
      <stop offset=".35" stop-color="#009fdf"/>
      <stop offset=".65" stop-color="#009ddd"/>
      <stop offset=".75" stop-color="#0096d6"/>
      <stop offset=".83" stop-color="#008bcb"/>
      <stop offset=".89" stop-color="#007aba"/>
      <stop offset=".94" stop-color="#0064a4"/>
      <stop offset=".99" stop-color="#004989"/>
      <stop offset="1" stop-color="#004080"/>
    </linearGradient>
    <linearGradient id="s" x1="20.95" x2="73.17" y1="52.41" y2="52.41" gradientUnits="userSpaceOnUse">
      <stop offset="0" stop-color="#009fdf"/>
      <stop offset=".02" stop-color="#02a1e1"/>
      <stop offset=".24" stop-color="#13b2f2"/>
      <stop offset=".49" stop-color="#1dbcfc"/>
      <stop offset=".79" stop-color="#20bfff"/>
      <stop offset=".84" stop-color="#1ebcfc"/>
      <stop offset=".88" stop-color="#19b2f2"/>
      <stop offset=".92" stop-color="#11a1e1"/>
      <stop offset=".95" stop-color="#0589c9"/>
      <stop offset=".97" stop-color="#007fbf"/>
      <stop offset="1" stop-color="#20bfff"/>
    </linearGradient>
  </defs>
  <g data-name="Layer 1">
    <path fill="#0e3ca5" d="M33.66 55.69c1.67 6.17 7.65 10.88 10.67 10.68.1 0 11.45-2.12 17.66-12.5 4.84-8.08 3.19-15.88-3.39-16C56.24 38 30.48 44 33.66 55.69M58 16.09a28.84 28.84 0 0 0-30.42-4.39 17.27 17.27 0 0 0-1.83.9c-.4.21-.81.43-1.2.66h.09a13.45 13.45 0 0 0-3 2.88c-8.28 11 19.48 18.9 34.32 18.92C62.75 40 64.66 21.28 58 16.09Z"/>
    <path fill="#5493f7" d="M29.25 16.31c-3.81 5.73-16.51 9.77-18.6 9.14l.27-.52a30.71 30.71 0 0 1 2.47-4 30.28 30.28 0 0 1 3-3.55 31.16 31.16 0 0 1 3.54-3c.78-.57 1.6-1.11 2.43-1.6a9 9 0 0 1 4.2-1.12c5.66.11 2.7 4.65 2.67 4.69m-3.1 40.47c.27 1.8 0 8.92-.38 9.52-.32 0-1 .06-2.89-1a29.48 29.48 0 0 1-2.86-1.9 30.54 30.54 0 0 1-6.58-6.59 30.71 30.71 0 0 1-2.47-4 29.52 29.52 0 0 1-1.9-4.35 30.18 30.18 0 0 1-1.15-4.68 30.58 30.58 0 0 1 0-9.82 30.18 30.18 0 0 1 1.15-4.68c.1-.31.21-.61.32-.91 2.19 2.92 4.73 5.56 6.89 8.5s4.88 7.38 5.45 8.36c3.57 6.06 4.14 9.8 4.42 11.6m42.2-17.98a30.28 30.28 0 0 1-2.12 11.17c-3.58 3.85-27.73-5.63-28-5.73-3.27-1.45-13.33-5.85-14.21-12.77-1.3-10 18.89-16.89 27.77-17.16 1.06 0 4.3 0 6.19 1.59a30.35 30.35 0 0 1 10.4 22.9M52 65.87c-2.63 1.23-5.53.33-4.78-2.23 1.45-4.93 14.07-10 16.86-10.25.34 0 .49.2.34.47A30.75 30.75 0 0 1 52 65.87"/>
    <g opacity=".3">
      <path fill="url(#a)" d="M22.91 38.12a1.83 1.83 0 0 0-2 1.66v30.91a2.13 2.13 0 0 0 2 2.26c28.53.17 56.21 8.16 56.19 4.14V42.71c.02-4.1-27.66-4.57-56.19-4.59Z" opacity=".06"/>
      <path fill="url(#b)" d="M22.9 38.12a1.82 1.82 0 0 0-1.9 1.66v30.91a2.14 2.14 0 0 0 2 2.26c28.33.16 55.81 7.76 55.8 3.88v-34c-.08-3.93-27.56-4.67-55.9-4.71Z" opacity=".13"/>
      <path fill="url(#c)" d="M22.9 38.12a1.83 1.83 0 0 0-1.9 1.66v30.91a2.14 2.14 0 0 0 2 2.26c28.13.15 55.42 7.36 55.4 3.61V43.04c-.07-3.84-27.4-4.87-55.5-4.92Z" opacity=".19"/>
      <path fill="url(#d)" d="M22.9 38.12a1.83 1.83 0 0 0-1.9 1.66v30.91a2.14 2.14 0 0 0 2 2.26c27.93.15 55 7 55 3.34V43.2c-.07-3.71-27.16-5.01-55.1-5.08Z" opacity=".25"/>
      <path fill="url(#e)" d="M22.9 38.12a1.83 1.83 0 0 0-1.9 1.66v30.91a2.12 2.12 0 0 0 2 2.25c27.73.15 54.63 6.57 54.61 3.08V43.36c-.07-3.58-26.96-5.16-54.71-5.24Z" opacity=".31"/>
      <path fill="url(#f)" d="M22.9 38.12a1.84 1.84 0 0 0-1.9 1.66v30.91a2.12 2.12 0 0 0 2 2.25c27.53.14 54.23 6.17 54.22 2.81V43.52c-.08-3.44-26.77-5.31-54.32-5.4Z" opacity=".38"/>
      <path fill="url(#g)" d="M22.9 38.12a1.83 1.83 0 0 0-1.9 1.66v30.91a2.12 2.12 0 0 0 2 2.25c27.33.13 53.83 5.77 53.82 2.54v-31.8c-.08-3.31-26.57-5.51-53.92-5.56Z" opacity=".44"/>
      <path fill="url(#h)" d="M22.9 38.13a1.82 1.82 0 0 0-1.9 1.65v30.91a2.12 2.12 0 0 0 2 2.25c27.13.12 53.44 5.37 53.43 2.27V43.84c-.08-3.17-26.38-5.67-53.53-5.71Z" opacity=".5"/>
      <path fill="url(#i)" d="M22.9 38.13a1.82 1.82 0 0 0-1.9 1.65v30.91a2.12 2.12 0 0 0 2 2.25c26.93.11 53 5 53 2V44c0-3-26.15-5.82-53.1-5.87Z" opacity=".56"/>
      <path fill="url(#j)" d="M22.9 38.13a1.82 1.82 0 0 0-1.9 1.65v30.91a2.12 2.12 0 0 0 2 2.25c26.73.1 52.65 4.58 52.64 1.74V44.17c-.08-2.92-25.99-5.99-52.74-6.04Z" opacity=".63"/>
      <path fill="url(#k)" d="M22.9 38.13a1.81 1.81 0 0 0-1.9 1.65v30.91a2.12 2.12 0 0 0 2 2.25c26.53.09 52.25 4.18 52.24 1.47V44.33c-.08-2.78-25.79-6.14-52.34-6.2Z" opacity=".69"/>
      <path fill="url(#l)" d="M22.9 38.13a1.81 1.81 0 0 0-1.9 1.65v30.91a2.12 2.12 0 0 0 2 2.25c26.33.09 51.86 3.78 51.84 1.2V44.49c-.07-2.65-25.59-6.29-51.94-6.36Z" opacity=".75"/>
      <path fill="url(#m)" d="M22.9 38.13a1.82 1.82 0 0 0-1.9 1.65v30.91a2.12 2.12 0 0 0 2 2.25c26.13.08 51.46 3.38 51.45.93V44.65c-.08-2.52-25.39-6.45-51.55-6.52Z" opacity=".81"/>
      <path fill="url(#n)" d="M22.9 38.13a1.82 1.82 0 0 0-1.9 1.65v30.91a2.12 2.12 0 0 0 2 2.25c25.84.06 51 2.98 51 .66V44.82c0-2.39-25.14-6.61-51.1-6.69Z" opacity=".88"/>
      <path fill="url(#o)" d="M22.9 38.13a1.82 1.82 0 0 0-1.9 1.65v30.91a2.12 2.12 0 0 0 2 2.25c25.73.06 50.67 2.58 50.66.39V44.98c-.08-2.26-25-6.77-50.76-6.85Z" opacity=".94"/>
      <path fill="url(#p)" d="M22.9 38.13a1.82 1.82 0 0 0-1.9 1.65v30.91a2.12 2.12 0 0 0 2 2.25c25.53.1 50.28 2.18 50.26.13V45.14c-.07-2.14-24.8-6.78-50.36-7.01Z"/>
    </g>
    <path fill="url(#q)" d="M21 70.69A2.13 2.13 0 0 0 22.89 73c25.58.18 50.28-1 50.28-4.83 0-11.66-52.17 2.52-52.17 2.52Z"/>
    <path fill="url(#r)" d="M21 70.69A2.13 2.13 0 0 0 22.9 73c25.58.2 50.24-.61 50.27-4.83 0-11.66-52.17 2.52-52.17 2.52Zm1.9 2.11h-.2a2 2 0 0 1-1.7-1.48 2 2 0 0 0 1.86 1.47c25.56-.16 49.87-8 49.87-4.56S48.46 73 22.9 72.8Z"/>
    <path fill="url(#s)" d="M22.91 37.83a2 2 0 0 0-2 2v30.86a2 2 0 0 0 1.94 2c25.62-.24 50.35-8.69 50.32-4.57V33.31c.03-4.14-24.69 4.33-50.26 4.52Z"/>
    <path fill="#fff" d="M45.79 49.05c-.07 0-.14.07-.17.13a3.82 3.82 0 0 1 2.06 3.24 4.89 4.89 0 0 1-2 3.74.52.52 0 0 0 .13.06c.11 0 .21.11.31.15a6.33 6.33 0 0 0 3.21.34 5 5 0 0 0 3-1.55 6.21 6.21 0 0 0 1.67-4.4 3.55 3.55 0 0 0-2.5-3 7 7 0 0 0-5.71 1.29Zm3.52-.7v.14c0 .06-.09 0-.09-.07a.07.07 0 0 1 .09-.07Zm-.18.38a.1.1 0 0 1 .12 0s0 0 0 .08v.05h.19c.06 0 0 0 0 .06a.21.21 0 0 1-.19 0 .26.26 0 0 1-.16 0 .81.81 0 0 0 0-.11c.04 0-.03-.04.04-.08Zm.25 0a.33.33 0 0 1-.13-.07s0-.06 0-.09c.07 0 .1 0 .1.07s.06.05.03.11Zm-.26-.24h.1a.24.24 0 0 1-.06.11c0 .06-.1 0-.1 0a.2.2 0 0 1 .06-.09Zm-.28.23s0-.06.06 0 0 0 .06 0a.11.11 0 0 1 0 .14s-.06.06-.13 0 .01-.09.01-.12Zm-2.46.28-.07.07h-.42c.07-.12.25-.14.31-.26a.36.36 0 0 0 .28-.14.3.3 0 0 1 .1-.07.61.61 0 0 0 .17-.07h.14c.07 0 .07-.06.13-.1a1.06 1.06 0 0 1 .31 0c.07 0 .24 0 .24.08v.1a.15.15 0 0 1 .06.1s0 0 0 .06a.45.45 0 0 1-.1.13.2.2 0 0 1-.13.07s0-.13 0-.16-.07 0-.07 0h-.06l-.14.1a.33.33 0 0 1-.17 0h-.48c-.03 0-.1.09-.1.09Zm.32.89h-.14c-.04 0 0 0 .11-.07h.1s-.03.09-.07.1Zm.17-.13h-.1a.23.23 0 0 1 .14 0s.1 0 .1 0-.1.02-.14.03Zm1.57.56c-.07 0-.1 0-.1-.07s-.07-.05 0-.08h.1s.03.14 0 .18Zm2.94-2.27h.06s.08-.07.13 0 .11 0 .13 0a.44.44 0 0 0 .13.09s0 0 0 .08h-.45c-.03 0-.02-.14 0-.14Zm0 3.31c.06 0 .14-.06.16 0s-.05 0-.05 0h-.1a.08.08 0 0 1-.08 0s0 0-.06 0h.05s.11-.02.13.03Zm-.06-1.69s.05-.09.08-.1 0 0 0 .08 0 .06-.05.09.02-.01.02-.04Zm.05-.2v-.17c0-.03.06-.07.08 0s0 .06 0 .08.13 0 .13 0v.09a.05.05 0 0 1-.05-.05s-.08.13-.11.08Zm.25 1.92h.08a.08.08 0 0 1 0 .05s-.07 0-.1 0Zm-.28-2.18s.08 0 .06.09-.11.13-.19.15-.08 0-.14.05 0 .06-.08.09.08 0 .11 0h.14c.08 0 0 0-.06-.07s.08 0 .11 0h-.06c0 .06.06 0 .06.07v.08a2 2 0 0 0-.13.22c-.06.06 0 .13-.08.2s-.09.15-.11.21a.58.58 0 0 1 0 .22c-.05.07-.11.13-.17.22a.18.18 0 0 0 0 .11v.08a.18.18 0 0 1 0 .25c0 .06-.08 0-.09 0s0-.09 0-.11a.17.17 0 0 0-.11-.07c-.06 0-.09 0-.15.05l-.14.08h-.24a.19.19 0 0 0-.06.14c0 .06-.06.07-.06.12a.53.53 0 0 0 .06.13s.06.07.09.09a.11.11 0 0 0 .12 0c.09 0 .18-.14.27-.1s-.06.15 0 .22.18 0 .26 0 .09.09.09.17v.14a.29.29 0 0 0 .11 0S51 52 51 52h.11a.06.06 0 0 0 .06-.06s0-.09.08-.1a.91.91 0 0 0 .26-.13s0 0 .06 0 0 0 0 .06l-.08.1a.34.34 0 0 0 .16-.11c0-.06 0 0 .1 0h.07c.02 0 .1.09.15.11a.61.61 0 0 1 .14.07l.08.06a.1.1 0 0 0 0 .07.26.26 0 0 0 .18 0s.07.06.13.1a.3.3 0 0 1 0 .19h.55s.09 0 .09.06a.33.33 0 0 0 .11.16c0 .05.06.07 0 .1a.33.33 0 0 0-.06.12 1 1 0 0 1-.14.23 1.1 1.1 0 0 0-.15.25.22.22 0 0 0 0 .11c-.06 0-.06.07-.09.13a.94.94 0 0 1-.16.23 1 1 0 0 1-.19.15 1.15 1.15 0 0 0-.15.2l-.2.18a.16.16 0 0 1-.09.07s-.08 0-.12.08-.15.11-.2.18l-.18.22a1.22 1.22 0 0 1-.26.16 2.38 2.38 0 0 0-.19.17 1.1 1.1 0 0 0-.2.28c0 .06-.08.14-.14.23s0 .09-.08.1 0 0-.06 0 .06-.06.08 0v.29c0 .06-.05 0-.05 0a.07.07 0 0 1-.06 0s0 0-.09 0 0-.08 0-.1v-.2c-.09 0 0-.1 0-.13v-.19c0-.06.08-.1.11-.13s.09 0 .09-.07.09-.13.09-.18a.58.58 0 0 1 .11-.18l.08-.17v-.14s0-.06.06-.09 0-.06 0-.11h.05v-.09a.36.36 0 0 0 0-.19V54a.1.1 0 0 0 0-.08v-.14a.15.15 0 0 1-.11-.08s-.05-.07-.08-.09 0-.09 0-.14 0-.16-.06-.23 0-.07 0-.13a.18.18 0 0 0 0-.13v-.24c0-.06 0-.11.05-.14a1.05 1.05 0 0 1 .08-.13.25.25 0 0 0-.08-.23h-.11c-.03 0 0 .12-.06.09s0 0-.05-.07h-.06a.15.15 0 0 1-.11 0s0-.08-.09-.09-.09 0-.12 0a.48.48 0 0 1-.23-.1.27.27 0 0 0-.15 0h-.15a.49.49 0 0 1-.44-.26s0-.08-.07-.1-.09 0-.12 0a.17.17 0 0 1-.07-.1c0-.05-.06 0-.09-.06a1.13 1.13 0 0 1-.1-.13s0 0-.07-.1 0-.07-.06-.07-.1 0-.07.07.1.06.13.09.07 0 0 .1a.12.12 0 0 0 .06.1s.07.13 0 .11-.13-.12-.2-.19a.44.44 0 0 1-.13-.23.21.21 0 0 1-.1-.09.45.45 0 0 1-.1-.13s-.07-.07-.07-.09a.17.17 0 0 1 0-.11 1 1 0 0 1 0-.3v-.21c0-.02 0 0 0 0s-.17-.3-.27-.45-.1-.15-.2-.14a.92.92 0 0 0-.37 0h-.27a.32.32 0 0 1-.17 0h-.07l.12-.12a.43.43 0 0 1 .24-.06h.1c.03 0 0 0 0-.08a.13.13 0 0 1 0-.19l.07-.06c0-.06 0 0 .06-.07s.07 0 .07 0a.23.23 0 0 1 .06-.12 1.56 1.56 0 0 1 .21-.08c.1 0 .2-.11.26-.09s.07 0 .07 0a.11.11 0 0 1 .1 0c.1 0 .2 0 .3.07s.19 0 .29 0a.13.13 0 0 1 .13 0c.07 0 .1 0 .16.05a.72.72 0 0 0 .29 0c.06 0 .09 0 .16-.08s0-.07-.07-.12 0-.08 0-.11.06-.06.09 0 .06 0 .13.07l.12.06c.06 0 .19.05.22.1a.65.65 0 0 0-.15.11s0 .1 0 .13-.09.09-.12.15-.06.06 0 .11h.12a.44.44 0 0 1 .19 0h.18c.09 0 .09 0 .14.06s0-.16 0-.24-.06 0-.09-.06 0-.06 0-.08-.09 0-.06-.1 0-.06.09-.07a.39.39 0 0 1 .26 0h.21a.34.34 0 0 0 .22.09 1.57 1.57 0 0 0 .25 0h.09a.08.08 0 0 1 0 .19Zm-.22 2.2s-.09 0-.11.05a1 1 0 0 1-.23-.07s-.06 0-.06-.07.09 0 .09 0a1.09 1.09 0 0 0 .25 0l.11.12Zm-1-2.35c0 .06 0 .08-.06.07a.15.15 0 0 1-.12 0H50c.1-.05.13-.06.16-.04ZM49.71 48l.1-.13a.44.44 0 0 1 .15-.05h.39a.26.26 0 0 1 .15 0h.15a.27.27 0 0 0 .12.07s0 0 .11 0h.14c.05 0 0 0 0 .11s0 .07.06.12 0 .06 0 .11a.15.15 0 0 1 0 .12s0 0 .06.07a.11.11 0 0 1 .08.09c0 .11-.08.15-.16.17a1 1 0 0 1-.25 0 .69.69 0 0 1-.26-.12s-.06-.07-.09-.07-.09 0-.09-.06v-.11c0 .01-.09 0-.15 0H50a.86.86 0 0 0-.15 0v.06h-.07c0 .13.16 0 .25.07a2.72 2.72 0 0 1 .3 0c.06 0 .06 0 .09.06a.27.27 0 0 0 .12.07h.15c.05 0 .05 0 0 .08s-.09 0-.09 0v.13c0 .05 0 .08-.06.09s-.08 0-.14 0-.27.1-.27 0 .06-.09.06-.12 0 0-.06-.07h-.16a.14.14 0 0 1-.15-.06s-.06 0-.06 0l-.07-.08a.1.1 0 0 0-.12-.06c-.09 0-.1 0-.13-.09v-.08h-.06c-.06 0 0 0 0 0s-.07 0-.07-.07.13 0 .13 0a.13.13 0 0 0 .06-.09.11.11 0 0 1 0-.09l.15-.05.06-.02Zm-.12 0h-.09s-.07.06-.07.09a.06.06 0 0 0-.06.06s-.09 0-.06 0a.3.3 0 0 1 .12-.15s.19-.07.16 0Zm2.57-3.76a.22.22 0 0 1-.11-.2.71.71 0 0 1 .1-.33l.41-.72s.16-.24.28-.26a.56.56 0 0 1 .22 0 .28.28 0 0 1 .15.05s.24.07.18.29a3.56 3.56 0 0 1-.64 1s-.19.3-.42.23ZM54.23 48a6.11 6.11 0 0 1 1.35 3.82c0 4.84-3.78 9.52-9.86 10.62.42-.15.85-.3 1.27-.48a15.53 15.53 0 0 0 2.87-1.48 8.38 8.38 0 0 0 2.52-2.39 10.08 10.08 0 0 0 1.62-3.6 15.24 15.24 0 0 0 .19-2.49v-3.24Zm-3.76 2s-.12.21-.18.19 0 0 0-.06v-.08c0-.02.15-.05.18-.05ZM39.3 44.57c-.15-.24-.23-.36-.37-.6.15-.1.23-.16.4-.26h.16a3.09 3.09 0 0 1 .28.44s0 .11-.09.14a2 2 0 0 1-.38.28Zm11.4 5.49h-.11c-.03 0-.15 0-.06-.07a.14.14 0 0 1 .11 0s.12.01.06.07Zm-.29-.25s0 .08.06.13h-.3a.29.29 0 0 0 .15 0s-.09 0-.06-.1.12-.02.15-.03Zm.55.13s-.14.05-.17.05h.08c.08 0 .13-.08.13-.05Zm-5.12-7.21-.79.1.45-.78Zm-5.11 9.11c.07 0 0-.08 0-.11v-.11s0-.08.1-.09.12-.05.09 0-.06.06 0 .11 0 0 0 .14 0 .08-.09.09-.07 0-.1 0-.03-.02 0-.03ZM40 50.73h-.12s-.05-.09-.05-.14.23 0 .26 0a.12.12 0 0 1 0-.06s0 0 .06 0 .05-.09.08-.12a.59.59 0 0 1 .22-.19s.12 0 .12 0a.12.12 0 0 1-.06.12s-.09 0-.13 0-.09 0-.12.1 0 0 0 .05.09 0 .12 0h.21c-.06 0-.18 0-.24.09s-.12 0-.18.08-.09 0-.12 0a1.06 1.06 0 0 1-.05.07Zm.18 0s-.06 0 0 0 .07-.03.04 0Zm6.47 10a3.37 3.37 0 0 0 .68-.22l.4-.15c.11 0 .21-.14.34-.19s.26-.15.43-.23h.16c.06 0 .1-.05.13-.05s0-.08-.1-.09a.13.13 0 0 0-.13 0h-.19c-.07 0-.13 0-.23.06h-.24a2.5 2.5 0 0 1-.67 0h-.27a2.29 2.29 0 0 1-.37 0 4.16 4.16 0 0 0-.59-.13 1.15 1.15 0 0 1-.34-.06h-.38a5 5 0 0 0-.66.09.53.53 0 0 0-.17.08.47.47 0 0 1-.14 0 1.27 1.27 0 0 1-.38 0s-.17 0-.1-.06l.13-.08a.81.81 0 0 1 .31-.1h.32l.34-.05a5.75 5.75 0 0 0 .69-.18c.14 0 .25-.06.38-.09a1.13 1.13 0 0 1 .18-.07h.17a.44.44 0 0 1 .17-.08.4.4 0 0 0 .17 0l.34-.13a3.83 3.83 0 0 0 .65-.26 1.45 1.45 0 0 0 .33-.16 2 2 0 0 0 .27-.17.84.84 0 0 1 .29-.16 1.45 1.45 0 0 0 .33-.16c.12-.07-.13-.08-.16-.1a1.22 1.22 0 0 0-.33 0c-.1 0-.2.06-.33.08h-.33a1 1 0 0 1-.34 0H47c-.14 0-.44.07-.68.1a2 2 0 0 1-.35.08 1.37 1.37 0 0 0-.34.07c-.25.12-.45.23-.7.37s-.38.28-.55.41-.14.15-.24.25a.44.44 0 0 0-.11.12s-.1.05-.13.08a1.51 1.51 0 0 1-.31.12c-.07 0-.11.07-.14.08h-.2a2.18 2.18 0 0 0-.24 0 .66.66 0 0 0-.14 0h-.3c-.1 0 .07-.06.07-.09v-.08s.1-.07.14-.13v-.06s.1.1.07.13-.14.1-.1.15.13 0 .16 0h.21a1.42 1.42 0 0 0 .41-.14l.2-.11s0-.09.07-.15a.54.54 0 0 0 .17-.3c0-.08 0-.16-.07-.23h-.17a.34.34 0 0 1-.17 0 1.48 1.48 0 0 0-.34 0 1.86 1.86 0 0 0-.31.1 1 1 0 0 0-.27.17.31.31 0 0 1-.1.12.78.78 0 0 1-.1.15.24.24 0 0 0 .07.13s0 .06-.06.06 0 .09-.07.15-.07 0-.13 0a.77.77 0 0 0-.33 0 3.19 3.19 0 0 1-.59-.14 2.2 2.2 0 0 1-.57-.21 4.42 4.42 0 0 0-.53-.27c-.09 0-.21-.08-.3-.13s-.17 0-.23 0-.06-.08-.15-.07 0 .06 0 .11a.43.43 0 0 0 .2.14 1.34 1.34 0 0 1 .45.34c.12.15.12.34.3.43s.09 0 .16 0h.12a.45.45 0 0 1 .19 0 .18.18 0 0 1 .13 0c.22 0 .44.06.67.11l.6.12h.33a1.63 1.63 0 0 0 .38 0c0-.08-.11-.1 0-.16s.1 0 .1.07.1.07.14.09l.17.11a.08.08 0 0 1 0 .08.08.08 0 0 0 0 .08s.14.06.07.12-.11.05-.14 0l-.1-.15a.89.89 0 0 0-.21.33 1 1 0 0 1 0 .15V61a1 1 0 0 0 .1.18.39.39 0 0 0 .17.06.66.66 0 0 0 .34.12.7.7 0 0 0 .35 0 .56.56 0 0 0 .2-.08s.07-.09.07-.12a.61.61 0 0 1 .07-.15v-.13a.69.69 0 0 0-.07-.29.57.57 0 0 0-.51-.37l-.25.06c-.06 0 0-.05-.06-.1s-.14-.11-.21-.19 0 0 .1 0h.21c.04 0 0 .07.07.07H44c.07 0 .13.06.2.08a.87.87 0 0 0 .18.11.58.58 0 0 0 .27.2c.24.08.52.14.76.21s.24 0 .35.06a2.11 2.11 0 0 0 .93.01Zm-1.47-1.67c.24-.12.55-.22.79-.31s.45-.12.66-.18.48-.09.71-.16.21 0 .31-.07h.2-.07c-.07 0-.2 0-.3.07a1.86 1.86 0 0 0-.37.14l-.27.15c-.11 0-.24.06-.35.08a3.16 3.16 0 0 0-.72.18c-.21.06-.45.12-.69.21l-.66.26a.14.14 0 0 1-.07 0c.34-.11.59-.25.87-.37Zm-4.61.68v-.19c0-.03 0 0 .06 0s-.12-.21-.15-.23-.19-.09-.16-.15.13.1.19.12a.66.66 0 0 1 .18.14.56.56 0 0 1 .1.26c-.06.06-.12.1-.18.05Zm4.85.45a1.42 1.42 0 0 1-.28-.07h-.35a2 2 0 0 1 .69 0 8.3 8.3 0 0 0 .83.12h.48a1.68 1.68 0 0 0 .44 0l.34-.05v.06a.72.72 0 0 0-.33.11 2.65 2.65 0 0 1-.48.07h-.34l-.34-.05c-.21-.06-.42-.14-.62-.19Zm-3.72-2.54a7.47 7.47 0 0 0 3.33-1.31.09.09 0 0 1-.14-.07s.07-.09.1-.12a.12.12 0 0 1 .1 0h.07s.07-.07.1-.07h.06l.08-.06a3.73 3.73 0 0 0 .3-.26l-.16.11h-.14a.49.49 0 0 0-.17 0h-.14c-.03 0 0-.08-.07-.13a.78.78 0 0 1 0-.28c-.07 0-.11.1-.14.07s0-.05-.07-.1-.11-.15-.25-.16a3.35 3.35 0 0 0-.66.14s-.1 0-.14 0-.07-.07 0-.11a.28.28 0 0 0 .07-.11.31.31 0 0 0 0-.14A.16.16 0 0 1 44 55a1 1 0 0 0 .07-.15.49.49 0 0 1 .21-.19 1.06 1.06 0 0 0 .31-.14h.14a.44.44 0 0 1 .11-.09.54.54 0 0 1 .31-.14c.11 0 .18-.13.28-.17h.35c.07 0 0 0 0 .07s0 .06-.07.12 0 .13.1.18.07 0 .11 0 .07-.06.07-.11.07-.09.07-.12 0-.11.07-.14.1.15.1.2a.21.21 0 0 0 0 .13.17.17 0 0 1 0 .13.36.36 0 0 0 0 .27v.29c0 .03-.07.09-.07.12l-.11.15s-.07.06-.1.09a.08.08 0 0 1 0 .05 4.93 4.93 0 0 0 1.14-1.8c-.07 0 0-.05-.07-.07s0 0 0-.06l.11-.06a3.44 3.44 0 0 0 .15-1.1 3.64 3.64 0 0 0-2-3.09 6.06 6.06 0 0 0-3.71-.65A5.14 5.14 0 0 0 37 53.88c.13 2.44 1.78 4.12 4.74 3.77ZM40.53 55s-.06.09-.06.12a.16.16 0 0 0-.06.12.78.78 0 0 0 0 .14s.06.07 0 .1-.06.07-.09.07a.31.31 0 0 1-.12-.09c-.06-.05 0-.16 0-.22v-.27c0-.05 0-.09.06-.12s.06-.06.12-.1 0-.05.06-.09.09 0 .09.07V55Zm2-1.72a.13.13 0 0 1-.1.12c-.06 0 0-.11 0-.13s.1-.12.1-.12-.01.13-.01.16Zm1.52.5c0 .06-.14-.12-.18-.12a.79.79 0 0 0-.14-.17s-.17-.12-.21-.11a.34.34 0 0 1-.14 0s0 0 0-.08a.44.44 0 0 1 .28 0 .71.71 0 0 1 .21.11.63.63 0 0 1 .17.14c.06.06-.04.2-.04.26Zm.45.14a.16.16 0 0 0-.14 0h-.18c-.07 0-.1 0-.06-.1s0-.08 0-.11 0 .08.07.13.14 0 .17 0h.14s.06.1-.01.16Zm.07-.39a.21.21 0 0 0-.14 0h-.14a.34.34 0 0 1 0-.1s-.07-.05 0-.1 0-.06.06-.09a.48.48 0 0 0 .25-.11l.14-.1s.06-.09.1-.07.14 0 .14 0l-.1.1c-.1.1 0 0 0 .08v.1c0 .1-.1.1-.1.13v.11a.08.08 0 0 1-.22.08Zm.72-.68s.08.1 0 .14a.17.17 0 0 1-.15 0s-.07 0-.1 0c-.07 0-.08 0 0-.07s.1 0 .17 0 0-.06 0-.09 0 0-.07-.05.07-.08.1-.09.07.07 0 .11.04.03.04.08Zm-.09.63s-.21 0-.11.07.07 0 .07.05 0 0-.07 0a.06.06 0 0 1-.07 0s0 0-.07 0 .14.15 0 .19a.37.37 0 0 1-.14-.07v-.11a.22.22 0 0 1 .1-.2.61.61 0 0 1 .31-.09c.08.05 0 .09-.06.09s-.14 0-.14.1.27-.09.17 0Zm-.19-.9s.14.07.07.08-.15-.01-.08-.05Zm.14-2.51s0-.13-.07-.15-.28-.13-.35-.23c.14 0 .28.13.39.17s0 0 .07.07 0 .06 0 .08.21.08.14.12a.37.37 0 0 1-.19-.03Zm0 2.5c-.07 0 0-.13 0-.08a.24.24 0 0 1 0 .07s-.01.04-.04.04ZM45 52v-.17a.1.1 0 0 1 0-.08s.07 0 .07 0a1 1 0 0 0 0 .15.12.12 0 0 1-.07.1Zm.07.29v.27h-.14v-.08c0-.03-.1-.18 0-.19a.08.08 0 0 1 .07-.03ZM44.8 54h-.14c-.07 0-.1 0 0 0a.23.23 0 0 1 .14 0h.1a.2.2 0 0 1 .14 0c.07 0 .11 0 0 .05s-.2-.05-.24-.05Zm.49.06h-.28s-.07 0 0 0a.7.7 0 0 0 .24-.06h.11l-.07.05Zm0-.79v-.17c0-.06.14 0 .14 0v.09c0 .03 0 0 .07 0s0 .08 0 .08-.21.02-.21-.01Zm.25-2.15c0 .06-.1.1-.17.11s.1-.13.17-.12Zm1.59 2.42c-.06 0-.1-.15 0-.19s.07.14 0 .18Zm-.24-.35c.1 0 .24 0 .21.11a.07.07 0 0 1-.07.06s0 0 0-.05a.07.07 0 0 1 0-.08s-.07 0-.07 0Zm0 .19v.06h-.14c.03 0 .15-.02.11-.07Zm-1-.2v.06a.06.06 0 0 0 .07 0c.07 0 .18-.1.28-.06s.14.15.25.19a.27.27 0 0 1 .14 0s0 0 0 .05.07 0 .07 0a.69.69 0 0 1 .17.22c0 .05.18.19.07.23s-.1-.07-.1-.09-.1 0-.14 0-.1-.1-.17-.09-.11.09-.17 0-.11-.07-.21-.09-.18 0-.14-.09a.1.1 0 0 0 0-.08v-.08a.29.29 0 0 0-.21-.06s-.11 0-.14 0a.43.43 0 0 0-.07-.07s-.08 0 0-.06.07 0 .11 0c-.1-.09 0-.11.18-.1s-.07.08-.03.11Zm-.11-2.41v.05a.09.09 0 0 1 0 .09s0 0-.07 0a.71.71 0 0 1-.21.11s0 .08-.06.09 0 .06 0 .06 0 .08-.07.06 0-.14.06-.17 0-.11 0-.11l.11-.15h.14c.07 0-.11-.07-.11-.1s.1-.09.1-.15v-.16c0-.06 0-.14.1-.15s0 .09 0 .11.07 0 .11 0a.78.78 0 0 1 0 .14.22.22 0 0 1-.14.27Zm-.07-.5s-.14.07-.14.1 0 .08-.07.09 0-.11-.07-.13-.18-.12 0-.16h.11s.17-.05.17 0 .03.05-.04.09Zm-.15-.5h.1-.11c-.04 0-.06 0-.03-.01Zm.1-.07a.2.2 0 0 1-.17 0 .3.3 0 0 0 .1-.07s.14.02.03.06Zm-6-.1a.17.17 0 0 1 .12 0s.06 0 .08 0 0 .07 0 .1a.27.27 0 0 1-.17.08s-.11 0-.11 0 .03-.16.05-.19Zm-.3.8a.56.56 0 0 1 .16-.14.13.13 0 0 1 .06 0c0 .06-.06.07-.06.09a.64.64 0 0 1-.11.24s-.06 0-.09 0a.07.07 0 0 1-.08 0s0 0-.08 0h-.08v-.09c0-.03.11 0 .19-.06s.03.01.06-.05Zm-.32.08s.05-.06.05-.09a.12.12 0 0 0 .08 0s.06 0 .06.07v.09c0 .09 0 0-.08 0H39c-.05 0-.08.07-.1 0s.1-.04.1-.08Zm0 .3s-.04-.04-.04-.01Zm-.71 3.54v-.16c0-.02-.07 0-.12 0s0-.07-.08-.09-.2 0-.25 0h-.33c-.03 0-.05 0-.05-.09v-.11l-.08-.15-.07-.25a.08.08 0 0 1 0-.1v-.14c0-.05 0-.19.05-.31a.37.37 0 0 1 0-.22c0-.09.13-.21.2-.31A2.79 2.79 0 0 1 38 52a1.43 1.43 0 0 0 .28-.27s0 0 .07-.07 0 0 .08 0l.12.06h.28a.09.09 0 0 1 .1 0s0 0 .05 0h.05c.05 0 0 0 0 0l.06.05v.08-.09H39v.08c0 .09.16.06.19.11s.05 0 .08.09h.25c.06 0 .06 0 .09.07h.14a.22.22 0 0 0 .14 0s.06-.06.06-.11 0-.08-.06-.07-.05 0-.05 0h-.12v-.11a.21.21 0 0 1 0-.13s-.09 0-.09 0a.29.29 0 0 1 0 .1c0 .06-.14.08-.19.08v-.24c0-.08 0-.19-.09-.17v.08s.06 0 .06.07a.33.33 0 0 1-.08.26v-.08a.25.25 0 0 1-.17.1v-.08c.06 0 .06 0 .06-.09v-.25c0-.02 0-.08-.08-.09a.08.08 0 0 0-.11 0h-.23c-.02 0 0 0 0 .06v.06c0 .06 0 .06-.1.07h-.27a.3.3 0 0 0 0-.13c0-.05 0-.08.05-.12s0 0 0-.09a.14.14 0 0 1 .07-.12c0-.06.05 0 .07 0h.13c.03 0 0 .07.07 0s.06-.09.08-.12 0-.09.08-.12 0-.09.08-.1h.24s.08 0 .14-.05a.72.72 0 0 0 .22-.17.39.39 0 0 1 .14-.05s.12 0 .12 0a.07.07 0 0 1 0 .06s.05-.05.05-.1v-.06h-.11v-.11c0-.03 0-.09.11-.1h.15a.3.3 0 0 1 .14 0c.06 0 .06-.06.12-.07s.06 0 .06 0h.06l.09-.1a.15.15 0 0 1 .16 0s.06 0 .12 0a.24.24 0 0 1 .25.07.12.12 0 0 0 .06.1s0 .07 0 .1h.31c.06 0 .16-.05.26-.06s.07 0 .1 0a.13.13 0 0 1 .1 0S42 50 42 50s.07 0 .1.07-.1-.07.03-.07l.13-.1a1.1 1.1 0 0 0 .34-.18.48.48 0 0 0 .13-.09.12.12 0 0 1 .13-.07H43a.8.8 0 0 0 .21-.05h.13a.34.34 0 0 0 .17 0h.21s.07 0 .1-.09 0-.09.07-.12 0 0 0-.06H44a.22.22 0 0 1 .17-.08h.14a.52.52 0 0 1 .31.1.62.62 0 0 1 .14 0l.14.06c.11 0 .18.12.28.16a.94.94 0 0 1 .28.1v.1c0 .05 0 0-.07 0H45c-.11 0 0 0 0 0h-.07l-.11-.15c-.07 0-.06.09-.1.12s-.07 0-.14.07-.1 0-.1.06-.07.15 0 .14.1-.06.13 0 .07 0 .07 0v.05s.1 0 .14.06a.47.47 0 0 1 .1.1 1.08 1.08 0 0 1 .18.2v.43a.32.32 0 0 0-.07.25c0 .08 0 .08.11.12s0 .09 0 .14-.07.06-.07.09 0 0-.07 0 0-.1-.07-.12l-.16-.24h-.14c-.07 0 0 .11 0 .11s.07-.09.14 0 0 .06-.07.09c.14.07.14.2.18.33s0 .14 0 .19a.24.24 0 0 1-.07.17.89.89 0 0 1-.17.16c-.07 0-.14.07-.14.12v.08s-.07.07-.1 0 0 0 0-.05v-.08c0-.08-.1.1-.1.12a.26.26 0 0 0 0 .16c0 .1.11.2.08.29l-.07.09h-.07c-.07 0-.07.09-.14.1s-.17-.11-.24-.16-.14.12-.11.2 0 .08.07.07l.14.07a1.8 1.8 0 0 1 .11.2v.14a.45.45 0 0 1-.24-.17 1.2 1.2 0 0 1-.11-.2 1.71 1.71 0 0 0-.07-.21c-.07 0-.07-.15-.11-.2s-.13.1-.2 0 0-.08 0-.11-.07 0-.07 0v-.1a.14.14 0 0 0-.1-.05.48.48 0 0 0-.24.11 2.11 2.11 0 0 1-.23.19.23.23 0 0 0-.1.2v.12c0 .03-.07 0-.07.08s-.07.15-.1.21a.45.45 0 0 1-.17-.17A1.23 1.23 0 0 1 42 53a.42.42 0 0 1-.06-.26c0-.06 0-.06-.07 0s-.06 0-.1 0a.32.32 0 0 0-.1-.1s-.06 0-.12 0a1.58 1.58 0 0 0-.26.06s-.1 0-.16 0-.06-.05-.09-.07-.07 0-.13 0h-.12a.21.21 0 0 0 0-.13s-.07 0-.1 0 0 .05 0 .07a.14.14 0 0 0 .07.13s0 0 .12 0a.56.56 0 0 1 .22 0s.06 0 .06.1h.07v.1l-.1.1a.26.26 0 0 1-.09.12.29.29 0 0 0-.16 0 .65.65 0 0 1-.25.17l-.15.08s-.09 0-.15.05-.09 0-.12-.07a.32.32 0 0 1 0-.18s0-.08-.06-.1-.09 0-.09-.07a.82.82 0 0 1-.11-.25s0-.18-.09-.23-.09 0-.09.07v.13a.24.24 0 0 0 0 .13s0 0 .06.1.09.15.09.23v.08c0-.01 0 0 .06 0l.08.1c.06 0 .06.15.15.19h.15a.63.63 0 0 1 .34-.16c.06 0 0 .11 0 .11s-.07.09-.07.15a.72.72 0 0 1-.12.25c-.15.19-.3.34-.44.5l-.21.22s.12.15.12.17V55a.28.28 0 0 1-.08.23c-.06.06-.12.07-.12.18v.11c.06.07 0 .16-.09.2s0 0 0 .07 0 .22-.11.26-.2.11-.28.17-.08.09-.11.1a.25.25 0 0 1-.11 0c0-.08-.08-.15-.1-.23a3.59 3.59 0 0 1-.24-.53l-.07-.17a.44.44 0 0 1-.1-.15.13.13 0 0 1 0-.1.22.22 0 0 0 .05-.14v-.14c0-.08-.07-.15-.09-.22a1.09 1.09 0 0 0-.1-.25.13.13 0 0 1-.16-.08Zm9.81 4.88a2.89 2.89 0 0 0 .62-.26.68.68 0 0 0-.26.07s-.06 0-.13 0h-.43c-.07 0-.23.07-.33.11a4.45 4.45 0 0 1-.55.11l-.3.05c-.07 0-.21.06-.28 0a1.13 1.13 0 0 1 .28-.09l.34-.11a6 6 0 0 0 .68-.29c.2-.09.43-.2.66-.29h.29l.45-.07a2.92 2.92 0 0 0 .63-.27 3.57 3.57 0 0 1 .4-.12h.23s.09.06.06.09 0 .06-.06.07h-.12a.4.4 0 0 1-.09.07l-.27.28c-.15.11-.28.26-.43.37l-.26.2c-.09 0-.22.14-.31.19a6.28 6.28 0 0 1-.69.24 6.16 6.16 0 0 1-.67.08 2.78 2.78 0 0 1-.5 0c-.17 0-.34 0-.51-.05s-.38-.08-.55-.11a5.19 5.19 0 0 0 .68 0l.75-.11c.1 0 .24-.07.34-.08a2.12 2.12 0 0 0 .27-.09ZM43 46.47c-1.23.17-2.38.32-3.38.49a11.87 11.87 0 0 1 5.75-2.23 11 11 0 0 1 5.77.66h-.21c-1.12.18-2.36.34-3.65.51Zm1.37 16a4.71 4.71 0 0 0 .54.05c-6 .72-9.14-3-9.13-7.54a10.59 10.59 0 0 1 1.06-4.42v5.37a6.49 6.49 0 0 0 .23 1.72 5.82 5.82 0 0 0 1.67 2.71 7.59 7.59 0 0 0 2.85 1.56 13.42 13.42 0 0 0 2.79.56Zm-3.91-10.91a.17.17 0 0 1 0 .11c0 .06-.18 0-.24 0h-.09c.03 0 0-.11.06-.12s.09-.07.12 0 0 0 .06 0 .06-.04.09.01Zm18-5.42c-.78.75-1.16 1.13-1.9 1.88v.18l-.19.09c-.33-.48-.5-.71-.81-1.19l.18-.09a3.58 3.58 0 0 0 .26.29l.41-.39c-.21-.24-.32-.35-.52-.59l-.59.17a1.53 1.53 0 0 1 .11.16l-.14.11c-.19-.17-.28-.26-.46-.44l.14-.11.18.15c1-.29 1.6-.45 2.77-.76ZM56 51.72c-.22 5.28-5.06 10.18-10.47 11-6.32.95-9.93-2.87-9.92-7.68a10.87 10.87 0 0 1 1.29-4.92v-2.65l.64-.12 1.7-.32a11.81 11.81 0 0 1 6.19-2.54 10.71 10.71 0 0 1 6.22.83l1.61-.3h.33l.34-.07.36-.07v2.67A6.11 6.11 0 0 1 56 51.72Zm-1.13-8.36c.35.21.52.31.89.51-.09.56-.13.84-.22 1.39l.93-.68-.19-.15.19-.14.61.47-.19.14-.19-.15c-.85.57-1.26.86-2 1.42l-.33-.17v-.19c.08-.62.12-.93.21-1.55l-.57.56-.35.07c.46-.48.71-.73 1.23-1.22l-.21-.14Zm-2-.92a10 10 0 0 0 .93.42.81.81 0 0 1 .11 1.14 1.34 1.34 0 0 1-1.48.57 4.57 4.57 0 0 1-.67-.44.75.75 0 0 1-.27-.85 1.08 1.08 0 0 1 1.37-.84Zm-2.16-.79s1.22.33 1.22.36-.06.17-.06.17l-.21-.07c-.29.63-.43 1-.73 1.59l.24.1-.09.14a11.7 11.7 0 0 0-1.29-.35v-.14h.28c.31-.65.46-1 .76-1.62l-.24-.1Zm-2.93-.27a12 12 0 0 1 2.6.21l-.15.48h-.21l.06-.2a3.69 3.69 0 0 0-.53-.17s-.47 1.6-.47 1.62l.26.05v.17s-1.38-.17-1.54-.15v-.14h.3c.19-.65.29-1 .48-1.6l-.66.06-.07.17h-.2s.09-.44.12-.5Zm-3.38 2.13 1.06-2 .82-.08 1 1.78h.23v.17s-1.37 0-1.57.09a.75.75 0 0 1 0-.16l.27-.06-.24-.4L45 43l-.2.42h.2v.18c0 .07-.69.09-.79.13s0-.09 0-.16Zm-2.33-1.24 1.38.85c-.05-.42-.07-.63-.13-1l-.3.07L43 42l.87-.23v.16l-.31.09c.11.71.15 1 .27 1.76l-.78.19-1.34-.86c.14.41.21.61.36 1l.22-.08v.15l-.71.27-.07-.13.26-.09c-.22-.62-.33-.92-.54-1.53l-.21.08-.02-.12Zm-2.24 1c.45-.13 1 .41.4.93a.62.62 0 0 0 .24 0c.15 0 .3.09.33.08a1.17 1.17 0 0 1 .16.25.47.47 0 0 0 .15.06l.16-.05.06.15-.59.27a1.42 1.42 0 0 1-.33.11s-.15 0-.18 0-.32-.48-.32-.48h-.08l-.18.08-.3.18c.14.24.21.35.36.59h.06c.06 0 .14-.11.14-.11l.09.15c-.45.31-.67.46-1.08.77l-.1-.08L39 46c-.32-.52-.46-.79-.76-1.31l-.17.14-.1-.08a12.17 12.17 0 0 1 1.86-1.5Zm-2.16 1.6.25.33-.1.13-.13-.14a2.53 2.53 0 0 0-.73.62l.45.45s.26-.18.23-.26l-.1-.08.1-.13.33.37-.1.1-.13-.11-.2.22v.06a4.69 4.69 0 0 1 .46.42 2.32 2.32 0 0 0 .42-.62.25.25 0 0 0-.07-.09v-.05l.12-.13.27.37-.87.92-.61.11c-.35-.35-.53-.53-.9-.88l-.15.21-.1-.09a19.93 19.93 0 0 1 1.56-1.75ZM36 46.74l.34.26-.13.16-.21-.09a2.18 2.18 0 0 0-.44.42l1.16.77v.38l-.39.63-.12-.06.12-.21-1.24-.81a2.73 2.73 0 0 0-.24.57l.13.11-.08.12-.39-.18A18.45 18.45 0 0 1 36 46.74Zm-2.18 3.65L35.3 50l-1-.41-.13.23-.14-.06.35-.67.13.06-.13.24L36 50c-.14.28-.21.42-.34.7-.57.16-.86.25-1.44.4l1 .25.11-.23.13.06c-.1.26-.14.39-.24.65h-.13l.08-.23-1.53-.39-.1.25-.14-.06c.15-.4.23-.63.37-1.01Zm-.5 1.43h.13v.22c.64.08.95.12 1.58.18L35 52h.13c-.11.51-.17.77-.29 1.28h-.14v-.25l-1.58-.21-.06.24H33c.08-.47.14-.73.27-1.24Zm.22 3.18c.08-.25.12-.37.21-.62.06.23.09.34.16.57l.6-.09-.5.45.18.54-.47-.29-.53.46.21-.63-.47-.31Zm0 4.73c-.17-.45-.26-.68-.42-1.14l.13-.07.1.22 1-.53-1.34.06-.01-.4 1.14-.87-1.14.32v.2l-.13.07-.13-.66h.13v.23l1.61-.48v-.26h.16s.12.92.15 1a10.17 10.17 0 0 1-.84.72h1l.34.8-.13.1-.13-.24-1.53.77.08.22Zm.83 1.46c-.07-.09-.39-.67-.39-.67a.83.83 0 0 1 .14-.87 1 1 0 0 1 1.47-.32l.44.74a1.19 1.19 0 0 1-.35 1.09 1 1 0 0 1-1.27.01Zm1.44 1.75c.14-.63.21-1 .34-1.58l-.89.79.16.19-.11.09-.44-.51.13-.1.16.19 1.28-1.18-.13-.12.13-.12.49.55c-.14.63-.2 1-.34 1.58l.77-.86-.12-.15.1-.12.38.37-.08.14-.08-.1-1.22 1.4Zm2.7-.17c-.18.24-.26.36-.43.6l.2.16.1-.11.13.08c-.1.17-.15.26-.26.43h-.12l.1-.19-.23-.22-.49.58a2.19 2.19 0 0 0 .64.35l.13-.22.15.11-.25.4s-1.33-.92-1.49-1.08l.08-.12.15.12 1-1.36-.12-.13.07-.14a7.12 7.12 0 0 0 1.39 1l-.27.45-.14-.07c0-.09.07-.13.11-.22s-.21-.37-.41-.44Zm1.71 2.83c-.53-.15-.78-.24-1.26-.42l.06-.14.25.1c.26-.63.4-1 .68-1.59a1.22 1.22 0 0 0-.49 0l-.11.12-.14-.08.22-.45a11.18 11.18 0 0 0 2.17.67c-.07.19-.1.29-.16.48h-.22l.06-.2-.48-.25c-.3.66-.46 1-.76 1.61l.24.06Zm3.43.24h-1.67v-.1h.39c0-.17 0-.25-.07-.42l-1-.07-.32.38h.22l-.09.12-.65-.14.06-.12h.21l1.41-1.7.9.07c.19.75.28 1.09.46 1.81h.17Zm2.47-.36c-.07 0-.24-.09-.24-.12v-.57s-.1-.14-.14-.11l-.48.09v.74h.21v.15l-1.47.15v-.16h.23c0-.65.07-1 .11-1.63h-.23v-.16a21.84 21.84 0 0 0 2.2-.31 1.44 1.44 0 0 1 .3 0 .47.47 0 0 1 .48.42c0 .31-.52.61-.52.61s.38.14.37.41v.13h.27l.07.14ZM50 62.36l-.53 1.18c.08.26.12.4.21.67l.25-.07.06.12-1.46.54-.06-.09.29-.13-.22-.67-1.22-.51-.2.06v-.15l1.6-.5a.44.44 0 0 1 .06.12s-.23 0-.19.09.73.34.73.34a4.16 4.16 0 0 0 .41-.87l-.19.09-.06-.12.68-.33.09.09Zm2.29.58-.1-.12.17-.15c-.32-.53-.47-.79-.81-1.29l-.25.14-.05-.09a10.74 10.74 0 0 0 1.51-1.35l.33.34-.14.16-.17-.13a1.91 1.91 0 0 0-.59.39l.38.59a2.61 2.61 0 0 1 .24-.23l-.08-.15.16-.14.35.35-.17.16-.12-.11-.27.23c.15.23.22.34.39.56l.2-.17.12.11c-.51.38-.74.56-1.13.9ZM56 59.63l-.8.77a2.44 2.44 0 0 1-.53.27.78.78 0 0 1-.47-.08c-.1 0-1.06-.73-1.06-.73L53 60l-.08-.1c.34-.4.52-.61.9-1l.18.1-.16.17c.42.29.64.43 1.1.72a.69.69 0 0 0 .54-.1c.25-.16.44-.31.36-.54s-.15-.19-.22-.23-1.16-.57-1.16-.57l-.17.23-.16-.11.46-.58.17.08-.13.19c.46.22.71.34 1.21.56 0 0 .3.27.3.46a.86.86 0 0 1-.14.35Zm2.17-2.7c-1 .28-1.41.42-2.29.7l1.22.42.2-.28h.2c-.24.28-.36.42-.59.71l-.15-.06.19-.25c-.79-.22-1.18-.34-1.9-.57l-.18.2-.14-.05.49-.75c.86-.3 1.32-.46 2.27-.76l-1.39-.23-.15.22-.18-.05.37-.61h.19l-.12.22 2.4.34c-.16.36-.25.5-.43.8Zm.83-1.32h-.25c0-.12.08-.18.12-.3l-2.3-.12c0 .1-.07.15-.11.24h-.19c.25-.66.38-1 .64-1.65a1.89 1.89 0 0 1 1.55-.8c.93 0 1.31.45 1.27.79a11.42 11.42 0 0 1-.73 1.84Zm.1-4.28c.14.22.2.33.33.55l-.77-.25-.81.55.32-.68-.72-.25.92-.16.33-.64c.1.21.14.32.24.54l.94-.16Zm.54-2.6-.12-.25c-1 .33-1.45.49-2.37.82 0 0 .11.54.31.55l.36-.06V50l-.72.21a9.25 9.25 0 0 0-.57-1.71l.15-.08a1.66 1.66 0 0 1 .16.21c.93-.34 1.42-.51 2.4-.84l-.08-.25.2-.06.53 1.18Zm-13.77 15 .1.06v.56a.16.16 0 0 1-.06.12l-.55.09c0-.3 0-.45.07-.74Zm10.7-17-.39-.45 1.21-.34ZM35.75 60.15a6.83 6.83 0 0 1-.91.7s-.24.16-.4 0c0 0-.13-.11-.13-.16a.19.19 0 0 1 0-.21.52.52 0 0 1 .19-.26l.65-.49s.24-.16.32-.12a.39.39 0 0 1 .18 0 .44.44 0 0 1 .08.12.27.27 0 0 1 .02.42Zm6.34 4.19c.1.32.14.47.23.79l-.87-.1c.25-.28.38-.41.64-.69ZM59.27 53.9c.24 0 .16.13.16.13-.06.18-.1.26-.16.44 0 0-2.36-.09-2.36-.12A3.31 3.31 0 0 1 57 54a.3.3 0 0 1 .28-.13s1.72.01 1.99.03Z"/>
  </g>
</svg>