<svg xmlns="http://www.w3.org/2000/svg" viewBox="0 0 50.21 48"><g id="ff0b8685-f452-4bcc-80fd-38bfdd7bafae" data-name="Layer 2"><g id="e09661d6-b008-4058-90cd-e49feeeed412" data-name="Layer 6"><path d="M11.73,29.73c-.47-.81-2.8-4.58-4.5-6.9s-3.87-4.61-5.68-7h0c-.09.25-.18.5-.26.75a23.91,23.91,0,0,0-.95,3.86,25.33,25.33,0,0,0,0,8.15,23.91,23.91,0,0,0,1,3.86A26.07,26.07,0,0,0,2.8,36a25.79,25.79,0,0,0,2,3.29,27.1,27.1,0,0,0,2.51,2.93,24.91,24.91,0,0,0,5.33,4.06c1.58.89,2.12.86,2.39.84.3-.49.53-6.37.31-7.85A24.79,24.79,0,0,0,11.73,29.73Z"/><path d="M41.63,5.6a3.43,3.43,0,0,0-.33-.24A23.82,23.82,0,0,0,16.58,2.05h0c-.24,0-.52,0-.82-.06a7.5,7.5,0,0,0-3.47.93c-.69.41-1.35.85-2,1.32A25,25,0,0,0,7.35,6.75,27.1,27.1,0,0,0,4.84,9.68,25.79,25.79,0,0,0,2.8,13l-.21.42v0c1,.3,4.68-.62,8.31-2.32a9.86,9.86,0,0,0,3.46,3.56,6.13,6.13,0,0,0-.77,3.8c.75,5.71,9,9.35,11.77,10.55l.23.08A14.38,14.38,0,0,0,22,32.47a7,7,0,0,0-1.2,6.12C22.2,43.69,27.16,48,30.25,48h.2a18.63,18.63,0,0,0,3.28-1,4,4,0,0,0,3-.27A25.33,25.33,0,0,0,47,36.86c.12-.22,0-.41-.28-.39a5.08,5.08,0,0,0-.62.12,19.21,19.21,0,0,0,1-2.23,2.51,2.51,0,0,0,1.37-.63A25.18,25.18,0,0,0,41.63,5.6ZM15.27,13.31a8.4,8.4,0,0,1-2.92-2.93A15.64,15.64,0,0,0,18,5.87s1.09-1.69.45-2.83a21.94,21.94,0,0,1,7.83-1.43A22.19,22.19,0,0,1,36.83,4.3h-.31C30.84,4.46,19.56,7.94,15.27,13.31Zm29,23.15c-.17.29-.36.57-.54.85-4,1.45-10.08,4.56-11,7.62a2.15,2.15,0,0,0-.09.77,20.16,20.16,0,0,1-2.37.69h-.07c-2,0-6.55-3.35-7.87-8.22a5.41,5.41,0,0,1,1-4.77,14.11,14.11,0,0,1,4.13-3.61c4,1.48,12.89,4.53,17.84,4.69A18.61,18.61,0,0,1,44.29,36.46Z"/></g></g></svg>