<svg xmlns="http://www.w3.org/2000/svg" viewBox="0 0 193.99 48"><g id="e5648054-1b3d-47f8-a284-849c7f7b2c34" data-name="Layer 2"><g id="b378076c-c21c-4ea7-a8cc-6cddaec14710" data-name="Layer 6"><path d="M139.83,14.33c-.21,0-.64-.06-1.55-.06a11.06,11.06,0,0,0-2.22.22,11.41,11.41,0,0,0-6.26,3.75V15h-9V44h9V31.88a29.77,29.77,0,0,1,.24-3.94,7.55,7.55,0,0,1,1.05-3.07,5.28,5.28,0,0,1,2.29-2,9.5,9.5,0,0,1,4.06-.72,12.11,12.11,0,0,1,1.94.15,13.14,13.14,0,0,1,1.88.45V14.57A7.61,7.61,0,0,0,139.83,14.33Z"/><path d="M163.78,14.33c-.21,0-.64-.06-1.55-.06a11.06,11.06,0,0,0-2.22.22,11.41,11.41,0,0,0-6.26,3.75V15H144.8V44h8.95V31.88a29.77,29.77,0,0,1,.24-3.94,7.55,7.55,0,0,1,1-3.07,5.28,5.28,0,0,1,2.29-2,9.5,9.5,0,0,1,4.06-.72,12.11,12.11,0,0,1,1.94.15,13.47,13.47,0,0,1,1.88.45V14.57A7.61,7.61,0,0,0,163.78,14.33Z"/><path d="M69.39,13.8h-12V5.56H90.76V13.8H78.7V44H69.39Z"/><path d="M115.92,39a14.21,14.21,0,0,1-5.43,4.24,16.36,16.36,0,0,1-6.81,1.49,18.38,18.38,0,0,1-6.29-1.07,15.12,15.12,0,0,1-5.14-3.08,14.47,14.47,0,0,1-3.43-4.8,15.29,15.29,0,0,1-1.25-6.27,15.25,15.25,0,0,1,1.25-6.26,14.51,14.51,0,0,1,3.43-4.81,15.1,15.1,0,0,1,5.14-3.07,18.15,18.15,0,0,1,6.29-1.08,14.25,14.25,0,0,1,5.64,1.08,11.68,11.68,0,0,1,4.3,3.07,14.12,14.12,0,0,1,2.72,4.81,19.5,19.5,0,0,1,1,6.26V32.3H96.52a7.09,7.09,0,0,0,2.33,4.09,6.59,6.59,0,0,0,4.42,1.52,6.71,6.71,0,0,0,3.73-1,9.93,9.93,0,0,0,2.65-2.53Zm-7.58-12.77a5.2,5.2,0,0,0-1.49-3.88,5.33,5.33,0,0,0-4-1.61,6.71,6.71,0,0,0-2.63.48,6.35,6.35,0,0,0-1.94,1.22A5.32,5.32,0,0,0,97,24.15a5.68,5.68,0,0,0-.51,2.06Z"/><path d="M166.15,35.68v-.11c0-6.45,5-9.42,12.2-9.42a22.18,22.18,0,0,1,7.4,1.21v-.49c0-3.47-2.21-5.4-6.5-5.4a22.53,22.53,0,0,0-8.35,1.6l-2.15-6.39a27.15,27.15,0,0,1,11.74-2.37c4.69,0,8.08,1.21,10.23,3.3S194,23.07,194,27V44.16h-8.3V41a11.77,11.77,0,0,1-9.15,3.74C170.84,44.71,166.15,41.52,166.15,35.68Zm19.71-1.93v-.49a1.47,1.47,0,0,0-1-1.39,14,14,0,0,0-4.46-.71c-3.67,0-5.93,1.43-5.93,4.08v.11c0,2.26,1.92,3.58,4.69,3.58C183.15,38.93,185.86,36.78,185.86,33.75Z"/><path d="M11.73,29.73c-.47-.81-2.8-4.58-4.5-6.9s-3.87-4.61-5.68-7h0c-.09.25-.18.5-.26.75a23.91,23.91,0,0,0-.95,3.86,25.33,25.33,0,0,0,0,8.15,23.91,23.91,0,0,0,1,3.86A26.07,26.07,0,0,0,2.8,36a25.79,25.79,0,0,0,2,3.29,27.1,27.1,0,0,0,2.51,2.93,24.91,24.91,0,0,0,5.33,4.06c1.58.89,2.12.86,2.39.84.3-.49.53-6.37.31-7.85A24.79,24.79,0,0,0,11.73,29.73Z"/><path d="M41.63,5.6a3.43,3.43,0,0,0-.33-.24A23.82,23.82,0,0,0,16.58,2.05h0c-.24,0-.52,0-.82-.06a7.5,7.5,0,0,0-3.47.93c-.69.41-1.35.85-2,1.32A25,25,0,0,0,7.35,6.75,27.1,27.1,0,0,0,4.84,9.68,25.79,25.79,0,0,0,2.8,13l-.21.42v0c1,.3,4.68-.62,8.31-2.32a9.86,9.86,0,0,0,3.46,3.56,6.13,6.13,0,0,0-.77,3.8c.75,5.71,9,9.35,11.77,10.55l.23.08A14.38,14.38,0,0,0,22,32.47a7,7,0,0,0-1.2,6.12C22.2,43.69,27.16,48,30.25,48h.2a18.63,18.63,0,0,0,3.28-1,4,4,0,0,0,3-.27A25.33,25.33,0,0,0,47,36.86c.12-.22,0-.41-.28-.39a5.08,5.08,0,0,0-.62.12,19.21,19.21,0,0,0,1-2.23,2.51,2.51,0,0,0,1.37-.63A25.18,25.18,0,0,0,41.63,5.6ZM15.27,13.31a8.4,8.4,0,0,1-2.92-2.93A15.64,15.64,0,0,0,18,5.87s1.09-1.69.45-2.83a21.94,21.94,0,0,1,7.83-1.43A22.19,22.19,0,0,1,36.83,4.3h-.31C30.84,4.46,19.56,7.94,15.27,13.31Zm29,23.15c-.17.29-.36.57-.54.85-4,1.45-10.08,4.56-11,7.62a2.15,2.15,0,0,0-.09.77,20.16,20.16,0,0,1-2.37.69h-.07c-2,0-6.55-3.35-7.87-8.22a5.41,5.41,0,0,1,1-4.77,14.11,14.11,0,0,1,4.13-3.61c4,1.48,12.89,4.53,17.84,4.69A18.61,18.61,0,0,1,44.29,36.46Z"/></g></g></svg>