<svg id="Layer_6" data-name="Layer 6" xmlns="http://www.w3.org/2000/svg" viewBox="0 0 1200 400"><defs><style>.cls-1{fill:#fff;}.cls-2{fill:#0e3ca5;}.cls-3{fill:#5493f7;}</style></defs><path class="cls-1" d="M847.85,140.51c-1.17-.09-3.58-.33-8.68-.33a60.58,60.58,0,0,0-12.4,1.21c-16,3.11-26.2,11.79-35,21v-18.2H741.67V306.46h50.08V238.68a167.46,167.46,0,0,1,1.34-22,42.61,42.61,0,0,1,5.84-17.2,30.18,30.18,0,0,1,12.86-11.18q8.34-4,22.7-4a67.7,67.7,0,0,1,10.85.84,75.11,75.11,0,0,1,10.52,2.5V141.85A42.62,42.62,0,0,0,847.85,140.51Z"/><path class="cls-1" d="M981.83,140.51c-1.17-.09-3.58-.33-8.68-.33a60.75,60.75,0,0,0-12.41,1.21c-16,3.11-26.19,11.79-35,21v-18.2H875.64V306.46h50.09V238.68a165.76,165.76,0,0,1,1.34-22,42.31,42.31,0,0,1,5.84-17.2,30.15,30.15,0,0,1,12.85-11.18q8.36-4,22.71-4a67.7,67.7,0,0,1,10.85.84,75.11,75.11,0,0,1,10.52,2.5V141.85A42.62,42.62,0,0,0,981.83,140.51Z"/><path class="cls-1" d="M453.81,137.51H386.37V91.43h187v46.08H505.9v169H453.81Z"/><path class="cls-1" d="M714.09,278.41a80,80,0,0,1-30.39,23.71,91.08,91.08,0,0,1-38.06,8.35,102.45,102.45,0,0,1-35.23-6,84.86,84.86,0,0,1-28.72-17.2,80.66,80.66,0,0,1-19.2-26.88,85.09,85.09,0,0,1-7-35.06,85.12,85.12,0,0,1,7-35.06,80.77,80.77,0,0,1,19.2-26.88,84.84,84.84,0,0,1,28.72-17.19,102.21,102.21,0,0,1,35.23-6,80.07,80.07,0,0,1,31.55,6,65.72,65.72,0,0,1,24,17.19,78.44,78.44,0,0,1,15.19,26.88,108.42,108.42,0,0,1,5.35,35.06V241H605.57q3,14.35,13,22.87t24.71,8.51q12.35,0,20.87-5.51A56.13,56.13,0,0,0,679,252.7ZM671.68,207a29,29,0,0,0-8.35-21.71q-8.69-9-22.37-9a37.64,37.64,0,0,0-14.69,2.67,36.76,36.76,0,0,0-10.85,6.84,30,30,0,0,0-7,9.69A32,32,0,0,0,605.57,207Z"/><circle class="cls-1" cx="203.75" cy="200" r="154.59"/><path class="cls-1" d="M995.1,259.93v-.62c0-36.05,28.11-52.69,68.23-52.69a123.25,123.25,0,0,1,41.39,6.78v-2.77c0-19.41-12.32-30.2-36.33-30.2-18.33,0-31.28,3.39-46.75,8.94l-12-35.74c18.64-8,37-13.26,65.71-13.26,26.22,0,45.17,6.78,57.18,18.49,12.63,12.33,18.32,30.51,18.32,52.7v95.83H1104.4V289.51c-11.69,12.64-27.8,21-51.18,21C1021.32,310.47,995.1,292.59,995.1,259.93Zm110.25-10.78v-2.74a8.26,8.26,0,0,0-5.68-7.8,79.18,79.18,0,0,0-25-4c-20.54,0-33.17,8-33.17,22.81v.61c0,12.64,10.74,20,26.22,20C1090.19,278.11,1105.35,266.1,1105.35,249.15Z"/><g id="Symbol"><path class="cls-2" d="M183.78,278.56c7.82,28.93,35.89,51,50.06,50.11.5,0,53.77-10,82.93-58.68,22.69-37.92,15-74.52-15.9-75.32-11.1.81-132,28.74-117.09,83.89"/><path class="cls-2" d="M298,92.66l0,0,.05,0A135.46,135.46,0,0,0,155.25,72a77.79,77.79,0,0,0-8.59,4.2c-1.9,1-3.8,2-5.64,3.12l.45.14A61.48,61.48,0,0,0,127.17,93c-38.88,51.36,91.43,88.69,161.09,88.81C320.31,204.82,329.31,117,298,92.66Z"/><path class="cls-3" d="M163.1,93.7c-17.9,26.91-77.53,45.87-87.33,42.91l-.07-.12c.4-.81.81-1.62,1.23-2.42a143,143,0,0,1,25.88-35.34,144,144,0,0,1,16.63-14.27q5.5-4,11.4-7.55a42.32,42.32,0,0,1,19.71-5.25c26.56.51,12.69,21.83,12.55,22"/><path class="cls-3" d="M148.42,283.85c1.28,8.45,0,41.84-1.76,44.66-1.49.09-4.6.28-13.58-4.76A143.44,143.44,0,0,1,88.54,284,143,143,0,0,1,68.27,154.55c.48-1.43,1-2.86,1.5-4.27h0C80.07,164,92,176.34,102.1,190.17c9.64,13.16,22.91,34.62,25.61,39.21,16.76,28.46,19.43,46,20.71,54.47"/><path class="cls-3" d="M346.51,199.67a142.44,142.44,0,0,1-9.93,52.44c-16.81,18.08-130.19-26.41-131.3-26.9-15.51-6.79-62.71-27.47-67-60C132.19,118.54,227,86,268.64,84.74c5,.06,20.2.24,29.06,7.44a142.39,142.39,0,0,1,48.81,107.49"/><path class="cls-3" d="M269.77,326.3c-12.36,5.77-26,1.57-22.43-10.47,6.78-23.11,66-46.81,79.14-48.09,1.61-.16,2.3.94,1.58,2.19a144.17,144.17,0,0,1-58.29,56.37"/></g></svg>