<svg xmlns="http://www.w3.org/2000/svg" xml:space="preserve" viewBox="0 0 20 20"><path fill="#fff" d="M0 0h20v20H0z" opacity="0"/><path fill="#8b9cda" fill-rule="evenodd" d="M15.6 4.4c-1.1-.5-2.2-.8-3.3-1.1-.2.2-.3.6-.4.9-1.2-.2-2.5-.2-3.7 0-.2-.2-.4-.5-.4-.9-1.2.2-2.4.6-3.4 1.1-2.1 3.2-2.7 6.4-2.4 9.4 1.4 1.1 2.8 1.7 4.1 2.1.2-.3.4-.5.6-.8.1-.2.2-.4.4-.6-.4-.1-.7-.3-1-.5-.1-.1-.2-.1-.4-.2 0 0 .1-.1.2-.1s.1-.1.2-.1c2.7 1.2 5.6 1.2 8.2 0 0 0 .1.1.2.1s.1.1.2.1c-.4.2-.9.5-1.4.7.2.5.6 1 .9 1.4 1.3-.4 2.7-1.1 4.1-2.1 0-3.6-.9-6.6-2.7-9.4zm-8.3 7.5c-.8 0-1.4-.8-1.4-1.7 0-.9.7-1.7 1.4-1.7.8 0 1.5.8 1.4 1.7.1 1-.6 1.7-1.4 1.7zm4-1.7c0 .9.6 1.7 1.4 1.7.8 0 1.5-.8 1.4-1.7.1-.9-.6-1.7-1.4-1.7-.8.1-1.4.8-1.4 1.7z" clip-rule="evenodd"/></svg>
