<?xml version="1.0" encoding="utf-8"?>
<!-- Generator: Adobe Illustrator 24.1.0, SVG Export Plug-In . SVG Version: 6.00 Build 0)  -->
<svg version="1.1" id="Layer_1" xmlns="http://www.w3.org/2000/svg" xmlns:xlink="http://www.w3.org/1999/xlink" x="0px" y="0px"
	 viewBox="0 0 93.5 93.5" style="enable-background:new 0 0 93.5 93.5;" xml:space="preserve">
<style type="text/css">
	.st0{fill:#2845AE;}
</style>
<g>
	<path class="st0" d="M91.9,30.4c-2.2-4-6.1-6.9-10-9c-5.4-2.9-11.3-4.7-17.2-5.8c-0.8-0.2-1.6-0.3-2.4-0.4C53.5,7,39.9,7,31.2,15.1
		c-7.8,1.3-15.9,3.5-22.6,8C4.3,26,0,30.4,0,36.1l0,0l0,0l0,0l0,0c0,22.1,15.1,41.9,35.9,47c10.4,2.6,21.5,1.3,31.2-3.5
		c9.3-4.6,16.9-12.5,21.5-22c2.4-4.9,3.9-10.1,4.6-15.5C93.6,38.2,93.9,34,91.9,30.4z M54.4,14.1c6.9,3,11.8,10,12.3,17.7l0,0.5
		l0.1,0.4c0.4,1.1-0.8,2.2-1.5,2.8c-1.7,1.4-3.9,2.3-6,3c-4.5,1.5-9.3,1.9-14.1,1.8C39.5,36,35.8,29,35.8,21.1
		c0-1.9,0.2-3.8,0.7-5.5C41.8,12.2,48.5,11.6,54.4,14.1z M76.5,68.6c-5.7,2.4-11.9,3.7-18.4,3.7c-14.8,0-28.1-6.8-37.4-17.6
		c0.1,0,0.2,0.1,0.3,0.1c6.3,2,12.9,3,19.5,3.4c13.1,0.8,26.8-0.6,39-6.1c3.4-1.5,6.7-3.6,9.5-6.3C87,54.7,82.6,62.5,76.5,68.6z
		 M85,44.6c-3.9,3.2-8.7,5.2-13.4,6.6c-8.1,2.5-16.5,3.5-24.9,3.5c-6.7,0-13.5-0.7-20.1-2.2c-5.3-1.2-10.5-3-15.2-5.8
		c-3.1-1.9-6.4-4.5-7.6-8.2c-1.2-3.7,0.7-7.3,3.3-9.8c5.4-5.2,13.2-7.6,20.2-9.2c-2.3,3.5-3.8,7.6-4,12.1c-1.4,4.5,3.3,7.6,6.6,9.2
		c5.2,2.4,11.2,3.2,16.8,3.2c5.6,0,11.4-0.8,16.5-3.1c3.4-1.5,8.3-4.7,6.9-9.3c-0.3-4.5-1.7-8.6-4-12.1c5.9,1.3,12,3.3,17.1,6.7
		c3.2,2.2,6.7,5.4,6.8,9.7C90.1,39.5,87.6,42.5,85,44.6z"/>
</g>
</svg>
