<?xml version="1.0" encoding="utf-8"?>
<!-- Generator: Adobe Illustrator 24.1.0, SVG Export Plug-In . SVG Version: 6.00 Build 0)  -->
<svg version="1.1" id="Layer_1" xmlns="http://www.w3.org/2000/svg" xmlns:xlink="http://www.w3.org/1999/xlink" x="0px" y="0px"
	 viewBox="0 0 93.5 93.5" style="enable-background:new 0 0 93.5 93.5;" xml:space="preserve">
<style type="text/css">
	.st0{fill:#2845AE;}
</style>
<path class="st0" d="M90.1,12.9c-0.8-0.8-2-0.8-2.8,0l-3.2,3.2l-35.9,36c-0.8,0.8-2,0.8-2.8,0L30.1,36.9c-0.8-0.8-2-0.8-2.8,0
	l-2.8,2.8c-0.8,0.8-0.8,2,0,2.8l20.9,20.9c0.8,0.8,2,0.8,2.8,0l4.2-4.2l31.7-31.8l5-5l3.8-3.8c0.8-0.8,0.8-2,0-2.8L90.1,12.9z"/>
<path class="st0" d="M81.8,41.2v35.6c0,2.8-2.2,5-5,5h-60c-2.8,0-5-2.2-5-5V41.2V32V16.8c0-2.8,2.2-5,5-5h60c0.1,0,0.3,0,0.4,0
	l3.5-3.5l0.5-0.5c-1.3-0.7-2.8-1-4.4-1h-60c-5.5,0-10,4.5-10,10v60c0,5.5,4.5,10,10,10h60c5.5,0,10-4.5,10-10V36.2L81.8,41.2z"/>
</svg>
