<svg id="aae6576f-f39b-40cf-84e5-3ed1930629b9" data-name="Layer 1" xmlns="http://www.w3.org/2000/svg" viewBox="0 0 95 95"><path d="M15.69,27.067a3.537,3.537,0,1,0-3.537-3.537A3.537,3.537,0,0,0,15.69,27.067Z" style="fill:#459CF4;fill-rule:evenodd"/><circle cx="26.799" cy="23.53" r="3.537" style="fill:#459CF4"/><path d="M53.368,55.7A11.823,11.823,0,0,0,37.261,40.968a.542.542,0,0,0-.142.871l7.5,7.5L39.8,54.157l-7.5-7.5a.541.541,0,0,0-.871.143,11.82,11.82,0,0,0,14.726,16.1L57.811,74.562a1.715,1.715,0,0,0,2.426,0l4.786-4.785a1.717,1.717,0,0,0,0-2.427Z" style="fill:#459CF4;fill-rule:evenodd"/><path d="M53.368,55.7A11.823,11.823,0,0,0,37.261,40.968a.542.542,0,0,0-.142.871l7.5,7.5L39.8,54.157l-7.5-7.5a.541.541,0,0,0-.871.143,11.82,11.82,0,0,0,14.726,16.1L57.811,74.562a1.715,1.715,0,0,0,2.426,0l4.786-4.785a1.717,1.717,0,0,0,0-2.427Z" style="fill:#459CF4;fill-rule:evenodd"/><path d="M53.368,55.7A11.823,11.823,0,0,0,37.261,40.968a.542.542,0,0,0-.142.871l7.5,7.5L39.8,54.157l-7.5-7.5a.541.541,0,0,0-.871.143,11.82,11.82,0,0,0,14.726,16.1L57.811,74.562a1.715,1.715,0,0,0,2.426,0l4.786-4.785a1.717,1.717,0,0,0,0-2.427Z" style="fill:#459CF4;fill-rule:evenodd"/><path d="M84.147,11.336H10.853A7.868,7.868,0,0,0,2.994,19.2V75.8a7.868,7.868,0,0,0,7.859,7.86H84.147a7.868,7.868,0,0,0,7.859-7.86V19.2A7.868,7.868,0,0,0,84.147,11.336Zm-73.294,4.5H84.147a3.363,3.363,0,0,1,3.359,3.36V30.671H7.494V19.2A3.363,3.363,0,0,1,10.853,15.836ZM84.147,79.164H10.853A3.363,3.363,0,0,1,7.494,75.8V35.171H87.506V75.8A3.363,3.363,0,0,1,84.147,79.164Z" style="fill:#459CF4"/></svg>