<svg id="a9a01531-3d32-4a94-bfb6-6b640e158418" data-name="Layer 1" xmlns="http://www.w3.org/2000/svg" viewBox="0 0 95 95"><path d="M63.036,29.461a13.136,13.136,0,0,1,5.771,4.49l4.537.136a19.82,19.82,0,0,0-7.3-6.274l.971-2.336-5.084-2.2L60.782,25.71c-5.8-1.606-11.258-.868-12.954,2.089s1.3,7.372,6.93,10.737L53.7,40.78l5.881,2.564.889-2.14c4.334,1.519,8.518,1.907,11.254.96l-4.079-3.291c-2,.673-5.169.253-8.239-1.084-4.725-2.058-7.629-5.542-6.473-7.768S58.623,27.544,63.036,29.461Z" style="fill:#459CF4"/><path d="M85.131,31.466c-4.289-4.878-10.81-9.379-18.363-12.673s-15.264-5-21.782-4.831c-7,.191-11.848,2.577-13.652,6.717l-4.276,9.8c-1.8,4.14-.253,9.316,4.369,14.575,4.289,4.878,10.81,9.378,18.363,12.672a53.947,53.947,0,0,0,20.857,4.844q.466,0,.925-.012c7-.192,11.848-2.577,13.652-6.717l4.276-9.8C91.305,41.9,89.753,36.725,85.131,31.466Zm-54.581.539,1.2-2.744A22.049,22.049,0,0,0,34.739,34.1l-2.508,5.754C30.267,36.839,29.649,34.071,30.55,32.005Zm4.3,11.127.091.04,2.609-5.984a45.378,45.378,0,0,0,4.837,4.065l-2.718,6.233A38.126,38.126,0,0,1,34.846,43.132Zm20.982,5.516A61.958,61.958,0,0,0,63.573,51.2l-2.731,6.264a57.883,57.883,0,0,1-7.766-2.507Zm-6.243,4.789a58.01,58.01,0,0,1-6.733-3.73l2.732-6.266a62.727,62.727,0,0,0,6.753,3.684Zm15.07,4.813,2.707-6.206a43.012,43.012,0,0,0,6.63.687l-2.625,6.022A37.178,37.178,0,0,1,64.655,58.25Zm11.085,0,2.477-5.681a21.461,21.461,0,0,0,4.731-1.034l-1.215,2.786C80.911,56.209,78.8,57.565,75.74,58.252ZM55.588,44.434c-7.052-3.074-13.1-7.228-17.024-11.695-3.54-4.027-4.9-7.868-3.739-10.538s4.9-4.285,10.266-4.431q.411-.012.831-.012a50.071,50.071,0,0,1,19.323,4.528c7.052,3.074,13.1,7.227,17.024,11.7,3.54,4.027,4.9,7.868,3.739,10.538C83.675,49.867,70.9,51.11,55.588,44.434Z" style="fill:#459CF4"/><path d="M65.051,64.315v.844c0,2.053-1.4,4.156-3.923,6.022V64.96c.56-.322,1.086-.66,1.593-1-1.769-.321-3.573-.737-5.393-1.252-4.891,2.285-11.861,3.841-20.2,3.841-16.7,0-27.919-6.246-27.919-12.081,0-4.594,6.959-9.442,18.069-11.3A21.707,21.707,0,0,1,25.4,39.662C13.58,41.954,5.4,47.641,5.4,54.464v10.7C5.4,74.07,19.341,81.05,37.132,81.05S68.86,74.07,68.86,65.159v-.5C67.619,64.6,66.35,64.489,65.051,64.315ZM13.889,71.706c-3-1.99-4.676-4.3-4.676-6.547V62.128a22.4,22.4,0,0,0,4.676,3.251Zm9.868,4.029a37.565,37.565,0,0,1-6.279-2.093h.22V67.106a44.546,44.546,0,0,0,6.059,1.815Zm11.47,1.475a58.978,58.978,0,0,1-7.661-.709V69.646a62.4,62.4,0,0,0,7.661.679Zm11.93-.782a58.644,58.644,0,0,1-8.12.782V70.325a61.977,61.977,0,0,0,8.12-.755ZM57.319,73.4a36.267,36.267,0,0,1-6.353,2.22v-6.8a43.35,43.35,0,0,0,6.353-2.008Z" style="fill:#459CF4"/><path d="M48.66,59.567c-1.411-.623-2.777-1.3-4.112-1.995a15.059,15.059,0,0,1-6.568,1.354c-5.154,0-9.209-2.031-9.039-4.533.117-1.726,2.084-3.233,4.871-4-.915-.789-1.769-1.595-2.574-2.414-4.387,1.257-7.564,3.663-7.868,6.422-.372,3.388,4.141,6.237,10.644,7.073l-.069,2.477H40.36l-.04-2.316A22.977,22.977,0,0,0,48.66,59.567Z" style="fill:#459CF4"/></svg>