<svg id="b8ad5e6c-7ad3-421f-aac2-718cd169d20a" data-name="Layer 1" xmlns="http://www.w3.org/2000/svg" viewBox="0 0 95 95"><circle cx="47.5" cy="52.357" r="6.046" style="fill:#459CF4"/><path d="M56.5,24.661,56.269,28.4a25.528,25.528,0,1,1-16.911-.23l-.233-3.706a29.128,29.128,0,1,0,17.379.2Z" style="fill:#459CF4"/><path d="M54.477,5.838l-2.11,37.033H43.275L41.166,5.838a1.973,1.973,0,0,1,1.97-2.086h9.37A1.975,1.975,0,0,1,54.477,5.838Z" style="fill:#459CF4"/><path d="M55.842,35.2l-.208,3.316c-.013.207-.04.41-.069.612a15.5,15.5,0,1,1-15.529-.366c-.008-.082-.022-.162-.028-.244L39.781,34.9a19.11,19.11,0,1,0,16.061.3Z" style="fill:#459CF4"/><path d="M57.132,14.674l-.23,3.658a35.289,35.289,0,1,1-18.173-.178L38.5,14.528a38.871,38.871,0,1,0,18.631.146Z" style="fill:#459CF4"/></svg>