<svg id="f3a2f3ea-571e-4fa7-b5bb-88bdbb33004e" data-name="Layer 1" xmlns="http://www.w3.org/2000/svg" viewBox="0 0 95 95"><path d="M89.653,40.912V19.873a.677.677,0,0,0-.677-.677H67.935a.678.678,0,0,0-.677.677V22.23L58.6,17.343V3.221a.677.677,0,0,0-.677-.677H36.884a.677.677,0,0,0-.677.677V17.487l-8.466,4.778V19.873a.677.677,0,0,0-.677-.677H6.024a.677.677,0,0,0-.677.677V40.912a.677.677,0,0,0,.677.677h21.04a.677.677,0,0,0,.677-.677V25.1a1.28,1.28,0,0,0,.2-.081l8.265-4.665v3.9a.677.677,0,0,0,.677.677h9.27v8.025h2.5V24.938h9.269a.677.677,0,0,0,.677-.677V20.214l8.52,4.809a1.173,1.173,0,0,0,.138.056V40.912a.678.678,0,0,0,.677.677h9.271V52.88H67.935a.678.678,0,0,0-.677.677v6.907L60.379,56.58c.187-.284.367-.573.537-.87.1-.133,0-.232-.166-.232a5,5,0,0,0-.737.166,11.608,11.608,0,0,0,.672-1.383,1.82,1.82,0,0,0,1.159-.441,15.945,15.945,0,0,0,1.061-5.7A15.5,15.5,0,0,0,58.3,37.094a3.863,3.863,0,0,0-.634-.649,15.033,15.033,0,0,0-9.549-3.482,14.832,14.832,0,0,0-5.969,1.26l-.01.005a4.288,4.288,0,0,0-.487-.038,4.442,4.442,0,0,0-2.155.564c-.4.265-.829.53-1.227.829a16.774,16.774,0,0,0-1.824,1.558,13.4,13.4,0,0,0-1.558,1.791,13.013,13.013,0,0,0-1.26,2.056c-.034.1-.1.165-.133.265.615.186,2.93-.382,5.18-1.435A6.3,6.3,0,0,0,40.834,42a3.82,3.82,0,0,0-.509,2.4c.464,3.515,5.57,5.769,7.261,6.5.013.007.153.062.386.152a8.9,8.9,0,0,0-2.276,2.1,4.068,4.068,0,0,0-.7,3.581c.9,3.283,3.946,5.637,5.57,5.637h.1a11.31,11.31,0,0,0,1.8-.523,2.178,2.178,0,0,0,2.117-.008,15.587,15.587,0,0,0,4.24-3.271l8.435,4.762V74.6a.678.678,0,0,0,.677.677H88.976a.677.677,0,0,0,.677-.677V53.557a.677.677,0,0,0-.677-.677h-9.27V41.589h9.27A.677.677,0,0,0,89.653,40.912ZM24.741,38.589H8.347V22.2H24.741ZM55.6,21.938H39.207V5.544H55.6ZM39.856,39.208a9.036,9.036,0,0,0,3.121-2.6,2.4,2.4,0,0,0,.405-1.435,14.657,14.657,0,0,1,4.735-.886,13.5,13.5,0,0,1,5.913,1.383c-3.513.25-9.708,2.23-12.411,5.24A5.147,5.147,0,0,1,39.856,39.208ZM50.57,61.015c-.928-.033-3.514-1.857-4.277-4.642a2.827,2.827,0,0,1,.5-2.454,8.635,8.635,0,0,1,2.747-2.285,48.508,48.508,0,0,0,9.736,2.608c-.143.312-.3.625-.479.937a11.572,11.572,0,0,1-.858,1.222c-2.26.955-5.023,2.517-5.681,4.1A11.227,11.227,0,0,1,50.57,61.015ZM86.653,72.274h-16.4V55.88h16.4ZM70.258,22.2h16.4V38.589h-16.4Z" style="fill:#459CF4"/><path d="M36.207,75.37l-8.466-6V62.585l7.878-4.446c.264.306.541.6.826.887a13.475,13.475,0,0,0,1.791,1.558c.5.365.994.663,1.492.962.961.563,1.293.53,1.459.53a21.809,21.809,0,0,0,.2-4.841,16.029,16.029,0,0,0-2.222-5.968c-.3-.5-1.724-2.819-2.785-4.245-1.094-1.492-2.388-2.851-3.515-4.343-.066.165-.1.3-.166.464a14.884,14.884,0,0,0-.6,2.387,16.075,16.075,0,0,0,0,5.04,14.869,14.869,0,0,0,.6,2.388,14.29,14.29,0,0,0,.929,2.221c.161.308.339.615.524.917l-6.41,3.618V53.557a.677.677,0,0,0-.677-.677H6.024a.677.677,0,0,0-.677.677V74.6a.677.677,0,0,0,.677.677h21.04a.677.677,0,0,0,.677-.677V72.435l8.207,5.814a1.2,1.2,0,0,0,.259.129v13.4a.677.677,0,0,0,.677.677H57.923a.677.677,0,0,0,.677-.677V70.739a.677.677,0,0,0-.677-.677H36.884a.677.677,0,0,0-.677.677Zm-11.466-3.1H8.347V55.88H24.741Zm14.466.788H55.6V89.455H39.207Z" style="fill:#459CF4"/></svg>