<svg id="bec81d9a-f352-41bf-a740-3da73d290a7d" data-name="Layer 1" xmlns="http://www.w3.org/2000/svg" viewBox="0 0 95 95"><path d="M53.377,60.911a7.719,7.719,0,1,0-8.33-.653L29.665,84.172a2,2,0,1,0,3.364,2.164L47,64.611V87.592a2,2,0,0,0,4,0V64.611L64.976,86.336a2,2,0,1,0,3.363-2.164Z" style="fill:#459CF4"/><path d="M89.423,39.958,72.742,7.944a2,2,0,0,0-2.8-.789L55.975,15.561a2,2,0,0,0-.742,2.638l1.36,2.611-40.938,23.5a2,2,0,0,0-.778,2.659l1.342,2.575L5.943,54.9a2,2,0,0,0-.85,2.7l4.871,9.35a2,2,0,0,0,2.7.849l10.278-5.355,1.342,2.576a2,2,0,0,0,2.624.886L41.4,59.094a9.628,9.628,0,0,1-1.419-3.752L26.942,61.47l-7.63-14.643L58.443,24.361l4.667,8.955,4.666,8.956L56.824,47.421a9.715,9.715,0,0,1,2,3.481l10.805-5.08,1.362,2.612a2,2,0,0,0,2.586.9l14.89-6.627a2,2,0,0,0,.96-2.752ZM21.09,58.9l-8.5,4.431-3.022-5.8,8.5-4.43.7,1.335Zm52.574-13.98-1.378-2.645v0L61.028,20.664h0l-1.379-2.646,10.529-6.339L84.893,39.92Z" style="fill:#459CF4"/></svg>