<svg id="f41168ac-51c2-4ff8-9dcc-f7b51b5e7d0a" data-name="Layer 1" xmlns="http://www.w3.org/2000/svg" viewBox="0 0 95 95"><polygon points="44.962 25.189 44.962 53.88 64.709 59.893 66.457 54.153 50.962 49.435 50.962 25.189 44.962 25.189" style="fill:#459CF4"/><path d="M49.031,7.435A40.094,40.094,0,0,0,11.139,34.473L4.974,33.286A1.518,1.518,0,0,0,3.4,35.58l6.912,11.087a1.517,1.517,0,0,0,2.186.421l10.534-7.73a1.518,1.518,0,0,0-.611-2.714L16.1,35.428a35.061,35.061,0,1,1-1.178,20.251,2.5,2.5,0,0,0-4.863,1.161,40.068,40.068,0,1,0,38.969-49.4Z" style="fill:#459CF4"/></svg>