<svg id="b7192bb3-7251-49c8-bd7b-24893ae4317b" data-name="Layer 1" xmlns="http://www.w3.org/2000/svg" viewBox="0 0 95 95"><path d="M82.8,25.948,48.514,6.152a2.026,2.026,0,0,0-2.029,0L12.2,25.948a2.027,2.027,0,0,0-1.014,1.757V67.3A2.027,2.027,0,0,0,12.2,69.053l34.287,19.8a2.026,2.026,0,0,0,2.029,0L82.8,69.053A2.027,2.027,0,0,0,83.816,67.3V27.705A2.027,2.027,0,0,0,82.8,25.948ZM79.316,65.87,47.5,84.239,15.684,65.87V29.131L47.5,10.761l31.816,18.37Z" style="fill:#459CF4"/><path d="M41.877,29.05A5.623,5.623,0,1,0,47.5,23.428,5.63,5.63,0,0,0,41.877,29.05Zm7.745,0A2.123,2.123,0,1,1,47.5,26.928,2.125,2.125,0,0,1,49.622,29.05Z" style="fill:#459CF4"/><path d="M29.655,55.062a5.622,5.622,0,1,0,5.622,5.622A5.628,5.628,0,0,0,29.655,55.062Zm0,7.743a2.122,2.122,0,1,1,2.122-2.121A2.123,2.123,0,0,1,29.655,62.805Z" style="fill:#459CF4"/><path d="M59.722,60.684a5.622,5.622,0,1,0,5.622-5.622A5.628,5.628,0,0,0,59.722,60.684Zm5.622-2.122a2.122,2.122,0,1,1-2.122,2.122A2.124,2.124,0,0,1,65.344,58.562Z" style="fill:#459CF4"/><path d="M48.4,35.6,59.9,56.918a6.662,6.662,0,0,1,2.748-2.278L51.632,34.216A6.594,6.594,0,0,1,48.4,35.6Z" style="fill:#459CF4"/><path d="M35.783,58.185a6.4,6.4,0,0,1,.41,3.5H58.806a6.409,6.409,0,0,1,.409-3.5Z" style="fill:#459CF4"/><path d="M34.984,56.771,46.42,35.576a6.6,6.6,0,0,1-3.185-1.468L32.194,54.571A6.638,6.638,0,0,1,34.984,56.771Z" style="fill:#459CF4"/></svg>