<svg id="bb8cf400-b71e-4cab-8c3d-970331624081" data-name="Layer 1" xmlns="http://www.w3.org/2000/svg" viewBox="0 0 95 95"><path d="M65.773,38.494V18.89a1.178,1.178,0,0,0-.589-1.02l-16.978-9.8a1.18,1.18,0,0,0-1.178,0L30.05,17.87a1.178,1.178,0,0,0-.589,1.02v19.6a1.176,1.176,0,0,0,.589,1.02l16.978,9.8a1.175,1.175,0,0,0,1.178,0l16.978-9.8A1.176,1.176,0,0,0,65.773,38.494ZM33.461,20.519l14.156-8.173,14.156,8.173V36.866L47.617,45.038,33.461,36.866Z" style="fill:#459CF4"/><path d="M48.52,41.512V29.157l10.558-5.5a.9.9,0,1,0-.835-1.6l-10.626,5.54-10.626-5.54a.9.9,0,0,0-.835,1.6l10.557,5.5V41.512a.9.9,0,1,0,1.807,0Z" style="fill:#459CF4"/><path d="M6.544,56.506v19.6a1.176,1.176,0,0,0,.589,1.02l16.978,9.8a1.18,1.18,0,0,0,1.178,0l16.978-9.8a1.176,1.176,0,0,0,.589-1.02v-19.6a1.179,1.179,0,0,0-.589-1.021l-16.978-9.8a1.18,1.18,0,0,0-1.178,0l-16.978,9.8A1.179,1.179,0,0,0,6.544,56.506ZM38.856,74.481,24.7,82.654,10.544,74.481V58.134L24.7,49.962l14.156,8.172Z" style="fill:#459CF4"/><path d="M14.074,59.667a.9.9,0,1,0-.835,1.6l10.557,5.5V79.128a.9.9,0,1,0,1.807,0V66.773l10.558-5.5a.9.9,0,1,0-.835-1.6L24.7,65.206Z" style="fill:#459CF4"/><path d="M70.37,45.525l-16.978,9.8a1.178,1.178,0,0,0-.589,1.02v19.6a1.176,1.176,0,0,0,.589,1.02l16.978,9.8a1.18,1.18,0,0,0,1.178,0l16.978-9.8a1.178,1.178,0,0,0,.589-1.02v-19.6a1.18,1.18,0,0,0-.589-1.02l-16.978-9.8A1.175,1.175,0,0,0,70.37,45.525Zm14.745,28.8L70.959,82.5,56.8,74.324V57.976L70.959,49.8l14.156,8.172Z" style="fill:#459CF4"/><path d="M60.333,59.509a.9.9,0,1,0-.835,1.6l10.557,5.5V78.97a.9.9,0,0,0,1.807,0V66.615l10.558-5.5a.9.9,0,0,0-.835-1.6L70.959,65.048Z" style="fill:#459CF4"/><polygon points="35.121 50.679 40.416 46.271 36.934 44.222 31.578 48.691 35.121 50.679" style="fill:#459CF4"/><polygon points="59.749 50.943 63.293 48.955 57.936 44.486 54.454 46.534 59.749 50.943" style="fill:#459CF4"/><rect x="43.351" y="66.89" width="8.924" height="3.709" style="fill:#459CF4"/></svg>