<svg id="e6bcc26d-d8cf-461e-a1f7-8bf5f78c604b" data-name="Layer 1" xmlns="http://www.w3.org/2000/svg" viewBox="0 0 95 95"><path d="M35.885,24.033a8.392,8.392,0,0,0,2.874,2.9,5.09,5.09,0,0,0-.678,3.2c.618,4.676,7.412,7.676,9.662,8.646.017.009.2.082.508.2a11.794,11.794,0,0,0-3.023,2.8,5.413,5.413,0,0,0-.926,4.765c1.191,4.367,5.249,7.5,7.411,7.5h.132a14.907,14.907,0,0,0,2.38-.692,2.909,2.909,0,0,0,2.826-.014,20.828,20.828,0,0,0,8.426-8.162c.133-.176,0-.308-.22-.308a6.6,6.6,0,0,0-.981.221,15.371,15.371,0,0,0,.894-1.841,2.42,2.42,0,0,0,1.543-.586,21.243,21.243,0,0,0,1.411-7.588,20.643,20.643,0,0,0-6.218-14.8,5.1,5.1,0,0,0-.752-.733,20,20,0,0,0-12.706-4.633,19.726,19.726,0,0,0-7.94,1.677l-.015.006a5.534,5.534,0,0,0-.647-.05,5.922,5.922,0,0,0-2.868.75c-.529.353-1.1.706-1.632,1.1a22.163,22.163,0,0,0-2.427,2.073,17.955,17.955,0,0,0-2.073,2.382,17.465,17.465,0,0,0-1.676,2.736c-.045.132-.133.22-.177.353C29.812,26.19,32.891,25.433,35.885,24.033ZM53.954,51.548a14.9,14.9,0,0,1-2.241.687c-1.235-.044-4.676-2.471-5.691-6.176a3.757,3.757,0,0,1,.662-3.265,11.464,11.464,0,0,1,3.655-3.041c3.336,1.2,9.146,3.112,12.952,3.47-.189.415-.4.832-.637,1.247A15.426,15.426,0,0,1,61.513,46.1C58.506,47.366,54.831,49.444,53.954,51.548Zm2.362-33.031c-4.676.334-12.923,2.97-16.518,6.978a6.811,6.811,0,0,1-2.343-2.273,12.016,12.016,0,0,0,4.155-3.457,3.191,3.191,0,0,0,.538-1.908,19.5,19.5,0,0,1,6.3-1.18A17.964,17.964,0,0,1,56.316,18.517Z" style="fill:#459CF4"/><path d="M29.17,44.47a21.056,21.056,0,0,0,1.676,2.692,18.348,18.348,0,0,0,2.073,2.426A17.819,17.819,0,0,0,35.3,51.661c.662.486,1.323.883,1.985,1.28,1.279.75,1.721.706,1.941.706a28.984,28.984,0,0,0,.265-6.441,21.342,21.342,0,0,0-2.956-7.941c-.4-.662-2.294-3.75-3.706-5.647-1.456-1.985-3.176-3.794-4.676-5.779-.088.22-.132.4-.221.617a19.738,19.738,0,0,0-.794,3.177,21.358,21.358,0,0,0,0,6.705,19.738,19.738,0,0,0,.794,3.177A19,19,0,0,0,29.17,44.47Z" style="fill:#459CF4"/><path d="M42.573,78.645a6.357,6.357,0,0,0,9.854,0l19.008-23.3a31.065,31.065,0,1,0-47.875-.007Zm-12.92-62.1a25.822,25.822,0,0,1,17.83-7.068q.839,0,1.685.053A26.061,26.061,0,0,1,67.579,52.162l-.013.015L48.552,75.485a1.358,1.358,0,0,1-2.1,0L27.421,52.162a26.1,26.1,0,0,1-5.986-16.619A25.826,25.826,0,0,1,29.653,16.546Z" style="fill:#459CF4"/><path d="M68.195,69.693a2.5,2.5,0,0,0-1.885,4.631c3.565,1.451,5.161,3.1,5.161,4.085,0,2.414-8.461,7.113-23.971,7.113s-23.971-4.7-23.971-7.113c0-1.036,1.708-2.746,5.525-4.23a2.5,2.5,0,1,0-1.812-4.66c-7.2,2.8-8.713,6.38-8.713,8.89,0,7.952,14.574,12.113,28.971,12.113s28.971-4.161,28.971-12.113C76.471,75.968,75.035,72.476,68.195,69.693Z" style="fill:#459CF4"/></svg>