<svg id="a757aeb6-4e5c-421a-8fe4-841ab84c9551" data-name="Layer 1" xmlns="http://www.w3.org/2000/svg" viewBox="0 0 95 95"><path d="M43.366,22.521,37.6,27.647l-.939,5.515,1.409,7.5,4.966,3.077,5.615,2.009,9.882-2.019,7.324-3.057,7.993-.53,8.643,2.568,2.118.52A38.772,38.772,0,0,0,55.845,14.088l-4.456,4.037-8,4.4Z" style="fill:#459CF4"/><path d="M85.38,48.139,78.4,47.41l-9.122,1.179L60.751,54.1l-2.638,2.818,1.969,7.6L63.039,72.2,69.4,75.486l6.514,1.879A38.636,38.636,0,0,0,85.56,51.786c0-1.229-.06-2.438-.18-3.637Z" style="fill:#459CF4"/><path d="M90.746,46.641a25.982,25.982,0,0,0-25.359-7.914A26.093,26.093,0,0,0,58.5,41.465a22.326,22.326,0,0,1-2.788,1.379,14.3,14.3,0,0,1-1.788.589,15.107,15.107,0,0,1-3.507.44,11.021,11.021,0,0,1-9.3-4.746C37.72,34,39.189,27.676,44.545,24.12c1.289-.79,2.628-1.489,4.036-2.219a35.656,35.656,0,0,0,8.543-5.555c3.587-3.377,5.476-6.664,4.536-13.5A2.469,2.469,0,0,0,59.522.729a2.422,2.422,0,0,0-2.578,1.509C55.406,6.015,48.9,7.843,44.6,9.062l-.919.26a86.964,86.964,0,0,0-15.657,6.165,41.18,41.18,0,0,0-20.2,48.739c.02.05.04.09.06.14A40.369,40.369,0,0,0,23.353,85.188a41.251,41.251,0,0,0,23.86,7.594c12.3,0,24.779-5.426,34.531-15.857a2.459,2.459,0,0,0,.189-3.117,2.326,2.326,0,0,0-2.917-.74,12.057,12.057,0,0,1-7.454.92,11.91,11.91,0,0,1-9.442-9.422,12.085,12.085,0,0,1,6.794-13.339c.47-.19.95-.39,1.439-.55,4.566-1.489,11.151-1.508,18.085-.05a2.421,2.421,0,0,0,2.318-3.976ZM70.813,77.914a16.569,16.569,0,0,0,3.836.27c-14.657,12.47-34.121,14.178-49.008,3.737a39.016,39.016,0,0,1-5.086-4.266,25.191,25.191,0,0,0,9.172,1.678,29.675,29.675,0,0,0,6.125-.649c8.473-1.769,15.927-7.594,20.972-16.377.37-.649.76-1.259,1.16-1.858a16.547,16.547,0,0,0,.189,4.846A15.953,15.953,0,0,0,70.8,77.9ZM69.464,46.771a1.378,1.378,0,0,0-.27.079c-.03,0-.06.02-.09.02-.1.03-.2.07-.3.1-.339.11-.679.23-1.009.36-5.885,2.288-10.851,6.744-14.438,12.979-4.476,7.784-10.98,12.919-18.324,14.458-8.223,1.719-15.8-.559-20.273-6.095a19.342,19.342,0,0,1-3.108-5.565c-.02-.06-.04-.11-.06-.17A37.167,37.167,0,0,1,29.9,19.024a83.086,83.086,0,0,1,14.9-5.855l.9-.25c3.707-1.049,8.812-2.478,12.16-5.376-.29,2.478-1.449,4.017-3.457,5.906a32.579,32.579,0,0,1-7.644,4.915c-1.409.73-2.878,1.489-4.347,2.4-7.233,4.8-9.212,13.639-4.616,20.583a15.025,15.025,0,0,0,12.63,6.534,18.935,18.935,0,0,0,4.456-.549,18.044,18.044,0,0,0,2.328-.759,26.911,26.911,0,0,0,3.277-1.619,22.03,22.03,0,0,1,23.321.9,36.246,36.246,0,0,0-14.348.94Z" style="fill:#459CF4"/></svg>