<svg id="b29eb110-a4a5-41a0-861e-b072c0663102" data-name="Layer 1" xmlns="http://www.w3.org/2000/svg" viewBox="0 0 95 95"><path d="M51.925,43.66a9.5,9.5,0,1,0-9.463,0L23.618,90.3A2,2,0,0,0,26.5,92.767L47.322,80.261l20.553,12.5A2,2,0,0,0,70.768,90.3Zm-22.36,42.6,5.449-13.486,8.449,5.138Zm6.966-17.244,9.75-24.134c.3.029.6.046.912.046s.612-.017.912-.046L57.936,69.22l-10.6,6.367ZM51.2,77.935l8.259-4.96L64.8,86.209Z" style="fill:#459CF4"/><path d="M57.742,49.39,59.455,53.1a21.527,21.527,0,1,0-24.523,0l1.712-3.707a17.527,17.527,0,1,1,21.1,0Z" style="fill:#459CF4"/><path d="M30.935,61.749l1.693-3.664a26.952,26.952,0,1,1,29.131,0l1.693,3.664a30.952,30.952,0,1,0-32.517,0Z" style="fill:#459CF4"/></svg>