<svg id="fd224670-4519-46dd-9b95-75e778cd8c60" data-name="Layer 1" xmlns="http://www.w3.org/2000/svg" viewBox="0 0 95 95"><path d="M76.04,68.061a2.231,2.231,0,1,0-1.682,4.133c3.182,1.3,4.607,2.765,4.607,3.647,0,2.154-7.552,6.349-21.4,6.349s-21.4-4.195-21.4-6.349c0-.924,1.525-2.451,4.931-3.776a2.231,2.231,0,0,0-1.617-4.159c-6.428,2.5-7.777,5.694-7.777,7.935,0,7.1,13.008,10.812,25.859,10.812s25.86-3.714,25.86-10.812C83.428,73.662,82.146,70.545,76.04,68.061Z" style="fill:#459CF4"/><circle cx="57.865" cy="33.909" r="11.448" style="fill:#459CF4"/><path d="M85.186,35.076A27.837,27.837,0,0,0,59.333,9.906,27.514,27.514,0,0,0,38.582,17.37a27.8,27.8,0,0,0-7.321,11.493l3.6,3.6A23.28,23.28,0,0,1,57.553,14.313q.749,0,1.5.047A23.262,23.262,0,0,1,75.49,52.413l-.011.014-16.972,20.8a1.211,1.211,0,0,1-1.878,0L39.646,52.413a23.07,23.07,0,0,1-1.927-2.737l-3.235,3.235A27.556,27.556,0,0,0,36.2,55.247L53.17,76.052a5.676,5.676,0,0,0,8.8,0l16.966-20.8A27.632,27.632,0,0,0,85.186,35.076Z" style="fill:#459CF4"/><path d="M38.572,40.471,26.539,28.437a2.606,2.606,0,0,0-3.685,3.686l5.007,5.007H4.434v4.035H30.712a1.149,1.149,0,0,1,0,2.3H4.434V47.5H27.861L22.854,52.5a2.606,2.606,0,1,0,3.685,3.685L38.572,44.156A2.6,2.6,0,0,0,38.572,40.471Z" style="fill:#459CF4"/></svg>