<svg id="b596f880-8e4b-4c81-bdfc-e4fd55b1a65f" data-name="Layer 1" xmlns="http://www.w3.org/2000/svg" viewBox="0 0 95 95"><path d="M80.95,26.93,48.59,8.247a2.183,2.183,0,0,0-2.179,0L14.051,26.93a2.183,2.183,0,0,0-1.09,1.887V66.182a2.183,2.183,0,0,0,1.09,1.887l32.36,18.684a2.182,2.182,0,0,0,2.179,0L80.95,68.069a2.184,2.184,0,0,0,1.089-1.887V28.817A2.184,2.184,0,0,0,80.95,26.93Zm-3.268,3.145V64.924L47.5,82.35,17.319,64.924V30.075L47.5,12.649Z" style="fill:#459CF4"/><path d="M54.013,41.879a8.793,8.793,0,1,0-8.794-8.793A8.8,8.8,0,0,0,54.013,41.879Zm-4.436-8.793a4.436,4.436,0,1,1,4.436,4.436A4.44,4.44,0,0,1,49.577,33.086Z" style="fill:#459CF4"/><path d="M34.961,37.809a2.169,2.169,0,0,0-2.815-.139L18.778,47.917v5.49L33.33,42.252l30.645,28.7.13.122L68.048,68.8,56.329,57.825,68.892,45.981l7.331,5.624V46.114L70.071,41.4a2.169,2.169,0,0,0-2.821.143L53.142,54.84Z" style="fill:#459CF4"/></svg>