<svg id="a00685cc-90b3-4e1d-b36c-a57088094598" data-name="Layer 1" xmlns="http://www.w3.org/2000/svg" viewBox="0 0 95 95"><path d="M79.45,24.65a11.95,11.95,0,1,0-12-12,12.541,12.541,0,0,0,2.7,7.6l-14.3,15.8a11.944,11.944,0,0,0-15.6-.2l-14.7-13.5a8.186,8.186,0,0,0,1.2-4.1,7.9,7.9,0,1,0-7.9,7.9,8.138,8.138,0,0,0,4.8-1.6l14.7,13.5a11.813,11.813,0,0,0-2.2,6.9,11.472,11.472,0,0,0,2.7,7.5l-16,17.3a11.521,11.521,0,0,0-7.3-2.5,11.9,11.9,0,1,0,12,11.9,11.521,11.521,0,0,0-2.5-7.3l15.8-17.3a11.028,11.028,0,0,0,6.9,2.3l1.9,18.7a9.565,9.565,0,1,0,12.4,9.1,9.454,9.454,0,0,0-9.3-9.5l-2-18.6a11.383,11.383,0,0,0,5.8-3.4l14.8,11a7.455,7.455,0,0,0-.6,3.1,8.026,8.026,0,1,0,2.3-5.5l-14.7-11a11.294,11.294,0,0,0,1.5-5.7,11.835,11.835,0,0,0-2.1-6.7l14.6-15.9A12.972,12.972,0,0,0,79.45,24.65Z" style="fill:#459CF4"/></svg>