<svg id="f0ef0681-b386-4bfc-8219-534ed477d9c5" data-name="Layer 1" xmlns="http://www.w3.org/2000/svg" viewBox="0 0 95 95"><path d="M38.877,50.069c-.319-.533-1.846-3.018-2.982-4.545-1.172-1.6-2.557-3.053-3.764-4.651-.071.178-.106.32-.177.5a15.86,15.86,0,0,0-.639,2.557,17.193,17.193,0,0,0,0,5.4,15.86,15.86,0,0,0,.639,2.557,15.252,15.252,0,0,0,.994,2.378A16.864,16.864,0,0,0,34.3,56.424a14.674,14.674,0,0,0,1.669,1.953,14.293,14.293,0,0,0,1.917,1.669c.533.39,1.065.71,1.6,1.029,1.029.6,1.384.568,1.562.568a23.315,23.315,0,0,0,.213-5.183A17.166,17.166,0,0,0,38.877,50.069Z" style="fill:#459CF4"/><path d="M59.367,34.893a4.216,4.216,0,0,0-.678-.7A16.107,16.107,0,0,0,48.463,30.47a15.87,15.87,0,0,0-6.39,1.35l-.011,0a4.635,4.635,0,0,0-.522-.041,4.756,4.756,0,0,0-2.308.6c-.426.284-.887.568-1.314.887a17.824,17.824,0,0,0-1.952,1.669A14.356,14.356,0,0,0,34.3,36.861a13.962,13.962,0,0,0-1.349,2.2c-.036.106-.107.177-.142.284.659.2,3.137-.41,5.546-1.537a6.745,6.745,0,0,0,2.313,2.338,4.089,4.089,0,0,0-.545,2.571c.5,3.764,5.965,6.178,7.775,6.959.014.007.163.067.414.163a9.49,9.49,0,0,0-2.437,2.252,4.355,4.355,0,0,0-.746,3.834c.959,3.515,4.225,6.036,5.965,6.036H51.2a12.057,12.057,0,0,0,1.924-.56,2.328,2.328,0,0,0,2.266-.008,16.777,16.777,0,0,0,6.781-6.568c.107-.142,0-.249-.177-.249a5.333,5.333,0,0,0-.79.178,12.41,12.41,0,0,0,.72-1.481,1.952,1.952,0,0,0,1.241-.472A17.08,17.08,0,0,0,64.3,46.7,16.6,16.6,0,0,0,59.367,34.893ZM39.618,37.157a9.679,9.679,0,0,0,3.342-2.781,2.567,2.567,0,0,0,.433-1.536,15.682,15.682,0,0,1,5.07-.949,14.457,14.457,0,0,1,6.332,1.48c-3.761.269-10.394,2.389-13.29,5.612A5.514,5.514,0,0,1,39.618,37.157Zm13.276,22.8a11.962,11.962,0,0,1-1.8.553c-.994-.035-3.764-1.988-4.58-4.97a3.024,3.024,0,0,1,.532-2.628,9.227,9.227,0,0,1,2.942-2.447,51.952,51.952,0,0,0,10.424,2.793c-.153.334-.32.669-.513,1a12.364,12.364,0,0,1-.919,1.309C56.557,56.589,53.6,58.261,52.894,59.954Z" style="fill:#459CF4"/><path d="M85.522,41.853a5.284,5.284,0,0,0-4.889,3.286H70.721a23.2,23.2,0,0,0-5.3-13.027l7.031-7.031a5.286,5.286,0,1,0-2.828-2.828l-7.016,7.016A23.2,23.2,0,0,0,49.65,23.791V13.856a5.286,5.286,0,1,0-4,0v9.912a23.192,23.192,0,0,0-13.027,5.3L25.592,22.04a5.286,5.286,0,1,0-2.828,2.828l7.016,7.016A23.2,23.2,0,0,0,24.3,44.839H14.367a5.286,5.286,0,1,0,0,4h9.912a23.2,23.2,0,0,0,5.3,13.027L22.551,68.9a5.287,5.287,0,1,0,2.828,2.828L32.4,64.709A23.2,23.2,0,0,0,45.35,70.187v9.935a5.286,5.286,0,1,0,4,0V70.21a23.2,23.2,0,0,0,13.027-5.3l7.031,7.031a5.286,5.286,0,1,0,2.828-2.828L65.22,62.094A23.2,23.2,0,0,0,70.7,49.139h9.935a5.285,5.285,0,1,0,4.889-7.286ZM47.5,67.29a20.3,20.3,0,1,1,20.3-20.3A20.324,20.324,0,0,1,47.5,67.29Z" style="fill:#459CF4"/></svg>