<svg id="b85d5b45-9e8c-48f3-afb7-af46bc43b30e" data-name="Layer 1" xmlns="http://www.w3.org/2000/svg" viewBox="0 0 95 95"><path d="M87.132,9.761a2,2,0,0,0-1.6-1.6C53.8,2.292,36.116,25.261,31.511,32.32c-.428-.071-.886-.153-1.16-.2-.514-.091-.922-.159-1.039-.171-1.266-.13-2.538-.2-3.78-.208a33.05,33.05,0,0,0-9.565,1.339,24.164,24.164,0,0,0-4.333,1.842l-.112.061c-1.361.734-3.416,1.843-3.922,4.184a4.3,4.3,0,0,0,3.282,5.154,1.721,1.721,0,0,0,.488.047,32.525,32.525,0,0,1,11.058,2.46,23.245,23.245,0,0,0-6.968,4.819A30.394,30.394,0,0,0,6.933,72.851a2,2,0,0,0,3.675,1.019c.165-.253.354-.534.565-.834a21.815,21.815,0,0,0-.615,8.988,1.988,1.988,0,0,0,.53,1.468l.019.021,0,0c.039.041.087.088.132.128a1.958,1.958,0,0,0,1.321.5c.019,0,.039-.006.059-.006a21.763,21.763,0,0,0,9.051-.608c-.3.212-.58.4-.834.567a2,2,0,0,0,1.02,3.674c.261.009.522.014.786.014a30.566,30.566,0,0,0,20.42-8.541,23.233,23.233,0,0,0,4.99-7.4,32.973,32.973,0,0,1,2.866,12.069,2.1,2.1,0,0,0,.048.487,4.288,4.288,0,0,0,4.2,3.385,4.587,4.587,0,0,0,.952-.1c2.338-.506,3.448-2.562,4.182-3.922l.061-.114a24.114,24.114,0,0,0,1.842-4.332,31.494,31.494,0,0,0,1.339-9.565c-.007-1.241-.077-2.513-.208-3.778-.012-.119-.08-.528-.171-1.04-.049-.275-.13-.733-.2-1.161C70.034,59.168,93,41.487,87.132,9.761ZM45.325,67.413a18.909,18.909,0,0,1-5.088,9.009,26.518,26.518,0,0,1-11.828,6.6,24.133,24.133,0,0,0,3.913-5.284,2,2,0,0,0-3.053-2.472c-.071.059-6.833,5.674-14.887,5.062-.607-8.051,5-14.815,5.06-14.884a2,2,0,0,0-2.471-3.056A24.117,24.117,0,0,0,11.69,66.3a26.509,26.509,0,0,1,6.6-11.827A18.811,18.811,0,0,1,27.67,49.31a45.292,45.292,0,0,1,5.076,3.309c-2.2.314-6.031,1.5-9.79,5.778a.594.594,0,0,0,.671.942,11.627,11.627,0,0,1,5.834-.558c-1.5,1.376-4.4,4.823-7,12.475a.595.595,0,0,0,.754.754c7.651-2.595,11.1-5.5,12.474-7a11.694,11.694,0,0,1-.557,5.833.595.595,0,0,0,.943.672c4.4-3.874,5.537-7.83,5.808-9.993a46.171,46.171,0,0,1,3.672,5.341A1.981,1.981,0,0,0,45.325,67.413ZM59.8,61.048c-1.25.761-1.092,1.648-.57,4.59.064.362.118.656.131.75.118,1.139.181,2.279.187,3.392a27.509,27.509,0,0,1-1.157,8.35,20.262,20.262,0,0,1-1.542,3.622l-.063.116c-.431.8-.969,1.8-1.507,1.911a.306.306,0,0,1-.358-.12c-.028-2.436-.8-16.024-14.036-29.257S14.066,40.4,11.629,40.366a.309.309,0,0,1-.119-.357c.117-.54,1.112-1.077,1.911-1.509l.116-.062A20.071,20.071,0,0,1,17.16,36.9a28.022,28.022,0,0,1,8.349-1.158c1.113.006,2.254.07,3.365.184.121.017.415.07.777.134,2.938.522,3.824.68,4.589-.569,2.952-4.841,19.026-28.422,49.194-23.632C88.227,42.018,64.642,58.1,59.8,61.048Z" style="fill:#459CF4"/><circle cx="61.811" cy="33.478" r="8.682" style="fill:#459CF4"/></svg>