<svg id="f5900314-d81a-4951-b1b9-ce19e44d5390" data-name="Layer 1" xmlns="http://www.w3.org/2000/svg" viewBox="0 0 95 95"><path d="M23.6,68.323a6.646,6.646,0,0,0-9.055-8.279.305.305,0,0,0-.079.49L18.68,64.75l-2.709,2.709-4.214-4.215a.3.3,0,0,0-.49.08,6.645,6.645,0,0,0,8.278,9.053L26.1,78.929a.964.964,0,0,0,1.364,0l2.69-2.69a.964.964,0,0,0,0-1.364Z" style="fill:#459CF4"/><path d="M93.469,18.492l-3.987-3.987a.61.61,0,0,0-.864,0L54.29,48.832a.61.61,0,0,1-.864,0L39.379,34.785a.612.612,0,0,0-.864,0l-3.987,3.988a.61.61,0,0,0,0,.864l18.9,18.9a.61.61,0,0,0,.864,0L93.469,19.357A.611.611,0,0,0,93.469,18.492Z" style="fill:#459CF4"/><path d="M82.954,67.3a5.549,5.549,0,0,1-5.548,5.549H39.828a19.282,19.282,0,0,0-14.5-22.3V20.772a5.55,5.55,0,0,1,5.55-5.55H77.405a5.514,5.514,0,0,1,4.169,1.911.34.34,0,0,0,.5.026l2.691-2.691a.35.35,0,0,0,.014-.48,9.988,9.988,0,0,0-7.375-3.266H30.88a10.05,10.05,0,0,0-10.05,10.05V49.98c-.026,0-.051,0-.077,0a19.4,19.4,0,1,0,17.671,27.37H77.405A10.05,10.05,0,0,0,87.454,67.3V30.088a.343.343,0,0,0-.586-.242l-3.813,3.813a.347.347,0,0,0-.1.243ZM20.753,84.38a15,15,0,1,1,15-15A15.019,15.019,0,0,1,20.753,84.38Z" style="fill:#459CF4"/></svg>