<svg id="f8a6c378-56f4-439f-9251-89381cd93c79" data-name="Layer 1" xmlns="http://www.w3.org/2000/svg" viewBox="0 0 95 95"><path d="M47.5,59.027c-18.112,0-33.233-5.6-36.971-13.074a8,8,0,0,0-.907,3.594c0,.01,0,.019,0,.029h0v4.272c0,9.206,16.959,16.669,37.878,16.669s37.878-7.463,37.878-16.669c0-.013,0-.025,0-.038h0V49.547a8,8,0,0,0-.907-3.594C80.733,53.429,65.612,59.027,47.5,59.027Z" style="fill:#459CF4"/><path d="M47.5,74.552c-18.112,0-33.233-5.6-36.971-13.075a8,8,0,0,0-.907,3.594c0,.01,0,.019,0,.029h0v4.273c0,9.2,16.959,16.668,37.878,16.668s37.878-7.463,37.878-16.668c0-.013,0-.026,0-.039h0V65.071a8,8,0,0,0-.907-3.594C80.733,68.953,65.612,74.552,47.5,74.552Z" style="fill:#459CF4"/><path d="M47.5,8.959C26.221,8.959,9.553,17.236,9.553,27.8V36.26C9.553,46.827,26.221,55.1,47.5,55.1S85.447,46.827,85.447,36.26V27.8C85.447,17.236,68.779,8.959,47.5,8.959ZM14.553,27.8c0-8.16,17.363-13.845,32.947-13.845S80.447,19.644,80.447,27.8,63.084,41.648,47.5,41.648,14.553,35.963,14.553,27.8Z" style="fill:#459CF4"/><path d="M51.131,38.862l-.046-2.648c5.237-.389,9.8-1.895,12.233-4.138L57.54,30.492c-1.791,1.619-5.3,2.626-9.131,2.628-5.891,0-10.527-2.322-10.334-5.183s4.828-5.194,10.329-5.2A15.015,15.015,0,0,1,56.5,24.8l4.817-1.93A22.646,22.646,0,0,0,50.8,19.636l-.05-2.892-6.334.013-.086,3.077c-6.816.968-12.195,4.235-12.622,8.109s4.734,7.131,12.169,8.087L43.8,38.862Z" style="fill:#459CF4"/></svg>