<svg id="be3098aa-4407-4658-b414-cdad8fb01037" data-name="Layer 1" xmlns="http://www.w3.org/2000/svg" viewBox="0 0 95 95"><path d="M44.029,34.9l-.076,2.713h7.024l-.044-2.536c5.015-.373,9.384-1.815,11.715-3.962L57.115,29.6c-1.715,1.551-5.077,2.515-8.744,2.517-5.642,0-10.082-2.224-9.9-4.963s4.623-4.975,9.89-4.982a14.38,14.38,0,0,1,7.758,1.981l4.613-1.848a21.688,21.688,0,0,0-10.078-3.1l-.047-2.769-6.067.012-.082,2.946c-6.527.928-11.679,4.057-12.087,7.766S36.909,33.989,44.029,34.9Z" style="fill:#459CF4"/><path d="M47.5,10.039c-20.821,0-37.129,7.611-37.129,17.329V40.919a5.512,5.512,0,0,0,1.105,3.347c2.893,3.771,8.965,7.414,16.243,9.744l.007,0A72.683,72.683,0,0,0,47.5,56.59,70.574,70.574,0,0,0,68.925,53.5a40.075,40.075,0,0,0,11.373-6v.007l.41-.339a18.475,18.475,0,0,0,2.779-2.8,5.542,5.542,0,0,0,1.142-3.4v-13.6C84.629,17.65,68.32,10.039,47.5,10.039ZM69.8,36.685a66.937,66.937,0,0,1-22.3,3.681,66.937,66.937,0,0,1-22.3-3.681c-6.772-2.507-10.5-5.816-10.5-9.317s3.728-6.81,10.5-9.318a66.937,66.937,0,0,1,22.3-3.681A66.937,66.937,0,0,1,69.8,18.05c6.771,2.508,10.5,5.817,10.5,9.318S76.57,34.178,69.8,36.685Zm10.5-1.058v3.634c0,3.5-3.728,6.81-10.5,9.318a66.963,66.963,0,0,1-22.3,3.68,66.963,66.963,0,0,1-22.3-3.68c-6.772-2.508-10.5-5.817-10.5-9.318V35.627c6.356,5.6,18.838,9.069,32.8,9.069S73.942,41.232,80.3,35.627Z" style="fill:#459CF4"/><path d="M80.4,65.232l-.105.075v2.325c0,3.5-3.728,6.81-10.5,9.318a66.937,66.937,0,0,1-22.3,3.681A66.937,66.937,0,0,1,25.2,76.95c-6.772-2.508-10.5-5.817-10.5-9.318V64.918l-.1-.075a23.671,23.671,0,0,1-3.79-3.445l-.438-.505v6.739c0,9.718,16.308,17.329,37.129,17.329S84.629,77.35,84.629,67.632V61.5l-.431.459A26.217,26.217,0,0,1,80.4,65.232Z" style="fill:#459CF4"/><path d="M80.4,51.025,80.3,51.1v2.326c0,3.5-3.728,6.81-10.5,9.317a66.937,66.937,0,0,1-22.3,3.681,66.937,66.937,0,0,1-22.3-3.681c-6.772-2.507-10.5-5.816-10.5-9.317V50.711l-.1-.075a23.671,23.671,0,0,1-3.79-3.445l-.438-.505v6.74c0,9.717,16.308,17.329,37.129,17.329s37.129-7.612,37.129-17.329V47.294l-.431.459A26.217,26.217,0,0,1,80.4,51.025Z" style="fill:#459CF4"/></svg>