<svg xmlns="http://www.w3.org/2000/svg" xml:space="preserve" viewBox="0 0 95 95"><path fill="#459CF4" d="M92.8 41.8c-2.7-4.1-7.4-5.5-10.1-3.7-.7.5-2.9 1.9-4.6 3.1l-.1.1h-.1l-.1.1c-.2.2-.4.4-.6.7v-6.6l-4-2.5V14.7c0-.6-.5-1.1-1.1-1.1s-1.1.5-1.1 1.1v17.1l-16.3-9.5c-.3-.7-.7-1.5-1.2-2.2-2.5-3.8-6.8-5.3-9.5-4.1l8.9 5.2-12.7-7.4-22.6 15v12.8l-1.9-1.1-1.9 1.2c-2.5-1.7-5.4-2.1-7.3-.8-.7.5-2.9 1.9-4.6 3.1l-.1.1h-.1l-.1.1c-2.2 1.9-2.3 6.3 0 10.3 2.5 4.3 6.8 6.5 9.6 4.9 2.5-1.5 4.7-3.1 5.7-3.8 1.9-1.5 2.2-4.5 1.2-7.7l26.1 15.3c-1 .7-2.3 1.6-3.4 2.3l-.1.1h-.1l-.1.1c-2.2 1.9-2.3 6.3 0 10.3 2.5 4.3 6.8 6.5 9.6 4.9 2.5-1.5 4.7-3.1 5.7-3.8 2.4-1.8 2.3-5.9.3-9.8l1-.7v-1.8l-.7-.4 20.7-13.6v-.4l.6 1.2c2.5 4.3 6.8 6.5 9.6 4.9 2.5-1.5 4.7-3.1 5.7-3.8 2.8-1.9 2.5-6.7-.2-10.9zM9.5 56.1c-1.6.9-4-.4-5.5-3s-1.4-5.4.2-6.3c1.6-.9 4 .4 5.5 3 1.4 2.6 1.3 5.4-.2 6.3zm39.2-35.7L43 24.3l-3.6-2.1 5.7-3.8 3.6 2zm-10.3 2.5 3.7 2.1-6.2 4.2-3.7-2.2m2.7 2.7-5.7 3.8-3.6-2.1 5.7-3.8 3.6 2.1zm1.6.9 3.6 2.1-5.7 3.8-3.6-2.1 5.7-3.8zm7.2-4.9 3.6 2.1-6.3 4.3-3.6-2.1m2.7-14.3 3.6 2.1-5.6 3.8-3.5-2.1 5.5-3.8zM33.4 20l3.6 2.1-6.2 4.1-3.6-2.1 6.2-4.1zm-6.8 4.8 3.5 2.1-5.6 3.7-3.6-2.1 5.7-3.7zM17 45.3l28.8 16.9L17 45.3zm31.5 32.4c-1.6.9-4-.4-5.5-3s-1.4-5.4.2-6.3c1.6-.9 4 .4 5.5 3 1.4 2.6 1.3 5.4-.2 6.3zm-.4-50.4-3.6-2.1 5.7-3.9 3.6 2.1-5.7 3.9zM59 52.8c-.5.9-1.5 1.4-2 1.1-.6-.3-.6-1.4-.1-2.3.5-.9 1.5-1.4 2-1.1.6.3.7 1.3.1 2.3zm4.3-2.8c-.5.9-1.5 1.4-2 1.1-.6-.3-.6-1.4-.1-2.3.5-.9 1.5-1.4 2-1.1.6.3.6 1.4.1 2.3zm22.4 3.4c-1.4.8-3.6-.2-5.1-2.4l2.5-1.5v-1.8l-3.7-2.2c.2-.6.5-1.1 1-1.4 1.6-.9 4 .4 5.5 3 1.4 2.6 1.4 5.4-.2 6.3z"/></svg>