<svg id="b20a7566-241c-4366-914f-a3efefe50586" data-name="Layer 1" xmlns="http://www.w3.org/2000/svg" viewBox="0 0 95 95"><path d="M59.265,24.244c-.422-1.7-1.226-2.977-2.931-2.977h-2.2v2.6a3.763,3.763,0,0,1-3.67,3.722H44.6a3,3,0,0,0-2.93,2.983v5.589c0,1.589,1.381,2.525,2.93,2.982a9.884,9.884,0,0,0,5.867,0c1.479-.428,2.93-1.289,2.93-2.982V33.925H47.537v-.746h8.8c1.7,0,2.341-1.19,2.931-2.976a9.994,9.994,0,0,0,0-5.959ZM50.832,35.416a1.119,1.119,0,1,1-1.1,1.116A1.11,1.11,0,0,1,50.832,35.416Zm-6.5-8.56H50.2a2.957,2.957,0,0,0,2.931-2.982V18.279A3.278,3.278,0,0,0,50.2,15.227a18.164,18.164,0,0,0-5.866.006c-2.48.439-2.931,1.358-2.931,3.052v2.237h5.873v.745H39.2a3.673,3.673,0,0,0-3.67,2.977,11,11,0,0,0,0,5.964c.416,1.734,1.41,2.977,3.121,2.977h2.017V30.5a3.724,3.724,0,0,1,3.665-3.647Zm-.37-7.831a1.119,1.119,0,1,1,1.1-1.116A1.11,1.11,0,0,1,43.96,19.025Z" style="fill:#459CF4"/><path d="M70.016,34.951,66.382,36.98V9H28.619V36.98l-3.635-2.029V8.082A2.716,2.716,0,0,1,27.7,5.368H67.3a2.716,2.716,0,0,1,2.713,2.714Z" style="fill:#459CF4"/><path d="M90.451,39.084,79.1,33.111l-7.891-3.3V33.9l2.938,1.23L47.618,50.564,20.573,35.294l3.22-1.43V29.736L15.615,33.37,4.536,39.429A.862.862,0,0,0,4.5,40.92l10.446,6.415.872,22.6a1.885,1.885,0,0,0,.917,1.548L46.608,89.36l.011,0a.355.355,0,0,0,.031.023,1.845,1.845,0,0,0,1.4.18h0a1.855,1.855,0,0,0,.283-.113,1.738,1.738,0,0,0,.178-.077c.014-.007.03-.01.043-.018L78.1,71.484a1.885,1.885,0,0,0,.909-1.549l.826-22.907L90.5,40.585A.862.862,0,0,0,90.451,39.084ZM10.368,40.372l5.979-3.132L43.61,52.633,37.3,55.774ZM45.7,84.418,19.55,68.773,18.8,49.541,36.3,59.548a1.888,1.888,0,0,0,1.777.052l7.667-3.815ZM75.275,68.785,49.468,84.4l.045-28.627,7.167,3.541a1.89,1.89,0,0,0,1.772-.053L75.985,49.231Zm-17.824-13.3L51.615,52.6l15.833-9.213L76.367,38.2l2.067-1.189,5.935,3.081Z" style="fill:#459CF4"/></svg>