<svg id="e3d923a8-e9ef-4508-9ddc-b27b52173045" data-name="Layer 1" xmlns="http://www.w3.org/2000/svg" viewBox="0 0 95 95"><path d="M92.654,31.174c-2.2-4-6.1-6.9-10-9a59.224,59.224,0,0,0-17.2-5.8,20.024,20.024,0,0,0-2.4-.4,22.836,22.836,0,0,0-31.1-.1c-7.8,1.3-15.9,3.5-22.6,8-4.3,2.9-8.6,7.3-8.6,13h0c0,22.1,15.1,41.9,35.9,47a45.6,45.6,0,0,0,31.2-3.5,47.751,47.751,0,0,0,21.5-22,49.506,49.506,0,0,0,4.6-15.5C94.354,38.974,94.654,34.774,92.654,31.174Zm-37.5-16.3a21,21,0,0,1,12.3,17.7v.5l.1.4c.4,1.1-.8,2.2-1.5,2.8a18.784,18.784,0,0,1-6,3,41.747,41.747,0,0,1-14.1,1.8,23.972,23.972,0,0,1-9.4-19.2,19.749,19.749,0,0,1,.7-5.5A19.25,19.25,0,0,1,55.154,14.874Zm22.1,54.5a47.232,47.232,0,0,1-18.4,3.7c-14.8,0-28.1-6.8-37.4-17.6.1,0,.2.1.3.1a80.541,80.541,0,0,0,19.5,3.4c13.1.8,26.8-.6,39-6.1a32.771,32.771,0,0,0,9.5-6.3A46.527,46.527,0,0,1,77.254,69.374Zm8.5-24a38.155,38.155,0,0,1-13.4,6.6,84.19,84.19,0,0,1-24.9,3.5,91.017,91.017,0,0,1-20.1-2.2,51.952,51.952,0,0,1-15.2-5.8c-3.1-1.9-6.4-4.5-7.6-8.2s.7-7.3,3.3-9.8c5.4-5.2,13.2-7.6,20.2-9.2a23.885,23.885,0,0,0-4,12.1c-1.4,4.5,3.3,7.6,6.6,9.2,5.2,2.4,11.2,3.2,16.8,3.2a40.374,40.374,0,0,0,16.5-3.1c3.4-1.5,8.3-4.7,6.9-9.3a24.872,24.872,0,0,0-4-12.1c5.9,1.3,12,3.3,17.1,6.7,3.2,2.2,6.7,5.4,6.8,9.7C90.854,40.274,88.354,43.274,85.754,45.374Z" style="fill:#459CF4"/></svg>