<svg id="fc96dd6b-e756-467e-9336-dd01d4946746" data-name="Layer 1" xmlns="http://www.w3.org/2000/svg" viewBox="0 0 95 95"><g id="a13c05b6-1bc1-4d61-b872-a4198ca7de89" data-name="Layer 2"><g id="b6328b33-b43d-47e5-affc-4872ddd1c2af" data-name="Layer 1-2"><path d="M76.675,50.215a5.167,5.167,0,0,1,4.516,2.568c1.86,3.365.886,9.21-2.391,14.877C71.539,79.7,58.611,82.891,56.84,83.245c-2.48-.089-9.387-4.959-11.424-12.4A7.544,7.544,0,0,1,46.745,64.3c6.287-8.855,27.008-13.637,29.93-14.08M76.5,46.673c-1.948.177-25.149,5.048-32.675,15.585a10.867,10.867,0,0,0-1.86,9.564C44.354,80.588,52.5,86.876,56.84,86.876h.265c.177,0,15.939-2.923,24.617-17.356C85.8,62.7,86.77,55.706,84.2,51.1a8.607,8.607,0,0,0-7.7-4.428Z" style="fill:#459CF4"/><path d="M50.287,11.873a36.327,36.327,0,0,1,21.7,7.261l1.5,1.24h0l.089.088c2.922,2.3,4.693,8.59,4.162,14.611-.355,3.808-1.506,5.579-1.949,5.933a3.567,3.567,0,0,1-.8-.443l-.975-.708H72.956c-16.471,0-40.822-7.084-44.807-14.965-.62-1.151-.886-2.657.885-5.048A14.421,14.421,0,0,1,32.4,16.655l.709-.443.354-.177h.089l2.125-1.063h0a38.891,38.891,0,0,1,14.611-3.1m0-3.542A39.6,39.6,0,0,0,34.348,11.7a21.639,21.639,0,0,0-2.48,1.239c-.531.266-1.063.62-1.594.886h.089a17.419,17.419,0,0,0-4.162,3.9C14.955,32.594,52.678,43.4,72.956,43.486a5.008,5.008,0,0,0,2.922,1.151c6.818,0,7.97-20.721-.089-27.008h0A40.152,40.152,0,0,0,50.287,8.331Z" style="fill:#459CF4"/><path d="M36.561,18.071c-5.136,7.793-22.4,13.283-25.325,12.4h0c.088-.265.265-.442.354-.708a35.124,35.124,0,0,1,3.365-5.49,35.768,35.768,0,0,1,4.162-4.782,44.668,44.668,0,0,1,4.87-4.162c1.063-.8,2.214-1.505,3.276-2.214a11.879,11.879,0,0,1,5.756-1.505c7.616.177,3.631,6.376,3.542,6.464" style="fill:#459CF4"/><path d="M32.311,73.15c.354,2.48,0,12.132-.531,12.929-.443,0-1.329.088-3.9-1.417-1.328-.8-2.656-1.594-3.984-2.568a35.839,35.839,0,0,1-4.782-4.162,36.546,36.546,0,0,1-4.162-4.87,42.336,42.336,0,0,1-3.365-5.4,38.254,38.254,0,0,1-2.48-5.933,39.511,39.511,0,0,1-1.593-6.376,42.847,42.847,0,0,1,0-13.459A39.511,39.511,0,0,1,9.11,35.516c.178-.443.266-.8.443-1.24h0c3.011,3.985,6.464,7.616,9.387,11.6,2.833,3.808,6.641,10.007,7.438,11.335,4.782,8.412,5.579,13.548,5.933,15.939" style="fill:#459CF4"/><path d="M89.781,48.8a42.6,42.6,0,0,1-2.834,15.23c-4.87,5.225-37.723-7.615-38.077-7.792-4.516-1.948-18.153-7.97-19.393-17.356C27.706,25.333,55.157,15.858,67.289,15.5c1.416,0,5.844.089,8.412,2.126A41.378,41.378,0,0,1,89.781,48.8" style="fill:#459CF4"/><path d="M67.554,85.459c-3.63,1.682-7.527.443-6.464-3.011,1.948-6.73,19.127-13.548,22.935-13.991.443,0,.708.266.443.62A41.832,41.832,0,0,1,67.554,85.459" style="fill:#459CF4"/></g></g></svg>