<svg id="f32c64a5-7438-4f07-8519-aea6928e37c2" data-name="Layer 1" xmlns="http://www.w3.org/2000/svg" viewBox="0 0 95 95"><path d="M49.354,37.35a4.823,4.823,0,1,0-3.745-.024l-7,14.915H9.514v4H85.507v-4H56.516Zm-1.867,3.039,5.7,11.852H41.925Z" style="fill:#459CF4"/><path d="M81.866,11.246H13.154a7.681,7.681,0,0,0-7.672,7.672V64.334a7.682,7.682,0,0,0,7.672,7.673H36.063V83.383H29.478v4H65.543v-4H58.958V72.007H81.866a7.681,7.681,0,0,0,7.672-7.673V18.918A7.681,7.681,0,0,0,81.866,11.246ZM54.958,83.383H40.063V72.007H54.958Zm30.58-19.049a3.677,3.677,0,0,1-3.672,3.673H13.154a3.677,3.677,0,0,1-3.672-3.673V18.918a3.676,3.676,0,0,1,3.672-3.672H81.866a3.676,3.676,0,0,1,3.672,3.672Z" style="fill:#459CF4"/><path d="M53.074,40.79l.9,1.955a11.354,11.354,0,1,0-12.934,0l.9-1.955a9.244,9.244,0,1,1,11.128,0Z" style="fill:#459CF4"/><path d="M38.935,47.512l.893-1.932a14.216,14.216,0,1,1,15.365,0l.893,1.933a16.326,16.326,0,1,0-17.151,0Z" style="fill:#459CF4"/><path d="M47.51,58.993a2.944,2.944,0,1,0,2.944,2.944A2.944,2.944,0,0,0,47.51,58.993Z" style="fill:#459CF4"/></svg>