<svg id="a9996d50-717b-4424-9137-2be2a691eead" data-name="Layer 1" xmlns="http://www.w3.org/2000/svg" viewBox="0 0 95 95"><path d="M89.742,35.18v-4.5H64.32V5.257h-4.5V30.68H35.18V5.257h-4.5V30.68H5.257v4.5H30.68V59.82H5.257v4.5H30.68V89.743h4.5V64.32H59.82V89.743h4.5V64.32H89.742v-4.5H64.32V35.18ZM59.82,59.82H35.18V35.18H59.82Z" style="fill:#459CF4"/><path d="M47.694,57.009a9.652,9.652,0,1,0-9.652-9.652A9.662,9.662,0,0,0,47.694,57.009Zm0-15.8a6.152,6.152,0,1,1-6.152,6.151A6.159,6.159,0,0,1,47.694,41.206Z" style="fill:#459CF4"/><path d="M77.081,67.627a9.652,9.652,0,1,0,9.652,9.652A9.662,9.662,0,0,0,77.081,67.627Zm0,15.8a6.152,6.152,0,1,1,6.152-6.152A6.159,6.159,0,0,1,77.081,83.431Z" style="fill:#459CF4"/><polygon points="71.016 26.825 77.071 20.77 83.126 26.825 85.601 24.351 79.546 18.295 85.601 12.24 83.126 9.766 77.071 15.821 71.016 9.766 68.541 12.24 74.596 18.295 68.541 24.351 71.016 26.825" style="fill:#459CF4"/></svg>