<svg id="a1df51ef-5348-44a2-84d4-cd91f30eb97e" data-name="Layer 1" xmlns="http://www.w3.org/2000/svg" viewBox="0 0 95 95"><path d="M62.778,52.278a.433.433,0,0,0-.611-.018L60.59,53.745a.433.433,0,0,1-.611-.019l-2.562-2.721a.433.433,0,0,1,.018-.611l1.578-1.485a.433.433,0,0,0,.018-.611L54.665,43.66a2.192,2.192,0,0,0-3.1-.093l-2.932,2.76L28.08,24.492l-2.1-4.351L18.436,13.8l-3.487,3.283L20.821,25l4.217,2.356L45.592,49.191l-2.757,2.6a2.192,2.192,0,0,0-.094,3.1l4.366,4.637a.433.433,0,0,0,.611.019L49.3,58.057a.432.432,0,0,1,.611.018L52.468,60.8a.433.433,0,0,1-.018.611l-1.578,1.485a.433.433,0,0,0-.018.611L70.046,83.891a3.53,3.53,0,0,0,4.99.151l6.784-6.386a3.53,3.53,0,0,0,.15-4.99Z" style="fill:#2043b5"/><path d="M16.433,71.959A5.018,5.018,0,1,0,21.6,67.094,5.019,5.019,0,0,0,16.433,71.959Z" style="fill:#2043b5"/><path d="M47.518,41.494l9.825-9.249-.322-1.011A12.468,12.468,0,0,1,73.061,15.6l-9.32,8.773,7.906,8.4L80.972,24A12.5,12.5,0,0,1,77.55,36.547,12.627,12.627,0,0,1,64.4,39.07l-.99-.383-5.3,4.986,2.31,2.453,3.78-3.558A15.842,15.842,0,0,0,83.557,21.226,2.313,2.313,0,0,0,81.9,19.873a2.353,2.353,0,0,0-2.086.586L71.79,28.012,68.5,24.522l8.023-7.553a2.347,2.347,0,0,0,.709-2.052,2.314,2.314,0,0,0-1.255-1.732A15.84,15.84,0,0,0,53.517,31.218L45.208,39.04Z" style="fill:#2043b5"/><path d="M42.546,58.326,30.138,70.006l.1.849a9.209,9.209,0,0,1,.078,1.392,9.059,9.059,0,1,1-6.933-9.083l.885.212L40.835,47.785l-2.309-2.453L23.258,59.7a12.179,12.179,0,0,0-1.621-.156,12.431,12.431,0,0,0-.75,24.851c.127,0,.253.006.379.006A12.447,12.447,0,0,0,33.688,72.348c.01-.332,0-.674-.019-1.038L44.856,60.779Z" style="fill:#2043b5"/></svg>