<svg id="b10419aa-6824-4f8d-9efb-399e1a53b8e3" data-name="Layer 1" xmlns="http://www.w3.org/2000/svg" viewBox="0 0 95 95"><path d="M44.405,65.624,22.372,43.591a.713.713,0,0,1,0-1.008l4.649-4.649a.712.712,0,0,1,1.008,0L44.405,54.311a.713.713,0,0,0,1.008,0L85.437,14.288a.712.712,0,0,1,1.008,0l4.648,4.649a.712.712,0,0,1,0,1.008L45.413,65.624A.712.712,0,0,1,44.405,65.624Z" style="fill:#459CF4"/><path d="M79.223,37.345V74.684a8.479,8.479,0,0,1-8.479,8.479H19.186a8.48,8.48,0,0,1-8.48-8.48V23.125a8.48,8.48,0,0,1,8.479-8.479H70.743a8.447,8.447,0,0,1,6.032,2.535.526.526,0,0,0,.753.015l2.78-2.78a.534.534,0,0,0,.01-.748,13.417,13.417,0,0,0-9.575-4.022H19.186a13.48,13.48,0,0,0-13.48,13.48V74.684A13.479,13.479,0,0,0,19.185,88.163H70.743a13.48,13.48,0,0,0,13.48-13.48V32.964a.518.518,0,0,0-.884-.366L79.67,36.267A1.525,1.525,0,0,0,79.223,37.345Z" style="fill:#459CF4"/></svg>