<svg id="a0432d91-9f22-4dbf-a7f3-da728ef15a52" data-name="Layer 1" xmlns="http://www.w3.org/2000/svg" viewBox="0 0 95 95"><path d="M49.7,79.017v-4.2c4.46-.155,7.538-2.922,7.563-6.976-.025-5.54-4.784-7.454-9.216-8.612-4.458-1.133-5.893-2.367-5.893-4.2,0-2.116,1.989-3.6,5.288-3.6,3.475,0,4.785,1.662,4.885,4.129h4.307c-.126-3.374-2.372-7.195-6.959-7.479V43.762H45.445v4.256c-4.41.03-7.8,3.274-7.8,7.076,0,4.508,3.753,6.774,9.217,8.084,4.91,1.158,5.893,2.895,5.893,4.709,0,1.334-.983,3.5-5.289,3.5-4.029,0-5.615-1.813-5.842-4.13H37.3c.252,4.281,3.486,7.1,8.149,7.479v4.281Z" style="fill:#459CF4"/><path d="M61.615,85.879a28.374,28.374,0,0,0-12.334-52.8V25.718a24.824,24.824,0,0,0,9.356,1.934,15.627,15.627,0,0,0,6.981-1.5c4.977-2.477,7.609-7.745,8.941-11.728,1.391-4.158,1-4.929.821-5.3-.836-1.684-7.048-3.258-7.11-3.273-3.3-.8-8.125-1.313-12.359.794-4.258,2.12-6.768,6.214-8.124,9.275-.007.017-.225.521-.506,1.263-.282-.742-.5-1.246-.507-1.263-1.356-3.061-3.866-7.155-8.124-9.275-7.683-3.822-18.571.681-19.472,2.483-.862,1.743,2.272,13.291,9.765,17.02a15.627,15.627,0,0,0,6.981,1.5,24.834,24.834,0,0,0,9.357-1.934v7.361a28.374,28.374,0,0,0-12.335,52.8H16.866v4H77.7v-4ZM57.7,10.234c4.73-2.354,11.132-.248,13.677.87-.673,2.819-2.876,9.151-7.537,11.471C59,24.98,52.5,22.781,50.072,21.691,50.62,19.194,52.716,12.712,57.7,10.234ZM30.726,22.575c-4.659-2.318-6.862-8.651-7.537-11.471,2.546-1.118,8.948-3.225,13.677-.87,4.979,2.478,7.075,8.96,7.624,11.457C42.066,22.782,35.558,24.981,30.726,22.575ZM22.891,61.39a24.389,24.389,0,1,1,24.39,24.389A24.417,24.417,0,0,1,22.891,61.39Z" style="fill:#459CF4"/></svg>