<svg id="fec777c3-aeb1-4966-9a7f-dd9e8b0d64a4" data-name="Layer 1" xmlns="http://www.w3.org/2000/svg" viewBox="0 0 95 95"><path d="M13.9,28.466c-.353-.589-2.04-3.335-3.3-5.022C9.31,21.678,7.779,20.07,6.445,18.3c-.078.2-.117.353-.2.549a17.528,17.528,0,0,0-.706,2.825,19,19,0,0,0,0,5.964,17.49,17.49,0,0,0,.706,2.824,16.915,16.915,0,0,0,1.1,2.629,18.7,18.7,0,0,0,1.491,2.393,16.175,16.175,0,0,0,1.844,2.158A15.821,15.821,0,0,0,12.8,39.49c.589.432,1.177.785,1.766,1.138,1.138.667,1.53.628,1.726.628a25.785,25.785,0,0,0,.236-5.728A18.955,18.955,0,0,0,13.9,28.466Z" style="fill:#459CF4"/><path d="M35.792,10.928a17.787,17.787,0,0,0-11.3-4.119A17.559,17.559,0,0,0,17.431,8.3l-.012.006a5.073,5.073,0,0,0-.577-.045,5.269,5.269,0,0,0-2.55.667c-.471.314-.981.628-1.451.981a19.778,19.778,0,0,0-2.158,1.844,15.83,15.83,0,0,0-1.844,2.119A15.446,15.446,0,0,0,7.348,16.3c-.039.118-.118.2-.157.314.728.221,3.467-.452,6.129-1.7A7.444,7.444,0,0,0,15.876,17.5a4.524,4.524,0,0,0-.6,2.841c.549,4.159,6.591,6.827,8.592,7.69.016.008.181.073.457.18A10.5,10.5,0,0,0,21.629,30.7a4.815,4.815,0,0,0-.824,4.237c1.059,3.884,4.669,6.67,6.591,6.67h.118a13.258,13.258,0,0,0,2.125-.619,2.575,2.575,0,0,0,2.5-.009,18.534,18.534,0,0,0,7.493-7.258c.118-.157,0-.275-.2-.275a5.856,5.856,0,0,0-.872.2,13.791,13.791,0,0,0,.795-1.637,2.147,2.147,0,0,0,1.372-.522,18.874,18.874,0,0,0,1.255-6.748A18.343,18.343,0,0,0,36.542,11.7,4.622,4.622,0,0,0,35.792,10.928ZM16.8,16.215A6.093,6.093,0,0,1,14.719,14.2a10.685,10.685,0,0,0,3.693-3.073,2.841,2.841,0,0,0,.478-1.7,17.37,17.37,0,0,1,5.6-1.049,15.974,15.974,0,0,1,7,1.636C27.333,10.311,20,12.653,16.8,16.215ZM37.126,33.1a13.9,13.9,0,0,1-1.015,1.446c-2.674,1.129-5.942,2.977-6.722,4.848A13.181,13.181,0,0,1,27.4,40c-1.1-.039-4.158-2.2-5.061-5.492a3.34,3.34,0,0,1,.589-2.9,10.2,10.2,0,0,1,3.25-2.7c2.967,1.064,8.134,2.767,11.519,3.086C37.524,32.355,37.34,32.725,37.126,33.1Z" style="fill:#459CF4"/><path d="M88.192,63.67H86.386V57.887A3.487,3.487,0,0,0,82.9,54.4H54.162a3.487,3.487,0,0,0-3.483,3.483V84.709a3.486,3.486,0,0,0,3.483,3.482H82.9a3.486,3.486,0,0,0,3.482-3.482V78.926h1.806a1.5,1.5,0,0,0,1.5-1.5V65.17A1.5,1.5,0,0,0,88.192,63.67ZM83.386,84.709a.483.483,0,0,1-.482.482H54.162a.482.482,0,0,1-.483-.482V57.887a.483.483,0,0,1,.483-.483H82.9a.484.484,0,0,1,.482.483V63.67H73.266a2.914,2.914,0,0,0-2.911,2.911v9.434a2.914,2.914,0,0,0,2.911,2.911h10.12Zm3.306-8.783H73.355V66.67H86.692Z" style="fill:#459CF4"/><circle cx="78.077" cy="71.312" r="2.366" style="fill:#459CF4"/><path d="M20.666,47.416a1.92,1.92,0,0,0-1.918,1.919v.11a1.873,1.873,0,0,0,1.918,1.865,1.974,1.974,0,0,0,1.919-1.975A1.92,1.92,0,0,0,20.666,47.416Z" style="fill:#459CF4"/><path d="M20.666,68.891a1.92,1.92,0,0,0-1.918,1.918v.111a1.871,1.871,0,0,0,1.918,1.863,1.973,1.973,0,0,0,1.919-1.974A1.92,1.92,0,0,0,20.666,68.891Z" style="fill:#459CF4"/><path d="M20.666,61.724a1.92,1.92,0,0,0-1.918,1.919v.111a1.871,1.871,0,0,0,1.918,1.863,1.973,1.973,0,0,0,1.919-1.974A1.92,1.92,0,0,0,20.666,61.724Z" style="fill:#459CF4"/><path d="M20.666,54.558a1.92,1.92,0,0,0-1.918,1.919v.11a1.871,1.871,0,0,0,1.918,1.863,1.973,1.973,0,0,0,1.919-1.973A1.92,1.92,0,0,0,20.666,54.558Z" style="fill:#459CF4"/><path d="M28.331,68.891a1.92,1.92,0,0,0-1.918,1.918v.111a1.87,1.87,0,0,0,1.918,1.863,1.973,1.973,0,0,0,1.919-1.974A1.92,1.92,0,0,0,28.331,68.891Z" style="fill:#459CF4"/><path d="M36,68.891a1.92,1.92,0,0,0-1.919,1.918v.111A1.871,1.871,0,0,0,36,72.783a1.972,1.972,0,0,0,1.918-1.974A1.92,1.92,0,0,0,36,68.891Z" style="fill:#459CF4"/><path d="M43.66,68.891a1.92,1.92,0,0,0-1.919,1.918v.111a1.871,1.871,0,0,0,1.919,1.863,1.973,1.973,0,0,0,1.919-1.974A1.92,1.92,0,0,0,43.66,68.891Z" style="fill:#459CF4"/><path d="M70.309,50.378a1.92,1.92,0,0,0,1.918-1.919v-.11a1.871,1.871,0,0,0-1.918-1.864,1.973,1.973,0,0,0-1.919,1.974A1.921,1.921,0,0,0,70.309,50.378Z" style="fill:#459CF4"/><path d="M70.309,28.9a1.92,1.92,0,0,0,1.918-1.918v-.111a1.87,1.87,0,0,0-1.918-1.863,1.973,1.973,0,0,0-1.919,1.974A1.92,1.92,0,0,0,70.309,28.9Z" style="fill:#459CF4"/><path d="M70.309,36.07a1.92,1.92,0,0,0,1.918-1.919v-.11a1.87,1.87,0,0,0-1.918-1.863,1.972,1.972,0,0,0-1.919,1.973A1.921,1.921,0,0,0,70.309,36.07Z" style="fill:#459CF4"/><path d="M70.309,43.236a1.92,1.92,0,0,0,1.918-1.919v-.11a1.87,1.87,0,0,0-1.918-1.863,1.972,1.972,0,0,0-1.919,1.973A1.921,1.921,0,0,0,70.309,43.236Z" style="fill:#459CF4"/><path d="M63.015,28.9a1.92,1.92,0,0,0,1.919-1.918v-.111a1.871,1.871,0,0,0-1.919-1.863A1.973,1.973,0,0,0,61.1,26.985,1.92,1.92,0,0,0,63.015,28.9Z" style="fill:#459CF4"/><path d="M55.722,28.9a1.92,1.92,0,0,0,1.918-1.918v-.111a1.871,1.871,0,0,0-1.918-1.863A1.973,1.973,0,0,0,53.8,26.985,1.92,1.92,0,0,0,55.722,28.9Z" style="fill:#459CF4"/><path d="M48.428,25.011a1.973,1.973,0,0,0-1.919,1.974,1.919,1.919,0,0,0,3.838,0v-.111A1.871,1.871,0,0,0,48.428,25.011Z" style="fill:#459CF4"/></svg>