<svg id="ea5656f7-6164-4bdb-851d-eb03e6763c95" data-name="Layer 1" xmlns="http://www.w3.org/2000/svg" viewBox="0 0 95 95"><path d="M57.8,10.639a1.947,1.947,0,0,0-1.947,1.983l0,.308.008.119a7.668,7.668,0,0,1-15.335.085l0-.54a1.947,1.947,0,0,0-1.947-1.955H12.206a1.948,1.948,0,0,0-1.948,1.948V83.5a1.948,1.948,0,0,0,1.948,1.948H84.189A1.948,1.948,0,0,0,86.137,83.5V12.587a1.948,1.948,0,0,0-1.948-1.948Zm23.84,70.305H14.758V15.139H36.21a12.168,12.168,0,0,0,23.974,0H81.637Z" style="fill:#459CF4"/><path d="M28.76,50.171h4.659l4.093,16.406L41.945,50.1h3.728l4.432,16.474L54.2,50.171h4.546L52,74.571H48.213l-4.461-15.85-4.461,15.85H35.508Z" style="fill:#459CF4"/><path d="M63.943,50h4.009l8.471,24.4H71.877L70.07,68.964H61.713L59.906,74.4H55.473Zm4.574,14.258L65.891,56.4l-2.625,7.856Z" style="fill:#459CF4"/></svg>