<svg xmlns="http://www.w3.org/2000/svg" viewBox="0 0 1200 400"><defs><style>.cls-1{fill:#fff;}.cls-2{fill:#5493f7;}</style></defs><g id="Layer_2" data-name="Layer 2"><path class="cls-1" d="M841.93,140.86c-1.17-.09-3.57-.33-8.68-.33a60.65,60.65,0,0,0-12.4,1.21c-16,3.11-26.19,11.79-35,21v-18.2H735.75V306.81h50.09V239a167.66,167.66,0,0,1,1.33-22A42.37,42.37,0,0,1,793,199.8a30.11,30.11,0,0,1,12.85-11.19q8.34-4,22.71-4a67.7,67.7,0,0,1,10.85.84,75.45,75.45,0,0,1,10.52,2.5V142.2A42.73,42.73,0,0,0,841.93,140.86Z"/><path class="cls-1" d="M975.91,140.86c-1.17-.09-3.58-.33-8.68-.33a60.65,60.65,0,0,0-12.4,1.21c-16,3.11-26.2,11.79-35,21v-18.2H869.73V306.81h50.08V239a167.57,167.57,0,0,1,1.34-22A42.37,42.37,0,0,1,927,199.8a30,30,0,0,1,12.85-11.19q8.34-4,22.7-4a67.83,67.83,0,0,1,10.86.84,75.32,75.32,0,0,1,10.51,2.5V142.2A42.62,42.62,0,0,0,975.91,140.86Z"/><path class="cls-1" d="M447.9,137.86H380.45V91.78h187v46.08H500v169H447.9Z"/><path class="cls-1" d="M708.17,278.76a79.93,79.93,0,0,1-30.38,23.71,91.16,91.16,0,0,1-38.07,8.35,102.45,102.45,0,0,1-35.23-6,84.72,84.72,0,0,1-28.71-17.2,80.56,80.56,0,0,1-19.2-26.88,85.09,85.09,0,0,1-7-35.06,85.12,85.12,0,0,1,7-35.06,80.77,80.77,0,0,1,19.2-26.88,84.7,84.7,0,0,1,28.71-17.19,102.21,102.21,0,0,1,35.23-6,80.16,80.16,0,0,1,31.56,6,65.8,65.8,0,0,1,24,17.19,78.44,78.44,0,0,1,15.19,26.88,108.42,108.42,0,0,1,5.34,35.06v15.7H599.65q3,14.35,13,22.87t24.71,8.51q12.36,0,20.87-5.51a56,56,0,0,0,14.86-14.19Zm-42.4-71.45a29,29,0,0,0-8.35-21.71q-8.68-9-22.37-9a37.57,37.57,0,0,0-14.69,2.67,36.81,36.81,0,0,0-10.86,6.84,30.11,30.11,0,0,0-7,9.69,31.79,31.79,0,0,0-2.84,11.52Z"/><path class="cls-1" d="M989.18,260.28v-.61c0-36.06,28.12-52.7,68.24-52.7a123.15,123.15,0,0,1,41.38,6.78V211c0-19.41-12.32-30.2-36.33-30.2-18.32,0-31.27,3.39-46.75,8.94l-12-35.74c18.64-8,37-13.25,65.71-13.25,26.22,0,45.18,6.77,57.18,18.48,12.64,12.33,18.32,30.51,18.32,52.7v95.83h-46.43V289.86c-11.69,12.64-27.8,21-51.18,21C1015.4,310.82,989.18,292.94,989.18,260.28Zm110.25-10.78v-2.74a8.25,8.25,0,0,0-5.67-7.8,79.25,79.25,0,0,0-25-3.94c-20.53,0-33.17,8-33.17,22.8v.61c0,12.64,10.74,20,26.22,20C1084.27,278.47,1099.43,266.45,1099.43,249.5Z"/><g id="Symbol"><path class="cls-2" d="M177.87,278.91c7.82,28.93,35.89,51,50.06,50.11.5,0,53.76-10,82.92-58.68,22.69-37.92,15-74.52-15.9-75.32-11.1.81-132,28.74-117.08,83.89"/><path class="cls-2" d="M292.08,93l0,0,0,0a135.46,135.46,0,0,0-142.76-20.6,77.62,77.62,0,0,0-8.58,4.2c-1.9,1-3.81,2-5.65,3.12l.45.14a61.48,61.48,0,0,0-14.3,13.53c-38.88,51.36,91.43,88.69,161.1,88.82C314.4,205.17,323.4,117.39,292.08,93Z"/><path class="cls-1" d="M157.18,94.05C139.29,121,79.66,139.92,69.85,137l-.06-.12c.4-.81.81-1.62,1.22-2.42a143.4,143.4,0,0,1,42.52-49.61q5.5-4,11.39-7.55A42.35,42.35,0,0,1,144.64,72c26.55.51,12.69,21.83,12.54,22"/><path class="cls-1" d="M142.5,284.2c1.29,8.45,0,41.84-1.76,44.66-1.49.09-4.59.28-13.58-4.76A142.93,142.93,0,0,1,62.35,154.9c.48-1.43,1-2.86,1.5-4.27h0c10.3,13.69,22.2,26.07,32.33,39.9,9.64,13.16,22.9,34.62,25.6,39.21,16.76,28.47,19.43,46,20.71,54.47"/><path class="cls-1" d="M340.6,200a142.24,142.24,0,0,1-9.94,52.44c-16.81,18.08-130.19-26.41-131.3-26.9-15.51-6.79-62.7-27.47-67-59.95-6.13-46.72,88.67-79.28,130.33-80.52,5,.06,20.19.24,29.06,7.44A142.44,142.44,0,0,1,340.6,200"/><path class="cls-1" d="M263.85,326.65c-12.36,5.77-26,1.57-22.43-10.47,6.79-23.11,66.05-46.81,79.14-48.09,1.62-.16,2.3.94,1.59,2.19a144.19,144.19,0,0,1-58.3,56.37"/></g></g></svg>