<svg xmlns="http://www.w3.org/2000/svg" viewBox="0 0 600 600"><defs><style>.cls-1{fill:#0e3ca5;}.cls-2{fill:#5493f7;}</style></defs><g id="Layer_1" data-name="Layer 1"><g id="Symbol_terra"><path class="cls-1" d="M251.2,410.28c12.19,45.11,55.94,79.54,78,78.12.77,0,83.8-15.53,129.25-91.47,35.37-59.1,23.33-116.16-24.78-117.4C416.4,280.79,228,324.33,251.2,410.28"/><path class="cls-1" d="M429.23,120.51l-.05,0,.07,0A211.16,211.16,0,0,0,206.72,88.32a125.88,125.88,0,0,0-13.38,6.55c-3,1.58-5.93,3.15-8.8,4.86l.7.22A96.38,96.38,0,0,0,163,121c-60.6,80.07,142.52,138.26,251.11,138.45C464,295.35,478.05,158.52,429.23,120.51Z"/><path class="cls-2" d="M219,122.14C191.07,164.08,98.11,193.63,82.83,189l-.1-.2c.62-1.26,1.26-2.52,1.91-3.77a223.54,223.54,0,0,1,66.27-77.33q8.58-6.28,17.76-11.76c13-7.53,26.35-8,30.73-8.18,41.4.79,19.78,34,19.56,34.35"/><path class="cls-2" d="M196.08,418.53c2,13.18-.06,65.23-2.75,69.62-2.32.14-7.16.44-21.17-7.42a223,223,0,0,1-47.18-36A222.8,222.8,0,0,1,71.14,217q1.13-3.36,2.34-6.66h0c16.05,21.34,34.61,40.64,50.39,62.19,15,20.52,35.71,54,39.91,61.12,26.13,44.37,30.29,71.75,32.29,84.9"/><path class="cls-2" d="M504.86,287.33a221.94,221.94,0,0,1-15.49,81.74c-26.2,28.17-202.93-41.18-204.66-41.94-24.18-10.59-97.75-42.82-104.38-93.45-9.55-72.83,138.21-123.58,203.15-125.51,7.78.09,31.48.37,45.29,11.59a222,222,0,0,1,76.09,167.57"/><path class="cls-2" d="M385.23,484.71c-19.26,9-40.47,2.44-35-16.32,10.58-36,103-73,123.36-75,2.51-.24,3.58,1.47,2.47,3.43a224.86,224.86,0,0,1-90.87,87.86"/></g></g></svg>