<svg xmlns="http://www.w3.org/2000/svg" width="101" height="92">
  <path fill="#2845AE" d="M8.494 21.754c3.39-6.65 10.486-9.942 15.99-7.397l.283.137 12.487 6.4a12.293 12.293 0 0 1 8.344.57l.391.18 8.518 4.284 25.118 12.728c4.488 2.291 6.878 7.2 6.843 12.677l-.006.322 4.488 2.161-7.744 15.281L78.67 66.8c-4.273 3.41-9.652 4.485-14.18 2.355l-.339-.166L30.66 52.05a.181.181 0 0 1-.146 0 11.942 11.942 0 0 1-5.653-6.133l-.142-.365-12.28-6.279a.325.325 0 0 0-.154-.102l-.04-.007c-5.542-2.795-7.2-10.647-3.75-17.41Z"/>
  <path fill="#5493F7" d="m14.544 65.456 21.403 11.433-13.624 13.926a.63.63 0 0 1-.738.182h-.06L1.065 80.53a.714.714 0 0 1-.23-1.062l13.709-14.013Zm17.953-17.88.099.033L53.09 58.075a.665.665 0 0 1 .34.843l-.05.1a.423.423 0 0 1-.084.134v.073l-15.85 16.212-21.464-11.445L31.857 47.79a.63.63 0 0 1 .64-.215Zm58.55 6.41c2.734 1.379 3.157 5.904 1.016 10.139-2.142 4.234-6.05 6.545-8.784 5.166-2.735-1.38-3.158-5.904-1.017-10.14 2.142-4.222 6.05-6.545 8.784-5.165ZM33.55 20.084a9.22 9.22 0 0 1 3.63.702c-1 .28-1.968.661-2.892 1.137l-.314.157h-.448c-3.944 0-8.034 2.952-10.224 7.187-2.347 4.646-2.056 9.788.496 12.837a17.39 17.39 0 0 0 .896 3.388c-5.021-3.049-6.413-10.538-3.061-17.12 2.54-5.142 7.332-8.288 11.917-8.288Zm29.655-3.098L84.622 28.42l-8.337 8.542-21.778-11.034 8.7-8.942ZM79.574.656l.1.033 20.604 10.466a.723.723 0 0 1 .35.943.508.508 0 0 1-.072.119L86.11 26.92 64.658 15.498 78.935.87a.63.63 0 0 1 .539-.23l.1.016Z"/>
</svg>
