<svg xmlns="http://www.w3.org/2000/svg" id="f76d2564-a9ee-4cf6-89b8-5d4622a5cc28" data-name="Layer 1" viewBox="0 0 95 95">
  <path fill="#2043b5" fill-rule="evenodd" d="M85.148 11.449H11.563a8.088 8.088 0 0 0-8.079 8.079v56.359a8.088 8.088 0 0 0 8.079 8.079h73.585a8.088 8.088 0 0 0 8.08-8.079V19.528a8.088 8.088 0 0 0-8.08-8.079Zm-73.585 5h73.585a3.082 3.082 0 0 1 3.08 3.079v11.207H8.484V19.528a3.082 3.082 0 0 1 3.079-3.079Zm73.585 62.517H11.563a3.082 3.082 0 0 1-3.079-3.079V35.735h79.744v40.152a3.082 3.082 0 0 1-3.08 3.079Z"/>
  <path fill="#2043b5" fill-rule="evenodd" d="M16.624 27.344a3.537 3.537 0 1 0-3.537-3.537 3.538 3.538 0 0 0 3.537 3.537Z"/>
  <circle cx="27.732" cy="23.807" r="3.537" fill="#2043b5"/>
  <path fill="#2043b5" fill-rule="evenodd" d="M54.3 55.972a11.822 11.822 0 0 0-16.106-14.727.542.542 0 0 0-.141.871l7.5 7.5-4.819 4.819-7.5-7.5a.542.542 0 0 0-.871.143 11.82 11.82 0 0 0 14.726 16.1l11.656 11.66a1.715 1.715 0 0 0 2.426 0l4.785-4.785a1.715 1.715 0 0 0 0-2.426Z"/>
</svg>
