<svg xmlns="http://www.w3.org/2000/svg" id="a849f50d-9562-4aa1-b02e-a364f942ed07" data-name="Layer 1" viewBox="0 0 95 95">
  <path fill="#2043b5" d="m90.666 57.67-10.03-20.005a1.011 1.011 0 0 0-.911-.562h-10.45V11.538a1.084 1.084 0 0 0-1.083-1.083H26.808a1.084 1.084 0 0 0-1.083 1.083V37.1H15.488a1.016 1.016 0 0 0-.907.554L4.339 57.664a1.681 1.681 0 0 0-.182.759v25.194a.929.929 0 0 0 .927.928h84.832a.929.929 0 0 0 .927-.928v-25.2a1.658 1.658 0 0 0-.177-.747ZM30.1 46.087V14.833h34.8v31.254Zm42.8 4.378v-4.378h-3.625v-4.606h8.35l7.127 14.549H10.467l7.127-14.549h8.131v4.606H22.1v4.378Zm13.46 10.2v19.421H8.856V60.663Z"/>
</svg>
