<?xml version="1.0" encoding="utf-8"?>
<!-- Generator: Adobe Illustrator 24.1.0, SVG Export Plug-In . SVG Version: 6.00 Build 0)  -->
<svg version="1.1" id="Layer_1" xmlns="http://www.w3.org/2000/svg" xmlns:xlink="http://www.w3.org/1999/xlink" x="0px" y="0px"
	 viewBox="0 0 93.5 93.5" style="enable-background:new 0 0 93.5 93.5;" xml:space="preserve">
<style type="text/css">
	.st0{fill:#2745AE;}
</style>
<path class="st0" d="M80.2,48.2c0.8,3,3.8,4.8,6.8,4c3-0.8,4.8-3.8,4-6.8c-0.8-3-3.8-4.8-6.8-4c-2,0.5-3.5,2-4,4H67.5V32.9
	c0-3.8,3.1-6.9,6.9-6.9h5.7c0.8,3,3.8,4.8,6.8,4c3-0.8,4.8-3.8,4-6.8c-0.8-3-3.8-4.8-6.8-4c-2,0.5-3.5,2-4,4h-5.7
	c-5.4,0-9.7,4.4-9.7,9.7v12.5H53.6v2.8h11.1V62c0,5.4,4.4,9.7,9.7,9.7h6.3c1.6,2.6,5,3.5,7.6,1.9c2.6-1.6,3.5-5,1.9-7.6
	c-1.6-2.6-5-3.5-7.6-1.9C81,65.2,80,67,80,69h-5.6c-3.8,0-6.9-3.1-6.9-6.9V48.2H80.2z"/>
<g>
	<path class="st0" d="M50.4,19.6v54.3h-43V19.6H50.4 M54.4,14.6H3.4c-0.6,0-1,0.5-1,1v62.2c0,0.6,0.5,1,1,1h50.9c0.6,0,1-0.5,1-1
		V15.6C55.4,15.1,54.9,14.6,54.4,14.6L54.4,14.6z"/>
</g>
<g>
	<rect x="12.6" y="25.7" class="st0" width="32.1" height="4"/>
	<rect x="12.6" y="36.2" class="st0" width="32.1" height="4"/>
	<rect x="12.6" y="46.6" class="st0" width="22.1" height="4"/>
	<path class="st0" d="M43.5,65.6h-3.4c-1.3,0-2.4-1.2-2.4-2.6c0-1.5-0.5-2.3-1.3-2.6c-1-0.3-2,0.4-3,2c-0.1,0.2-0.2,0.3-0.3,0.4
		c0-1.4-0.5-2.2-1.3-2.4c-1-0.3-2,0.4-3,2c-0.1,0.2-0.2,0.3-0.3,0.4c0-1.4-0.5-2.2-1.3-2.4c-1-0.3-2,0.4-2.9,2
		c-0.1-0.5-0.3-1.5-0.3-3.1c0-2.6-0.3-4.2-1.6-4.4c-1.3-0.2-2,1.5-2.6,3.3l-0.5,1.6c-1.1,3.5-1.9,5.9-3.3,5.9h-2.3
		c-0.6,0-1.1,0.5-1.1,1.1c0,0.6,0.5,1.1,1.1,1.1H16c3.1,0,4.2-3.6,5.4-7.5l0.4-1.3c0,0.1,0,0.1,0,0.2c0,3.4,0.6,5.3,1.9,5.7
		c0.5,0.1,1.5,0.2,2.4-1.3c0.1-0.2,0.2-0.3,0.3-0.4c0,1.4,0.5,2.2,1.3,2.4c1,0.3,2-0.4,3-2c0.1-0.2,0.2-0.3,0.3-0.4
		c0,1.4,0.5,2.2,1.3,2.4c1,0.3,2-0.4,3-2c0.1-0.2,0.2-0.3,0.3-0.4c0.1,2.6,2.1,4.7,4.5,4.7h3.4c0.6,0,1.1-0.5,1.1-1.1
		C44.6,66.1,44.1,65.6,43.5,65.6z"/>
</g>
</svg>
