<?xml version="1.0" encoding="utf-8"?>
<!-- Generator: Adobe Illustrator 24.0.0, SVG Export Plug-In . SVG Version: 6.00 Build 0)  -->
<svg version="1.1" id="Layer_1" xmlns="http://www.w3.org/2000/svg" xmlns:xlink="http://www.w3.org/1999/xlink" x="0px" y="0px"
	 viewBox="0 0 93.5 93.5" style="enable-background:new 0 0 93.5 93.5;" xml:space="preserve">
<style type="text/css">
	.st0{fill:#2043B5;}
</style>
<title>Asset 3</title>
<g id="Layer_2_1_">
	<g id="Layer_1-2">
		<path class="st0" d="M78.7,49.7c2.1,0,4.1,1.1,5.1,2.9c2.1,3.8,1,10.4-2.7,16.8c-8.2,13.6-22.8,17.2-24.8,17.6
			c-2.8-0.1-10.6-5.6-12.9-14c-0.7-2.6-0.1-5.3,1.5-7.4C52,55.6,75.4,50.2,78.7,49.7 M78.5,45.7c-2.2,0.2-28.4,5.7-36.9,17.6
			c-2.4,3.1-3.1,7-2.1,10.8c2.7,9.9,11.9,17,16.8,17h0.3c0.2,0,18-3.3,27.8-19.6c4.6-7.7,5.7-15.6,2.8-20.8
			C85.5,47.6,82.1,45.6,78.5,45.7L78.5,45.7z"/>
		<path class="st0" d="M48.9,6.4c8.8,0,17.4,2.9,24.5,8.2l1.7,1.4l0,0l0.1,0.1c3.3,2.6,5.3,9.7,4.7,16.5c-0.4,4.3-1.7,6.3-2.2,6.7
			c-0.3-0.1-0.6-0.3-0.9-0.5l-1.1-0.8h-1.2c-18.6,0-46.1-8-50.6-16.9c-0.7-1.3-1-3,1-5.7c1.1-1.4,2.3-2.6,3.8-3.6l0.8-0.5l0.4-0.2
			h0.1l0,0h0c0.8-0.4,1.6-0.8,2.4-1.2l0,0l0,0C37.5,7.7,43.2,6.5,48.9,6.4 M48.9,2.4c-6.2,0-12.3,1.3-18,3.8c-1,0.4-1.9,0.9-2.8,1.4
			c-0.6,0.3-1.2,0.7-1.8,1h0.1c-1.8,1.2-3.4,2.7-4.7,4.4c-12.7,16.8,29.9,29,52.8,29.1c0.9,0.8,2.1,1.2,3.3,1.3
			c7.7,0,9-23.4-0.1-30.5l0,0C69.6,6.2,59.4,2.4,48.9,2.4z"/>
		<path class="st0" d="M33.4,13.4C27.6,22.2,8.1,28.4,4.8,27.4l0,0c0.1-0.3,0.3-0.5,0.4-0.8c1.1-2.2,2.3-4.2,3.8-6.2
			c1.4-1.9,3-3.8,4.7-5.4c1.7-1.7,3.5-3.2,5.5-4.7c1.2-0.9,2.5-1.7,3.7-2.5c2-1.1,4.2-1.7,6.5-1.7C38,6.3,33.5,13.3,33.4,13.4"/>
		<path class="st0" d="M28.6,75.6c0.4,2.8,0,13.7-0.6,14.6c-0.5,0-1.5,0.1-4.4-1.6c-1.5-0.9-3-1.8-4.5-2.9c-1.9-1.4-3.8-3-5.4-4.7
			c-1.7-1.7-3.3-3.5-4.7-5.5c-1.4-1.9-2.7-4-3.8-6.1c-1.1-2.2-2.1-4.4-2.8-6.7c-0.8-2.3-1.4-4.8-1.8-7.2c-0.8-5-0.8-10.1,0-15.2
			c0.4-2.4,1-4.9,1.8-7.2c0.2-0.5,0.3-0.9,0.5-1.4l0,0c3.4,4.5,7.3,8.6,10.6,13.1c3.2,4.3,7.5,11.3,8.4,12.8
			C27.3,67.1,28.2,72.9,28.6,75.6"/>
		<path class="st0" d="M93.5,48.1c0,5.9-1.1,11.7-3.2,17.2c-5.5,5.9-42.6-8.6-43-8.8c-5.1-2.2-20.5-9-21.9-19.6
			c-2-15.3,29-26,42.7-26.4c1.6,0,6.6,0.1,9.5,2.4C87.7,21.7,93.5,34.6,93.5,48.1"/>
		<path class="st0" d="M68.4,89.5c-4.1,1.9-8.5,0.5-7.3-3.4c2.2-7.6,21.6-15.3,25.9-15.8c0.5,0,0.8,0.3,0.5,0.7
			C83,78.9,76.4,85.3,68.4,89.5"/>
	</g>
</g>
</svg>
