<?xml version="1.0" encoding="utf-8"?>
<!-- Generator: Adobe Illustrator 24.1.0, SVG Export Plug-In . SVG Version: 6.00 Build 0)  -->
<svg version="1.1" id="Layer_1" xmlns="http://www.w3.org/2000/svg" xmlns:xlink="http://www.w3.org/1999/xlink" x="0px" y="0px"
	 viewBox="0 0 93.5 93.5" style="enable-background:new 0 0 93.5 93.5;" xml:space="preserve">
<style type="text/css">
	.st0{fill:#2043B5;}
</style>
<path class="st0" d="M78.7,23.9c6.6,0,11.9-5.3,11.9-11.9S85.3,0,78.7,0S66.7,5.3,66.7,11.9c0,2.9,1.1,5.5,2.7,7.6L55.1,35.3
	c-2.1-1.9-4.9-3-7.9-3c-2.9,0-5.6,1-7.7,2.8L24.8,21.6c0.7-1.2,1.2-2.6,1.2-4.1c0-4.3-3.6-7.9-7.9-7.9c-4.3,0-7.9,3.6-7.9,7.9
	c0,4.3,3.6,7.9,7.9,7.9c1.8,0,3.4-0.6,4.8-1.6l14.7,13.5c-1.4,2-2.2,4.3-2.2,6.9c0,2.9,1,5.5,2.7,7.5L22.1,69
	c-2-1.6-4.5-2.5-7.3-2.5c-6.6,0-11.9,5.3-11.9,11.9s5.3,11.9,11.9,11.9S26.8,85,26.8,78.4c0-2.8-0.9-5.3-2.5-7.3l15.8-17.3
	c1.9,1.5,4.3,2.3,6.9,2.3l1.9,18.7c-3.9,1.2-6.8,4.8-6.8,9.1c0,5.3,4.2,9.6,9.6,9.6c5.3,0,9.6-4.2,9.6-9.6c0-5.2-4.1-9.4-9.3-9.5
	L50,55.8c2.3-0.6,4.3-1.7,5.8-3.4l14.8,11c-0.4,0.9-0.6,1.9-0.6,3.1c0,4.3,3.6,7.9,7.9,7.9c4.3,0,7.9-3.6,7.9-7.9
	c0-4.3-3.6-7.9-7.9-7.9c-2.2,0-4.2,1-5.6,2.4L57.6,50c1-1.7,1.5-3.7,1.5-5.7c0-2.5-0.8-4.8-2.1-6.7l14.6-15.9
	C73.6,23,76,23.9,78.7,23.9z"/>
</svg>
