<?xml version="1.0" encoding="utf-8"?>
<!-- Generator: Adobe Illustrator 24.1.0, SVG Export Plug-In . SVG Version: 6.00 Build 0)  -->
<svg version="1.1" id="Layer_1" xmlns="http://www.w3.org/2000/svg" xmlns:xlink="http://www.w3.org/1999/xlink" x="0px" y="0px"
	 viewBox="0 0 100 100" style="enable-background:new 0 0 100 100;" xml:space="preserve">
<style type="text/css">
	.st0{opacity:0.45;fill:#B7B7B7;}
	.st1{fill:#B7B7B7;}
</style>
<path class="st0" d="M84,48.9c-2.4,0.2-30.4,6.1-39.5,18.8c-2.6,3.3-3.3,7.5-2.2,11.6c2.9,10.6,12.7,18.2,18,18.2h0.3
	c0.2,0,19.3-3.5,29.7-21c4.9-8.2,6.1-16.7,3-22.2C91.4,50.9,87.8,48.8,84,48.9L84,48.9z"/>
<path class="st0" d="M52.3,2.6C45.7,2.6,39.1,4,33,6.6c-1.1,0.4-2,1-3,1.5c-0.6,0.3-1.3,0.7-1.9,1.1h0.1c-1.9,1.3-3.6,2.9-5,4.7
	c-13.6,18,32,31,56.5,31.1c1,0.9,2.2,1.3,3.5,1.4c8.2,0,9.6-25-0.1-32.6l0,0C74.4,6.6,63.5,2.6,52.3,2.6z"/>
<path class="st1" d="M35.7,14.3c-6.2,9.4-27.1,16-30.6,15l0,0c0.1-0.3,0.3-0.5,0.4-0.9C6.7,26.1,8,24,9.6,21.8c1.5-2,3.2-4.1,5-5.8
	c1.8-1.8,3.7-3.4,5.9-5c1.3-1,2.7-1.8,4-2.7c2.1-1.2,4.5-1.8,7-1.8C40.6,6.7,35.8,14.2,35.7,14.3"/>
<path class="st1" d="M30.6,80.9c0.4,3,0,14.7-0.6,15.6c-0.5,0-1.6,0.1-4.7-1.7c-1.6-1-3.2-1.9-4.8-3.1c-2-1.5-4.1-3.2-5.8-5
	c-1.8-1.8-3.5-3.7-5-5.9c-1.5-2-2.9-4.3-4.1-6.5c-1.2-2.4-2.2-4.7-3-7.2c-0.9-2.5-1.5-5.1-1.9-7.7c-0.9-5.3-0.9-10.8,0-16.3
	c0.4-2.6,1.1-5.2,1.9-7.7c0.2-0.5,0.3-1,0.5-1.5l0,0c3.6,4.8,7.8,9.2,11.3,14c3.4,4.6,8,12.1,9,13.7C29.2,71.8,30.2,78,30.6,80.9"/>
<path class="st1" d="M100,51.4c0,6.3-1.2,12.5-3.4,18.4c-5.9,6.3-45.6-9.2-46-9.4c-5.5-2.4-21.9-9.6-23.4-21
	c-2.1-16.4,31-27.8,45.7-28.2c1.7,0,7.1,0.1,10.2,2.6C93.8,23.2,100,37,100,51.4"/>
<path class="st1" d="M73.2,95.7c-4.4,2-9.1,0.5-7.8-3.6C67.7,84,88.4,75.7,93,75.2c0.5,0,0.9,0.3,0.5,0.7
	C88.8,84.4,81.7,91.2,73.2,95.7"/>
</svg>
