<?xml version="1.0" encoding="utf-8"?>
<!-- Generator: Adobe Illustrator 24.1.0, SVG Export Plug-In . SVG Version: 6.00 Build 0)  -->
<svg version="1.1" id="Layer_1" xmlns="http://www.w3.org/2000/svg" xmlns:xlink="http://www.w3.org/1999/xlink" x="0px" y="0px"
	 viewBox="0 0 93.5 93.5" style="enable-background:new 0 0 93.5 93.5;" xml:space="preserve">
<style type="text/css">
	.st0{fill:none;stroke:#2845AE;stroke-width:5;stroke-miterlimit:10;}
	.st1{fill:#2745AE;}
</style>
<circle class="st0" cx="46.8" cy="46.8" r="43.8"/>
<g>
	<path class="st1" d="M37.7,27.2c2.3-1.5,5.1-2.2,8.5-2.2c4.4,0,8.1,1.1,11,3.2s4.4,5.2,4.4,9.4c0,2.5-0.6,4.7-1.9,6.4
		c-0.7,1.1-2.2,2.4-4.3,4l-2.1,1.6c-1.1,0.9-1.9,1.9-2.2,3.1c-0.2,0.7-0.4,1.9-0.4,3.5h-7.9c0.1-3.3,0.4-5.6,0.9-6.8
		c0.5-1.3,1.8-2.7,3.9-4.4l2.1-1.7c0.7-0.5,1.3-1.1,1.7-1.7c0.8-1.1,1.2-2.3,1.2-3.5c0-1.5-0.4-2.8-1.3-4.1
		c-0.9-1.2-2.5-1.8-4.8-1.8c-2.3,0-3.9,0.8-4.8,2.3c-0.9,1.5-1.4,3.1-1.4,4.7h-8.5C32.1,33.4,34.1,29.5,37.7,27.2z M42.6,60.1h8.8
		v8.5h-8.8V60.1z"/>
</g>
</svg>
