<?xml version="1.0" encoding="utf-8"?>
<!-- Generator: Adobe Illustrator 24.0.0, SVG Export Plug-In . SVG Version: 6.00 Build 0)  -->
<svg version="1.1" id="Layer_1" xmlns="http://www.w3.org/2000/svg" xmlns:xlink="http://www.w3.org/1999/xlink" x="0px" y="0px"
	 viewBox="0 0 91.1 120.1" style="enable-background:new 0 0 91.1 120.1;" xml:space="preserve">
<style type="text/css">
	.st0{fill:#2043B5;}
</style>
<defs  xmlns="http://www.w3.org/1999/xhtml">
	<style  type="text/css"></style>
</defs>
<g id="A">
	<g>
		<path class="st0" d="M84.2,7.1c-0.1-1.7-0.8-3.3-2.1-4.5c-1.2-1.1-2.9-1.8-4.6-1.7c-1.3,0.1-2.5,0.5-3.5,1.2c-1,0.8-1.8,1.8-2.2,3
			c-0.4,1.2-0.5,2.5-0.2,3.7c0.3,1.2,1,2.4,1.9,3.2c0.9,0.9,2.1,1.4,3.3,1.6c1.2,0.2,2.5,0,3.7-0.5c1.1-0.5,2.1-1.4,2.8-2.5
			C83.9,9.7,84.3,8.4,84.2,7.1L84.2,7.1z"/>
		<path class="st0" d="M47.1,79.7c17,0,31.8-6.2,39.5-15.4c-2.9,8.2-8.2,15.4-15.3,20.5c-7.1,5.1-15.5,7.8-24.2,7.8
			c-8.7,0-17.2-2.7-24.2-7.8c-7.1-5.1-12.4-12.2-15.3-20.5C15.3,73.5,30.1,79.7,47.1,79.7L47.1,79.7z M47,22.9
			c-17,0-31.8,6.2-39.5,15.4c2.9-8.2,8.2-15.4,15.3-20.5C29.9,12.7,38.3,10,47,10c8.7,0,17.2,2.7,24.2,7.8
			c7.1,5.1,12.4,12.2,15.3,20.5C78.8,29.1,64,22.9,47,22.9L47,22.9z"/>
		<path class="st0" d="M23.7,97.7c-0.1-2.1-1-4.2-2.6-5.6c-1.6-1.5-3.6-2.2-5.8-2.1c-1.6,0.1-3.1,0.6-4.4,1.5
			c-1.3,0.9-2.3,2.3-2.8,3.8c-0.5,1.5-0.6,3.1-0.3,4.7c0.4,1.6,1.2,3,2.4,4.1s2.6,1.8,4.2,2c1.6,0.2,3.2,0,4.6-0.7
			c1.4-0.7,2.6-1.8,3.5-3.1C23.4,100.8,23.8,99.2,23.7,97.7L23.7,97.7z"/>
		<path class="st0" d="M9.5,20.8c1.2-0.1,2.4-0.6,3.3-1.5c1.5-1.7,1.7-4.2,0.3-6c-0.5-0.8-1.3-1.3-2.2-1.7c-0.9-0.3-1.8-0.4-2.7-0.2
			c-0.9,0.2-1.7,0.7-2.4,1.4s-1,1.6-1.2,2.5c-0.1,0.9,0,1.9,0.4,2.7c0.4,0.8,1,1.6,1.8,2.1C7.6,20.6,8.5,20.8,9.5,20.8L9.5,20.8z"/>
	</g>
</g>
</svg>
