<?xml version="1.0" encoding="utf-8"?>
<!-- Generator: Adobe Illustrator 24.1.0, SVG Export Plug-In . SVG Version: 6.00 Build 0)  -->
<svg version="1.1" id="Layer_1" xmlns="http://www.w3.org/2000/svg" xmlns:xlink="http://www.w3.org/1999/xlink" x="0px" y="0px"
	 viewBox="0 0 93.5 93.5" style="enable-background:new 0 0 93.5 93.5;" xml:space="preserve">
<style type="text/css">
	.st0{fill:#2043B5;}
</style>
<g>
	<path class="st0" d="M51.3,58.5C31,49.4,18.3,31,17.5,12.4c0-0.8-1-1.2-1.6-0.7C6.2,20.4,0,33.1,0.1,47.2
		C0.3,72.4,20.8,93,45.9,93.5c20.3,0.4,37.8-12.2,44.6-30c0.3-0.7-0.4-1.4-1.1-1.2C77.6,65.2,64.1,64.2,51.3,58.5z"/>
	<g>
		<path class="st0" d="M70.6,11.4c0.5,0.3,0.9,0.6,1.4,1l0,0c0.5,0.3,0.9,0.7,1.4,1.1l0.1,0.1c0.4,0.3,0.8,0.7,1.3,1.1l0.1,0.1
			l0.1,0.1c0.4,0.4,0.8,0.7,1.2,1.1l0.1,0.1l0.1,0.1c0.4,0.4,0.8,0.8,1.2,1.2l2.9-2.8l-2.8,2.8c0.4,0.4,0.8,0.9,1.2,1.3
			c0.4,0.5,0.8,1,1.2,1.4l0.1,0.1l0,0c0.8,0.9,1.5,1.9,2.1,2.9l0,0.1l0.1,0.1c0.3,0.5,0.6,1,0.9,1.4l0,0l0,0
			c0.3,0.5,0.6,1.1,0.9,1.6l0,0.1l0,0c0.3,0.5,0.6,1.1,0.9,1.7c0.2,0.5,0.5,1,0.7,1.6l0,0.1c0.5,1.1,0.9,2.3,1.3,3.4l0,0.1
			c0.2,0.6,0.4,1.1,0.5,1.7l0,0.2c0.3,1.2,0.6,2.4,0.9,3.6l0,0.2l0,0.1c0.4,2.4,0.7,4.9,0.7,7.4c-7.8-6.3-13.6-12.1-16.7-22.1
			l-0.1-0.3l0-0.1c-0.1-0.4-0.2-0.8-0.3-1.2l0-0.2l-0.1-0.3c-0.1-0.5-0.3-1.1-0.4-1.6c-0.3-1.5-0.5-3.1-0.7-4.8
			C71,14.5,70.9,12.9,70.6,11.4 M50,0.2c0.2,0,0.4,0,0.5,0c0,0,0,0,0,0c0,0,0,0,0,0c0,0,0,0,0,0c0.4,0,0.8,0.1,1.2,0.1c0,0,0,0,0,0
			c0.4,0,0.8,0.1,1.2,0.2c0,0,0,0,0,0c0.4,0.1,0.7,0.1,1.1,0.2c0,0,0,0,0,0c0.4,0.1,0.7,0.1,1,0.2c0,0,0,0,0,0
			c0.3,0.1,0.6,0.1,1,0.2c0,0,0,0,0.1,0c0.3,0.1,0.6,0.2,0.9,0.2c0,0,0.1,0,0.1,0c0.3,0.1,0.6,0.2,0.8,0.3c0,0,0.1,0,0.1,0
			c0.3,0.1,0.5,0.2,0.7,0.3c0,0,0.1,0,0.1,0c0.2,0.1,0.5,0.2,0.7,0.3c0,0,0.1,0,0.1,0.1c0.2,0.1,0.4,0.2,0.6,0.3
			c0.1,0,0.1,0.1,0.2,0.1c0.2,0.1,0.4,0.2,0.6,0.3c0.1,0,0.1,0.1,0.2,0.1c0.2,0.1,0.3,0.2,0.5,0.3c0.1,0.1,0.1,0.1,0.2,0.2
			c0.1,0.1,0.3,0.2,0.4,0.3c0.1,0.1,0.2,0.1,0.2,0.2c0.1,0.1,0.2,0.2,0.3,0.3c0.1,0.1,0.2,0.2,0.3,0.3c0.1,0.1,0.2,0.2,0.2,0.2
			c0.2,0.2,0.4,0.4,0.5,0.6c0.3,0.3,1.6,2,2.3,5c0.9,3.6,0.7,7.3,1.5,10.9c0.1,0.6,0.3,1.2,0.4,1.8c0,0.2,0.1,0.3,0.1,0.5
			c0.1,0.4,0.2,0.9,0.4,1.3c0,0.1,0.1,0.3,0.1,0.4c4.2,13.6,12.6,20,23.9,28.6c0.4-2.4,0.6-4.9,0.6-7.4c0-2.9-0.3-5.7-0.8-8.4v0
			c0-0.1,0-0.2-0.1-0.3c0,0,0,0,0,0c-0.3-1.3-0.6-2.7-0.9-4c0-0.1,0-0.1-0.1-0.2c0,0,0,0,0,0c-0.2-0.6-0.4-1.2-0.6-1.9
			c0,0,0-0.1,0-0.1c0,0,0,0,0,0c-0.4-1.3-0.9-2.5-1.5-3.8c0,0,0-0.1,0-0.1c0,0,0,0,0,0c-0.3-0.6-0.5-1.2-0.8-1.8c0,0,0,0,0,0
			c0,0,0,0,0,0c-0.3-0.6-0.6-1.2-0.9-1.8c0,0,0,0,0,0c0,0,0,0,0,0c0,0,0,0,0,0c-0.3-0.6-0.7-1.2-1-1.8c0,0,0,0,0,0c0,0,0,0,0,0
			c-0.3-0.5-0.7-1.1-1-1.6c0,0,0,0,0,0c0-0.1-0.1-0.1-0.1-0.2c0,0,0,0,0,0c-0.7-1.1-1.5-2.1-2.3-3.2c0-0.1-0.1-0.1-0.1-0.2
			c0,0,0,0,0,0c-0.4-0.5-0.9-1.1-1.3-1.6c0,0,0,0,0,0c-0.4-0.5-0.9-1-1.3-1.5c0,0,0,0-0.1-0.1c0,0,0,0,0,0c-0.4-0.4-0.8-0.9-1.3-1.3
			c0,0,0,0,0,0C79.1,13.1,79.1,13,79,13c0,0,0,0,0,0c-0.4-0.4-0.9-0.8-1.3-1.2c-0.1,0-0.1-0.1-0.2-0.1c0,0,0,0,0,0
			c-0.5-0.4-0.9-0.8-1.4-1.2l0,0c0,0-0.1-0.1-0.1-0.1c0,0,0,0,0,0c-0.5-0.4-1-0.8-1.6-1.2c0,0,0,0,0,0c0,0,0,0,0,0
			c-0.5-0.4-1.1-0.8-1.6-1.1c0,0,0,0,0,0c0,0,0,0,0,0c-1.1-0.7-2.2-1.4-3.4-2.1c0,0,0,0,0,0c0,0-0.1,0-0.1-0.1
			c-0.6-0.3-1.1-0.6-1.7-0.9h0c-0.1,0-0.1-0.1-0.2-0.1c0,0,0,0,0,0c-1.2-0.6-2.4-1.1-3.6-1.6c-0.1,0-0.1-0.1-0.2-0.1c0,0,0,0,0,0
			c-0.6-0.2-1.3-0.5-1.9-0.7c0,0,0,0,0,0l0,0c-0.6-0.2-1.2-0.4-1.8-0.6c-0.1,0-0.1,0-0.2,0c0,0,0,0,0,0c-0.7-0.2-1.3-0.4-2-0.5
			c0,0,0,0,0,0l0,0c-0.6-0.1-1.3-0.3-1.9-0.4c0,0-0.1,0-0.1,0c0,0,0,0,0,0c-0.7-0.1-1.4-0.2-2-0.3c0,0,0,0,0,0c0,0,0,0,0,0
			C52.2,0.4,51.1,0.3,50,0.2L50,0.2z M50.5,0.3C50.5,0.3,50.5,0.3,50.5,0.3C50.5,0.3,50.5,0.3,50.5,0.3L50.5,0.3z"/>
	</g>
	<path class="st0" d="M93.1,40.3c-1.7-3.8-1.7-3.8-45.9-19.8C24.8,12.5,20.7,4.7,36.8,1.2c0.8-0.2,1.6-0.3,2.4-0.5
		c2.5-0.4,5-0.6,7.6-0.6C70.4,0.1,89.9,17.6,93.1,40.3"/>
</g>
</svg>
