<svg id="ec80cc05-16cb-4ef4-868f-c6000daa072f" data-name="Layer 1" xmlns="http://www.w3.org/2000/svg" viewBox="0 0 95 95"><path d="M43.052,87.7a1.687,1.687,0,0,0,1.008-1.545L44,62.129a28.486,28.486,0,0,1,6.156-17.5l.242,23.94a1.237,1.237,0,0,0,.607,1.051l13.375,7.907a1.415,1.415,0,0,0,1.307.069l9.35-5.482a.572.572,0,0,0,.325-.516l.074-23.562c-.023-9.041,5.017-18.658,11.067-21.633a.51.51,0,0,0,.291-.461V13.61a1.131,1.131,0,0,0-.693-1.039L67.274,4.655a1.057,1.057,0,0,0-.862.018l-59.3,27.95a1.055,1.055,0,0,0-.6,1.041l.94,11.613a1.19,1.19,0,0,0,.6.942l10.331,5.84.309,30.6a1.221,1.221,0,0,0,.562,1.016l13.378,8.575a1.526,1.526,0,0,0,1.526.069ZM19.316,36.926,24.1,34.653,21.534,33.4,16.853,35.62l-4.815-2.554L66.9,7.208l5.171,2.175-4.5,2.137,2.54,1.269,4.723-2.244,5.755,2.42L23.594,39.2Zm1.871,44.927L20.9,53.481l2.316,1.309a.709.709,0,0,0,.616.031,6.635,6.635,0,0,1,6.52.46,4.379,4.379,0,0,1,1.86,3.63V88.749ZM63.923,44.959l.024,29.159L52.893,67.805l-.259-25.624a12.238,12.238,0,0,1,2.54-1.6s4.194-1.857,7.372,1.115A4.457,4.457,0,0,1,63.923,44.959Z" style="fill:#275bde"/><polygon points="44.101 25.149 41.535 23.892 36.831 26.127 39.371 27.397 44.101 25.149" style="fill:#275bde"/><polygon points="54.321 20.293 51.754 19.036 46.757 21.41 49.297 22.68 54.321 20.293" style="fill:#275bde"/><polygon points="64.914 15.259 62.347 14.002 56.98 16.552 59.52 17.822 64.914 15.259" style="fill:#275bde"/><polygon points="34.172 29.867 31.606 28.61 26.756 30.914 29.296 32.184 34.172 29.867" style="fill:#275bde"/></svg>