<svg xmlns="http://www.w3.org/2000/svg" id="af7096e8-3225-4458-87bd-4c094e19925b" data-name="Layer 1" viewBox="0 0 95 95">
  <path fill="#2043b5" fill-rule="evenodd" d="m93.285 18.572-2.345-2.429a1.619 1.619 0 0 0-2.345 0l-2.68 2.68-30.069 30.153a1.619 1.619 0 0 1-2.345 0L40.686 36.245a1.619 1.619 0 0 0-2.345 0L36 38.59a1.619 1.619 0 0 0 0 2.345l17.5 17.5a1.619 1.619 0 0 0 2.345 0l3.518-3.518 26.552-26.629L90.1 24.1l3.182-3.183a1.619 1.619 0 0 0 .003-2.345Z"/>
  <path fill="#2043b5" fill-rule="evenodd" d="M83.988 69.664a4.146 4.146 0 0 1-4.188 4.187H37.759a18.252 18.252 0 0 0-12.4-20.531V19.409a4.146 4.146 0 0 1 4.187-4.187h50.589l2.932-2.932.419-.419a7.706 7.706 0 0 0-3.686-.837H29.546a8.4 8.4 0 0 0-8.375 8.375v33.062a18.439 18.439 0 0 0-1.548-.078 18.411 18.411 0 1 0 16.924 25.646H79.8a8.4 8.4 0 0 0 8.376-8.375V35.658l-4.188 4.188Zm-64.365 15.9A14.759 14.759 0 1 1 34.381 70.8a14.776 14.776 0 0 1-14.758 14.762Z"/>
  <path fill="#2043b5" fill-rule="evenodd" d="M22.244 69.806a6.645 6.645 0 0 0-9.054-8.279.3.3 0 0 0-.08.489l4.216 4.216-2.709 2.709-4.217-4.215a.3.3 0 0 0-.49.081 6.645 6.645 0 0 0 8.28 9.053l6.552 6.552a.966.966 0 0 0 1.364 0l2.69-2.69a.965.965 0 0 0 0-1.365Z"/>
</svg>
