<svg xmlns="http://www.w3.org/2000/svg" id="b1a4736c-829e-4dcb-a709-cc36b3ed819a" data-name="Layer 1" viewBox="0 0 95 95">
  <path fill="#2043b5" d="m92.13 38.778-6 1.278a6.784 6.784 0 0 0-5.321 4.656H69.25a18.655 18.655 0 0 0-5.762-5.88v-5.456a4.627 4.627 0 0 0-4.628-4.627h-.473v-4.794a9.416 9.416 0 0 0 3.146-3.589h6.806a8.091 8.091 0 1 0 0-8.394h-6.8a9.394 9.394 0 0 0-16.826 0h-6.8a8.091 8.091 0 1 0 0 8.394h6.806a9.406 9.406 0 0 0 3.146 3.588v4.795h-.473a4.627 4.627 0 0 0-4.628 4.627v5.818a18.646 18.646 0 0 0-5.238 5.518H17.653A15.893 15.893 0 0 0 1.76 60.605v26.306a1.331 1.331 0 0 0 1.331 1.331h17.118a1.331 1.331 0 0 0 1.331-1.331V69.605a4.482 4.482 0 0 1 4.482-4.482h12.069a18.627 18.627 0 0 0 30.589 0H80.5a6.762 6.762 0 0 0 5.565 6.311l6.063 1.29a.918.918 0 0 0 1.11-.9V39.677a.918.918 0 0 0-1.108-.899ZM62.066 15.016h8.173l.4-.9a5.007 5.007 0 0 1 1.932-2.216 2.862 2.862 0 0 1 3.185.112 5.075 5.075 0 0 1-.924 8.8 1.86 1.86 0 0 1-1.424.033 5.036 5.036 0 0 1-2.764-2.628l-.4-.9H65.6l-3.557-.039a6 6 0 0 0 .023-2.262Zm-14.925 3.3-.36-.992H36.006l-.333.743a5.2 5.2 0 0 1-3.554 3.026 5.052 5.052 0 1 1 3.481-6.979l.4.9h10.781l.362-1.006a6.356 6.356 0 0 1 4.183-3.931 3.781 3.781 0 0 1 2.9.341 5.79 5.79 0 0 1 3.136 4.813 7.135 7.135 0 0 1-1.41 4.969c-.76.783-1.442 1.378-1.442 1.378v7.169H50.9V22.2l-.8-.432a6.406 6.406 0 0 1-2.959-3.453ZM45.8 33.376a1.585 1.585 0 0 1 1.585-1.584h5.737v4.069a18.589 18.589 0 0 0-7.322 1.616Zm14.58 27.162c-5.046 7.287-15.845 7.8-20.835.473a11.6 11.6 0 0 1-1.657-3.556c-.028-.131-.064-.26-.089-.393l-14.177-.03a10.673 10.673 0 0 0-10.671 10.674V85.2H4.8V60.606a12.852 12.852 0 0 1 12.854-12.851h21.639l.434-.787A15.606 15.606 0 0 1 53.385 38.9h.039a8.227 8.227 0 0 1 6.4 3.153 15.6 15.6 0 0 1 .556 18.489Zm20.058-12.783v9.151H71.7a17.175 17.175 0 0 0-1.129-9.151Zm3.072-.982a3.783 3.783 0 0 1 3.19-3.729l3.5-.744v16.928c-6.378-.811-6.687-1.741-6.687-1.741ZM90.2 69.2l-.156-.034.156.006Z"/>
</svg>
