<svg id="bc16c1f7-d6d0-4976-b8d6-9ad9579b2c74" data-name="Layer 1" xmlns="http://www.w3.org/2000/svg" viewBox="0 0 95 95"><path d="M91.807,35.846l-6,1.278a6.785,6.785,0,0,0-5.322,4.656H68.926a18.641,18.641,0,0,0-5.761-5.88V30.444a4.627,4.627,0,0,0-4.628-4.627h-.473V21.023a9.424,9.424,0,0,0,3.146-3.589h6.806a8.091,8.091,0,1,0,0-8.394h-6.8a9.394,9.394,0,0,0-16.826,0h-6.8a8.091,8.091,0,1,0,0,8.394H44.39a9.423,9.423,0,0,0,3.146,3.588v4.8h-.473a4.627,4.627,0,0,0-4.627,4.627v5.818A18.646,18.646,0,0,0,37.2,41.78H17.33A15.893,15.893,0,0,0,1.436,57.673V83.979A1.331,1.331,0,0,0,2.768,85.31H19.886a1.331,1.331,0,0,0,1.331-1.331V66.673A4.482,4.482,0,0,1,25.7,62.191H37.768a18.627,18.627,0,0,0,30.589,0H80.179A6.762,6.762,0,0,0,85.744,68.5l6.063,1.29a.918.918,0,0,0,1.11-.9V36.744A.918.918,0,0,0,91.807,35.846ZM61.743,12.084h8.173l.4-.9a5.015,5.015,0,0,1,1.93-2.212,2.858,2.858,0,0,1,3.184.112,5.074,5.074,0,0,1-.923,8.8,1.862,1.862,0,0,1-1.425.033,5.035,5.035,0,0,1-2.763-2.628l-.4-.9H65.277l-3.557-.04A5.992,5.992,0,0,0,61.743,12.084Zm-14.926,3.3-.359-.992H35.683l-.333.743A5.2,5.2,0,0,1,31.8,18.16a5.052,5.052,0,1,1,3.487-6.978l.4.9H46.457l.363-1.006A6.356,6.356,0,0,1,51,7.147a3.781,3.781,0,0,1,2.9.341A5.792,5.792,0,0,1,57.042,12.3a7.135,7.135,0,0,1-1.41,4.969c-.76.783-1.442,1.378-1.442,1.378v7.169H50.58V19.263l-.8-.432A6.412,6.412,0,0,1,46.817,15.383ZM45.479,30.444a1.584,1.584,0,0,1,1.584-1.584H52.8v4.069a18.588,18.588,0,0,0-7.321,1.616ZM60.058,57.606c-5.046,7.287-15.845,7.8-20.835.473a11.658,11.658,0,0,1-1.657-3.556c-.028-.131-.064-.26-.088-.393L23.3,54.1A10.673,10.673,0,0,0,12.627,64.774V82.266H4.48V57.674A12.851,12.851,0,0,1,17.331,44.823H38.97l.434-.787a15.6,15.6,0,0,1,13.658-8.072H53.1a8.225,8.225,0,0,1,6.4,3.153,15.6,15.6,0,0,1,.556,18.489ZM80.115,44.823v9.151H71.38a17.209,17.209,0,0,0-1.129-9.151Zm3.072-.982a3.782,3.782,0,0,1,3.191-3.729l3.5-.744V56.3c-6.378-.811-6.687-1.741-6.687-1.741ZM89.874,66.27l-.157-.034.157.006Z" style="fill:#275bde"/></svg>