<svg id="f55c8d9b-77b1-495a-a134-385a2e11d04b" data-name="Layer 1" xmlns="http://www.w3.org/2000/svg" viewBox="0 0 95 95"><path d="M59.731,28.357a.814.814,0,0,0-.752,1.444l9.512,4.959V45.892a.814.814,0,0,0,1.628,0V34.76L79.631,29.8a.814.814,0,0,0-.752-1.444l-9.574,4.991Z" style="fill:#275bde"/><path d="M39.081,41.182a.814.814,0,0,0-.752,1.444l9.511,4.959V58.717a.814.814,0,0,0,1.628,0V47.585l9.513-4.959a.814.814,0,1,0-.752-1.444l-9.575,4.991Z" style="fill:#275bde"/><path d="M16.405,27.767a.814.814,0,1,0-.752,1.444l9.512,4.958V45.3a.814.814,0,0,0,1.628,0V34.169l9.512-4.958a.814.814,0,1,0-.752-1.444l-9.574,4.991Z" style="fill:#275bde"/><path d="M38.917,65.336a.814.814,0,1,0-.752,1.444l9.511,4.958V82.87a.815.815,0,0,0,1.629,0V71.738l9.512-4.958a.814.814,0,1,0-.752-1.444l-9.574,4.991Z" style="fill:#275bde"/><path d="M48.491,65.554a1.831,1.831,0,0,1-.917-.246l-14.43-8.331a1.832,1.832,0,0,1-.917-1.589V38.727a1.832,1.832,0,0,1,.917-1.589l14.43-8.331a1.832,1.832,0,0,1,1.834,0l14.43,8.331a1.832,1.832,0,0,1,.917,1.589V55.388a1.832,1.832,0,0,1-.917,1.589l-14.43,8.331A1.831,1.831,0,0,1,48.491,65.554ZM35.9,54.329l12.6,7.272,12.6-7.272V39.786L48.491,32.514,35.9,39.786Z" style="fill:#275bde"/><path d="M69.24,78.433a1.835,1.835,0,0,1-.918-.246l-2.27-1.84-.029-4.18L69.24,74.48l12.594-7.272V52.665l-4.086-2.424,3.434-2.1,3.4,1.881a1.835,1.835,0,0,1,.917,1.589V68.267a1.832,1.832,0,0,1-.917,1.589L70.157,78.187A1.831,1.831,0,0,1,69.24,78.433Z" style="fill:#275bde"/><path d="M26.624,78.433a1.831,1.831,0,0,0,.917-.246l2.271-1.84.029-4.18L26.624,74.48,14.03,67.208V52.665l4.086-2.424-3.434-2.1-3.4,1.881a1.835,1.835,0,0,0-.917,1.589V68.267a1.832,1.832,0,0,0,.917,1.589l14.429,8.331A1.831,1.831,0,0,0,26.624,78.433Z" style="fill:#275bde"/><path d="M48.49,90a1.831,1.831,0,0,1-.917-.246L33.144,81.427a1.834,1.834,0,0,1-.917-1.588V63.177a1.837,1.837,0,0,1,.917-1.589l1.44-.72,3.515,2.1-2.2,1.272V78.779L48.49,86.051l12.6-7.272V64.236L58.443,62.71l3.65-2.134,1.744,1.012a1.836,1.836,0,0,1,.918,1.589V79.839a1.833,1.833,0,0,1-.918,1.588L49.408,89.758A1.832,1.832,0,0,1,48.49,90Z" style="fill:#275bde"/><path d="M69.239,52.908a1.831,1.831,0,0,1-.917-.246l-1.915-1.384.008-3.954,2.824,1.631,12.6-7.272V27.14L69.239,19.868l-12.6,7.272v4.117l-3.668-2.435V26.081a1.832,1.832,0,0,1,.917-1.589l14.429-8.33a1.832,1.832,0,0,1,1.834,0l14.43,8.33a1.832,1.832,0,0,1,.917,1.589V42.742a1.835,1.835,0,0,1-.917,1.589l-14.43,8.331A1.831,1.831,0,0,1,69.239,52.908Z" style="fill:#275bde"/><path d="M26.093,52.908a1.831,1.831,0,0,0,.917-.246l1.915-1.384-.008-3.954-2.824,1.631L13.5,41.683V27.14l12.6-7.272L38.687,27.14v4.117l3.669-2.435V26.081a1.834,1.834,0,0,0-.917-1.589L27.01,16.162a1.834,1.834,0,0,0-1.835,0l-14.429,8.33a1.832,1.832,0,0,0-.917,1.589V42.742a1.835,1.835,0,0,0,.917,1.589l14.429,8.331A1.835,1.835,0,0,0,26.093,52.908Z" style="fill:#275bde"/><path d="M64.755,16.71l-3.669,2.006v-3.74L48.491,7.7,35.9,14.976v3.74L32.227,16.71V13.917a1.837,1.837,0,0,1,.917-1.589L47.574,4a1.839,1.839,0,0,1,1.835,0l14.428,8.331a1.836,1.836,0,0,1,.918,1.589Z" style="fill:#275bde"/><path d="M59.731,28.357a.814.814,0,0,0-.752,1.444l9.512,4.959V45.892a.814.814,0,0,0,1.628,0V34.76L79.631,29.8a.814.814,0,0,0-.752-1.444l-9.574,4.991Z" style="fill:#275bde"/><path d="M39.081,41.182a.814.814,0,0,0-.752,1.444l9.511,4.959V58.717a.814.814,0,0,0,1.628,0V47.585l9.513-4.959a.814.814,0,1,0-.752-1.444l-9.575,4.991Z" style="fill:#275bde"/><path d="M16.405,27.767a.814.814,0,1,0-.752,1.444l9.512,4.958V45.3a.814.814,0,0,0,1.628,0V34.169l9.512-4.958a.814.814,0,1,0-.752-1.444l-9.574,4.991Z" style="fill:#275bde"/><path d="M38.917,65.336a.814.814,0,1,0-.752,1.444l9.511,4.958V82.87a.815.815,0,0,0,1.629,0V71.738l9.512-4.958a.814.814,0,1,0-.752-1.444l-9.574,4.991Z" style="fill:#275bde"/><path d="M48.491,65.554a1.831,1.831,0,0,1-.917-.246l-14.43-8.331a1.832,1.832,0,0,1-.917-1.589V38.727a1.832,1.832,0,0,1,.917-1.589l14.43-8.331a1.832,1.832,0,0,1,1.834,0l14.43,8.331a1.832,1.832,0,0,1,.917,1.589V55.388a1.832,1.832,0,0,1-.917,1.589l-14.43,8.331A1.831,1.831,0,0,1,48.491,65.554ZM35.9,54.329l12.6,7.272,12.6-7.272V39.786L48.491,32.514,35.9,39.786Z" style="fill:#275bde"/><path d="M69.24,78.433a1.835,1.835,0,0,1-.918-.246l-2.27-1.84-.029-4.18L69.24,74.48l12.594-7.272V52.665l-4.086-2.424,3.434-2.1,3.4,1.881a1.835,1.835,0,0,1,.917,1.589V68.267a1.832,1.832,0,0,1-.917,1.589L70.157,78.187A1.831,1.831,0,0,1,69.24,78.433Z" style="fill:#275bde"/><path d="M26.624,78.433a1.831,1.831,0,0,0,.917-.246l2.271-1.84.029-4.18L26.624,74.48,14.03,67.208V52.665l4.086-2.424-3.434-2.1-3.4,1.881a1.835,1.835,0,0,0-.917,1.589V68.267a1.832,1.832,0,0,0,.917,1.589l14.429,8.331A1.831,1.831,0,0,0,26.624,78.433Z" style="fill:#275bde"/><path d="M48.49,90a1.831,1.831,0,0,1-.917-.246L33.144,81.427a1.834,1.834,0,0,1-.917-1.588V63.177a1.837,1.837,0,0,1,.917-1.589l1.44-.72,3.515,2.1-2.2,1.272V78.779L48.49,86.051l12.6-7.272V64.236L58.443,62.71l3.65-2.134,1.744,1.012a1.836,1.836,0,0,1,.918,1.589V79.839a1.833,1.833,0,0,1-.918,1.588L49.408,89.758A1.832,1.832,0,0,1,48.49,90Z" style="fill:#275bde"/><path d="M69.239,52.908a1.831,1.831,0,0,1-.917-.246l-1.915-1.384.008-3.954,2.824,1.631,12.6-7.272V27.14L69.239,19.868l-12.6,7.272v4.117l-3.668-2.435V26.081a1.832,1.832,0,0,1,.917-1.589l14.429-8.33a1.832,1.832,0,0,1,1.834,0l14.43,8.33a1.832,1.832,0,0,1,.917,1.589V42.742a1.835,1.835,0,0,1-.917,1.589l-14.43,8.331A1.831,1.831,0,0,1,69.239,52.908Z" style="fill:#275bde"/><path d="M26.093,52.908a1.831,1.831,0,0,0,.917-.246l1.915-1.384-.008-3.954-2.824,1.631L13.5,41.683V27.14l12.6-7.272L38.687,27.14v4.117l3.669-2.435V26.081a1.834,1.834,0,0,0-.917-1.589L27.01,16.162a1.834,1.834,0,0,0-1.835,0l-14.429,8.33a1.832,1.832,0,0,0-.917,1.589V42.742a1.835,1.835,0,0,0,.917,1.589l14.429,8.331A1.835,1.835,0,0,0,26.093,52.908Z" style="fill:#275bde"/><path d="M64.755,16.71l-3.669,2.006v-3.74L48.491,7.7,35.9,14.976v3.74L32.227,16.71V13.917a1.837,1.837,0,0,1,.917-1.589L47.574,4a1.839,1.839,0,0,1,1.835,0l14.428,8.331a1.836,1.836,0,0,1,.918,1.589Z" style="fill:#275bde"/></svg>