<svg xmlns="http://www.w3.org/2000/svg" id="fa89a766-c0d6-45d5-9657-f4dcff304131" data-name="Layer 1" viewBox="0 0 95 95">
  <path fill="#2043b5" d="M80.518 5.053H23.4a11.683 11.683 0 0 0-11.669 11.67v60.56h.03c-.012.2-.03.4-.03.6a10.112 10.112 0 0 0 10.1 10.1h2.039v1.752a3 3 0 0 0 6 0V87.98h50.442a2.958 2.958 0 0 0 2.954-2.954V7.8a2.752 2.752 0 0 0-2.748-2.747ZM21.834 82.98a5.1 5.1 0 0 1 0-10.2h2.036v10.2Zm56.432 0H29.87v-10.2h48.4Zm-56.432-15.2a10.022 10.022 0 0 0-5.1 1.4V16.723a6.677 6.677 0 0 1 6.669-6.67h54.863v57.726Z"/>
  <path fill="#2043b5" d="M26.974 19.571h41.052v6H26.974zm5.288 11.19h30.476v6H32.262z"/>
</svg>
