<svg id="a9585ec0-810d-405e-8070-19455a6856da" data-name="Layer 1" xmlns="http://www.w3.org/2000/svg" viewBox="0 0 95 95"><path d="M80.518,4.6H23.4a11.683,11.683,0,0,0-11.669,11.67V76.83h.03c-.012.2-.03.395-.03.6a10.111,10.111,0,0,0,10.1,10.1H23.87v1.753a3,3,0,0,0,6,0V87.526H80.312a2.957,2.957,0,0,0,2.954-2.953V7.348A2.752,2.752,0,0,0,80.518,4.6ZM21.834,82.526a5.1,5.1,0,1,1,0-10.2H23.87v10.2Zm56.432,0H29.87v-10.2h48.4Zm-56.432-15.2a10.022,10.022,0,0,0-5.1,1.4V16.269A6.677,6.677,0,0,1,23.4,9.6H78.266V67.326Z" style="fill:#275bde"/><rect x="26.974" y="19.118" width="41.052" height="6" style="fill:#275bde"/><rect x="32.262" y="30.307" width="30.476" height="6" style="fill:#275bde"/></svg>