<svg id="a818e3ce-ebc7-4f3d-9838-9e33525d49d2" data-name="Layer 1" xmlns="http://www.w3.org/2000/svg" viewBox="0 0 95 95"><path d="M89.947,58.415h0l-10.031-20a1.012,1.012,0,0,0-.91-.563H68.555V12.283A1.083,1.083,0,0,0,67.473,11.2H26.088a1.083,1.083,0,0,0-1.082,1.082V37.848H14.768a1.014,1.014,0,0,0-.906.555L3.62,58.41a1.678,1.678,0,0,0-.183.758v25.2a.929.929,0,0,0,.928.927H89.2a.929.929,0,0,0,.928-.927v-25.2A1.675,1.675,0,0,0,89.947,58.415ZM29.384,46.832V15.579H64.177V46.832Zm42.8,4.379V46.832H68.555V42.227h8.35l7.127,14.548H9.747l7.127-14.548h8.132v4.605h-3.63v4.379Zm13.46,10.2V80.831H8.137V61.409Z" style="fill:#275bde"/></svg>