<?xml version="1.0" encoding="utf-8"?>
<!-- Generator: Adobe Illustrator 24.0.0, SVG Export Plug-In . SVG Version: 6.00 Build 0)  -->
<svg version="1.1" id="Layer_1" xmlns="http://www.w3.org/2000/svg" xmlns:xlink="http://www.w3.org/1999/xlink" x="0px" y="0px"
	 viewBox="0 0 17 17.1" style="enable-background:new 0 0 17 17.1;" xml:space="preserve">
<style type="text/css">
	.st0{fill:none;}
	.st1{fill:#2043B5;}
</style>
<path class="st0" d="M-3-3h24v24H-3V-3z"/>
<path class="st1" d="M11.9,10.6h-0.7L11,10.4c1-1.2,1.5-2.8,1.3-4.5c-0.4-2.4-2.4-4.2-4.8-4.5C3.9,0.9,0.9,3.9,1.3,7.5
	c0.3,2.4,2.2,4.4,4.5,4.8c1.7,0.3,3.3-0.2,4.5-1.3l0.2,0.2v0.7l3.6,3.6c0.3,0.3,0.9,0.3,1.3,0c0.3-0.3,0.3-0.9,0-1.3L11.9,10.6z
	 M6.8,10.6C4.7,10.6,3,8.9,3,6.8S4.7,3,6.8,3s3.8,1.7,3.8,3.8S8.9,10.6,6.8,10.6z"/>
</svg>
