<svg id="ff2e3276-620b-4b7f-be9f-1c945b5a2439" data-name="Layer 1" xmlns="http://www.w3.org/2000/svg" viewBox="0 0 95 95"><path d="M85.945,61.407A53.209,53.209,0,0,1,51.75,58C33.53,49.829,22.132,33.315,21.414,16.621a.878.878,0,0,0-1.436-.628A41.965,41.965,0,1,0,86.932,62.484.816.816,0,0,0,85.945,61.407Z" style="fill:#275bde"/><path d="M89.257,41.634h0A41.962,41.962,0,0,0,47.711,5.582a42.824,42.824,0,0,0-6.821.538c-.718.18-1.436.27-2.154.449C24.286,9.71,27.966,16.711,48.07,23.891c8.507,3.08,15.185,5.5,20.45,7.431,3.894,10.627,10.957,16.143,20.269,23.232a.358.358,0,0,0,.572-.223,40.837,40.837,0,0,0,.445-6.054A40.049,40.049,0,0,0,89.257,41.634Zm-2.951,6.554c-5.689-4.595-10.192-8.894-13.173-15.16,5.872,2.191,9.45,3.618,11.7,4.7A44.153,44.153,0,0,1,86.306,48.188Z" style="fill:#275bde"/></svg>