<svg id="ef8f9707-79a9-4b67-9ed4-209c2af099c0" data-name="Layer 1" xmlns="http://www.w3.org/2000/svg" viewBox="0 0 95 95"><path d="M90.434,63.65H4.566a1.5,1.5,0,0,0-1.5,1.5v6.418A7.634,7.634,0,0,0,10.7,79.2H84.3a7.634,7.634,0,0,0,7.634-7.634V65.15A1.5,1.5,0,0,0,90.434,63.65Zm-3.5,7.918A2.637,2.637,0,0,1,84.3,74.2H10.7a2.637,2.637,0,0,1-2.634-2.634V68.65H86.933Z" style="fill:#275bde"/><path d="M7.94,61.305h3.74a.63.63,0,0,0,.63-.63V25.617c0-2.657,1.788-4.819,3.984-4.819H78.706c2.2,0,3.984,2.162,3.984,4.819V60.675a.63.63,0,0,0,.63.63h3.74a.63.63,0,0,0,.63-.63V25.617c0-5.414-4.03-9.819-8.984-9.819H16.294c-4.954,0-8.984,4.4-8.984,9.819V60.675A.63.63,0,0,0,7.94,61.305Z" style="fill:#275bde"/><path d="M71.393,29.672,58.13,41.709a.649.649,0,0,1-.757.083l-15.9-9.052a.649.649,0,0,0-.754.081l-20.125,18.1a.647.647,0,0,0-.048.915l2.143,2.382a.648.648,0,0,0,.915.049L41.661,38.026l16.321,9.291a.648.648,0,0,0,.756-.083L74.417,33a.648.648,0,0,0,.044-.916l-2.153-2.372A.647.647,0,0,0,71.393,29.672Z" style="fill:#275bde"/></svg>