<svg id="e05623e1-5fd7-4f02-9421-6cad86e36c21" data-name="Layer 1" xmlns="http://www.w3.org/2000/svg" viewBox="0 0 95 95"><path d="M86.05,17.22,69.579,7.712a2,2,0,0,0-2,0L51.109,17.22a2,2,0,0,0-1,1.732V37.971a2,2,0,0,0,1,1.732l16.47,9.509a2,2,0,0,0,2,0L86.05,39.7a2,2,0,0,0,1-1.732V18.952A2,2,0,0,0,86.05,17.22Zm-3,19.6L68.579,45.171l-14.47-8.355V20.107l14.47-8.354L83.05,20.107Z" style="fill:#275bde"/><path d="M17.528,43.792a2,2,0,0,0,2-2V25.752H33.882L31.434,28.2a2,2,0,1,0,2.828,2.828l5.905-5.9a2,2,0,0,0,0-2.828l-5.905-5.9a2,2,0,0,0-2.828,2.829l2.532,2.531H17.528a2,2,0,0,0-2,2v18.04A2,2,0,0,0,17.528,43.792Z" style="fill:#275bde"/><path d="M79.673,53.774a2,2,0,0,0-2,2v16.04H63.319l2.447-2.448a2,2,0,0,0-2.828-2.828l-5.9,5.9a2,2,0,0,0,0,2.828l5.9,5.9a2,2,0,0,0,2.828-2.828l-2.531-2.531H79.673a2,2,0,0,0,2-2V55.774A2,2,0,0,0,79.673,53.774Z" style="fill:#275bde"/><path d="M44.719,53.846H10.082a2,2,0,0,0-2,2v27.71a2,2,0,0,0,2,2H44.719a2,2,0,0,0,2-2V55.846A2,2,0,0,0,44.719,53.846Zm-2,4V73.322l-4.575-4.181a1,1,0,0,0-1.352,0L29.81,75.585l-8.1-8.1a1,1,0,0,0-1.349-.06l-8.278,6.933V57.846ZM12.082,76.964l8.86-7.419L32.953,81.556H12.082Zm23.7,4.592L31.226,77l6.246-5.763,5.247,4.8v5.524Z" style="fill:#275bde"/><path d="M30.662,68.756a3.983,3.983,0,1,0-3.983-3.983A3.987,3.987,0,0,0,30.662,68.756Zm0-5.965a1.983,1.983,0,1,1-1.983,1.982A1.984,1.984,0,0,1,30.662,62.791Z" style="fill:#275bde"/><path d="M56.82,20.7a1,1,0,1,0-.924,1.774l11.683,6.09V42.232a1,1,0,0,0,2,0V28.559l11.683-6.09a1,1,0,0,0-.923-1.774l-11.76,6.131Z" style="fill:#275bde"/></svg>