<svg id="b7589069-7d6f-4d2a-bf0c-36f2f227eabd" data-name="Layer 1" xmlns="http://www.w3.org/2000/svg" viewBox="0 0 95 95"><path d="M80.905,49a5.579,5.579,0,1,0,4-6.8,5.426,5.426,0,0,0-4,4h-12.7V33.7a6.914,6.914,0,0,1,6.9-6.9h5.7a5.579,5.579,0,1,0,4-6.8,5.426,5.426,0,0,0-4,4h-5.7a9.709,9.709,0,0,0-9.7,9.7V46.2h-11.1V49h11.1V62.8a9.709,9.709,0,0,0,9.7,9.7h6.3a5.539,5.539,0,1,0,1.9-7.6,5.933,5.933,0,0,0-2.6,4.9h-5.6a6.914,6.914,0,0,1-6.9-6.9V49Z" style="fill:#275bde"/><path d="M51.105,20.4V74.7h-43V20.4h43m4-5h-51a1,1,0,0,0-1,1V78.6a1,1,0,0,0,1,1h50.9a1,1,0,0,0,1-1V16.4a.919.919,0,0,0-.9-1Z" style="fill:#275bde"/><rect x="13.305" y="26.5" width="32.1" height="4" style="fill:#275bde"/><rect x="13.305" y="37" width="32.1" height="4" style="fill:#275bde"/><rect x="13.305" y="47.4" width="22.1" height="4" style="fill:#275bde"/><path d="M44.205,66.4h-3.4a2.547,2.547,0,0,1-2.4-2.6c0-1.5-.5-2.3-1.3-2.6-1-.3-2,.4-3,2a1.38,1.38,0,0,1-.3.4c0-1.4-.5-2.2-1.3-2.4-1-.3-2,.4-3,2a1.38,1.38,0,0,1-.3.4c0-1.4-.5-2.2-1.3-2.4-1-.3-2,.4-2.9,2a14.7,14.7,0,0,1-.3-3.1c0-2.6-.3-4.2-1.6-4.4s-2,1.5-2.6,3.3l-.5,1.6c-1.1,3.5-1.9,5.9-3.3,5.9h-2.3a1.1,1.1,0,0,0,0,2.2h2.3c3.1,0,4.2-3.6,5.4-7.5l.4-1.3v.2c0,3.4.6,5.3,1.9,5.7.5.1,1.5.2,2.4-1.3a1.38,1.38,0,0,1,.3-.4c0,1.4.5,2.2,1.3,2.4,1,.3,2-.4,3-2a1.38,1.38,0,0,1,.3-.4c0,1.4.5,2.2,1.3,2.4,1,.3,2-.4,3-2a1.38,1.38,0,0,1,.3-.4,4.725,4.725,0,0,0,4.5,4.7h3.4a1.11,1.11,0,0,0,1.1-1.1A1.168,1.168,0,0,0,44.205,66.4Z" style="fill:#275bde"/></svg>