<svg id="b624dce3-a819-4979-918b-4df25e33564c" data-name="Layer 1" xmlns="http://www.w3.org/2000/svg" viewBox="0 0 95 95"><path d="M88.681,91.538H6.319a2.857,2.857,0,0,1-2.857-2.857V6.319a2.857,2.857,0,1,1,5.713,0V85.825H88.681a2.857,2.857,0,1,1,0,5.713Z" style="fill:#275bde"/><path d="M15.05,47.512h0a3.585,3.585,0,0,0,3.6,3.6h57.5l-6.5,6.7a3.653,3.653,0,0,0,.1,5.2,3.535,3.535,0,0,0,5.1-.1l12.2-12.6a3.552,3.552,0,0,0,.6-5.1c-.2-.2-.4-.5-.7-.6l-12-12.6a3.631,3.631,0,0,0-2.6-1.1,3.671,3.671,0,0,0-3.7,3.6,3.631,3.631,0,0,0,1.1,2.6l6.5,6.7H18.75A3.757,3.757,0,0,0,15.05,47.512Z" style="fill:#275bde;fill-rule:evenodd"/></svg>