<svg xmlns="http://www.w3.org/2000/svg" id="b185991f-dd16-4df0-a2e3-e35ab18e529e" data-name="Layer 1" viewBox="0 0 95 95">
  <path fill="#2043b5" d="M88.8 29.368h-3.584V16.137A7.227 7.227 0 0 0 78 8.918H12.035a7.227 7.227 0 0 0-7.219 7.219v62.622a7.228 7.228 0 0 0 7.219 7.219H78a7.227 7.227 0 0 0 7.219-7.219V65.527H88.8a2.5 2.5 0 0 0 2.5-2.5V31.868a2.5 2.5 0 0 0-2.5-2.5Zm-8.584 49.391A2.222 2.222 0 0 1 78 80.978H12.035a2.222 2.222 0 0 1-2.219-2.219V16.137a2.222 2.222 0 0 1 2.219-2.219H78a2.221 2.221 0 0 1 2.219 2.219v13.231H51.25a7 7 0 0 0-6.99 6.99v22.179a7 7 0 0 0 6.99 6.99h28.966ZM86.3 60.527H51.25a1.991 1.991 0 0 1-1.99-1.99V36.358a1.992 1.992 0 0 1 1.99-1.99H86.3Z"/>
  <circle cx="60.408" cy="47.448" r="5.919" fill="#2043b5"/>
</svg>
