<svg xmlns="http://www.w3.org/2000/svg" id="b1923a53-4e0c-4cdb-a231-b235fe951693" data-name="Layer 1" viewBox="0 0 95 95">
  <path fill="#2043b5" d="M47.5 13.334h-.092l2.945-3.413a3.5 3.5 0 1 0-5.3-4.573l-8.438 9.78a3.5 3.5 0 0 0 .363 4.936l9.981 8.612a3.5 3.5 0 1 0 4.573-5.3l-3.514-3.032a31.76 31.76 0 0 1-.518 63.519 3.5 3.5 0 0 0 0 7 38.765 38.765 0 1 0 0-77.529ZM34.715 81.186a31.772 31.772 0 0 1-5.766-54.876 3.5 3.5 0 1 0-4.094-5.677 38.936 38.936 0 0 0-8.27 8.073A38.781 38.781 0 0 0 31.9 87.593a3.5 3.5 0 0 0 2.82-6.407Z"/>
</svg>
