<svg id="f1475bf7-39e6-4f64-9284-3fd4b1000ebb" data-name="Layer 1" xmlns="http://www.w3.org/2000/svg" viewBox="0 0 95 95"><path d="M47.5,13.334c-.03,0-.061,0-.092,0l2.945-3.413a3.5,3.5,0,1,0-5.3-4.573l-8.438,9.78a3.5,3.5,0,0,0,.363,4.936l9.981,8.612a3.5,3.5,0,1,0,4.573-5.3l-3.514-3.032A31.76,31.76,0,0,1,47.5,83.863a3.5,3.5,0,0,0,0,7,38.765,38.765,0,1,0,0-77.529Z" style="fill:#275bde"/><path d="M34.715,81.186A31.772,31.772,0,0,1,28.949,26.31a3.5,3.5,0,1,0-4.094-5.677,38.936,38.936,0,0,0-8.27,8.073A38.781,38.781,0,0,0,31.9,87.593a3.5,3.5,0,0,0,2.82-6.407Z" style="fill:#275bde"/></svg>