<svg xmlns="http://www.w3.org/2000/svg" id="f75d0399-808d-4214-a1f2-eb4a700827bd" data-name="Layer 1" viewBox="0 0 95 95">
  <path fill="#2043b5" d="M84.087 11.242H10.5a8.088 8.088 0 0 0-8.079 8.079v56.358a8.089 8.089 0 0 0 8.079 8.08h73.587a8.089 8.089 0 0 0 8.079-8.08V19.321a8.088 8.088 0 0 0-8.079-8.079Zm-73.585 5h73.585a3.082 3.082 0 0 1 3.079 3.079v11.207H7.423V19.321a3.082 3.082 0 0 1 3.077-3.079Zm73.585 62.517H10.5a3.083 3.083 0 0 1-3.079-3.08V35.528h79.745v40.151a3.083 3.083 0 0 1-3.079 3.08Z"/>
  <path fill="#2043b5" d="M15.562 27.136a3.537 3.537 0 1 0-3.537-3.536 3.537 3.537 0 0 0 3.537 3.536Zm11.108 0a3.537 3.537 0 1 0-3.536-3.536 3.536 3.536 0 0 0 3.536 3.536Zm1.582 20.654 7.671 7.671-7.671 7.671 3.536 3.535 11.206-11.206-11.206-11.206-3.536 3.535zm17.344 13.842h18.973v5H45.596z"/>
</svg>
