<svg id="bf7ba3f0-64d1-4110-8bb5-4e95fa0e08c3" data-name="Layer 1" xmlns="http://www.w3.org/2000/svg" viewBox="0 0 95 95"><path d="M6.638,6.638V88.362H88.362V6.638ZM84.277,40.067c-1.41.811-6.316,3.371-10.272,2.218-5.442-1.587-7.506-3.841-7.566-4.966l-.022-.491c-.078-1.888-.174-4.237-4.285-4.664a59.389,59.389,0,0,1-8.451-1.618,28.791,28.791,0,0,0-9.887-1.307l-.457.009c-2.5.049-6.267.121-7.234,3.894a25.641,25.641,0,0,1-1.513,4.1c-.921,2.094-1.715,3.9-.715,5.7.233.42.444.9.679,1.441.79,1.814,1.774,4.071,4.583,5.476a23.043,23.043,0,0,1,4.889,3.53,13.943,13.943,0,0,1,1.2,1.307,12.044,12.044,0,0,0,2.084,2.077,9.036,9.036,0,0,0,1.06.636,3.975,3.975,0,0,1,1.026.681c1.312,1.39.881,3.907.358,5.945a44.5,44.5,0,0,0-.954,5.757,43.885,43.885,0,0,1-.789,4.985c-.476,1.993-2.772,4.406-4.535,5.325a5.134,5.134,0,0,0-2.633,4.257h-3.5c.234-1.738.726-4.259,1.511-4.913,1.463-1.219,3.819-6.986,1.99-10.033-1.628-2.715-1.532-7.129-.24-7.96a2.955,2.955,0,0,0,1-3.192A2.782,2.782,0,0,0,39.2,56.012a4.3,4.3,0,0,0-2.966.935,3.168,3.168,0,0,1-2.18.745c-1.3-.137-2.883-.437-3.6-1.554-.542-.848-.536-2.1.02-3.735,1.606-4.71.436-7.636.23-8.089a20.422,20.422,0,0,1,.772-9.693c1.111-2.848-1.192-3.993-3.224-5-1.692-.841-3.288-1.635-3.468-3.248a4.491,4.491,0,0,1,1.589-4.1c1.63-1.341,4.164-1.607,6.956-.732a8.831,8.831,0,0,1,4.574,2.933,2.846,2.846,0,0,0,3.362,1.217c3.633-.847,6.2-2.895,6.778-4.39.424-1.1.982-1.541,2.847-.883A32.647,32.647,0,0,0,56.814,21.5l.431.051a5.175,5.175,0,0,1,4.273,3.014,3.221,3.221,0,0,0,1.925,1.99c1.1.3,2.277-.286,3.708-1.266A7.323,7.323,0,0,0,69.006,23.1c.99-1.533,1.91-2.984,4.491-2.778a6.967,6.967,0,0,1,3.244,1.018,5.319,5.319,0,0,1,.822.714,2.674,2.674,0,0,0,2.606,1.092,6.976,6.976,0,0,0,2.894-2c.233-.226.456-.442.67-.631l.233-.2c.125-.109.261-.231.4-.352V40.018Zm.085-26.116a10.7,10.7,0,0,1-7.1,1.762,20.773,20.773,0,0,0-12.2,2.055c-2.338,1.172-7.582-1.246-8.2-1.539-.507-.5-4.285-4.077-8.185-2.965-2.6.743-4.674,1.54-6.34,2.18-.868.334-1.618.622-2.3.848a10.783,10.783,0,0,0-2.224,1.127,3.684,3.684,0,0,1-2.489.876c-.077-.017-8.031-1.523-10.519.412-.247.191-.483.367-.706.535-1.621,1.21-2.791,2.084-2.47,4.867l.081.744c.257,2.423.418,3.077,3.088,5.234l.544.437c2.425,1.95,3.077,2.474,2.891,4.243A76.542,76.542,0,0,0,27.9,44a5.418,5.418,0,0,1-1.632,4.281c-.256.305-.513.614-.756.954-1.245,1.743-1.569,4.617-.068,6.118a8.492,8.492,0,0,1,1.363,2.136,6.225,6.225,0,0,0,1.958,2.624A15.538,15.538,0,0,0,31.7,61.282a10.066,10.066,0,0,1,2.921,1.24c.842.842,3.214,4.562,2.908,6.709a13.473,13.473,0,0,0-.113,4.249,16.433,16.433,0,0,1-2.178,7.68,12,12,0,0,0-1.514,3.2H30.208a22.418,22.418,0,0,0,1.819-2.182l.74-.98a16.149,16.149,0,0,0,3.34-5.982,9.258,9.258,0,0,0-.54-5.385,15.491,15.491,0,0,1-.675-2.577c-.347-2.359-5.2-5.1-10.4-7.706-.374-.188-.7-.352-.964-.488a2.575,2.575,0,0,1-1.03-1.85c-.5-2.667.52-6.959,1.391-7.939,1.3-1.465,2.95-4.808,2.95-5.721,0-.731.081-5.112.081-5.114.007-.224.129-5.488-3.478-7.291-2.418-1.209-2.435-3.2-2.457-5.73-.007-.754-.013-1.533-.089-2.329a8.138,8.138,0,0,0-3.546-5.583,2.076,2.076,0,0,1,.3-2.022c.744-.721,2.5-.687,5.206.1l.134.039c1.176.333,3.819-.845,7.43-2.544L30.6,13a6.906,6.906,0,0,1,4.973-.315l.089.023c3.969.548,6.854.088,8.58-1.366a4.468,4.468,0,0,0,.659-.7H62.707a6.339,6.339,0,0,0,2.529,2.28,5.57,5.57,0,0,0,2.391.568,3,3,0,0,0,1-.143,13.772,13.772,0,0,1,2.851-.083,31.7,31.7,0,0,0,6.191-.273,5.183,5.183,0,0,0,3.344-2.349h3.353ZM10.638,80.312a14.062,14.062,0,0,1,1.844.463,15.046,15.046,0,0,1,1.965,1.018,8.915,8.915,0,0,0,3.977,1.534h.031c.424,0,1.7-.265,1.962-.956a.806.806,0,0,0-.339-.949c-.709-.578-1.053-1.979-1.356-3.215a12.93,12.93,0,0,0-.54-1.835,10.62,10.62,0,0,1-.581-3.455,9.349,9.349,0,0,0-.877-4.145,4.355,4.355,0,0,0-1.894-1.685,38.35,38.35,0,0,0-4.192-1.031v-3a4.441,4.441,0,0,0,3.75-4.142s.818-4.97,2.391-6.292,2.642-4.97,2.642-4.97a11.635,11.635,0,0,0,2.139-6.229c.063-.881.126-3.964-4.4-5.348s-2.328-6.166-2.328-6.418,3.209-4.719.126-6.417-3.352-4.1-3.352-4.1a9.3,9.3,0,0,0-.964-2.267V10.638h4.6c-.048.03-.1.072-.145.1-.843.461-1.158,2.228-1.235,2.759-.3,2.072.031,4.933,1.848,6.751,2.733,2.733,3.2,4.268,3.107,6.144a7.916,7.916,0,0,1-.2,1.2c-.423,1.931-1.059,4.844,4.019,6.433a5.431,5.431,0,0,1,1.429,4.323,9.343,9.343,0,0,0,.2,3.392,3.817,3.817,0,0,1-.064,2.632,15.288,15.288,0,0,1-1.079,1.688,15.4,15.4,0,0,0-3.087,6.859,15.591,15.591,0,0,1-1.732,3.37,3.535,3.535,0,0,0-.256,3.172c.4,1.261,1.682,3.539,5.7,4.63,5.831,1.581,8.518,4.378,9.088,6.468.565,2.073,1.511,5.542-2.092,8.658a11.418,11.418,0,0,1-7.76,2.725l-.044,0-.043,0a2.351,2.351,0,0,0-2.067,2.19,2.245,2.245,0,0,0,.014.234h-10.2Zm32.844,4.05a2.526,2.526,0,0,1,1.211-1.936c2.351-1.226,5.189-4.194,5.869-7.039a46.453,46.453,0,0,0,.842-5.282,42.25,42.25,0,0,1,.891-5.417c.69-2.688,1.2-6.071-.991-8.392a6.313,6.313,0,0,0-1.69-1.19,7.03,7.03,0,0,1-.766-.451,9.94,9.94,0,0,1-1.637-1.667,15.67,15.67,0,0,0-1.429-1.537,25.617,25.617,0,0,0-5.475-3.931c-1.961-.981-2.638-2.534-3.353-4.179-.24-.551-.487-1.121-.79-1.666-.337-.607-.025-1.453.83-3.4a28.383,28.383,0,0,0,1.644-4.488c.407-1.587,1.734-1.867,4.752-1.926l.466-.01a26.1,26.1,0,0,1,9,1.174,61.615,61.615,0,0,0,9.009,1.739c1.858.192,1.868.417,1.939,2.171l.024.514c.153,2.918,3.684,5.663,9.447,7.345,4.079,1.189,8.554-.524,11.089-1.8V63.81a6.486,6.486,0,0,0-3.98-3.028,12.237,12.237,0,0,1-4.458-2.545,7.828,7.828,0,0,0-.707-.563c-2.05-1.367-4.028-1.053-5.426.862a19.032,19.032,0,0,0-2.164,4.387c-.167.429-.334.854-.506,1.27A9.992,9.992,0,0,1,63.7,68.526c-2.112,1.655-3.911,4.14-2.626,6.146,1.314,2.053,4.929,6.813,9.823,6.592a42.512,42.512,0,0,0,5.4-.768c2.959-.544,6.314-1.161,7.084-.238a10.575,10.575,0,0,1,.979,1.4v2.7Z" style="fill:#275bde"/><path d="M24.719,75.679a2.953,2.953,0,0,0,1.006.165,6.525,6.525,0,0,0,2.995-.931,1.816,1.816,0,0,0,.187-3.395c-2-1.595-2.847-1.685-3.1-1.659a3.586,3.586,0,0,0-2.552,1.3,2.973,2.973,0,0,0-.168,2.707A2.69,2.69,0,0,0,24.719,75.679Z" style="fill:#275bde"/></svg>