<svg id="f01716de-ff64-4ed2-971b-71cc6cfdfb0e" data-name="Layer 1" xmlns="http://www.w3.org/2000/svg" viewBox="0 0 95 95"><path d="M83.482,52.559V11.764h.307a.711.711,0,0,0,.711-.711V7.276a.711.711,0,0,0-.711-.711H12.5a.711.711,0,0,0-.711.711v3.777a.711.711,0,0,0,.711.711h.131v40.8H6.962V79.281A12.033,12.033,0,0,0,18.981,91.3H77.309A12.031,12.031,0,0,0,89.326,79.281V52.559ZM15.631,11.764H80.482v40.8H15.631ZM85.326,79.281A8.027,8.027,0,0,1,77.309,87.3H18.981a8.028,8.028,0,0,1-8.019-8.019V56.559H85.326Z" style="fill:#275bde;fill-rule:evenodd"/><path d="M35.5,76.673H60.788a2,2,0,0,0,2-2V66.821h-4v5.852H37.5V66.821h-4v7.852A2,2,0,0,0,35.5,76.673Z" style="fill:#275bde;fill-rule:evenodd"/><path d="M60.127,43.945a1.847,1.847,0,0,0-2.609-.079l-2.47,2.326L37.734,27.8l-1.767-3.665L29.61,18.8,26.673,21.56l4.946,6.667,3.552,1.985L52.485,48.6,50.173,50.78H63.056l-.611-.648a.364.364,0,0,1,.016-.515l1.328-1.251a.363.363,0,0,0,.016-.514Z" style="fill:#275bde;fill-rule:evenodd"/><polygon points="32.119 50.445 42.257 50.445 47.785 44.917 42.838 39.727 32.119 50.445" style="fill:#275bde;fill-rule:evenodd"/><path d="M68.847,22.885a.38.38,0,0,0-.611-.1l-5.272,5.271-3.387-3.387,5.27-5.27a.381.381,0,0,0-.1-.613,8.309,8.309,0,0,0-11.32,10.351l-6.754,6.754,4.947,5.191L58.5,34.206A8.308,8.308,0,0,0,68.847,22.885Z" style="fill:#275bde;fill-rule:evenodd"/></svg>