<svg id="aa31dc74-e4bf-4a25-b00c-72934febc68e" data-name="Layer 1" xmlns="http://www.w3.org/2000/svg" viewBox="0 0 95 95"><circle cx="47.38" cy="41.844" r="4.78" style="fill:#275bde"/><path d="M70.3,27.246h-2.89v-9.77a5.836,5.836,0,0,0-5.829-5.829H8.32a5.836,5.836,0,0,0-5.829,5.829V69.042c0,3.214,2.615,5.829,8.829,5.829H44.86V70.834H11.32c-3.988,0-4.791-.8-4.791-1.792V17.476A1.793,1.793,0,0,1,8.32,15.684H61.583a1.794,1.794,0,0,1,1.792,1.792v9.77H39.985a5.651,5.651,0,0,0-5.644,5.644V50.8a5.651,5.651,0,0,0,5.644,5.644h23.39v3.745h4.037V56.443H70.3a2.018,2.018,0,0,0,2.019-2.018V29.264A2.018,2.018,0,0,0,70.3,27.246Zm-2.018,25.16h-28.3A1.609,1.609,0,0,1,38.378,50.8V32.89a1.609,1.609,0,0,1,1.607-1.607h28.3Z" style="fill:#275bde"/><path d="M92.235,70.5,76.47,54.994a.918.918,0,0,0-1.561.654V62.22H47.974A1.279,1.279,0,0,0,46.7,63.5V78.957a1.279,1.279,0,0,0,1.279,1.279H74.909v6.419a.918.918,0,0,0,1.561.654l15.765-15.5A.918.918,0,0,0,92.235,70.5Z" style="fill:#275bde"/></svg>