<svg xmlns="http://www.w3.org/2000/svg" viewBox="0 0 47.27 51.11"><g id="e130ad3c-b328-4846-851a-c7a828eadaa3" data-name="Layer 2"><g id="bc4f21fc-6e89-4215-ad5e-639f2101b74c" data-name="Layer 6"><path d="M22.59,7.48a21,21,0,1,1-21,21,21,21,0,0,1,21-21m0-1.49A22.5,22.5,0,1,0,45.06,28.48,22.47,22.47,0,0,0,22.59,6Z"/><path d="M47.21,26.27A14,14,0,0,0,33.62,22a14,14,0,0,0-3.69,1.47,14.41,14.41,0,0,1-1.76.87,8.7,8.7,0,0,1-1.19.39,9.43,9.43,0,0,1-2.31.29,7.55,7.55,0,0,1-6.37-3.28c-2.38-3.59-1.24-7.95,2.35-10.33,2.36-1.45,5-2.37,7.12-4.37,2-1.85,2.75-3.41,2.28-6.83a.27.27,0,0,0-.52-.08c-1.18,2.9-5.75,4-8.45,4.79a49.73,49.73,0,0,0-8.87,3.49A22.69,22.69,0,0,0,1,35.32l.05.1A22.24,22.24,0,0,0,9.62,46.93c10.69,7.49,24,4.3,32.38-4.65.18-.19,0-.51-.24-.4a8.22,8.22,0,0,1-5,.63,8.05,8.05,0,0,1-6.41-6.4,8.18,8.18,0,0,1,4.61-9c.3-.12.61-.25.93-.36h0c3.14-1,7.25-.86,11.07-.06A.25.25,0,0,0,47.21,26.27Z" fill-rule="evenodd"/></g></g></svg>