<svg xmlns="http://www.w3.org/2000/svg" xmlns:xlink="http://www.w3.org/1999/xlink" viewBox="0 0 180.74 52"><defs><linearGradient id="b52383c1-d7b5-4a29-97ac-d544efc8cee7" x1="18.7" y1="31.3" x2="27.67" y2="52.43" gradientUnits="userSpaceOnUse"><stop offset="0" stop-color="#f7d45c"/><stop offset="1" stop-color="#de3633"/></linearGradient><linearGradient id="f05140aa-40fa-4ab6-a222-7a7d288664c0" x1="8.08" y1="10.09" x2="29.01" y2="33.61" xlink:href="#b52383c1-d7b5-4a29-97ac-d544efc8cee7"/></defs><g id="e041bea7-5c46-4803-8af7-512d0fb9dea1" data-name="Layer 2"><g id="a0941cc7-c0d6-43b0-91e8-4d16fac11eb2" data-name="Layer 6"><path d="M119.16,47.88h-8.53V44h-.12a10.18,10.18,0,0,1-1.22,1.66,7.93,7.93,0,0,1-1.81,1.48,10.81,10.81,0,0,1-2.43,1.07,10.28,10.28,0,0,1-3,.41,12.45,12.45,0,0,1-5.48-1,7.87,7.87,0,0,1-3.26-2.87,11.21,11.21,0,0,1-1.54-4.33A34.83,34.83,0,0,1,91.42,35V19.08h8.89v14.1q0,1.24.09,2.58a8,8,0,0,0,.54,2.46,3.81,3.81,0,0,0,4,2.55,5.42,5.42,0,0,0,2.78-.63,4.24,4.24,0,0,0,1.63-1.65,6.82,6.82,0,0,0,.74-2.35,19.72,19.72,0,0,0,.18-2.72V19.08h8.89Z" fill="#e04236"/><path d="M123.51,19.08H132V23h.12a6.94,6.94,0,0,1,1.19-1.66,8.46,8.46,0,0,1,1.83-1.48,10.38,10.38,0,0,1,2.43-1.07,10.06,10.06,0,0,1,3-.42,12.25,12.25,0,0,1,5.45,1,7.87,7.87,0,0,1,3.23,2.88,11.63,11.63,0,0,1,1.57,4.32,32.56,32.56,0,0,1,.41,5.4V47.88h-8.89V33.77c0-.83,0-1.69-.08-2.57a8,8,0,0,0-.54-2.46,3.81,3.81,0,0,0-4-2.55,5.53,5.53,0,0,0-2.78.62,4.26,4.26,0,0,0-1.63,1.66,6.49,6.49,0,0,0-.74,2.34,20,20,0,0,0-.18,2.73V47.88h-8.89Z" fill="#e04236"/><polygon points="70.76 9.59 61.52 9.59 61.52 47.88 87.89 47.88 87.89 39.34 70.76 39.34 70.76 9.59" fill="#e04236"/><path d="M153,39.59v-.11c0-6.42,5-9.38,12.15-9.38a21.75,21.75,0,0,1,7.37,1.21v-.5c0-3.45-2.2-5.37-6.47-5.37A22.67,22.67,0,0,0,157.73,27l-2.13-6.37a27.24,27.24,0,0,1,11.7-2.35c4.66,0,8,1.2,10.18,3.29S180.74,27,180.74,31V48h-8.27V44.86a11.72,11.72,0,0,1-9.11,3.73C157.68,48.59,153,45.41,153,39.59Zm19.63-1.92v-.49a1.46,1.46,0,0,0-1-1.38,13.93,13.93,0,0,0-4.45-.71c-3.65,0-5.9,1.43-5.9,4.06v.11c0,2.25,1.91,3.57,4.67,3.57C169.94,42.83,172.64,40.69,172.64,37.67Z" fill="#e04236"/><ellipse cx="22.98" cy="28.98" rx="22.85" ry="22.88" fill="#f2e373"/><path d="M32.27,26.6,1,35.92A22.7,22.7,0,0,0,9.78,47.74C20.66,55.37,34.22,52.12,42.73,43c.18-.2,0-.53-.25-.41a8.34,8.34,0,0,1-5.13.63,8.17,8.17,0,0,1-6.51-6.5,8.32,8.32,0,0,1,5.82-9.6Z" fill-rule="evenodd" fill="url(#b52383c1-d7b5-4a29-97ac-d544efc8cee7)"/><path d="M28.66,24.79a13.53,13.53,0,0,0,1.79-.88A14.16,14.16,0,0,1,48,26.73a.25.25,0,0,1-.25.4c-3.89-.82-8.09-1-11.29.07a15.63,15.63,0,0,0-8.63,7.4c-2.87,5-4.05,6.4-8.68,8.21C11.11,46,3.58,43.1,1,35.93A23.07,23.07,0,0,1,12.43,8.59a49.63,49.63,0,0,1,9-3.55c2.74-.78,7.4-1.92,8.6-4.87a.27.27,0,0,1,.52.07c.48,3.49-.32,5.07-2.32,7-2.16,2-4.84,3-7.24,4.44-3.66,2.43-4.82,6.86-2.39,10.52a7.65,7.65,0,0,0,6.48,3.33,9.82,9.82,0,0,0,2.35-.29A9.51,9.51,0,0,0,28.66,24.79Z" fill-rule="evenodd" fill="url(#f05140aa-40fa-4ab6-a222-7a7d288664c0)"/></g></g></svg>