<svg xmlns="http://www.w3.org/2000/svg" viewBox="0 0 179.92 51.11"><g id="e50439c0-01ac-4216-9ee8-5c3c75439786" data-name="Layer 2"><g id="a4f807f0-5cc2-466e-9be0-ab5638cccf7d" data-name="Layer 6"><path d="M118.34,47h-8.53V43.08h-.12a9.77,9.77,0,0,1-1.22,1.66,7.68,7.68,0,0,1-1.81,1.48,10.21,10.21,0,0,1-5.39,1.48,12.46,12.46,0,0,1-5.48-1,7.83,7.83,0,0,1-3.26-2.88A11.1,11.1,0,0,1,91,39.47a35,35,0,0,1-.39-5.4V18.19h8.89v14.1q0,1.24.09,2.58a8,8,0,0,0,.54,2.46,4.2,4.2,0,0,0,1.36,1.84,4.26,4.26,0,0,0,2.64.71,5.53,5.53,0,0,0,2.78-.62,4.33,4.33,0,0,0,1.63-1.66,6.7,6.7,0,0,0,.74-2.34,20,20,0,0,0,.18-2.73V18.19h8.89Z"/><path d="M122.69,18.19h8.53V22.1h.12a7.36,7.36,0,0,1,1.19-1.66A8.46,8.46,0,0,1,134.36,19a10.81,10.81,0,0,1,2.43-1.07,10.4,10.4,0,0,1,3-.41,12.11,12.11,0,0,1,5.45,1,7.91,7.91,0,0,1,3.23,2.87A11.68,11.68,0,0,1,150,25.72a32.44,32.44,0,0,1,.41,5.39V47h-8.89V32.89c0-.83,0-1.69-.08-2.58a8,8,0,0,0-.54-2.46,3.81,3.81,0,0,0-4-2.55,5.53,5.53,0,0,0-2.78.62,4.19,4.19,0,0,0-1.63,1.66,6.56,6.56,0,0,0-.74,2.34,20,20,0,0,0-.18,2.73V47h-8.89Z"/><polygon points="69.94 8.7 60.7 8.7 60.7 46.99 87.07 46.99 87.07 38.46 69.94 38.46 69.94 8.7"/><path d="M152.19,38.71V38.6c0-6.42,5-9.39,12.15-9.39a22,22,0,0,1,7.37,1.21v-.49c0-3.46-2.2-5.38-6.47-5.38a22.67,22.67,0,0,0-8.33,1.59l-2.13-6.36a27.08,27.08,0,0,1,11.7-2.36c4.66,0,8,1.21,10.18,3.29s3.26,5.43,3.26,9.38V47.15h-8.27V44a11.72,11.72,0,0,1-9.11,3.73C156.86,47.7,152.19,44.52,152.19,38.71Zm19.63-1.92V36.3a1.46,1.46,0,0,0-1-1.39,14.22,14.22,0,0,0-4.45-.7c-3.65,0-5.9,1.42-5.9,4.06v.11c0,2.25,1.91,3.56,4.67,3.56C169.12,41.94,171.82,39.8,171.82,36.79Z"/><path d="M22.59,7.48a21,21,0,1,1-21,21,21,21,0,0,1,21-21m0-1.49A22.5,22.5,0,1,0,45.06,28.48,22.47,22.47,0,0,0,22.59,6Z"/><path d="M47.21,26.27A14,14,0,0,0,33.62,22a14,14,0,0,0-3.69,1.47,14.41,14.41,0,0,1-1.76.87,8.7,8.7,0,0,1-1.19.39,9.43,9.43,0,0,1-2.31.29,7.55,7.55,0,0,1-6.37-3.28c-2.38-3.59-1.24-7.95,2.35-10.33,2.36-1.45,5-2.37,7.12-4.37,2-1.85,2.75-3.41,2.28-6.83a.27.27,0,0,0-.52-.08c-1.18,2.9-5.75,4-8.45,4.79a49.73,49.73,0,0,0-8.87,3.49A22.69,22.69,0,0,0,1,35.32l.05.1A22.24,22.24,0,0,0,9.62,46.93c10.69,7.49,24,4.3,32.38-4.65.18-.19,0-.51-.24-.4a8.22,8.22,0,0,1-5,.63,8.05,8.05,0,0,1-6.41-6.4,8.18,8.18,0,0,1,4.61-9c.3-.12.61-.25.93-.36h0c3.14-1,7.25-.86,11.07-.06A.25.25,0,0,0,47.21,26.27Z" fill-rule="evenodd"/></g></g></svg>