<svg xmlns="http://www.w3.org/2000/svg" viewBox="0 0 600 600"><defs><style>.cls-1{fill:#fff;}.cls-2{fill:#ef7730;}</style></defs><g id="Layer_2" data-name="Layer 2"><path class="cls-1" d="M326.55,369C206.29,315.29,131.23,206.2,126.85,96.4a5.53,5.53,0,0,0-9.18-3.88A275.52,275.52,0,0,0,23.73,302.33C25,451.2,145.9,573.4,294.87,576.22,415.15,578.5,518.34,504,558.65,398.5a5.53,5.53,0,0,0-6.45-7.39C482.13,408.73,402.14,402.83,326.55,369Z"/><path class="cls-2" d="M571.77,250.14h0c-.11-.55-.21-1.11-.31-1.66h0q-2.25-11.94-5.52-23.51l-.3-1h0q-1.59-5.56-3.4-11c-.1-.28-.19-.56-.29-.85h0q-3.83-11.39-8.59-22.32l-.21-.49h0q-2.31-5.26-4.82-10.43h0l-.14-.28c-1.74-3.53-3.54-7-5.43-10.48h0l-.15-.29h0q-2.9-5.3-6-10.45l-.17-.29h0q-2.88-4.75-6-9.37h0l-.69-1h0q-6.46-9.66-13.7-18.71l-.87-1.09h0q-3.84-4.76-7.88-9.33l0,0h0c-2.59-2.94-5.24-5.81-8-8.64l-.31-.33h0q-3.67-3.83-7.5-7.51h0l-1.11-1h0q-3.92-3.74-8-7.31l-.95-.82h0c-2.75-2.4-5.55-4.76-8.4-7.05h0l-.79-.63h0q-4.51-3.61-9.19-7l-.19-.13h0q-4.72-3.47-9.61-6.72l-.12-.09h0Q443.39,63.56,433,57.88h0l-.78-.44q-4.93-2.69-10-5.18h0L421,51.6h0q-10.53-5.15-21.55-9.39l-1.26-.48h0q-5.7-2.17-11.51-4.09l-.23-.08h0q-5.41-1.77-10.93-3.34l-1-.28h0q-5.88-1.65-11.86-3l-.22,0h0c-3.78-.87-7.59-1.68-11.44-2.4l-.74-.13h0q-6-1.11-12.11-2H338q-9.48-1.3-19.14-2c1.09.09,2.12.2,3.18.3h0c2.53.22,5,.48,7.39.75h0q3.57.41,7,.89l.1,0q3.35.48,6.51,1l.19,0q3.12.55,6.08,1.18l.26.05c1.93.41,3.82.85,5.65,1.31l.38.09c1.78.46,3.53.93,5.22,1.44l.47.14q2.48.75,4.83,1.56l.55.21q2.28.79,4.44,1.68l.67.28c1.38.58,2.74,1.16,4.05,1.78l.79.4c1.25.6,2.47,1.22,3.66,1.87l.92.52c1.11.63,2.22,1.27,3.29,1.94.36.22.7.47,1.06.7,1,.64,2,1.29,2.9,2,.43.31.83.64,1.25,1,.84.63,1.69,1.26,2.5,1.93.51.41,1,.86,1.48,1.28.69.6,1.4,1.19,2.07,1.82s1.25,1.24,1.88,1.86,1,1,1.47,1.48q1.64,1.72,3.18,3.57c1.53,1.83,9.38,11.85,13.64,29.43C421,108,420.14,130,425,151.23c.82,3.57,1.69,7,2.59,10.46.24.91.49,1.8.73,2.7q1.08,4,2.23,7.79c.24.78.47,1.56.71,2.34C456.13,254.73,506,292.84,572.81,343.88a278.48,278.48,0,0,0-1-93.74Z"/><path class="cls-1" d="M573.65,261.74c-9.78-22.59-9.78-22.59-271.85-117.26C169.89,96.83,145.41,50.83,240.89,30c4.64-1,9.34-1.9,14.07-2.67a278.6,278.6,0,0,1,44.85-3.62c139.71,0,255.2,103.55,273.84,238"/></g></svg>