<svg xmlns="http://www.w3.org/2000/svg" viewBox="0 0 600 600"><defs><style>.cls-1{fill:#f9d85e;}.cls-2{fill:#ef7730;}</style></defs><g id="Layer_1" data-name="Layer 1"><g id="Symbol_luna"><path class="cls-1" d="M326.65,369.3C206,315.35,130.61,205.85,126.21,95.65A5.54,5.54,0,0,0,117,91.76,276.5,276.5,0,0,0,22.72,302.34C24,451.75,145.33,574.41,294.85,577.24c120.73,2.29,224.29-72.47,264.75-178.38a5.55,5.55,0,0,0-6.47-7.41C482.8,409.13,402.51,403.21,326.65,369.3Z"/><path class="cls-2" d="M572.77,250h0c-.11-.56-.21-1.12-.31-1.67h0q-2.26-12-5.55-23.61c-.09-.35-.19-.69-.29-1h0c-1.07-3.72-2.21-7.42-3.42-11.07-.1-.28-.19-.57-.29-.85h0q-3.84-11.43-8.62-22.41l-.21-.48h0c-1.55-3.53-3.16-7-4.85-10.47h0c0-.09-.09-.18-.14-.27q-2.61-5.33-5.44-10.53h0c-.06-.09-.1-.19-.16-.29h0q-2.9-5.31-6-10.49c-.06-.09-.11-.19-.17-.29h0q-2.89-4.77-6-9.4h0l-.69-1.06h0q-6.48-9.69-13.75-18.78l-.87-1.09h0q-3.86-4.77-7.9-9.37l0,0h0q-3.9-4.42-8-8.67l-.32-.33h0c-2.47-2.56-5-5.08-7.53-7.54h0l-1.12-1.06h0q-3.93-3.73-8-7.33l-1-.83h0q-4.15-3.63-8.44-7.08h0c-.26-.22-.53-.42-.79-.63h0q-4.55-3.63-9.23-7.08l-.19-.13h0q-4.75-3.48-9.64-6.75l-.13-.09h0Q443.92,62.7,433.53,57h0l-.79-.44q-5-2.7-10-5.2h0c-.44-.22-.88-.45-1.33-.66h0q-10.56-5.16-21.62-9.43l-1.27-.48h0q-5.72-2.18-11.55-4.1l-.23-.08h0c-3.63-1.19-7.28-2.32-11-3.36l-1-.28h0q-5.91-1.65-11.91-3.05l-.22-.05h0q-5.7-1.32-11.48-2.41l-.74-.13h0q-6-1.11-12.15-2h-.1q-9.51-1.31-19.21-2l3.2.29h0c2.54.23,5,.49,7.42.76h0q3.58.41,7,.9h.11q3.35.48,6.53,1l.19,0q3.13.55,6.1,1.18l.26.05c1.94.42,3.83.85,5.68,1.31l.37.1c1.79.46,3.55.94,5.25,1.44l.46.14q2.49.75,4.85,1.57l.56.21c1.52.54,3,1.09,4.45,1.68l.68.29c1.38.57,2.74,1.17,4.06,1.79.27.12.52.26.79.39,1.25.61,2.49,1.23,3.68,1.88.31.17.61.35.91.53,1.12.63,2.24,1.27,3.31,1.94.36.23.7.47,1.06.71,1,.64,2,1.28,2.92,2,.43.31.83.64,1.25,1,.85.64,1.7,1.27,2.51,1.94.51.41,1,.86,1.48,1.29.7.6,1.41,1.19,2.08,1.82s1.26,1.25,1.88,1.87,1,1,1.49,1.48q1.64,1.74,3.19,3.59c1.54,1.84,9.41,11.89,13.69,29.53,5.14,21.25,4.25,43.34,9.11,64.63.82,3.58,1.69,7.07,2.6,10.5.24.91.49,1.81.74,2.71q1.08,4,2.23,7.82c.24.78.47,1.57.72,2.35,25,80.5,75,118.75,142.08,170a279.79,279.79,0,0,0-1-94.08Z"/><path class="cls-1" d="M574.65,261.6c-9.81-22.68-9.81-22.68-272.84-117.69-132.4-47.83-157-94-61.14-114.89q7-1.51,14.12-2.68a279.48,279.48,0,0,1,45-3.63C440,22.71,555.94,126.64,574.65,261.6"/></g></g></svg>