<svg xmlns="http://www.w3.org/2000/svg" viewBox="0 0 1200 400"><defs><style>.cls-1{fill:#f9d85e;}.cls-2{fill:#ef7730;}</style></defs><g id="Layer_4" data-name="Layer 4"><path class="cls-1" d="M756.22,307.53H708.28v-22h-.66a55.72,55.72,0,0,1-6.82,9.32,44.88,44.88,0,0,1-10.15,8.32,59.1,59.1,0,0,1-13.65,6,57.05,57.05,0,0,1-16.64,2.33q-19,0-30.8-5.82a44,44,0,0,1-18.3-16.15,63.1,63.1,0,0,1-8.66-24.29,198.83,198.83,0,0,1-2.16-30.3v-89.2h49.93V225q0,7,.5,14.48a45.68,45.68,0,0,0,3,13.81,23.86,23.86,0,0,0,7.66,10.32q5.16,4,14.81,4t15.65-3.5a23.88,23.88,0,0,0,9.15-9.32,38.08,38.08,0,0,0,4.16-13.15,112.52,112.52,0,0,0,1-15.31V145.76h49.93Z"/><path class="cls-1" d="M780.64,145.76h47.93v22h.67a40.46,40.46,0,0,1,6.65-9.32,48.28,48.28,0,0,1,10.32-8.32,58.72,58.72,0,0,1,13.65-6,57,57,0,0,1,16.64-2.34q19,0,30.63,5.83a44.44,44.44,0,0,1,18.14,16.14,65.55,65.55,0,0,1,8.82,24.3,186,186,0,0,1,2.33,30.29v89.21H886.49V228.31q0-7-.5-14.48A45.68,45.68,0,0,0,883,200a23.84,23.84,0,0,0-7.65-10.32q-5.18-4-14.82-4t-15.64,3.5a23.81,23.81,0,0,0-9.15,9.32,37.94,37.94,0,0,0-4.16,13.15,112.52,112.52,0,0,0-1,15.31v80.55H780.64Z"/><polygon class="cls-1" points="484.41 92.49 432.49 92.49 432.49 307.53 580.61 307.53 580.61 259.6 484.41 259.6 484.41 92.49"/><path class="cls-1" d="M946.32,261v-.62c0-36.05,28.12-52.69,68.24-52.69a122.9,122.9,0,0,1,41.38,6.78v-2.78c0-19.41-12.32-30.19-36.33-30.19-18.32,0-31.27,3.39-46.75,8.93l-12-35.74c18.64-8,37-13.25,65.71-13.25,26.22,0,45.18,6.78,57.18,18.49,12.64,12.32,18.32,30.5,18.32,52.69v95.83h-46.44V290.57c-11.68,12.63-27.8,20.95-51.17,20.95C972.54,311.52,946.32,293.65,946.32,261Zm110.25-10.79v-2.74a8.24,8.24,0,0,0-5.67-7.79,79,79,0,0,0-25-3.95c-20.53,0-33.17,8-33.17,22.8v.62c0,12.63,10.74,20,26.22,20C1041.41,279.17,1056.57,267.15,1056.57,250.2Z"/><path class="cls-1" d="M254.42,235.68c-62.14-27.78-100.93-84.15-103.2-140.89a2.85,2.85,0,0,0-4.74-2A142.34,142.34,0,0,0,97.94,201.2c.64,76.93,63.13,140.08,140.11,141.54a143,143,0,0,0,136.3-91.84,2.86,2.86,0,0,0-3.33-3.82C334.81,256.19,293.48,253.14,254.42,235.68Z"/><path class="cls-2" d="M381.13,174.24h0c-.05-.29-.1-.58-.16-.86h0q-1.17-6.17-2.85-12.15c-.05-.18-.1-.36-.16-.53h0q-.81-2.88-1.76-5.7c0-.15-.09-.29-.14-.44h0q-2-5.88-4.44-11.54a1.89,1.89,0,0,1-.11-.25h0q-1.2-2.72-2.49-5.39h0a.91.91,0,0,0-.07-.14c-.89-1.83-1.83-3.64-2.8-5.42h0l-.08-.15h0q-1.5-2.73-3.11-5.4l-.09-.15h0q-1.49-2.46-3.08-4.84h0l-.36-.54h0c-2.22-3.33-4.59-6.55-7.08-9.67l-.45-.56h0q-2-2.44-4.06-4.82h0q-2-2.28-4.1-4.46l-.17-.18h0c-1.27-1.31-2.56-2.61-3.87-3.87h0l-.57-.55h0q-2-1.92-4.12-3.78l-.49-.42h0c-1.43-1.25-2.87-2.46-4.35-3.65h0l-.41-.32h0q-2.34-1.87-4.75-3.64l-.1-.07h0q-2.44-1.8-5-3.48l-.06,0h0q-5-3.37-10.39-6.31h0l-.4-.23q-2.55-1.39-5.16-2.68h0l-.68-.34h0q-5.44-2.65-11.14-4.85l-.65-.25h0c-2-.75-4-1.45-6-2.11l-.12,0h0q-2.79-.91-5.64-1.73l-.52-.14h0c-2-.56-4.07-1.09-6.13-1.56l-.11,0h0c-2-.45-3.93-.87-5.91-1.24l-.39-.07h0c-2.07-.38-4.15-.72-6.26-1h-.05q-4.89-.68-9.89-1l1.65.15h0c1.3.12,2.58.25,3.81.4h0c1.23.14,2.43.29,3.59.46h.06c1.15.16,2.27.34,3.36.53l.1,0c1.07.19,2.12.39,3.14.6l.13,0c1,.22,2,.44,2.92.68l.2,0c.92.23,1.82.48,2.7.74l.24.07q1.27.39,2.49.81l.29.11c.78.27,1.55.56,2.29.86l.35.15c.71.3,1.41.6,2.09.92l.41.21c.64.31,1.28.63,1.89,1l.47.27c.58.33,1.15.66,1.7,1l.55.37c.51.33,1,.66,1.5,1,.23.16.43.33.65.49.44.33.87.66,1.29,1l.77.67c.35.31.72.61,1.06.93s.65.64,1,1,.52.5.77.76c.56.59,1.11,1.21,1.64,1.85.79.94,4.85,6.12,7,15.2,2.65,10.94,2.19,22.32,4.69,33.27.42,1.85.87,3.64,1.34,5.41.12.47.25.93.38,1.4.37,1.36.75,2.7,1.15,4,.12.4.24.81.37,1.21,12.86,41.45,38.61,61.14,73.15,87.52a144,144,0,0,0-.54-48.44Z"/><path class="cls-1" d="M382.1,180.23c-5.05-11.67-5.05-11.67-140.47-60.59C173.46,95,160.82,71.24,210.15,60.49c2.4-.52,4.83-1,7.27-1.38A143,143,0,0,1,382.1,180.23"/></g></svg>