<svg id="Layer_6" data-name="Layer 6" xmlns="http://www.w3.org/2000/svg" viewBox="0 0 1200 400"><defs><style>.cls-1{fill:#fff;}.cls-2{fill:#f9d85e;}.cls-3{fill:#ef7730;}</style></defs><circle class="cls-1" cx="246.61" cy="200" r="154.59"/><path class="cls-1" d="M762.13,307.53H714.2v-22h-.66a55.8,55.8,0,0,1-6.83,9.32,44.66,44.66,0,0,1-10.15,8.32,59.1,59.1,0,0,1-13.65,6,57,57,0,0,1-16.64,2.33q-19,0-30.79-5.82a44.06,44.06,0,0,1-18.31-16.15,63.26,63.26,0,0,1-8.65-24.29,197.56,197.56,0,0,1-2.16-30.3v-89.2h49.92V225q0,7,.5,14.48a45.68,45.68,0,0,0,3,13.81,23.76,23.76,0,0,0,7.65,10.32q5.16,4,14.82,4t15.64-3.5a23.88,23.88,0,0,0,9.15-9.32,38.09,38.09,0,0,0,4.17-13.15,114.18,114.18,0,0,0,1-15.31V145.76h49.93Z"/><path class="cls-1" d="M786.56,145.76h47.92v22h.67a40.22,40.22,0,0,1,6.66-9.32,48,48,0,0,1,10.32-8.32,58.83,58.83,0,0,1,13.64-6,57.12,57.12,0,0,1,16.65-2.34q19,0,30.62,5.83a44.38,44.38,0,0,1,18.14,16.14A65.2,65.2,0,0,1,940,188a184.93,184.93,0,0,1,2.33,30.29v89.21H892.4V228.31q0-7-.5-14.48a45.68,45.68,0,0,0-3-13.81,23.86,23.86,0,0,0-7.66-10.32q-5.16-4-14.81-4t-15.64,3.5a23.84,23.84,0,0,0-9.16,9.32,38.15,38.15,0,0,0-4.16,13.15,114.14,114.14,0,0,0-1,15.31v80.55H786.56Z"/><polygon class="cls-1" points="490.33 92.49 438.4 92.49 438.4 307.53 586.52 307.53 586.52 259.6 490.33 259.6 490.33 92.49"/><path class="cls-1" d="M952.24,261v-.62c0-36.05,28.11-52.69,68.23-52.69a123,123,0,0,1,41.39,6.78v-2.78c0-19.41-12.32-30.19-36.33-30.19-18.33,0-31.28,3.39-46.76,8.93l-12-35.74c18.64-8,37-13.25,65.71-13.25,26.22,0,45.17,6.78,57.18,18.49,12.63,12.32,18.32,30.5,18.32,52.69v95.83h-46.44V290.57c-11.69,12.63-27.8,20.95-51.18,20.95C978.46,311.52,952.24,293.65,952.24,261Zm110.25-10.79v-2.74a8.25,8.25,0,0,0-5.68-7.79,78.9,78.9,0,0,0-25-3.95c-20.54,0-33.18,8-33.18,22.8v.62c0,12.63,10.75,20,26.23,20C1047.33,279.17,1062.49,267.15,1062.49,250.2Z"/><path class="cls-2" d="M260.34,235.68C198.19,207.9,159.4,151.53,157.14,94.79a2.85,2.85,0,0,0-4.74-2A142.34,142.34,0,0,0,103.86,201.2C104.49,278.13,167,341.28,244,342.74A143,143,0,0,0,380.27,250.9a2.86,2.86,0,0,0-3.33-3.82C340.73,256.19,299.39,253.14,260.34,235.68Z"/><path class="cls-3" d="M387.05,174.24h0c-.06-.29-.11-.58-.16-.86h0q-1.17-6.17-2.86-12.15l-.15-.53h0c-.55-1.92-1.13-3.82-1.76-5.7l-.15-.44h0q-2-5.88-4.44-11.54c0-.08-.07-.16-.11-.25h0q-1.19-2.72-2.49-5.39h0c0-.05-.05-.09-.07-.14-.9-1.83-1.83-3.64-2.81-5.42h0a1.09,1.09,0,0,0-.08-.15h0q-1.49-2.73-3.11-5.4l-.09-.15h0c-1-1.64-2-3.25-3.07-4.84h0l-.36-.54h0q-3.34-5-7.08-9.67l-.45-.56h0q-2-2.44-4.07-4.82h0q-2-2.28-4.11-4.46l-.16-.18h0c-1.27-1.31-2.56-2.61-3.88-3.87h0L345,96.6h0c-1.35-1.28-2.73-2.54-4.12-3.78l-.5-.42h0c-1.42-1.25-2.87-2.46-4.34-3.65h0l-.41-.32h0q-2.34-1.87-4.75-3.64l-.1-.07h0q-2.44-1.8-5-3.48l-.07,0h0q-5.06-3.37-10.4-6.31h0l-.4-.23q-2.55-1.39-5.16-2.68h0l-.69-.34h0Q303.67,69,298,66.79l-.66-.25h0q-2.94-1.12-5.94-2.11l-.12,0h0q-2.81-.91-5.65-1.73l-.51-.14h0C283.07,62,281,61.42,279,61l-.12,0h0c-2-.45-3.92-.87-5.91-1.24l-.38-.07h0q-3.1-.57-6.26-1h-.05q-4.89-.68-9.89-1l1.64.15h0c1.31.12,2.58.25,3.82.4h0c1.23.14,2.43.29,3.6.46h.05c1.15.16,2.27.34,3.37.53l.09,0c1.08.19,2.12.39,3.14.6l.14,0c1,.22,2,.44,2.92.68l.19,0c.93.23,1.83.48,2.7.74l.24.07c.85.26,1.69.53,2.5.81l.29.11c.78.27,1.55.56,2.29.86l.35.15c.71.3,1.41.6,2.09.92l.41.21q1,.47,1.89,1l.47.27c.58.33,1.15.66,1.7,1l.55.37c.51.33,1,.66,1.5,1l.64.49c.44.33.88.66,1.3,1l.76.67c.36.31.72.61,1.07.93s.65.64,1,1,.52.5.76.76c.57.59,1.11,1.21,1.65,1.85.79.94,4.84,6.12,7,15.2,2.65,10.94,2.19,22.32,4.7,33.27.42,1.85.87,3.64,1.33,5.41.13.47.26.93.38,1.4.37,1.36.76,2.7,1.15,4,.13.4.25.81.37,1.21,12.86,41.45,38.62,61.14,73.15,87.52a143.67,143.67,0,0,0-.53-48.44Z"/><path class="cls-2" d="M388,180.23C383,168.56,383,168.56,247.54,119.64,179.38,95,166.73,71.24,216.07,60.49q3.6-.78,7.27-1.38A143,143,0,0,1,388,180.23"/></svg>