<svg xmlns="http://www.w3.org/2000/svg" xmlns:xlink="http://www.w3.org/1999/xlink" viewBox="0 0 80 80">
  <defs>
    <linearGradient id="c" x1="20.95" x2="79.1" y1="58.17" y2="58.17" gradientUnits="userSpaceOnUse">
      <stop offset=".38" stop-opacity=".06"/>
      <stop offset="1" stop-opacity="0"/>
    </linearGradient>
    <linearGradient id="d" x1="20.95" x2="78.71" y1="58.03" y2="58.03" gradientUnits="userSpaceOnUse">
      <stop offset=".38" stop-opacity=".13"/>
      <stop offset="1" stop-opacity="0"/>
    </linearGradient>
    <linearGradient id="e" x1="20.95" x2="78.31" y1="57.88" y2="57.88" gradientUnits="userSpaceOnUse">
      <stop offset=".38" stop-opacity=".19"/>
      <stop offset="1" stop-opacity="0"/>
    </linearGradient>
    <linearGradient id="f" x1="20.95" x2="77.92" y1="57.74" y2="57.74" gradientUnits="userSpaceOnUse">
      <stop offset=".38" stop-opacity=".25"/>
      <stop offset="1" stop-opacity="0"/>
    </linearGradient>
    <linearGradient id="g" x1="20.95" x2="77.52" y1="57.59" y2="57.59" gradientUnits="userSpaceOnUse">
      <stop offset=".38" stop-opacity=".31"/>
      <stop offset="1" stop-opacity="0"/>
    </linearGradient>
    <linearGradient id="h" x1="20.95" x2="77.13" y1="57.45" y2="57.45" gradientUnits="userSpaceOnUse">
      <stop offset=".38" stop-opacity=".38"/>
      <stop offset="1" stop-opacity="0"/>
    </linearGradient>
    <linearGradient id="i" x1="20.95" x2="76.73" y1="57.3" y2="57.3" gradientUnits="userSpaceOnUse">
      <stop offset=".38" stop-opacity=".44"/>
      <stop offset="1" stop-opacity="0"/>
    </linearGradient>
    <linearGradient id="j" x1="20.95" x2="76.34" y1="57.16" y2="57.16" gradientUnits="userSpaceOnUse">
      <stop offset=".38" stop-opacity=".5"/>
      <stop offset="1" stop-opacity="0"/>
    </linearGradient>
    <linearGradient id="k" x1="20.95" x2="75.94" y1="57.02" y2="57.02" gradientUnits="userSpaceOnUse">
      <stop offset=".38" stop-opacity=".56"/>
      <stop offset="1" stop-opacity="0"/>
    </linearGradient>
    <linearGradient id="l" x1="20.95" x2="75.55" y1="56.87" y2="56.87" gradientUnits="userSpaceOnUse">
      <stop offset=".38" stop-opacity=".63"/>
      <stop offset="1" stop-opacity="0"/>
    </linearGradient>
    <linearGradient id="m" x1="20.95" x2="75.15" y1="56.73" y2="56.73" gradientUnits="userSpaceOnUse">
      <stop offset=".38" stop-opacity=".69"/>
      <stop offset="1" stop-opacity="0"/>
    </linearGradient>
    <linearGradient id="n" x1="20.95" x2="74.75" y1="56.59" y2="56.59" gradientUnits="userSpaceOnUse">
      <stop offset=".38" stop-opacity=".75"/>
      <stop offset="1" stop-opacity="0"/>
    </linearGradient>
    <linearGradient id="o" x1="20.95" x2="74.36" y1="56.45" y2="56.45" gradientUnits="userSpaceOnUse">
      <stop offset=".38" stop-opacity=".81"/>
      <stop offset="1" stop-opacity="0"/>
    </linearGradient>
    <linearGradient id="p" x1="20.95" x2="73.96" y1="56.31" y2="56.31" gradientUnits="userSpaceOnUse">
      <stop offset=".38" stop-opacity=".88"/>
      <stop offset="1" stop-opacity="0"/>
    </linearGradient>
    <linearGradient id="q" x1="20.95" x2="73.57" y1="56.18" y2="56.18" gradientUnits="userSpaceOnUse">
      <stop offset=".38" stop-opacity=".94"/>
      <stop offset="1" stop-opacity="0"/>
    </linearGradient>
    <linearGradient id="r" x1="20.95" x2="73.17" y1="56.05" y2="56.05" gradientUnits="userSpaceOnUse">
      <stop offset=".38"/>
      <stop offset="1" stop-opacity="0"/>
    </linearGradient>
    <linearGradient id="s" x1="20.95" x2="73.17" y1="68.26" y2="68.26" gradientUnits="userSpaceOnUse">
      <stop offset="0" stop-color="#000040"/>
      <stop offset=".32" stop-color="#000043"/>
      <stop offset=".59" stop-color="#00004d"/>
      <stop offset=".82" stop-color="#00005e"/>
      <stop offset="1" stop-color="#000070"/>
    </linearGradient>
    <linearGradient id="t" x1="47.06" x2="47.06" y1="63.55" y2="72.98" gradientUnits="userSpaceOnUse">
      <stop offset=".35" stop-color="#00209f"/>
      <stop offset=".65" stop-color="#001f9d"/>
      <stop offset=".75" stop-color="#001d96"/>
      <stop offset=".83" stop-color="#00198b"/>
      <stop offset=".89" stop-color="#00137a"/>
      <stop offset=".94" stop-color="#000c64"/>
      <stop offset=".99" stop-color="#000349"/>
      <stop offset="1" stop-color="#000040"/>
    </linearGradient>
    <linearGradient id="u" x1="20.95" x2="73.17" y1="52.41" y2="52.41" gradientUnits="userSpaceOnUse">
      <stop offset="0" stop-color="#00209f"/>
      <stop offset=".02" stop-color="#0222a1"/>
      <stop offset=".24" stop-color="#1333b2"/>
      <stop offset=".49" stop-color="#1d3dbc"/>
      <stop offset=".79" stop-color="#2040bf"/>
      <stop offset=".84" stop-color="#1e3dbc"/>
      <stop offset=".88" stop-color="#1933b2"/>
      <stop offset=".92" stop-color="#1122a1"/>
      <stop offset=".95" stop-color="#050a89"/>
      <stop offset=".97" stop-color="#00007f"/>
      <stop offset="1" stop-color="#2040bf"/>
    </linearGradient>
    <linearGradient id="a" x1="20.95" x2="73.17" y1="45.47" y2="45.47" gradientUnits="userSpaceOnUse">
      <stop offset="0" stop-color="#dfdfdf"/>
      <stop offset=".02" stop-color="#e1e1e1"/>
      <stop offset=".24" stop-color="#f2f2f2"/>
      <stop offset=".49" stop-color="#fcfcfc"/>
      <stop offset=".79" stop-color="#fff"/>
      <stop offset=".84" stop-color="#fcfcfc"/>
      <stop offset=".88" stop-color="#f2f2f2"/>
      <stop offset=".92" stop-color="#e1e1e1"/>
      <stop offset=".95" stop-color="#c9c9c9"/>
      <stop offset=".97" stop-color="#bfbfbf"/>
      <stop offset="1" stop-color="#fff"/>
    </linearGradient>
    <linearGradient xlink:href="#a" id="v" x1="20.95" x2="73.17" y1="63.22" y2="63.22"/>
    <linearGradient xlink:href="#a" id="w" x1="20.95" x2="73.17" y1="62.53" y2="62.53"/>
    <linearGradient xlink:href="#a" id="x" x1="20.95" x2="73.17" y1="49.87" y2="49.87"/>
    <linearGradient xlink:href="#a" id="y" x1="20.95" x2="73.17" y1="39.32" y2="39.32"/>
    <linearGradient xlink:href="#a" id="z" x1="20.95" x2="73.17" y1="45.47" y2="45.47"/>
    <linearGradient xlink:href="#a" id="A" x1="20.95" x2="73.17" y1="51.89" y2="51.89"/>
    <linearGradient id="b" x1="20.95" x2="73.17" y1="45.97" y2="45.97" gradientUnits="userSpaceOnUse">
      <stop offset="0" stop-color="#bf1010"/>
      <stop offset=".02" stop-color="#c11212"/>
      <stop offset=".24" stop-color="#d22323"/>
      <stop offset=".49" stop-color="#dc2d2d"/>
      <stop offset=".79" stop-color="#df3030"/>
      <stop offset=".84" stop-color="#dc2e2e"/>
      <stop offset=".88" stop-color="#d22626"/>
      <stop offset=".92" stop-color="#c11919"/>
      <stop offset=".95" stop-color="#a90808"/>
      <stop offset=".97" stop-color="#9f0000"/>
      <stop offset="1" stop-color="#df3030"/>
    </linearGradient>
    <linearGradient xlink:href="#b" id="B" x1="20.95" x2="73.17" y1="39.26" y2="39.26"/>
    <linearGradient xlink:href="#b" id="C" x1="20.95" x2="73.17" y1="40.9" y2="40.9"/>
    <linearGradient xlink:href="#b" id="D" x1="20.95" x2="73.17" y1="50.68" y2="50.68"/>
    <linearGradient xlink:href="#b" id="E" x1="20.95" x2="73.17" y1="52.17" y2="52.17"/>
  </defs>
  <g data-name="Layer 1">
    <path fill="#0e3ca5" d="M33.66 55.69c1.67 6.17 7.65 10.88 10.67 10.68.1 0 11.45-2.12 17.66-12.5 4.84-8.08 3.19-15.88-3.39-16C56.24 38 30.48 44 33.66 55.69M58 16.09a28.84 28.84 0 0 0-30.42-4.39 17.27 17.27 0 0 0-1.83.9c-.4.21-.81.43-1.2.66h.09a13.45 13.45 0 0 0-3 2.88c-8.28 11 19.48 18.9 34.32 18.92C62.75 40 64.66 21.28 58 16.09Z"/>
    <path fill="#5493f7" d="M29.25 16.31c-3.81 5.73-16.51 9.77-18.6 9.14l.27-.52a30.71 30.71 0 0 1 2.47-4 30.28 30.28 0 0 1 3-3.55 31.16 31.16 0 0 1 3.54-3c.78-.57 1.6-1.11 2.43-1.6a9 9 0 0 1 4.2-1.12c5.66.11 2.7 4.65 2.67 4.69m-3.1 40.47c.27 1.8 0 8.92-.38 9.52-.32 0-1 .06-2.89-1a29.48 29.48 0 0 1-2.86-1.9 30.54 30.54 0 0 1-6.58-6.59 30.71 30.71 0 0 1-2.47-4 29.52 29.52 0 0 1-1.9-4.35 30.18 30.18 0 0 1-1.15-4.68 30.58 30.58 0 0 1 0-9.82 30.18 30.18 0 0 1 1.15-4.68c.1-.31.21-.61.32-.91 2.19 2.92 4.73 5.56 6.89 8.5s4.88 7.38 5.45 8.36c3.57 6.06 4.14 9.8 4.42 11.6m42.2-17.98a30.28 30.28 0 0 1-2.12 11.17c-3.58 3.85-27.73-5.63-28-5.73-3.27-1.45-13.33-5.85-14.21-12.77-1.3-10 18.89-16.89 27.77-17.16 1.06 0 4.3 0 6.19 1.59a30.35 30.35 0 0 1 10.4 22.9M52 65.87c-2.63 1.23-5.53.33-4.78-2.23 1.45-4.93 14.07-10 16.86-10.25.34 0 .49.2.34.47A30.75 30.75 0 0 1 52 65.87"/>
    <g opacity=".3">
      <path fill="url(#c)" d="M22.91 38.12a1.83 1.83 0 0 0-2 1.66v30.91a2.13 2.13 0 0 0 2 2.26c28.53.17 56.21 8.16 56.19 4.14V42.71c.02-4.1-27.66-4.57-56.19-4.59Z" opacity=".06"/>
      <path fill="url(#d)" d="M22.9 38.12a1.82 1.82 0 0 0-1.9 1.66v30.91a2.14 2.14 0 0 0 2 2.26c28.33.16 55.81 7.76 55.8 3.88v-34c-.08-3.93-27.56-4.67-55.9-4.71Z" opacity=".13"/>
      <path fill="url(#e)" d="M22.9 38.12a1.83 1.83 0 0 0-1.9 1.66v30.91a2.14 2.14 0 0 0 2 2.26c28.13.15 55.42 7.36 55.4 3.61V43.04c-.07-3.84-27.4-4.87-55.5-4.92Z" opacity=".19"/>
      <path fill="url(#f)" d="M22.9 38.12a1.83 1.83 0 0 0-1.9 1.66v30.91a2.14 2.14 0 0 0 2 2.26c27.93.15 55 7 55 3.34V43.2c-.07-3.71-27.16-5.01-55.1-5.08Z" opacity=".25"/>
      <path fill="url(#g)" d="M22.9 38.12a1.83 1.83 0 0 0-1.9 1.66v30.91a2.12 2.12 0 0 0 2 2.25c27.73.15 54.63 6.57 54.61 3.08V43.36c-.07-3.58-26.96-5.16-54.71-5.24Z" opacity=".31"/>
      <path fill="url(#h)" d="M22.9 38.12a1.84 1.84 0 0 0-1.9 1.66v30.91a2.12 2.12 0 0 0 2 2.25c27.53.14 54.23 6.17 54.22 2.81V43.52c-.08-3.44-26.77-5.31-54.32-5.4Z" opacity=".38"/>
      <path fill="url(#i)" d="M22.9 38.12a1.83 1.83 0 0 0-1.9 1.66v30.91a2.12 2.12 0 0 0 2 2.25c27.33.13 53.83 5.77 53.82 2.54v-31.8c-.08-3.31-26.57-5.51-53.92-5.56Z" opacity=".44"/>
      <path fill="url(#j)" d="M22.9 38.13a1.82 1.82 0 0 0-1.9 1.65v30.91a2.12 2.12 0 0 0 2 2.25c27.13.12 53.44 5.37 53.43 2.27V43.84c-.08-3.17-26.38-5.67-53.53-5.71Z" opacity=".5"/>
      <path fill="url(#k)" d="M22.9 38.13a1.82 1.82 0 0 0-1.9 1.65v30.91a2.12 2.12 0 0 0 2 2.25c26.93.11 53 5 53 2V44c0-3-26.15-5.82-53.1-5.87Z" opacity=".56"/>
      <path fill="url(#l)" d="M22.9 38.13a1.82 1.82 0 0 0-1.9 1.65v30.91a2.12 2.12 0 0 0 2 2.25c26.73.1 52.65 4.58 52.64 1.74V44.17c-.08-2.92-25.99-5.99-52.74-6.04Z" opacity=".63"/>
      <path fill="url(#m)" d="M22.9 38.13a1.81 1.81 0 0 0-1.9 1.65v30.91a2.12 2.12 0 0 0 2 2.25c26.53.09 52.25 4.18 52.24 1.47V44.33c-.08-2.78-25.79-6.14-52.34-6.2Z" opacity=".69"/>
      <path fill="url(#n)" d="M22.9 38.13a1.81 1.81 0 0 0-1.9 1.65v30.91a2.12 2.12 0 0 0 2 2.25c26.33.09 51.86 3.78 51.84 1.2V44.49c-.07-2.65-25.59-6.29-51.94-6.36Z" opacity=".75"/>
      <path fill="url(#o)" d="M22.9 38.13a1.82 1.82 0 0 0-1.9 1.65v30.91a2.12 2.12 0 0 0 2 2.25c26.13.08 51.46 3.38 51.45.93V44.65c-.08-2.52-25.39-6.45-51.55-6.52Z" opacity=".81"/>
      <path fill="url(#p)" d="M22.9 38.13a1.82 1.82 0 0 0-1.9 1.65v30.91a2.12 2.12 0 0 0 2 2.25c25.84.06 51 2.98 51 .66V44.82c0-2.39-25.14-6.61-51.1-6.69Z" opacity=".88"/>
      <path fill="url(#q)" d="M22.9 38.13a1.82 1.82 0 0 0-1.9 1.65v30.91a2.12 2.12 0 0 0 2 2.25c25.73.06 50.67 2.58 50.66.39V44.98c-.08-2.26-25-6.77-50.76-6.85Z" opacity=".94"/>
      <path fill="url(#r)" d="M22.9 38.13a1.82 1.82 0 0 0-1.9 1.65v30.91a2.12 2.12 0 0 0 2 2.25c25.53.1 50.28 2.18 50.26.13V45.14c-.07-2.14-24.8-6.78-50.36-7.01Z"/>
    </g>
    <path fill="url(#s)" d="M21 70.69A2.13 2.13 0 0 0 22.89 73c25.58.18 50.28-1 50.28-4.83 0-11.66-52.17 2.52-52.17 2.52Z"/>
    <path fill="url(#t)" d="M21 70.69A2.13 2.13 0 0 0 22.9 73c25.58.19 50.24-.61 50.27-4.83 0-11.66-52.17 2.52-52.17 2.52Zm1.9 2.11h-.2a2 2 0 0 1-1.7-1.48 2 2 0 0 0 1.86 1.47c25.56-.16 49.87-8 49.87-4.56S48.46 73 22.9 72.8Z"/>
    <path fill="url(#u)" d="M22.91 37.83a2 2 0 0 0-2 2v30.86a2 2 0 0 0 1.94 2c25.63-.24 50.35-8.69 50.32-4.57V33.31c.03-4.14-24.69 4.33-50.26 4.52Z"/>
    <path fill="url(#a)" d="M23.89 55.23 26 53.74l1.85-1.3c.6-.42 1.2-.85 1.84-1.32l2.15-1.57v5.31l2.18-.18 2.19-.2v-5.31l2.14 1.2c.65.37 1.25.7 1.85 1l1.84 1 2.15 1.14 1.46-.2 1.46-.22v-1.91l-2-1-1.76-.93-2-1.09 2-.26 1.76-.23 2-.3v-5.8l-2 .29-1.76.24-2 .26 2-1.6 1.76-1.41 2-1.64v-2l-2.87.42h-.05l-2.15 1.7-1.84 1.45-1.84 1.44-2.15 1.65v-5.3c-1.5.15-3 .28-4.55.39.09 1.13.18 2.23.18 2.64v2.66l-2.15-1.29-1.84-1.13L26 39.19l-2.14-1.37h-1a2 2 0 0 0-2 2l2 1.33 1.76 1.13 2 1.28-2 .06h-3.76v5.8h3.76l2-.07-2 1.41L23 52l-2 1.36v1.94h1.47Z"/>
    <path fill="url(#v)" d="m36.32 62.65.92-1.46c.27-.44.55-.87.91-1.46l-1.54.74-1.55.73-.5-1.52c-.15-.45-.3-.91-.51-1.52l-.5 1.61c-.15.48-.3 1-.51 1.61l-1.54-.47-1.5-.48c.36.53.64.92.91 1.31l.91 1.31-1.45.95-1.37.91h3.28c-.09.66-.15 1.15-.22 1.65l-.23 1.64 1.09-1.2 1.13-1.29 1.14 1.09 1.14 1.08c-.09-.64-.16-1.12-.23-1.6s-.14-1-.23-1.61l1.65-.3 1.64-.37-1.42-.69Z"/>
    <path fill="url(#w)" d="M61.26 62.12c.34-.58.51-.87.86-1.45l-1.46.81c-.19-.57-.29-.85-.48-1.41-.19.63-.28.94-.48 1.57l-1.46-.29.87 1.15-1.35 1 1.56-.13c-.08.63-.13.95-.21 1.59l1.07-1.33 1.08 1c-.09-.61-.13-.91-.22-1.52l1.56-.4Z"/>
    <path fill="url(#x)" d="m54.74 49.47.87-1.47-1.47.81c-.19-.57-.28-.85-.48-1.41l-.47 1.6-1.46-.31c.35.46.52.7.86 1.16l-1.34 1 1.56-.12c-.09.63-.13.95-.22 1.59.43-.53.65-.79 1.07-1.32l1.08 1c-.08-.61-.13-.91-.21-1.51l1.56-.49Z"/>
    <path fill="url(#y)" d="M59.32 40.19c-.08.63-.13 1-.21 1.59l1.07-1.33 1.08.95c-.09-.61-.13-.91-.22-1.51l1.56-.41-1.34-.57c.34-.58.51-.87.86-1.45l-1.46.81c-.19-.57-.29-.85-.48-1.41-.19.63-.28 1-.48 1.58l-1.46-.3.87 1.15-1.34 1Z"/>
    <path fill="url(#z)" d="M67.05 45.12c.38-.58.6-.86 1-1.43a16.14 16.14 0 0 0-1.64.76L66 43c-.19.62-.28.93-.47 1.56l-1.53-.3.86 1.17c-.54.4-.81.6-1.34 1l1.55-.11c-.08.63-.13 1-.21 1.58L66 46.62c.43.39.62.59 1.1 1-.1-.61-.14-.91-.23-1.52.64-.14 1-.22 1.87-.35-.74-.28-1.1-.39-1.69-.63Z"/>
    <path fill="url(#A)" d="M63.16 51.37c-.15-.35-.22-.52-.38-.87l-.37 1-1 .24.76.52c-.09.4-.14.6-.24 1l.85-.67.85.39c-.09-.37-.14-.56-.23-.94l.76-.77Z"/>
    <path fill="url(#b)" d="M23.54 48.27c.79 0 1.53 0 2.25-.06l2.12-.08 2.25-.13 2.59-.18v7c1-.08 1.56-.13 2.61-.23v-7l2.64-.25 2.24-.25 2.13-.26 2.25-.3 2.57-.37v-3.48l-2.57.37-2.25.3-2.13.26-2.24.25-2.59.26v-7c-.86.09-1.74.16-2.61.23v6.97l-2.59.18-2.24.12-2.13.08c-.72 0-1.46.05-2.25.06s-1.64 0-2.59 0v3.54c.9 0 1.75-.01 2.54-.03Z"/>
    <path fill="url(#B)" d="m42.85 37.88-2 1.59-2 1.58-2.35 1.8 2-.2 2.34-1.83 2-1.59 2-1.61 2.33-1.9-1.88.28a.14.14 0 0 1-.09 0Z"/>
    <path fill="url(#C)" d="M25.38 42c.7.44 1.45.92 2.36 1.48l2-.1c-.88-.53-1.64-1-2.35-1.45l-2-1.26-2-1.3-1.66-1.08a1.92 1.92 0 0 0-.59.91l2.27 1.48c.59.48 1.27.89 1.97 1.32Z"/>
    <path fill="url(#D)" d="M42.73 49.5c-.71-.37-1.46-.78-2.36-1.27l-1.95.22c.87.49 1.63.91 2.34 1.29l2 1.09 2 1.07 2.34 1.22v-1.3l-2.31-1.22Z"/>
    <path fill="url(#E)" d="m27.34 50.88-2 1.41c-.65.46-1.31.91-2 1.39s-1.47 1-2.35 1.58h2c.87-.59 1.64-1.12 2.35-1.62l2-1.41c.66-.46 1.31-.93 2-1.44l2.35-1.71-1.95.13Z"/>
  </g>
</svg>