<svg xmlns="http://www.w3.org/2000/svg" viewBox="0 0 80 80">
  <defs>
    <linearGradient id="a" x1="20.95" x2="79.1" y1="58.17" y2="58.17" gradientUnits="userSpaceOnUse">
      <stop offset=".38" stop-opacity=".06"/>
      <stop offset="1" stop-opacity="0"/>
    </linearGradient>
    <linearGradient id="b" x1="20.95" x2="78.71" y1="58.03" y2="58.03" gradientUnits="userSpaceOnUse">
      <stop offset=".38" stop-opacity=".13"/>
      <stop offset="1" stop-opacity="0"/>
    </linearGradient>
    <linearGradient id="c" x1="20.95" x2="78.31" y1="57.88" y2="57.88" gradientUnits="userSpaceOnUse">
      <stop offset=".38" stop-opacity=".19"/>
      <stop offset="1" stop-opacity="0"/>
    </linearGradient>
    <linearGradient id="d" x1="20.95" x2="77.92" y1="57.74" y2="57.74" gradientUnits="userSpaceOnUse">
      <stop offset=".38" stop-opacity=".25"/>
      <stop offset="1" stop-opacity="0"/>
    </linearGradient>
    <linearGradient id="e" x1="20.95" x2="77.52" y1="57.59" y2="57.59" gradientUnits="userSpaceOnUse">
      <stop offset=".38" stop-opacity=".31"/>
      <stop offset="1" stop-opacity="0"/>
    </linearGradient>
    <linearGradient id="f" x1="20.95" x2="77.13" y1="57.45" y2="57.45" gradientUnits="userSpaceOnUse">
      <stop offset=".38" stop-opacity=".38"/>
      <stop offset="1" stop-opacity="0"/>
    </linearGradient>
    <linearGradient id="g" x1="20.95" x2="76.73" y1="57.3" y2="57.3" gradientUnits="userSpaceOnUse">
      <stop offset=".38" stop-opacity=".44"/>
      <stop offset="1" stop-opacity="0"/>
    </linearGradient>
    <linearGradient id="h" x1="20.95" x2="76.34" y1="57.16" y2="57.16" gradientUnits="userSpaceOnUse">
      <stop offset=".38" stop-opacity=".5"/>
      <stop offset="1" stop-opacity="0"/>
    </linearGradient>
    <linearGradient id="i" x1="20.95" x2="75.94" y1="57.02" y2="57.02" gradientUnits="userSpaceOnUse">
      <stop offset=".38" stop-opacity=".56"/>
      <stop offset="1" stop-opacity="0"/>
    </linearGradient>
    <linearGradient id="j" x1="20.95" x2="75.55" y1="56.87" y2="56.87" gradientUnits="userSpaceOnUse">
      <stop offset=".38" stop-opacity=".63"/>
      <stop offset="1" stop-opacity="0"/>
    </linearGradient>
    <linearGradient id="k" x1="20.95" x2="75.15" y1="56.73" y2="56.73" gradientUnits="userSpaceOnUse">
      <stop offset=".38" stop-opacity=".69"/>
      <stop offset="1" stop-opacity="0"/>
    </linearGradient>
    <linearGradient id="l" x1="20.95" x2="74.75" y1="56.59" y2="56.59" gradientUnits="userSpaceOnUse">
      <stop offset=".38" stop-opacity=".75"/>
      <stop offset="1" stop-opacity="0"/>
    </linearGradient>
    <linearGradient id="m" x1="20.95" x2="74.36" y1="56.45" y2="56.45" gradientUnits="userSpaceOnUse">
      <stop offset=".38" stop-opacity=".81"/>
      <stop offset="1" stop-opacity="0"/>
    </linearGradient>
    <linearGradient id="n" x1="20.95" x2="73.96" y1="56.31" y2="56.31" gradientUnits="userSpaceOnUse">
      <stop offset=".38" stop-opacity=".88"/>
      <stop offset="1" stop-opacity="0"/>
    </linearGradient>
    <linearGradient id="o" x1="20.95" x2="73.57" y1="56.18" y2="56.18" gradientUnits="userSpaceOnUse">
      <stop offset=".38" stop-opacity=".94"/>
      <stop offset="1" stop-opacity="0"/>
    </linearGradient>
    <linearGradient id="p" x1="20.95" x2="73.17" y1="56.05" y2="56.05" gradientUnits="userSpaceOnUse">
      <stop offset=".38"/>
      <stop offset="1" stop-opacity="0"/>
    </linearGradient>
    <linearGradient id="q" x1="20.95" x2="73.17" y1="68.26" y2="68.26" gradientUnits="userSpaceOnUse">
      <stop offset="0" stop-color="#030"/>
      <stop offset=".32" stop-color="#003600"/>
      <stop offset=".59" stop-color="#004000"/>
      <stop offset=".82" stop-color="#005100"/>
      <stop offset="1" stop-color="#006300"/>
    </linearGradient>
    <linearGradient id="r" x1="47.06" x2="47.06" y1="63.55" y2="72.98" gradientUnits="userSpaceOnUse">
      <stop offset=".35" stop-color="#209300"/>
      <stop offset=".65" stop-color="#1f9100"/>
      <stop offset=".75" stop-color="#1d8a00"/>
      <stop offset=".83" stop-color="#197f00"/>
      <stop offset=".89" stop-color="#136e00"/>
      <stop offset=".94" stop-color="#0c5800"/>
      <stop offset=".99" stop-color="#033d00"/>
      <stop offset="1" stop-color="#003400"/>
    </linearGradient>
    <linearGradient id="s" x1="20.95" x2="73.17" y1="43.71" y2="43.71" gradientUnits="userSpaceOnUse">
      <stop offset="0" stop-color="#f87f00"/>
      <stop offset=".02" stop-color="#f88102"/>
      <stop offset=".24" stop-color="#fc9213"/>
      <stop offset=".49" stop-color="#fe9c1d"/>
      <stop offset=".79" stop-color="#ff9f20"/>
      <stop offset=".84" stop-color="#fd9c1e"/>
      <stop offset=".88" stop-color="#f79219"/>
      <stop offset=".92" stop-color="#ed8111"/>
      <stop offset=".95" stop-color="#de6905"/>
      <stop offset=".97" stop-color="#d85f00"/>
      <stop offset="1" stop-color="#ff9f20"/>
    </linearGradient>
    <linearGradient id="t" x1="20.95" x2="73.17" y1="61.1" y2="61.1" gradientUnits="userSpaceOnUse">
      <stop offset="0" stop-color="#209200"/>
      <stop offset=".03" stop-color="#239503"/>
      <stop offset=".25" stop-color="#33a613"/>
      <stop offset=".49" stop-color="#3db01d"/>
      <stop offset=".79" stop-color="#40b320"/>
      <stop offset=".84" stop-color="#3db01e"/>
      <stop offset=".88" stop-color="#33a619"/>
      <stop offset=".92" stop-color="#229511"/>
      <stop offset=".95" stop-color="#0b7d06"/>
      <stop offset=".97" stop-color="#007200"/>
      <stop offset="1" stop-color="#40b320"/>
    </linearGradient>
    <linearGradient id="u" x1="20.95" x2="73.17" y1="52.41" y2="52.41" gradientUnits="userSpaceOnUse">
      <stop offset="0" stop-color="#dfdfdf"/>
      <stop offset=".02" stop-color="#e1e1e1"/>
      <stop offset=".24" stop-color="#f2f2f2"/>
      <stop offset=".49" stop-color="#fcfcfc"/>
      <stop offset=".79" stop-color="#fff"/>
      <stop offset=".84" stop-color="#fcfcfc"/>
      <stop offset=".88" stop-color="#f2f2f2"/>
      <stop offset=".92" stop-color="#e1e1e1"/>
      <stop offset=".95" stop-color="#c9c9c9"/>
      <stop offset=".97" stop-color="#bfbfbf"/>
      <stop offset="1" stop-color="#fff"/>
    </linearGradient>
    <linearGradient id="v" x1="20.95" x2="73.17" y1="53.11" y2="53.11" gradientUnits="userSpaceOnUse">
      <stop offset="0" stop-color="#0050cf"/>
      <stop offset=".02" stop-color="#0252d1"/>
      <stop offset=".24" stop-color="#1363e2"/>
      <stop offset=".49" stop-color="#1d6dec"/>
      <stop offset=".79" stop-color="#2070ef"/>
      <stop offset=".84" stop-color="#1e6dec"/>
      <stop offset=".88" stop-color="#1963e2"/>
      <stop offset=".92" stop-color="#1152d1"/>
      <stop offset=".95" stop-color="#053ab9"/>
      <stop offset=".97" stop-color="#0030af"/>
      <stop offset="1" stop-color="#2070ef"/>
    </linearGradient>
  </defs>
  <g data-name="Layer 1">
    <path fill="#0e3ca5" d="M33.66 55.69c1.67 6.17 7.65 10.88 10.67 10.68.1 0 11.45-2.12 17.66-12.5 4.84-8.08 3.19-15.88-3.39-16C56.24 38 30.48 44 33.66 55.69M58 16.09a28.84 28.84 0 0 0-30.42-4.39 17.27 17.27 0 0 0-1.83.9c-.4.21-.81.43-1.2.66h.09a13.45 13.45 0 0 0-3 2.88c-8.28 11 19.48 18.9 34.32 18.92C62.75 40 64.66 21.28 58 16.09Z"/>
    <path fill="#5493f7" d="M29.25 16.31c-3.81 5.73-16.51 9.77-18.6 9.14l.27-.52a30.71 30.71 0 0 1 2.47-4 30.28 30.28 0 0 1 3-3.55 31.16 31.16 0 0 1 3.54-3c.78-.57 1.6-1.11 2.43-1.6a9 9 0 0 1 4.2-1.12c5.66.11 2.7 4.65 2.67 4.69m-3.1 40.47c.27 1.8 0 8.92-.38 9.52-.32 0-1 .06-2.89-1a29.48 29.48 0 0 1-2.86-1.9 30.54 30.54 0 0 1-6.58-6.59 30.71 30.71 0 0 1-2.47-4 29.52 29.52 0 0 1-1.9-4.35 30.18 30.18 0 0 1-1.15-4.68 30.58 30.58 0 0 1 0-9.82 30.18 30.18 0 0 1 1.15-4.68c.1-.31.21-.61.32-.91 2.19 2.92 4.73 5.56 6.89 8.5s4.88 7.38 5.45 8.36c3.57 6.06 4.14 9.8 4.42 11.6m42.2-17.98a30.28 30.28 0 0 1-2.12 11.17c-3.58 3.85-27.73-5.63-28-5.73-3.27-1.45-13.33-5.85-14.21-12.77-1.3-10 18.89-16.89 27.77-17.16 1.06 0 4.3 0 6.19 1.59a30.35 30.35 0 0 1 10.4 22.9M52 65.87c-2.63 1.23-5.53.33-4.78-2.23 1.45-4.93 14.07-10 16.86-10.25.34 0 .49.2.34.47A30.75 30.75 0 0 1 52 65.87"/>
    <g opacity=".3">
      <path fill="url(#a)" d="M22.91 38.12a1.83 1.83 0 0 0-2 1.66v30.91a2.13 2.13 0 0 0 2 2.26c28.53.17 56.21 8.16 56.19 4.14V42.71c.02-4.1-27.66-4.57-56.19-4.59Z" opacity=".06"/>
      <path fill="url(#b)" d="M22.9 38.12a1.82 1.82 0 0 0-1.9 1.66v30.91a2.14 2.14 0 0 0 2 2.26c28.33.16 55.81 7.76 55.8 3.88v-34c-.08-3.93-27.56-4.67-55.9-4.71Z" opacity=".13"/>
      <path fill="url(#c)" d="M22.9 38.12a1.83 1.83 0 0 0-1.9 1.66v30.91a2.14 2.14 0 0 0 2 2.26c28.13.15 55.42 7.36 55.4 3.61V43.04c-.07-3.84-27.4-4.87-55.5-4.92Z" opacity=".19"/>
      <path fill="url(#d)" d="M22.9 38.12a1.83 1.83 0 0 0-1.9 1.66v30.91a2.14 2.14 0 0 0 2 2.26c27.93.15 55 7 55 3.34V43.2c-.07-3.71-27.16-5.01-55.1-5.08Z" opacity=".25"/>
      <path fill="url(#e)" d="M22.9 38.12a1.83 1.83 0 0 0-1.9 1.66v30.91a2.12 2.12 0 0 0 2 2.25c27.73.15 54.63 6.57 54.61 3.08V43.36c-.07-3.58-26.96-5.16-54.71-5.24Z" opacity=".31"/>
      <path fill="url(#f)" d="M22.9 38.12a1.84 1.84 0 0 0-1.9 1.66v30.91a2.12 2.12 0 0 0 2 2.25c27.53.14 54.23 6.17 54.22 2.81V43.52c-.08-3.44-26.77-5.31-54.32-5.4Z" opacity=".38"/>
      <path fill="url(#g)" d="M22.9 38.12a1.83 1.83 0 0 0-1.9 1.66v30.91a2.12 2.12 0 0 0 2 2.25c27.33.13 53.83 5.77 53.82 2.54v-31.8c-.08-3.31-26.57-5.51-53.92-5.56Z" opacity=".44"/>
      <path fill="url(#h)" d="M22.9 38.13a1.82 1.82 0 0 0-1.9 1.65v30.91a2.12 2.12 0 0 0 2 2.25c27.13.12 53.44 5.37 53.43 2.27V43.84c-.08-3.17-26.38-5.67-53.53-5.71Z" opacity=".5"/>
      <path fill="url(#i)" d="M22.9 38.13a1.82 1.82 0 0 0-1.9 1.65v30.91a2.12 2.12 0 0 0 2 2.25c26.93.11 53 5 53 2V44c0-3-26.15-5.82-53.1-5.87Z" opacity=".56"/>
      <path fill="url(#j)" d="M22.9 38.13a1.82 1.82 0 0 0-1.9 1.65v30.91a2.12 2.12 0 0 0 2 2.25c26.73.1 52.65 4.58 52.64 1.74V44.17c-.08-2.92-25.99-5.99-52.74-6.04Z" opacity=".63"/>
      <path fill="url(#k)" d="M22.9 38.13a1.81 1.81 0 0 0-1.9 1.65v30.91a2.12 2.12 0 0 0 2 2.25c26.53.09 52.25 4.18 52.24 1.47V44.33c-.08-2.78-25.79-6.14-52.34-6.2Z" opacity=".69"/>
      <path fill="url(#l)" d="M22.9 38.13a1.81 1.81 0 0 0-1.9 1.65v30.91a2.12 2.12 0 0 0 2 2.25c26.33.09 51.86 3.78 51.84 1.2V44.49c-.07-2.65-25.59-6.29-51.94-6.36Z" opacity=".75"/>
      <path fill="url(#m)" d="M22.9 38.13a1.82 1.82 0 0 0-1.9 1.65v30.91a2.12 2.12 0 0 0 2 2.25c26.13.08 51.46 3.38 51.45.93V44.65c-.08-2.52-25.39-6.45-51.55-6.52Z" opacity=".81"/>
      <path fill="url(#n)" d="M22.9 38.13a1.82 1.82 0 0 0-1.9 1.65v30.91a2.12 2.12 0 0 0 2 2.25c25.84.06 51 2.98 51 .66V44.82c0-2.39-25.14-6.61-51.1-6.69Z" opacity=".88"/>
      <path fill="url(#o)" d="M22.9 38.13a1.82 1.82 0 0 0-1.9 1.65v30.91a2.12 2.12 0 0 0 2 2.25c25.73.06 50.67 2.58 50.66.39V44.98c-.08-2.26-25-6.77-50.76-6.85Z" opacity=".94"/>
      <path fill="url(#p)" d="M22.9 38.13a1.82 1.82 0 0 0-1.9 1.65v30.91a2.12 2.12 0 0 0 2 2.25c25.53.1 50.28 2.18 50.26.13V45.14c-.07-2.14-24.8-6.78-50.36-7.01Z"/>
    </g>
    <path fill="url(#q)" d="M21 70.69A2.13 2.13 0 0 0 22.89 73c25.58.18 50.28-1 50.28-4.83 0-11.66-52.17 2.52-52.17 2.52Z"/>
    <path fill="url(#r)" d="M21 70.69A2.13 2.13 0 0 0 22.9 73c25.58.19 50.24-.61 50.27-4.83 0-11.66-52.17 2.52-52.17 2.52Zm1.9 2.11h-.2a2 2 0 0 1-1.7-1.48 2 2 0 0 0 1.86 1.47c25.56-.16 49.87-8 49.87-4.56S48.46 73 22.9 72.8Z"/>
    <path fill="url(#s)" d="M26.68 55.13c.91 0 1.8-.07 2.68-.12l2.58-.17c.84-.07 1.67-.13 2.48-.21l2.42-.23 2.36-.25c.77-.08 1.53-.18 2.3-.27l2.27-.29 2.23-.32c.75-.1 1.49-.22 2.23-.34l2.26-.35 2.26-.36 2.29-.39 2.35-.41 2.4-.42 2.48-.43 2.56-.41c.87-.13 1.66-.25 2.75-.39a21.08 21.08 0 0 1 3.56-.19c1.12.08 2 .37 2 1.15V33.31c0-4.14-24.69 4.33-50.26 4.52a2 2 0 0 0-2 2v15.42h2.93Z"/>
    <path fill="url(#t)" d="M22.89 72.64c25.59-.19 50.31-8.64 50.28-4.52V50.73c0-.78-.89-1.07-2-1.15a21.08 21.08 0 0 0-3.56.19c-1.09.14-1.88.26-2.75.39l-2.56.41-2.49.43-2.4.42-2.35.41-2.29.39-2.26.36-2.26.35c-.74.12-1.48.24-2.23.34l-2.25.32-2.27.29c-.77.09-1.53.19-2.3.27l-2.36.25-2.42.23c-.81.08-1.64.14-2.48.21l-2.58.16c-.88.05-1.77.08-2.68.12l-2.8.09h-2.93v15.48a2 2 0 0 0 1.94 1.95Z"/>
    <path fill="url(#u)" d="M71.16 43.78a21.08 21.08 0 0 0-3.56.22c-1.09.13-1.88.26-2.75.39l-2.56.41-2.48.43-2.4.42-2.35.4-2.29.4-2.26.36-2.26.35-2.25.31-2.25.32-2.27.29-2.3.27-2.36.25-2.42.23-2.46.17-2.58.16-2.68.13-2.8.08h-2.93v11.6h2.93c.93 0 1.88-.05 2.8-.09s1.8-.07 2.68-.12l2.58-.17c.84-.06 1.67-.13 2.48-.21l2.42-.23c.8-.07 1.58-.16 2.35-.24l2.31-.28 2.27-.29 2.23-.26 2.23-.34 2.26-.35 2.28-.39 2.29-.39 2.35-.4 2.4-.42 2.48-.43 2.56-.36c.87-.14 1.66-.26 2.75-.39a20.09 20.09 0 0 1 3.56-.19c1.12.07 2 .36 2 1.14V44.92c.01-.78-.88-1.06-2-1.14Z"/>
    <path fill="url(#v)" d="M49.65 48.42a4.67 4.67 0 0 0-2.52-.29 5.77 5.77 0 0 0-2.5 1 6.08 6.08 0 0 0-1.79 2 5.35 5.35 0 0 0-.69 2.6 4.43 4.43 0 0 0 .69 2.42 4.09 4.09 0 0 0 1.79 1.55 4.43 4.43 0 0 0 2.5.31A5.76 5.76 0 0 0 49.65 57a6.35 6.35 0 0 0 1.79-2 5.62 5.62 0 0 0 .68-2.62 4.36 4.36 0 0 0-.68-2.4 4 4 0 0 0-1.79-1.56Zm-5.33 1.78a.21.21 0 0 0 .3 0 .22.22 0 0 0 .05-.3 2.37 2.37 0 0 1 .3-.23l.31-.21a.2.2 0 0 0 .28.07.24.24 0 0 0 .12-.29 2.07 2.07 0 0 1 .34-.15 2 2 0 0 1 .34-.13.18.18 0 0 0 .24.14.26.26 0 0 0 .18-.26l.35-.08h.36a.17.17 0 0 0 .18.2.26.26 0 0 0 .25-.21h.34a1.86 1.86 0 0 1 .34.06.18.18 0 0 0 .12.25.25.25 0 0 0 .28-.15l.31.11a2.1 2.1 0 0 1 .3.15.21.21 0 0 0 0 .29.24.24 0 0 0 .3-.09l.26.2.24.23a.22.22 0 0 0 0 .3.22.22 0 0 0 .3 0 1.85 1.85 0 0 1 .19.27 2.54 2.54 0 0 1 .16.28.27.27 0 0 0-.11.3.2.2 0 0 0 .28.07c0 .11.07.22.1.33l-2.56.93-.82.45-.05-.12.81-.47 2.19-1.77-2.34 1.54-.71.63-.08-.09.69-.65 1.75-2.23-2 2.05c-.22.31-.33.46-.54.77a.6.6 0 0 0-.11-.06c.21-.32.31-.48.53-.79L49.31 49l-1.43 2.41-.35.86h-.13l.33-.87c.21-1 .32-1.58.53-2.64-.33 1-.49 1.57-.82 2.61 0 .36-.07.53-.12.89h-.14l.1-.89-.15-2.59c-.05 1.06-.08 1.59-.14 2.64l.1.86h-.14c0-.34-.07-.51-.12-.85-.32-.94-.49-1.41-.81-2.35l.52 2.48c.13.3.2.45.33.76l-.13.08c-.14-.31-.2-.46-.34-.76l-1.43-2 1.17 2.17c.21.25.32.37.52.62l-.1.1-.56-.59-1.94-1.46c.1-.09.17-.19.26-.28Zm-.76.94a.23.23 0 0 0 .3-.08.2.2 0 0 0 0-.29l.25-.29 1.73 1.7.69.44a.57.57 0 0 0-.08.13l-.7-.43c-.94-.33-1.4-.5-2.34-.85a.97.97 0 0 1 .15-.33ZM43 52.22a.23.23 0 0 0 .27-.15.19.19 0 0 0-.11-.27c0-.11.11-.22.17-.33l2.19 1.13.81.23-.06.14-.81-.21-2.57-.19c.11-.12.11-.23.11-.35Zm-.24 1.85v-.71a.25.25 0 0 0 .23-.21.18.18 0 0 0-.18-.22c0-.12 0-.24.08-.36l2.49.49h.87v.14h-.87l-2.62.5 2.62-.21.87-.23v.14l-.87.25c-1 .47-1.49.7-2.49 1.15 0-.11-.06-.22-.08-.33a.24.24 0 0 0 .18-.26.18.18 0 0 0-.19-.14Zm.4 1.45a.23.23 0 0 0 .11-.29.18.18 0 0 0-.27-.08c0-.11-.08-.22-.11-.33L45.5 54l.81-.45.06.12-.81.46-2.19 1.74c-.06-.15-.12-.25-.17-.35Zm.62.88a.21.21 0 0 0 0-.3.2.2 0 0 0-.29 0l-.19-.27 2.34-1.5.7-.63.08.1-.69.64c-.69.88-1 1.32-1.73 2.18 0-.08-.1-.14-.18-.22Zm.8.35a.24.24 0 0 0-.3.08 2.52 2.52 0 0 1-.25-.21c.78-.8 1.17-1.2 1.94-2l.55-.77.1.07c-.2.31-.31.47-.52.78L45 57.19l-.3-.14a.22.22 0 0 0-.08-.3Zm3.3.52a.19.19 0 0 0-.25-.15.27.27 0 0 0-.18.27l-.36.07h-.35a.18.18 0 0 0-.18-.21.26.26 0 0 0-.24.21h-.35c-.11 0-.22 0-.33-.06a.2.2 0 0 0-.12-.26.25.25 0 0 0-.28.15 2.08 2.08 0 0 1-.32-.12c.58-.95.87-1.43 1.44-2.39.14-.34.2-.52.34-.86h.13l-.33.87c-.21 1.06-.31 1.58-.53 2.64l.82-2.6c.05-.36.07-.54.12-.89h.14l-.1.89c.06 1 .09 1.55.14 2.59l.15-2.63-.1-.86h.14c0 .34.07.51.12.85l.82 2.35ZM50 56a.21.21 0 0 0-.3 0 .22.22 0 0 0 0 .3 3.5 3.5 0 0 1-.3.24l-.31.21a.2.2 0 0 0-.28-.07.25.25 0 0 0-.12.3 3.49 3.49 0 0 1-.34.15c-.21-1-.32-1.48-.53-2.47l-.33-.77.13-.07.35.76 1.43 2-1.18-2.15-.52-.63.11-.1.54.61 2 1.43c-.23.05-.3.16-.35.26Zm1.28-2.06a.26.26 0 0 0-.28.17.2.2 0 0 0 .11.26c0 .11-.1.22-.16.33a2.59 2.59 0 0 1-.19.33.24.24 0 0 0-.3.1.2.2 0 0 0 0 .29l-.25.29L48.47 54l-.69-.44a.83.83 0 0 0 .08-.12l.71.42 2.34.8-2.19-1.06-.81-.22s0-.09.05-.13l.82.2 2.56.13a3.57 3.57 0 0 1-.1.35Zm.26-1.5v.35a.28.28 0 0 0-.24.23.18.18 0 0 0 .18.21c0 .12-.05.24-.08.36l-2.48-.43H48a.71.71 0 0 0 0-.16h.88l2.62-.56-2.62.26-.88.24a.53.53 0 0 0 0-.13l.87-.26 2.48-1.21a1.59 1.59 0 0 1 .08.33.27.27 0 0 0-.18.27.19.19 0 0 0 .24.15c0 .1.01.22.01.34Z"/>
  </g>
</svg>