<svg xmlns="http://www.w3.org/2000/svg" xmlns:xlink="http://www.w3.org/1999/xlink" viewBox="0 0 80 80">
  <defs>
    <linearGradient id="b" x1="20.95" x2="79.1" y1="58.17" y2="58.17" gradientUnits="userSpaceOnUse">
      <stop offset=".38" stop-opacity=".06"/>
      <stop offset="1" stop-opacity="0"/>
    </linearGradient>
    <linearGradient id="c" x1="20.95" x2="78.71" y1="58.03" y2="58.03" gradientUnits="userSpaceOnUse">
      <stop offset=".38" stop-opacity=".13"/>
      <stop offset="1" stop-opacity="0"/>
    </linearGradient>
    <linearGradient id="d" x1="20.95" x2="78.31" y1="57.88" y2="57.88" gradientUnits="userSpaceOnUse">
      <stop offset=".38" stop-opacity=".19"/>
      <stop offset="1" stop-opacity="0"/>
    </linearGradient>
    <linearGradient id="e" x1="20.95" x2="77.92" y1="57.74" y2="57.74" gradientUnits="userSpaceOnUse">
      <stop offset=".38" stop-opacity=".25"/>
      <stop offset="1" stop-opacity="0"/>
    </linearGradient>
    <linearGradient id="f" x1="20.95" x2="77.52" y1="57.59" y2="57.59" gradientUnits="userSpaceOnUse">
      <stop offset=".38" stop-opacity=".31"/>
      <stop offset="1" stop-opacity="0"/>
    </linearGradient>
    <linearGradient id="g" x1="20.95" x2="77.13" y1="57.45" y2="57.45" gradientUnits="userSpaceOnUse">
      <stop offset=".38" stop-opacity=".38"/>
      <stop offset="1" stop-opacity="0"/>
    </linearGradient>
    <linearGradient id="h" x1="20.95" x2="76.73" y1="57.3" y2="57.3" gradientUnits="userSpaceOnUse">
      <stop offset=".38" stop-opacity=".44"/>
      <stop offset="1" stop-opacity="0"/>
    </linearGradient>
    <linearGradient id="i" x1="20.95" x2="76.34" y1="57.16" y2="57.16" gradientUnits="userSpaceOnUse">
      <stop offset=".38" stop-opacity=".5"/>
      <stop offset="1" stop-opacity="0"/>
    </linearGradient>
    <linearGradient id="j" x1="20.95" x2="75.94" y1="57.02" y2="57.02" gradientUnits="userSpaceOnUse">
      <stop offset=".38" stop-opacity=".56"/>
      <stop offset="1" stop-opacity="0"/>
    </linearGradient>
    <linearGradient id="k" x1="20.95" x2="75.55" y1="56.87" y2="56.87" gradientUnits="userSpaceOnUse">
      <stop offset=".38" stop-opacity=".63"/>
      <stop offset="1" stop-opacity="0"/>
    </linearGradient>
    <linearGradient id="l" x1="20.95" x2="75.15" y1="56.73" y2="56.73" gradientUnits="userSpaceOnUse">
      <stop offset=".38" stop-opacity=".69"/>
      <stop offset="1" stop-opacity="0"/>
    </linearGradient>
    <linearGradient id="m" x1="20.95" x2="74.75" y1="56.59" y2="56.59" gradientUnits="userSpaceOnUse">
      <stop offset=".38" stop-opacity=".75"/>
      <stop offset="1" stop-opacity="0"/>
    </linearGradient>
    <linearGradient id="n" x1="20.95" x2="74.36" y1="56.45" y2="56.45" gradientUnits="userSpaceOnUse">
      <stop offset=".38" stop-opacity=".81"/>
      <stop offset="1" stop-opacity="0"/>
    </linearGradient>
    <linearGradient id="o" x1="20.95" x2="73.96" y1="56.31" y2="56.31" gradientUnits="userSpaceOnUse">
      <stop offset=".38" stop-opacity=".88"/>
      <stop offset="1" stop-opacity="0"/>
    </linearGradient>
    <linearGradient id="p" x1="20.95" x2="73.57" y1="56.18" y2="56.18" gradientUnits="userSpaceOnUse">
      <stop offset=".38" stop-opacity=".94"/>
      <stop offset="1" stop-opacity="0"/>
    </linearGradient>
    <linearGradient id="q" x1="20.95" x2="73.17" y1="56.05" y2="56.05" gradientUnits="userSpaceOnUse">
      <stop offset=".38"/>
      <stop offset="1" stop-opacity="0"/>
    </linearGradient>
    <linearGradient id="r" x1="20.95" x2="73.17" y1="68.26" y2="68.26" gradientUnits="userSpaceOnUse">
      <stop offset="0" stop-color="#700000"/>
      <stop offset=".33" stop-color="#730000"/>
      <stop offset=".59" stop-color="#7d0000"/>
      <stop offset=".83" stop-color="#8e0000"/>
      <stop offset="1" stop-color="#9f0000"/>
    </linearGradient>
    <linearGradient id="s" x1="47.06" x2="47.06" y1="63.55" y2="72.98" gradientUnits="userSpaceOnUse">
      <stop offset=".35" stop-color="#cf2000"/>
      <stop offset=".65" stop-color="#cd1f00"/>
      <stop offset=".75" stop-color="#c61d00"/>
      <stop offset=".83" stop-color="#bb1900"/>
      <stop offset=".89" stop-color="#aa1300"/>
      <stop offset=".94" stop-color="#940c00"/>
      <stop offset=".99" stop-color="#790300"/>
      <stop offset="1" stop-color="#700000"/>
    </linearGradient>
    <linearGradient id="t" x1="20.95" x2="73.17" y1="48.07" y2="48.07" gradientUnits="userSpaceOnUse">
      <stop offset="0" stop-color="#0050cf"/>
      <stop offset=".02" stop-color="#0252d1"/>
      <stop offset=".24" stop-color="#1363e2"/>
      <stop offset=".49" stop-color="#1d6dec"/>
      <stop offset=".79" stop-color="#2070ef"/>
      <stop offset=".84" stop-color="#1e6dec"/>
      <stop offset=".88" stop-color="#1963e2"/>
      <stop offset=".92" stop-color="#1152d1"/>
      <stop offset=".95" stop-color="#053ab9"/>
      <stop offset=".97" stop-color="#0030af"/>
      <stop offset="1" stop-color="#2070ef"/>
    </linearGradient>
    <linearGradient id="u" x1="20.95" x2="73.17" y1="61.11" y2="61.11" gradientUnits="userSpaceOnUse">
      <stop offset="0" stop-color="#cf2000"/>
      <stop offset=".02" stop-color="#d12201"/>
      <stop offset=".24" stop-color="#e23309"/>
      <stop offset=".49" stop-color="#ec3d0e"/>
      <stop offset=".79" stop-color="#ef4010"/>
      <stop offset=".84" stop-color="#ec3d0f"/>
      <stop offset=".88" stop-color="#e2330d"/>
      <stop offset=".92" stop-color="#d12208"/>
      <stop offset=".95" stop-color="#b90a03"/>
      <stop offset=".97" stop-color="#af0000"/>
      <stop offset="1" stop-color="#ef4010"/>
    </linearGradient>
    <linearGradient id="v" x1="20.95" x2="73.17" y1="55.25" y2="55.25" gradientUnits="userSpaceOnUse">
      <stop offset="0" stop-color="#dfdfdf"/>
      <stop offset=".02" stop-color="#e1e1e1"/>
      <stop offset=".24" stop-color="#f2f2f2"/>
      <stop offset=".49" stop-color="#fcfcfc"/>
      <stop offset=".79" stop-color="#fff"/>
      <stop offset=".84" stop-color="#fcfcfc"/>
      <stop offset=".88" stop-color="#f2f2f2"/>
      <stop offset=".92" stop-color="#e1e1e1"/>
      <stop offset=".95" stop-color="#c9c9c9"/>
      <stop offset=".97" stop-color="#bfbfbf"/>
      <stop offset="1" stop-color="#fff"/>
    </linearGradient>
    <linearGradient id="a" x1="20.95" x2="73.17" y1="54.86" y2="54.86" gradientUnits="userSpaceOnUse">
      <stop offset="0" stop-color="#fbbf00"/>
      <stop offset=".02" stop-color="#fbc102"/>
      <stop offset=".24" stop-color="#fdd213"/>
      <stop offset=".49" stop-color="#ffdc1d"/>
      <stop offset=".79" stop-color="#ffdf20"/>
      <stop offset=".84" stop-color="#fddc1e"/>
      <stop offset=".88" stop-color="#f8d219"/>
      <stop offset=".92" stop-color="#eec111"/>
      <stop offset=".95" stop-color="#e1a905"/>
      <stop offset=".97" stop-color="#db9f00"/>
      <stop offset="1" stop-color="#ffdf20"/>
    </linearGradient>
    <linearGradient xlink:href="#a" id="w" x1="20.95" x2="73.17" y1="53.25" y2="53.25"/>
    <linearGradient xlink:href="#a" id="x" x1="20.95" x2="73.17" y1="67.72" y2="67.72"/>
    <linearGradient xlink:href="#a" id="y" x1="20.95" x2="73.17" y1="42.77" y2="42.77"/>
  </defs>
  <g data-name="Layer 1">
    <path fill="#0e3ca5" d="M33.66 55.69c1.67 6.17 7.65 10.88 10.67 10.68.1 0 11.45-2.12 17.66-12.5 4.84-8.08 3.19-15.88-3.39-16C56.24 38 30.48 44 33.66 55.69M58 16.09a28.84 28.84 0 0 0-30.42-4.39 17.27 17.27 0 0 0-1.83.9c-.4.21-.81.43-1.2.66h.09a13.45 13.45 0 0 0-3 2.88c-8.28 11 19.48 18.9 34.32 18.92C62.75 40 64.66 21.28 58 16.09Z"/>
    <path fill="#5493f7" d="M29.25 16.31c-3.81 5.73-16.51 9.77-18.6 9.14l.27-.52a30.71 30.71 0 0 1 2.47-4 30.28 30.28 0 0 1 3-3.55 31.16 31.16 0 0 1 3.54-3c.78-.57 1.6-1.11 2.43-1.6a9 9 0 0 1 4.2-1.12c5.66.11 2.7 4.65 2.67 4.69m-3.1 40.47c.27 1.8 0 8.92-.38 9.52-.32 0-1 .06-2.89-1a29.48 29.48 0 0 1-2.86-1.9 30.54 30.54 0 0 1-6.58-6.59 30.71 30.71 0 0 1-2.47-4 29.52 29.52 0 0 1-1.9-4.35 30.18 30.18 0 0 1-1.15-4.68 30.58 30.58 0 0 1 0-9.82 30.18 30.18 0 0 1 1.15-4.68c.1-.31.21-.61.32-.91 2.19 2.92 4.73 5.56 6.89 8.5s4.88 7.38 5.45 8.36c3.57 6.06 4.14 9.8 4.42 11.6m42.2-17.98a30.28 30.28 0 0 1-2.12 11.17c-3.58 3.85-27.73-5.63-28-5.73-3.27-1.45-13.33-5.85-14.21-12.77-1.3-10 18.89-16.89 27.77-17.16 1.06 0 4.3 0 6.19 1.59a30.35 30.35 0 0 1 10.4 22.9M52 65.87c-2.63 1.23-5.53.33-4.78-2.23 1.45-4.93 14.07-10 16.86-10.25.34 0 .49.2.34.47A30.75 30.75 0 0 1 52 65.87"/>
    <g opacity=".3">
      <path fill="url(#b)" d="M22.91 38.12a1.83 1.83 0 0 0-2 1.66v30.91a2.13 2.13 0 0 0 2 2.26c28.53.17 56.21 8.16 56.19 4.14V42.71c.02-4.1-27.66-4.57-56.19-4.59Z" opacity=".06"/>
      <path fill="url(#c)" d="M22.9 38.12a1.82 1.82 0 0 0-1.9 1.66v30.91a2.14 2.14 0 0 0 2 2.26c28.33.16 55.81 7.76 55.8 3.88v-34c-.08-3.93-27.56-4.67-55.9-4.71Z" opacity=".13"/>
      <path fill="url(#d)" d="M22.9 38.12a1.83 1.83 0 0 0-1.9 1.66v30.91a2.14 2.14 0 0 0 2 2.26c28.13.15 55.42 7.36 55.4 3.61V43.04c-.07-3.84-27.4-4.87-55.5-4.92Z" opacity=".19"/>
      <path fill="url(#e)" d="M22.9 38.12a1.83 1.83 0 0 0-1.9 1.66v30.91a2.14 2.14 0 0 0 2 2.26c27.93.15 55 7 55 3.34V43.2c-.07-3.71-27.16-5.01-55.1-5.08Z" opacity=".25"/>
      <path fill="url(#f)" d="M22.9 38.12a1.83 1.83 0 0 0-1.9 1.66v30.91a2.12 2.12 0 0 0 2 2.25c27.73.15 54.63 6.57 54.61 3.08V43.36c-.07-3.58-26.96-5.16-54.71-5.24Z" opacity=".31"/>
      <path fill="url(#g)" d="M22.9 38.12a1.84 1.84 0 0 0-1.9 1.66v30.91a2.12 2.12 0 0 0 2 2.25c27.53.14 54.23 6.17 54.22 2.81V43.52c-.08-3.44-26.77-5.31-54.32-5.4Z" opacity=".38"/>
      <path fill="url(#h)" d="M22.9 38.12a1.83 1.83 0 0 0-1.9 1.66v30.91a2.12 2.12 0 0 0 2 2.25c27.33.13 53.83 5.77 53.82 2.54v-31.8c-.08-3.31-26.57-5.51-53.92-5.56Z" opacity=".44"/>
      <path fill="url(#i)" d="M22.9 38.13a1.82 1.82 0 0 0-1.9 1.65v30.91a2.12 2.12 0 0 0 2 2.25c27.13.12 53.44 5.37 53.43 2.27V43.84c-.08-3.17-26.38-5.67-53.53-5.71Z" opacity=".5"/>
      <path fill="url(#j)" d="M22.9 38.13a1.82 1.82 0 0 0-1.9 1.65v30.91a2.12 2.12 0 0 0 2 2.25c26.93.11 53 5 53 2V44c0-3-26.15-5.82-53.1-5.87Z" opacity=".56"/>
      <path fill="url(#k)" d="M22.9 38.13a1.82 1.82 0 0 0-1.9 1.65v30.91a2.12 2.12 0 0 0 2 2.25c26.73.1 52.65 4.58 52.64 1.74V44.17c-.08-2.92-25.99-5.99-52.74-6.04Z" opacity=".63"/>
      <path fill="url(#l)" d="M22.9 38.13a1.81 1.81 0 0 0-1.9 1.65v30.91a2.12 2.12 0 0 0 2 2.25c26.53.09 52.25 4.18 52.24 1.47V44.33c-.08-2.78-25.79-6.14-52.34-6.2Z" opacity=".69"/>
      <path fill="url(#m)" d="M22.9 38.13a1.81 1.81 0 0 0-1.9 1.65v30.91a2.12 2.12 0 0 0 2 2.25c26.33.09 51.86 3.78 51.84 1.2V44.49c-.07-2.65-25.59-6.29-51.94-6.36Z" opacity=".75"/>
      <path fill="url(#n)" d="M22.9 38.13a1.82 1.82 0 0 0-1.9 1.65v30.91a2.12 2.12 0 0 0 2 2.25c26.13.08 51.46 3.38 51.45.93V44.65c-.08-2.52-25.39-6.45-51.55-6.52Z" opacity=".81"/>
      <path fill="url(#o)" d="M22.9 38.13a1.82 1.82 0 0 0-1.9 1.65v30.91a2.12 2.12 0 0 0 2 2.25c25.84.06 51 2.98 51 .66V44.82c0-2.39-25.14-6.61-51.1-6.69Z" opacity=".88"/>
      <path fill="url(#p)" d="M22.9 38.13a1.82 1.82 0 0 0-1.9 1.65v30.91a2.12 2.12 0 0 0 2 2.25c25.73.06 50.67 2.58 50.66.39V44.98c-.08-2.26-25-6.77-50.76-6.85Z" opacity=".94"/>
      <path fill="url(#q)" d="M22.9 38.13a1.82 1.82 0 0 0-1.9 1.65v30.91a2.12 2.12 0 0 0 2 2.25c25.53.1 50.28 2.18 50.26.13V45.14c-.07-2.14-24.8-6.78-50.36-7.01Z"/>
    </g>
    <path fill="url(#r)" d="M21 70.69A2.13 2.13 0 0 0 22.89 73c25.58.18 50.28-1 50.28-4.83 0-11.66-52.17 2.52-52.17 2.52Z"/>
    <path fill="url(#s)" d="M21 70.69A2.13 2.13 0 0 0 22.9 73c25.58.19 50.24-.61 50.27-4.83 0-11.66-52.17 2.52-52.17 2.52Zm1.9 2.11h-.2a2 2 0 0 1-1.7-1.48 2 2 0 0 0 1.86 1.47c25.56-.16 49.87-8 49.87-4.56S48.46 73 22.9 72.8Z"/>
    <path fill="url(#t)" d="M22.91 37.83a2 2 0 0 0-2 2V64h2.93l2.8-.08 2.68-.13c.87 0 1.73-.1 2.58-.17l2.48-.2 2.42-.23 2.35-.25 2.31-.28 2.27-.29L46 62l2.23-.34 2.25-.35 2.27-.37 2.29-.39 2.35-.4 2.4-.42 2.47-.43 2.57-.41c.87-.13 1.66-.26 2.75-.39a20.09 20.09 0 0 1 3.56-.19c1.12.08 2 .36 2 1.14V33.31c.06-4.14-24.66 4.33-50.23 4.52Z"/>
    <path fill="url(#u)" d="M22.89 72.64c25.59-.19 50.31-8.64 50.28-4.52V50.74c0-.78-.89-1.07-2-1.14a20.09 20.09 0 0 0-3.56.19c-1.09.13-1.89.25-2.76.39l-2.56.41-2.48.41-2.4.42-2.35.4-2.29.39-2.26.37-2.26.42-2.25.29-2.25.31-2.27.29-2.31.28-2.35.25-2.42.23-2.48.2c-.85.07-1.71.12-2.58.17l-2.68.13-2.8.08h-2.93v15.46a2 2 0 0 0 1.96 1.95Z"/>
    <path fill="url(#v)" d="m26.16 69.58 2.36-1.46 2.25-1.42 2.16-1.4L35 63.9l2.1-1.41 2.11-1.44 2.16-1.5L43.66 58c.76-.54 1.55-1.1 2.35-1.69l2.5-1.82 2.69-2-2.69-1.13L46 50.3l-2.36-1-2.25-1-2.16-1-2.11-1-2.1-1c-.7-.33-1.4-.68-2.11-1l-2.16-1.08c-.74-.37-1.49-.76-2.25-1.16s-1.55-.82-2.36-1.26l-2.51-1.37c-.64-.35-1.3-.73-2-1.11a2 2 0 0 0-.63 1.46v30.91a1.93 1.93 0 0 0 .77 1.54l1.93-1.14Z"/>
    <path fill="url(#a)" d="m36.83 53.85-1.54.32v-.27l1.4-.36 1.31-.37-.52-.37-2.35.81a3 3 0 0 0-.31-.71c.84-.56 1.26-.85 2.09-1.42 0-.27 0-.4.07-.67l-1.16.93-1.16.91-.16-.2 1.21-1.08L37 50.29c0-.44 0-.66.07-1.09l-1.1.16-1 1.3L34 52a1.64 1.64 0 0 0-.22-.14l.83-1.22.82-1.23-.67.13c-.49.88-.74 1.31-1.24 2.18a3 3 0 0 0-.75-.24c.25-.95.37-1.43.61-2.38l-.38-.53c-.1.57-.18 1-.25 1.41s-.15.85-.25 1.41h-.27c.07-.62.12-1.08.18-1.55s.1-.93.17-1.55l-.73-.76-.73.87c.07.61.12 1.07.17 1.53s.11.91.17 1.52l-.27.06c-.09-.55-.16-1-.23-1.37s-.13-.83-.22-1.38l-.43.55.58 2.3a3.86 3.86 0 0 0-.74.35l-1.22-2h-.67c.33.45.57.79.82 1.12s.48.67.81 1.11l-.22.18-1-1.16-1-1.16L26.6 50c0 .43 0 .65.06 1.09l1.21.92 1.22.9c-.06.08-.12.15-.17.23l-1.15-.77-1.14-.77c0 .26 0 .39.06.66.83.47 1.24.7 2.07 1.15a3.34 3.34 0 0 0-.3.76l-2.34-.51-.52.43 1.4.2 1.39.18a2.51 2.51 0 0 0 0 .27c-.62 0-1.08-.07-1.54-.1l-1.54-.12-.82.74.82.71 1.54-.22 1.54-.24v.27L27 56l-1.4.28.52.4c.94-.26 1.41-.4 2.35-.68a3.14 3.14 0 0 0 .31.73l-2.09 1.31c0 .26 0 .4-.07.66l1.16-.85 1.16-.85.16.21-1.21 1-1.21 1c0 .44 0 .65-.07 1.09l1.1-.1 1-1.26 1-1.26.22.15-.93 1.24c-.24.36-.49.71-.82 1.19l.67-.1c.5-.85.75-1.28 1.24-2.14a3.33 3.33 0 0 0 .75.26c-.24.95-.37 1.42-.61 2.37l.42.49c.1-.56.17-1 .24-1.41s.15-.84.25-1.4h.27c-.07.62-.12 1.08-.17 1.55s-.1.93-.17 1.55l.72.76.73-.87c-.06-.61-.12-1.07-.17-1.53s-.1-.91-.17-1.52l.27-.06c.09.55.16 1 .23 1.37s.14.82.23 1.37l.42-.55c-.23-.91-.35-1.37-.58-2.29a3.94 3.94 0 0 0 .74-.37c.49.79.74 1.18 1.22 2h.67l-.81-1.08-.82-1.09a1.92 1.92 0 0 0 .22-.18l1 1.12 1 1.12h1.09c0-.44 0-.66-.06-1.09l-1.21-.85-1.22-.85a2.07 2.07 0 0 0 .17-.24l1.15.72L37 58c0-.27 0-.4-.07-.66l-2.07-1a3.7 3.7 0 0 0 .3-.78c.94.16 1.41.24 2.34.38l.52-.47-1.39-.1-1.4-.11a2.36 2.36 0 0 0 0-.28h3.09l.81-.81-.81-.64Z"/>
    <path fill="url(#w)" d="M46.27 52.78v-1.56l-.91 1.4-1.48-.29.92 1.13-.92 1.39 1.48-.7c.36.46.55.68.91 1.13v-1.55l1.48-.7Z"/>
    <path fill="url(#x)" d="m24.11 67.14-.62-1.41c-.13.61-.19.92-.32 1.53l-1.56.17 1.36.76c-.14.61-.2.92-.34 1.53l1.16-1.07 1.35.75-.64-1.4 1.17-1.07Z"/>
    <path fill="url(#y)" d="m23.17 43.23.32 1.52.63-1.44 1.55.12-1.17-1 .65-1.43-1.35.83-1.16-1c.13.6.2.91.33 1.52l-1.36.78Z"/>
  </g>
</svg>