<svg xmlns="http://www.w3.org/2000/svg" xmlns:xlink="http://www.w3.org/1999/xlink" viewBox="0 0 80 80">
  <defs>
    <linearGradient id="b" x1="20.95" x2="73.17" y1="68.26" y2="68.26" gradientUnits="userSpaceOnUse">
      <stop offset="0" stop-color="#600000"/>
      <stop offset=".33" stop-color="#630000"/>
      <stop offset=".59" stop-color="#6d0000"/>
      <stop offset=".83" stop-color="#7e0000"/>
      <stop offset="1" stop-color="#8f0000"/>
    </linearGradient>
    <linearGradient id="c" x1="47.06" x2="47.06" y1="63.55" y2="72.98" gradientUnits="userSpaceOnUse">
      <stop offset=".35" stop-color="#bf1010"/>
      <stop offset=".65" stop-color="#bd1010"/>
      <stop offset=".75" stop-color="#b60f0f"/>
      <stop offset=".83" stop-color="#ab0d0d"/>
      <stop offset=".89" stop-color="#9a0a0a"/>
      <stop offset=".94" stop-color="#840606"/>
      <stop offset=".99" stop-color="#690202"/>
      <stop offset="1" stop-color="#600000"/>
    </linearGradient>
    <linearGradient id="d" x1="20.95" x2="79.1" y1="58.17" y2="58.17" gradientUnits="userSpaceOnUse">
      <stop offset=".38" stop-opacity=".06"/>
      <stop offset="1" stop-opacity="0"/>
    </linearGradient>
    <linearGradient id="e" x1="20.95" x2="78.71" y1="58.03" y2="58.03" gradientUnits="userSpaceOnUse">
      <stop offset=".38" stop-opacity=".13"/>
      <stop offset="1" stop-opacity="0"/>
    </linearGradient>
    <linearGradient id="f" x1="20.95" x2="78.31" y1="57.88" y2="57.88" gradientUnits="userSpaceOnUse">
      <stop offset=".38" stop-opacity=".19"/>
      <stop offset="1" stop-opacity="0"/>
    </linearGradient>
    <linearGradient id="g" x1="20.95" x2="77.92" y1="57.74" y2="57.74" gradientUnits="userSpaceOnUse">
      <stop offset=".38" stop-opacity=".25"/>
      <stop offset="1" stop-opacity="0"/>
    </linearGradient>
    <linearGradient id="h" x1="20.95" x2="77.52" y1="57.59" y2="57.59" gradientUnits="userSpaceOnUse">
      <stop offset=".38" stop-opacity=".31"/>
      <stop offset="1" stop-opacity="0"/>
    </linearGradient>
    <linearGradient id="i" x1="20.95" x2="77.13" y1="57.45" y2="57.45" gradientUnits="userSpaceOnUse">
      <stop offset=".38" stop-opacity=".38"/>
      <stop offset="1" stop-opacity="0"/>
    </linearGradient>
    <linearGradient id="j" x1="20.95" x2="76.73" y1="57.3" y2="57.3" gradientUnits="userSpaceOnUse">
      <stop offset=".38" stop-opacity=".44"/>
      <stop offset="1" stop-opacity="0"/>
    </linearGradient>
    <linearGradient id="k" x1="20.95" x2="76.34" y1="57.16" y2="57.16" gradientUnits="userSpaceOnUse">
      <stop offset=".38" stop-opacity=".5"/>
      <stop offset="1" stop-opacity="0"/>
    </linearGradient>
    <linearGradient id="l" x1="20.95" x2="75.94" y1="57.02" y2="57.02" gradientUnits="userSpaceOnUse">
      <stop offset=".38" stop-opacity=".56"/>
      <stop offset="1" stop-opacity="0"/>
    </linearGradient>
    <linearGradient id="m" x1="20.95" x2="75.55" y1="56.87" y2="56.87" gradientUnits="userSpaceOnUse">
      <stop offset=".38" stop-opacity=".63"/>
      <stop offset="1" stop-opacity="0"/>
    </linearGradient>
    <linearGradient id="n" x1="20.95" x2="75.15" y1="56.73" y2="56.73" gradientUnits="userSpaceOnUse">
      <stop offset=".38" stop-opacity=".69"/>
      <stop offset="1" stop-opacity="0"/>
    </linearGradient>
    <linearGradient id="o" x1="20.95" x2="74.75" y1="56.59" y2="56.59" gradientUnits="userSpaceOnUse">
      <stop offset=".38" stop-opacity=".75"/>
      <stop offset="1" stop-opacity="0"/>
    </linearGradient>
    <linearGradient id="p" x1="20.95" x2="74.36" y1="56.45" y2="56.45" gradientUnits="userSpaceOnUse">
      <stop offset=".38" stop-opacity=".81"/>
      <stop offset="1" stop-opacity="0"/>
    </linearGradient>
    <linearGradient id="q" x1="20.95" x2="73.96" y1="56.31" y2="56.31" gradientUnits="userSpaceOnUse">
      <stop offset=".38" stop-opacity=".88"/>
      <stop offset="1" stop-opacity="0"/>
    </linearGradient>
    <linearGradient id="r" x1="20.95" x2="73.57" y1="56.18" y2="56.18" gradientUnits="userSpaceOnUse">
      <stop offset=".38" stop-opacity=".94"/>
      <stop offset="1" stop-opacity="0"/>
    </linearGradient>
    <linearGradient id="s" x1="20.95" x2="73.17" y1="56.05" y2="56.05" gradientUnits="userSpaceOnUse">
      <stop offset=".38"/>
      <stop offset="1" stop-opacity="0"/>
    </linearGradient>
    <linearGradient id="t" x1="20.95" x2="73.17" y1="52.41" y2="52.41" gradientUnits="userSpaceOnUse">
      <stop offset="0" stop-color="#bf1010"/>
      <stop offset=".02" stop-color="#c11212"/>
      <stop offset=".24" stop-color="#d22323"/>
      <stop offset=".49" stop-color="#dc2d2d"/>
      <stop offset=".79" stop-color="#df3030"/>
      <stop offset=".84" stop-color="#dc2e2e"/>
      <stop offset=".88" stop-color="#d22626"/>
      <stop offset=".92" stop-color="#c11919"/>
      <stop offset=".95" stop-color="#a90808"/>
      <stop offset=".97" stop-color="#9f0000"/>
      <stop offset="1" stop-color="#df3030"/>
    </linearGradient>
    <linearGradient id="a" x1="20.95" x2="73.17" y1="47.07" y2="47.07" gradientUnits="userSpaceOnUse">
      <stop offset="0" stop-color="#dfdfdf"/>
      <stop offset=".02" stop-color="#e1e1e1"/>
      <stop offset=".24" stop-color="#f2f2f2"/>
      <stop offset=".49" stop-color="#fcfcfc"/>
      <stop offset=".79" stop-color="#fff"/>
      <stop offset=".84" stop-color="#fcfcfc"/>
      <stop offset=".88" stop-color="#f2f2f2"/>
      <stop offset=".92" stop-color="#e1e1e1"/>
      <stop offset=".95" stop-color="#c9c9c9"/>
      <stop offset=".97" stop-color="#bfbfbf"/>
      <stop offset="1" stop-color="#fff"/>
    </linearGradient>
    <linearGradient xlink:href="#a" id="u" x1="20.95" x2="73.17" y1="60.46" y2="60.46"/>
    <linearGradient xlink:href="#a" id="v" x1="20.95" x2="73.17" y1="65.81" y2="65.81"/>
    <linearGradient id="w" x1="20.95" x2="73.17" y1="46.21" y2="46.21" gradientUnits="userSpaceOnUse">
      <stop offset="0" stop-color="#00209f"/>
      <stop offset=".02" stop-color="#0222a1"/>
      <stop offset=".24" stop-color="#1333b2"/>
      <stop offset=".49" stop-color="#1d3dbc"/>
      <stop offset=".79" stop-color="#2040bf"/>
      <stop offset=".84" stop-color="#1e3dbc"/>
      <stop offset=".88" stop-color="#1933b2"/>
      <stop offset=".92" stop-color="#1122a1"/>
      <stop offset=".95" stop-color="#050a89"/>
      <stop offset=".97" stop-color="#00007f"/>
      <stop offset="1" stop-color="#2040bf"/>
    </linearGradient>
    <linearGradient xlink:href="#a" id="x" x1="20.95" x2="73.17" y1="39.6" y2="39.6"/>
    <linearGradient xlink:href="#a" id="y" x1="20.95" x2="73.17" y1="48.85" y2="48.85"/>
    <linearGradient xlink:href="#a" id="z" x1="20.95" x2="73.17" y1="52.58" y2="52.58"/>
    <linearGradient xlink:href="#a" id="A" x1="20.95" x2="73.17" y1="47.08" y2="47.08"/>
    <linearGradient xlink:href="#a" id="B" x1="20.95" x2="73.17" y1="50.81" y2="50.81"/>
    <linearGradient xlink:href="#a" id="C" x1="20.95" x2="73.17" y1="43.34" y2="43.34"/>
    <linearGradient xlink:href="#a" id="D" x1="20.95" x2="73.18" y1="52.28" y2="52.28"/>
    <linearGradient xlink:href="#a" id="E" x1="20.95" x2="73.17" y1="45.11" y2="45.11"/>
    <linearGradient xlink:href="#a" id="F" x1="20.95" x2="73.17" y1="50.58" y2="50.58"/>
    <linearGradient xlink:href="#a" id="G" x1="20.95" x2="73.17" y1="54.32" y2="54.32"/>
    <linearGradient xlink:href="#a" id="H" x1="20.95" x2="73.17" y1="41.37" y2="41.37"/>
    <linearGradient xlink:href="#a" id="I" x1="20.95" x2="73.17" y1="46.84" y2="46.84"/>
    <linearGradient xlink:href="#a" id="J" x1="20.95" x2="73.17" y1="54.55" y2="54.55"/>
    <linearGradient xlink:href="#a" id="K" x1="20.95" x2="73.18" y1="47.19" y2="47.19"/>
    <linearGradient xlink:href="#a" id="L" x1="20.95" x2="73.18" y1="43.45" y2="43.45"/>
    <linearGradient xlink:href="#a" id="M" x1="20.95" x2="73.16" y1="54.67" y2="54.67"/>
    <linearGradient xlink:href="#a" id="N" x1="20.95" x2="73.17" y1="43.11" y2="43.11"/>
    <linearGradient xlink:href="#a" id="O" x1="20.95" x2="73.17" y1="39.37" y2="39.37"/>
    <linearGradient xlink:href="#a" id="P" x1="20.95" x2="73.17" y1="50.93" y2="50.93"/>
    <linearGradient xlink:href="#a" id="Q" x1="20.95" x2="73.17" y1="41.54" y2="41.54"/>
    <linearGradient xlink:href="#a" id="R" x1="20.95" x2="73.17" y1="45.28" y2="45.28"/>
    <linearGradient xlink:href="#a" id="S" x1="20.95" x2="73.17" y1="52.75" y2="52.75"/>
    <linearGradient xlink:href="#a" id="T" x1="20.95" x2="73.17" y1="49.02" y2="49.02"/>
    <linearGradient xlink:href="#a" id="U" x1="20.95" x2="73.18" y1="39.71" y2="39.71"/>
    <linearGradient xlink:href="#a" id="V" x1="20.95" x2="73.18" y1="48.54" y2="48.54"/>
    <linearGradient xlink:href="#a" id="W" x1="20.96" x2="73.17" y1="47.6" y2="47.6"/>
    <linearGradient xlink:href="#a" id="X" x1="20.96" x2="73.17" y1="43.86" y2="43.86"/>
    <linearGradient xlink:href="#a" id="Y" x1="20.96" x2="73.17" y1="51.34" y2="51.34"/>
    <linearGradient xlink:href="#a" id="Z" x1="20.95" x2="73.18" y1="42.26" y2="42.26"/>
    <linearGradient xlink:href="#a" id="aa" x1="20.96" x2="73.17" y1="40.12" y2="40.12"/>
    <linearGradient xlink:href="#a" id="ab" x1="20.95" x2="73.18" y1="38.53" y2="38.53"/>
    <linearGradient xlink:href="#a" id="ac" x1="20.95" x2="73.17" y1="45.44" y2="45.44"/>
    <linearGradient xlink:href="#a" id="ad" x1="20.95" x2="73.17" y1="41.7" y2="41.7"/>
    <linearGradient xlink:href="#a" id="ae" x1="20.95" x2="73.17" y1="52.92" y2="52.92"/>
    <linearGradient xlink:href="#a" id="af" x1="20.95" x2="73.17" y1="37.96" y2="37.96"/>
    <linearGradient xlink:href="#a" id="ag" x1="20.95" x2="73.17" y1="49.18" y2="49.18"/>
    <linearGradient xlink:href="#a" id="ah" x1="20.95" x2="73.18" y1="46" y2="46"/>
    <linearGradient xlink:href="#a" id="ai" x1="20.95" x2="73.18" y1="41.07" y2="41.07"/>
    <linearGradient xlink:href="#a" id="aj" x1="20.95" x2="73.17" y1="50.21" y2="50.21"/>
    <linearGradient xlink:href="#a" id="ak" x1="20.95" x2="73.18" y1="49.74" y2="49.74"/>
    <linearGradient xlink:href="#a" id="al" x1="20.95" x2="73.17" y1="42.73" y2="42.73"/>
    <linearGradient xlink:href="#a" id="am" x1="20.95" x2="73.17" y1="53.95" y2="53.95"/>
    <linearGradient xlink:href="#a" id="an" x1="20.95" x2="73.18" y1="44.8" y2="44.8"/>
    <linearGradient xlink:href="#a" id="ao" x1="20.95" x2="73.18" y1="38.99" y2="38.99"/>
    <linearGradient xlink:href="#a" id="ap" x1="20.95" x2="73.17" y1="46.47" y2="46.47"/>
    <linearGradient xlink:href="#a" id="aq" x1="20.95" x2="73.18" y1="53.48" y2="53.48"/>
    <linearGradient xlink:href="#a" id="ar" x1="20.95" x2="73.17" y1="51.86" y2="51.86"/>
    <linearGradient xlink:href="#a" id="as" x1="20.95" x2="73.17" y1="40.64" y2="40.64"/>
    <linearGradient xlink:href="#a" id="at" x1="20.95" x2="73.17" y1="48.12" y2="48.12"/>
    <linearGradient xlink:href="#a" id="au" x1="20.95" x2="73.17" y1="44.38" y2="44.38"/>
  </defs>
  <g data-name="Layer 1">
    <path fill="url(#b)" d="M21 70.69A2.13 2.13 0 0 0 22.89 73c25.58.18 50.28-1 50.28-4.83 0-11.66-52.17 2.52-52.17 2.52Z"/>
    <path fill="url(#c)" d="M21 70.69A2.13 2.13 0 0 0 22.9 73c25.58.2 50.24-.61 50.27-4.83 0-11.66-52.17 2.52-52.17 2.52Zm1.9 2.11h-.2a2 2 0 0 1-1.7-1.48 2 2 0 0 0 1.86 1.47c25.56-.16 49.87-8 49.87-4.56S48.46 73 22.9 72.8Z"/>
    <g opacity=".3">
      <path fill="url(#d)" d="M22.91 38.12a1.83 1.83 0 0 0-2 1.66v30.91a2.13 2.13 0 0 0 2 2.26c28.53.17 56.21 8.16 56.19 4.14V42.71c.02-4.1-27.66-4.57-56.19-4.59Z" opacity=".06"/>
      <path fill="url(#e)" d="M22.9 38.12a1.82 1.82 0 0 0-1.9 1.66v30.91a2.14 2.14 0 0 0 2 2.26c28.33.16 55.81 7.76 55.8 3.88v-34c-.08-3.93-27.56-4.67-55.9-4.71Z" opacity=".13"/>
      <path fill="url(#f)" d="M22.9 38.12a1.83 1.83 0 0 0-1.9 1.66v30.91a2.14 2.14 0 0 0 2 2.26c28.13.15 55.42 7.36 55.4 3.61V43.04c-.07-3.84-27.4-4.87-55.5-4.92Z" opacity=".19"/>
      <path fill="url(#g)" d="M22.9 38.12a1.83 1.83 0 0 0-1.9 1.66v30.91a2.14 2.14 0 0 0 2 2.26c27.93.15 55 7 55 3.34V43.2c-.07-3.71-27.16-5.01-55.1-5.08Z" opacity=".25"/>
      <path fill="url(#h)" d="M22.9 38.12a1.83 1.83 0 0 0-1.9 1.66v30.91a2.12 2.12 0 0 0 2 2.25c27.73.15 54.63 6.57 54.61 3.08V43.36c-.07-3.58-26.96-5.16-54.71-5.24Z" opacity=".31"/>
      <path fill="url(#i)" d="M22.9 38.12a1.84 1.84 0 0 0-1.9 1.66v30.91a2.12 2.12 0 0 0 2 2.25c27.53.14 54.23 6.17 54.22 2.81V43.52c-.08-3.44-26.77-5.31-54.32-5.4Z" opacity=".38"/>
      <path fill="url(#j)" d="M22.9 38.12a1.83 1.83 0 0 0-1.9 1.66v30.91a2.12 2.12 0 0 0 2 2.25c27.33.13 53.83 5.77 53.82 2.54v-31.8c-.08-3.31-26.57-5.51-53.92-5.56Z" opacity=".44"/>
      <path fill="url(#k)" d="M22.9 38.13a1.82 1.82 0 0 0-1.9 1.65v30.91a2.12 2.12 0 0 0 2 2.25c27.13.12 53.44 5.37 53.43 2.27V43.84c-.08-3.17-26.38-5.67-53.53-5.71Z" opacity=".5"/>
      <path fill="url(#l)" d="M22.9 38.13a1.82 1.82 0 0 0-1.9 1.65v30.91a2.12 2.12 0 0 0 2 2.25c26.93.11 53 5 53 2V44c0-3-26.15-5.82-53.1-5.87Z" opacity=".56"/>
      <path fill="url(#m)" d="M22.9 38.13a1.82 1.82 0 0 0-1.9 1.65v30.91a2.12 2.12 0 0 0 2 2.25c26.73.1 52.65 4.58 52.64 1.74V44.17c-.08-2.92-25.99-5.99-52.74-6.04Z" opacity=".63"/>
      <path fill="url(#n)" d="M22.9 38.13a1.81 1.81 0 0 0-1.9 1.65v30.91a2.12 2.12 0 0 0 2 2.25c26.53.09 52.25 4.18 52.24 1.47V44.33c-.08-2.78-25.79-6.14-52.34-6.2Z" opacity=".69"/>
      <path fill="url(#o)" d="M22.9 38.13a1.81 1.81 0 0 0-1.9 1.65v30.91a2.12 2.12 0 0 0 2 2.25c26.33.09 51.86 3.78 51.84 1.2V44.49c-.07-2.65-25.59-6.29-51.94-6.36Z" opacity=".75"/>
      <path fill="url(#p)" d="M22.9 38.13a1.82 1.82 0 0 0-1.9 1.65v30.91a2.12 2.12 0 0 0 2 2.25c26.13.08 51.46 3.38 51.45.93V44.65c-.08-2.52-25.39-6.45-51.55-6.52Z" opacity=".81"/>
      <path fill="url(#q)" d="M22.9 38.13a1.82 1.82 0 0 0-1.9 1.65v30.91a2.12 2.12 0 0 0 2 2.25c25.84.06 51 2.98 51 .66V44.82c0-2.39-25.14-6.61-51.1-6.69Z" opacity=".88"/>
      <path fill="url(#r)" d="M22.9 38.13a1.82 1.82 0 0 0-1.9 1.65v30.91a2.12 2.12 0 0 0 2 2.25c25.73.06 50.67 2.58 50.66.39V44.98c-.08-2.26-25-6.77-50.76-6.85Z" opacity=".94"/>
      <path fill="url(#s)" d="M22.9 38.13a1.82 1.82 0 0 0-1.9 1.65v30.91a2.12 2.12 0 0 0 2 2.25c25.53.1 50.28 2.18 50.26.13V45.14c-.07-2.14-24.8-6.78-50.36-7.01Z"/>
    </g>
    <path fill="#0e3ca5" d="M33.66 55.69c1.67 6.17 7.65 10.88 10.67 10.68.1 0 11.45-2.12 17.66-12.5 4.84-8.08 3.19-15.88-3.39-16C56.24 38 30.48 44 33.66 55.69M58 16.09a28.84 28.84 0 0 0-30.42-4.39 17.27 17.27 0 0 0-1.83.9c-.4.21-.81.43-1.2.66h.09a13.45 13.45 0 0 0-3 2.88c-8.28 11 19.48 18.9 34.32 18.92C62.75 40 64.66 21.28 58 16.09Z"/>
    <path fill="#5493f7" d="M29.25 16.31c-3.81 5.73-16.51 9.77-18.6 9.14l.27-.52a30.71 30.71 0 0 1 2.47-4 30.28 30.28 0 0 1 3-3.55 31.16 31.16 0 0 1 3.54-3c.78-.57 1.6-1.11 2.43-1.6a9 9 0 0 1 4.2-1.12c5.66.11 2.7 4.65 2.67 4.69m-3.1 40.47c.27 1.8 0 8.92-.38 9.52-.32 0-1 .06-2.89-1a29.48 29.48 0 0 1-2.86-1.9 30.54 30.54 0 0 1-6.58-6.59 30.71 30.71 0 0 1-2.47-4 29.52 29.52 0 0 1-1.9-4.35 30.18 30.18 0 0 1-1.15-4.68 30.58 30.58 0 0 1 0-9.82 30.18 30.18 0 0 1 1.15-4.68c.1-.31.21-.61.32-.91 2.19 2.92 4.73 5.56 6.89 8.5s4.88 7.38 5.45 8.36c3.57 6.06 4.14 9.8 4.42 11.6m42.2-17.98a30.28 30.28 0 0 1-2.12 11.17c-3.58 3.85-27.73-5.63-28-5.73-3.27-1.45-13.33-5.85-14.21-12.77-1.3-10 18.89-16.89 27.77-17.16 1.06 0 4.3 0 6.19 1.59a30.35 30.35 0 0 1 10.4 22.9M52 65.87c-2.63 1.23-5.53.33-4.78-2.23 1.45-4.93 14.07-10 16.86-10.25.34 0 .49.2.34.47A30.75 30.75 0 0 1 52 65.87"/>
    <path fill="url(#t)" d="M22.9 37.83a2 2 0 0 0-1.95 2v30.86a2 2 0 0 0 1.94 2c25.58-.24 50.31-8.69 50.28-4.57V33.31c.03-4.14-24.69 4.33-50.27 4.52Z"/>
    <path fill="url(#a)" d="M26.68 59.16c.91 0 1.8-.07 2.68-.12l2.58-.17c.84-.06 1.67-.13 2.48-.21l2.42-.23 2.35-.25c.78-.08 1.54-.17 2.31-.27l2.27-.29 2.23-.31 2.25-.31 2.26-.35 2.26-.37 2.29-.39 2.35-.41 2.4-.42 2.47-.43 2.57-.41c.87-.13 1.66-.25 2.75-.38a19.19 19.19 0 0 1 3.56-.19c1.12.07 2 .36 2 1.14v-2.71c0-.77-.85-1-1.89-1.13a17.79 17.79 0 0 0-3.34.14c-1 .12-1.79.23-2.57.35s-1.55.23-2.3.36l-2.23.37-2.2.39-2.22.44-2.31.4-2.42.4-2.6.41-2.82.43v-2.72l2.82-.44 2.6-.41 2.42-.4 2.31-.4 2.23-.39 2.2-.38 2.23-.38 2.3-.36c.78-.12 1.53-.23 2.57-.35a17.79 17.79 0 0 1 3.34-.14c1 .09 1.89.36 1.89 1.13v-2.67c0-.77-.85-1-1.89-1.14a18.68 18.68 0 0 0-3.34.14c-1 .12-1.79.23-2.57.35l-2.3.36-2.23.38-2.2.39-2.23.38-2.31.41-2.42.4-2.6.42-2.82.43v-2.69l2.82-.43 2.6-.41 2.42-.41 2.31-.4 2.23-.38 2.2-.39 2.23-.38 2.3-.36c.78-.11 1.53-.23 2.57-.35a19.66 19.66 0 0 1 3.34-.14c1 .09 1.89.37 1.89 1.14v-2.68c0-.77-.85-1-1.89-1.13a17.79 17.79 0 0 0-3.34.14c-1 .12-1.79.23-2.57.35s-1.55.23-2.3.36l-2.23.37-2.2.39-2.23.39-2.31.39-2.42.37-2.6.41-2.82.43V41.2l2.82-.43 2.61-.41c.83-.13 1.63-.27 2.41-.41l2.31-.39 2.23-.39 2.2-.39 2.23-.37c.75-.13 1.52-.25 2.3-.36s1.53-.23 2.57-.35a17.79 17.79 0 0 1 3.34-.14c1 .08 1.89.36 1.89 1.13V36c0-.77-.85-1-1.89-1.13a17.79 17.79 0 0 0-3.34.14c-1 .12-1.79.23-2.57.35s-1.55.24-2.3.36l-2.23.38-2.2.38-2.23.39-2.31.4-2.41.4-2.61.41-2.82.44v-2.71a170.19 170.19 0 0 1-23.36 2 2 2 0 0 0-1.95 2v19.5h2.93c.93 0 1.88-.11 2.8-.15Z"/>
    <path fill="url(#u)" d="m26.67 64.52 2.69-.12 2.58-.17 2.48-.23 2.42-.23 2.35-.25 2.31-.27 2.27-.25 2.23-.34 2.23-.34L50.5 62l2.27-.36 2.29-.4 2.35-.4 2.4-.42 2.47-.42 2.57-.41c.87-.13 1.66-.25 2.75-.39a21.08 21.08 0 0 1 3.56-.2c1.12.08 2 .36 2 1.15v-2.71c0-.78-.89-1.07-2-1.15a21.08 21.08 0 0 0-3.56.19c-1.09.14-1.88.26-2.75.39l-2.57.41-2.47.43-2.4.42-2.35.4-2.29.4c-.76.13-1.51.25-2.27.36l-2.25.36L46 60l-2.25.31-2.27.29c-.77.09-1.53.19-2.31.27l-2.35.25-2.42.23c-.81.08-1.64.15-2.48.21l-2.58.17c-.88.05-1.77.09-2.69.12l-2.79.09c-.95.03-1.86.06-2.86.06v2.68h2.93Z"/>
    <path fill="url(#v)" d="M71.16 61.65a21.08 21.08 0 0 0-3.56.19c-1.09.13-1.88.26-2.75.39l-2.56.41-2.48.43-2.4.42-2.35.4-2.29.39-2.27.37-2.25.35-2.25.34-2.25.32-2.25.34-2.31.27-2.35.25-2.42.23-2.48.21-2.58.16-2.69.13-2.79.08h-2.93V70h2.93c.93 0 1.88 0 2.79-.09s1.81-.07 2.69-.12 1.73-.1 2.58-.17l2.48-.2 2.42-.23 2.35-.25 2.31-.28 2.27-.29L46 68l2.23-.34 2.25-.35 2.29-.31 2.29-.39 2.35-.4 2.4-.42 2.48-.43 2.56-.41c.87-.14 1.66-.26 2.75-.39a21.08 21.08 0 0 1 3.56-.19c1.12.07 2 .36 2 1.14v-2.72c.01-.79-.88-1.06-2-1.14Z"/>
    <path fill="url(#w)" d="m26.5 56.49 2.5-.11 2.35-.14 2.29-.18 2.29-.21 2.35-.24c.8-.08 1.62-.18 2.46-.28l2.63-.33c.92-.12 1.88-.26 2.89-.41V35.81a170.19 170.19 0 0 1-23.36 2 2 2 0 0 0-1.95 2V56.6h2.9Z"/>
    <path fill="url(#x)" d="M27 38.62c-.1.3-.15.45-.24.75h-.77l.62.43c-.09.3-.14.45-.24.75l.63-.45.62.43c-.1-.29-.14-.43-.24-.73l.62-.48h-.77Z"/>
    <path fill="url(#y)" d="M29.2 47.86c-.09.3-.14.45-.24.75h-.77l.63.43c-.1.3-.15.45-.24.75l.62-.49.63.42c-.1-.29-.15-.43-.24-.72l.62-.5-.77.05c-.09-.25-.14-.4-.24-.69Z"/>
    <path fill="url(#z)" d="M29.44 52.32c-.09-.29-.14-.43-.24-.72-.09.3-.14.45-.24.75h-.77l.63.43c-.1.3-.15.45-.24.75l.62-.49.63.42c-.1-.29-.15-.43-.24-.72l.62-.5Z"/>
    <path fill="url(#A)" d="M27 46.09c-.1.31-.15.45-.24.75h-.77l.62.44c-.09.3-.14.45-.24.75l.63-.48.62.43c-.1-.29-.14-.44-.24-.73.25-.2.38-.29.62-.49h-.77c-.11-.23-.16-.37-.23-.67Z"/>
    <path fill="url(#B)" d="M27 49.83c-.1.3-.15.45-.24.75h-.77l.62.44c-.09.3-.14.45-.24.75l.63-.49.62.44c-.1-.3-.14-.44-.24-.73l.62-.49h-.77Z"/>
    <path fill="url(#C)" d="M27 42.36c-.1.3-.15.45-.24.75h-.77l.62.44c-.09.3-.14.45-.24.75l.63-.48.62.43c-.1-.29-.14-.44-.24-.73.25-.19.38-.29.62-.49h-.77Z"/>
    <path fill="url(#D)" d="M33.66 51.28c-.1.31-.15.46-.24.76l-.77.07.62.4c-.09.31-.14.46-.24.76l.63-.51.62.41c-.1-.29-.14-.43-.24-.72l.63-.52-.78.07Z"/>
    <path fill="url(#E)" d="M29.2 44.12c-.09.3-.14.45-.24.76h-.77l.63.43c-.1.3-.15.45-.24.76l.62-.5.63.43c-.1-.29-.15-.44-.24-.73l.62-.5-.77.05-.24-.7Z"/>
    <path fill="url(#F)" d="M31.43 49.59c-.09.3-.14.45-.24.76h-.77l.63.42c-.1.3-.15.45-.24.75l.62-.5.63.41c-.1-.29-.15-.43-.24-.72l.62-.51-.77.06c-.1-.26-.14-.38-.24-.67Z"/>
    <path fill="url(#G)" d="M31.67 54.05c-.1-.29-.14-.43-.24-.72-.09.3-.14.45-.24.75l-.77.06.63.41c-.1.3-.15.46-.24.76l.62-.5.63.41c-.1-.29-.15-.43-.24-.72l.62-.51Z"/>
    <path fill="url(#H)" d="M29.2 40.38c-.09.31-.14.46-.24.76h-.77l.63.42c-.1.31-.15.46-.24.76l.62-.49.63.42c-.1-.29-.15-.44-.24-.73l.62-.49h-.77c-.09-.21-.14-.35-.24-.65Z"/>
    <path fill="url(#I)" d="M31.43 45.85c-.1.3-.14.46-.24.76h-.77l.63.42c-.1.3-.15.45-.24.75l.62-.5.63.42c-.1-.29-.15-.44-.24-.73l.62-.5-.77.06c-.1-.24-.14-.39-.24-.68Z"/>
    <path fill="url(#J)" d="m27.21 54.3-.21-.73c-.1.3-.15.45-.24.75h-.77l.62.43c-.09.3-.14.45-.24.75l.63-.48.62.44-.24-.74.62-.48Z"/>
    <path fill="url(#K)" d="M22.52 46.22c-.1.29-.14.44-.24.74h-.77l.62.45c-.09.3-.14.44-.23.74l.62-.46.62.45c-.09-.3-.14-.44-.23-.74l.62-.47h-.77c-.1-.27-.14-.42-.24-.71Z"/>
    <path fill="url(#L)" d="m22.52 42.48-.24.74h-.77l.62.45c-.09.3-.14.45-.23.74l.62-.46.62.45c-.09-.3-.14-.44-.23-.74l.62-.47h-.77c-.1-.27-.14-.42-.24-.71Z"/>
    <path fill="url(#M)" d="m22.76 54.43-.24-.74c-.1.3-.14.45-.24.74h-.77l.62.45-.23.75.62-.47.62.45c-.09-.29-.14-.44-.23-.74l.62-.46Z"/>
    <path fill="url(#N)" d="m30.81 44.1.62-.5.63.41c-.1-.29-.15-.44-.24-.73l.62-.5-.77.06c-.1-.29-.14-.44-.24-.73-.09.31-.14.46-.24.76l-.77.05.63.42c-.05.3-.15.45-.24.76Z"/>
    <path fill="url(#O)" d="m30.81 40.36.62-.5.63.41c-.1-.29-.15-.43-.24-.72l.62-.51-.77.06-.24-.72c-.09.3-.14.45-.24.75h-.77l.63.42c-.05.35-.15.51-.24.81Z"/>
    <path fill="url(#P)" d="M22.52 50c-.1.3-.14.45-.24.75h-.77l.62.46c-.09.3-.14.44-.23.74l.62-.46.62.44-.23-.73.62-.47h-.77c-.1-.33-.14-.48-.24-.73Z"/>
    <path fill="url(#Q)" d="M24.75 40.56c-.09.3-.14.45-.24.75h-.77l.62.44-.23.75.62-.47.63.44c-.1-.3-.15-.45-.24-.74l.62-.48h-.77Z"/>
    <path fill="url(#R)" d="M24.75 44.3c-.09.3-.14.45-.24.75h-.77l.62.44-.23.75.62-.48.63.44c-.1-.29-.15-.44-.24-.73l.62-.48L25 45Z"/>
    <path fill="url(#S)" d="M25 52.51c-.1-.29-.15-.44-.24-.73-.1.3-.14.45-.24.74h-.77l.62.45c-.09.29-.14.44-.24.74l.63-.47.62.44c-.09-.3-.14-.44-.23-.74l.62-.47Z"/>
    <path fill="url(#T)" d="M24.75 48c-.1.3-.14.45-.24.75h-.77l.62.45-.23.75.62-.48.62.44-.23-.73.62-.48h-.77c-.1-.22-.14-.37-.24-.7Z"/>
    <path fill="url(#U)" d="M22.52 38.74c-.1.3-.14.45-.24.74h-.77l.62.45-.23.75.62-.47.63.45c-.1-.29-.15-.44-.24-.74l.62-.47h-.77Z"/>
    <path fill="url(#V)" d="M33.66 47.55c-.1.3-.15.45-.24.76l-.77.06.62.41c-.09.3-.14.45-.24.76l.63-.51.62.4c-.1-.29-.14-.43-.24-.72l.63-.52-.78.07Z"/>
    <path fill="url(#W)" d="M42.56 46.59c-.09.31-.14.46-.24.77l-.77.1.63.38c-.1.31-.15.46-.24.77l.62-.54.63.38c-.1-.28-.15-.43-.24-.71l.62-.54-.77.1c-.1-.3-.14-.43-.24-.71Z"/>
    <path fill="url(#X)" d="M42.56 42.85c-.09.31-.14.47-.24.77l-.77.1.63.38c-.1.31-.15.46-.24.77l.62-.54.63.38c-.1-.28-.15-.42-.24-.71l.62-.54-.77.1c-.09-.28-.14-.42-.24-.71Z"/>
    <path fill="url(#Y)" d="M42.8 51c-.1-.29-.14-.43-.24-.71-.09.31-.14.46-.24.77l-.77.1.63.38c-.1.3-.15.46-.24.77l.62-.54.63.38c-.1-.29-.15-.43-.24-.71l.62-.54Z"/>
    <path fill="url(#Z)" d="m40.33 41.26-.23.74-.77.09.62.38c-.09.31-.14.46-.24.77l.62-.53.63.38c-.1-.28-.15-.42-.24-.71l.62-.53-.77.09c-.09-.25-.14-.4-.24-.68Z"/>
    <path fill="url(#aa)" d="M42.56 39.11c-.09.31-.14.47-.24.78l-.77.09.63.38c-.1.31-.15.47-.24.77l.62-.53.63.38c-.1-.29-.15-.43-.24-.72l.62-.54c-.3 0-.46.07-.77.1-.09-.28-.14-.42-.24-.71Z"/>
    <path fill="url(#ab)" d="m40.33 37.52-.23.77-.77.09.62.38c-.09.31-.14.47-.24.77l.62-.53.63.39c-.1-.29-.15-.43-.24-.72l.62-.53-.77.09c-.09-.23-.14-.42-.24-.71Z"/>
    <path fill="url(#ac)" d="M44.79 44.43c-.09.31-.14.46-.24.77l-.77.1.63.38c-.1.31-.15.46-.24.77l.62-.54.62.37-.23-.71.62-.57-.77.11c-.09-.26-.14-.4-.24-.68Z"/>
    <path fill="url(#ad)" d="M44.79 40.69c-.09.31-.14.46-.24.77l-.77.11.63.37c-.1.31-.15.46-.24.77l.62-.54.63.37c-.1-.28-.15-.42-.24-.71l.62-.54-.8.11c-.06-.29-.11-.4-.21-.71Z"/>
    <path fill="url(#ae)" d="M45 52.61c-.1-.28-.14-.42-.24-.71-.1.31-.14.47-.24.78l-.77.1.62.37-.23.78.62-.55.62.38c-.09-.29-.14-.43-.24-.71l.63-.55Z"/>
    <path fill="url(#af)" d="m44.79 37-.23.77-.78.11.63.37c-.1.31-.15.46-.24.77.25-.21.38-.32.62-.54l.63.37c-.1-.28-.15-.42-.24-.71l.62-.54-.77.11c-.09-.34-.14-.48-.24-.71Z"/>
    <path fill="url(#ag)" d="M44.79 48.16c-.09.31-.14.47-.24.78l-.77.1.62.38-.23.77.62-.54.62.37c-.09-.29-.14-.43-.23-.71l.62-.55-.77.11c-.1-.28-.14-.42-.24-.71Z"/>
    <path fill="url(#ah)" d="m40.33 45-.23.77-.77.08.62.39c-.09.31-.14.46-.24.77l.62-.53.63.38c-.1-.28-.15-.43-.24-.71l.62-.53-.77.09c-.09-.29-.14-.43-.24-.71Z"/>
    <path fill="url(#ai)" d="M33.66 40.07c-.1.3-.15.45-.24.76l-.77.06.62.41c-.09.3-.14.46-.24.76l.63-.51.62.4c-.1-.28-.14-.43-.24-.72l.63-.51-.78.07Z"/>
    <path fill="url(#aj)" d="m35.88 49.21-.23.76-.78.07.63.4c-.1.31-.15.46-.24.77l.62-.52.63.4c-.1-.29-.14-.43-.24-.72l.62-.52-.77.08c-.12-.29-.12-.43-.24-.72Z"/>
    <path fill="url(#ak)" d="m40.33 48.73-.23.77-.77.09.67.41c-.09.31-.14.46-.24.77l.62-.53.63.38c-.1-.29-.15-.43-.24-.71l.62-.54-.77.1c-.14-.31-.19-.47-.29-.74Z"/>
    <path fill="url(#al)" d="m35.88 41.73-.23.77-.78.07.63.4c-.1.3-.15.46-.24.76l.62-.51.63.39c-.1-.28-.14-.43-.24-.72l.62-.51-.77.07c-.12-.29-.12-.45-.24-.72Z"/>
    <path fill="url(#am)" d="m35.88 53-.23.76-.78.07.63.4c-.1.31-.15.46-.24.77l.62-.52.63.4c-.1-.29-.14-.43-.24-.72l.62-.52-.77.07c-.12-.33-.12-.48-.24-.71Z"/>
    <path fill="url(#an)" d="M33.66 43.81c-.1.3-.15.45-.24.76l-.77.06.62.41c-.09.3-.14.46-.24.76l.63-.51.62.4c-.1-.29-.14-.43-.24-.72l.63-.51-.78.07Z"/>
    <path fill="url(#ao)" d="M35.88 38c-.09.3-.14.45-.23.76l-.78.07.63.4c-.1.31-.15.46-.24.76l.62-.51.63.39c-.1-.28-.14-.43-.24-.71l.63-.52-.78.07c-.12-.28-.12-.43-.24-.71Z"/>
    <path fill="url(#ap)" d="M35.88 45.47c-.09.31-.14.46-.23.76l-.78.08.63.4c-.1.3-.14.46-.24.76l.62-.52.63.4c-.1-.29-.14-.43-.24-.72l.62-.52-.77.08c-.12-.29-.12-.43-.24-.72Z"/>
    <path fill="url(#aq)" d="M40.57 53.19c-.09-.29-.14-.43-.24-.72l-.23.77-.77.09.62.39c-.09.3-.14.46-.24.77.25-.22.38-.32.62-.54l.63.39c-.1-.29-.15-.43-.24-.71l.62-.54Z"/>
    <path fill="url(#ar)" d="M38.35 51.57c-.1-.29-.14-.43-.24-.72-.09.31-.14.46-.24.77l-.77.08.63.39c-.1.31-.15.46-.24.77l.62-.53.63.4c-.1-.29-.15-.43-.24-.72l.62-.53Z"/>
    <path fill="url(#as)" d="M38.11 39.64c-.09.31-.14.46-.24.77l-.77.07.63.4c-.1.31-.15.46-.24.77l.62-.53.63.39c-.1-.28-.15-.43-.24-.71l.62-.53-.77.08c-.09-.28-.14-.42-.24-.71Z"/>
    <path fill="url(#at)" d="M38.11 47.12c-.09.3-.14.46-.24.76l-.77.12.63.39c-.1.31-.15.46-.24.77l.62-.52.63.39c-.1-.29-.15-.43-.24-.72l.62-.52-.77.08c-.09-.33-.14-.47-.24-.75Z"/>
    <path fill="url(#au)" d="M38.11 43.38c-.09.3-.14.46-.24.76l-.77.08.63.4c-.1.3-.15.46-.24.76l.62-.52.63.39c-.1-.29-.15-.43-.24-.71l.62-.53-.77.08c-.09-.28-.14-.43-.24-.71Z"/>
  </g>
</svg>