<svg xmlns="http://www.w3.org/2000/svg" viewBox="0 0 1200 400"><defs><style>.cls-1{fill:#0e3ca5;}.cls-2{fill:#5493f7;}</style></defs><g id="Layer_2" data-name="Layer 2"><path class="cls-1" d="M841.93,145.91c-1.17-.08-3.57-.33-8.68-.33a61.36,61.36,0,0,0-12.4,1.21c-16,3.11-26.19,11.8-35,21V149.59H735.75V311.86h50.09V244.08a167.66,167.66,0,0,1,1.33-22A42.47,42.47,0,0,1,793,204.85a30.11,30.11,0,0,1,12.85-11.19q8.34-4,22.71-4a68.87,68.87,0,0,1,10.85.84A76.89,76.89,0,0,1,850,193V147.25A43.56,43.56,0,0,0,841.93,145.91Z"/><path class="cls-1" d="M975.91,145.91c-1.17-.08-3.58-.33-8.68-.33a61.36,61.36,0,0,0-12.4,1.21c-16,3.11-26.2,11.8-35,21V149.59H869.73V311.86h50.08V244.08a167.57,167.57,0,0,1,1.34-22A42.47,42.47,0,0,1,927,204.85a30,30,0,0,1,12.85-11.19q8.34-4,22.7-4a69,69,0,0,1,10.86.84,76.76,76.76,0,0,1,10.51,2.5V147.25A43.45,43.45,0,0,0,975.91,145.91Z"/><path class="cls-1" d="M447.9,142.91H380.45V96.83h187v46.08H500v169H447.9Z"/><path class="cls-1" d="M708.17,283.82a79.9,79.9,0,0,1-30.38,23.7,91.16,91.16,0,0,1-38.07,8.35,102.21,102.21,0,0,1-35.23-6,84.72,84.72,0,0,1-28.71-17.2,80.62,80.62,0,0,1-19.2-26.87,85.13,85.13,0,0,1-7-35.07,85.07,85.07,0,0,1,7-35.05,80.81,80.81,0,0,1,19.2-26.89,84.7,84.7,0,0,1,28.71-17.19,102.21,102.21,0,0,1,35.23-6,80.16,80.16,0,0,1,31.56,6,65.8,65.8,0,0,1,24,17.19,78.49,78.49,0,0,1,15.19,26.89,108.36,108.36,0,0,1,5.34,35.05v15.7H599.65q3,14.36,13,22.87t24.71,8.51q12.36,0,20.87-5.5a56.18,56.18,0,0,0,14.86-14.2Zm-42.4-71.46a29,29,0,0,0-8.35-21.7q-8.68-9-22.37-9a37.57,37.57,0,0,0-14.69,2.67,37,37,0,0,0-10.86,6.85,30.07,30.07,0,0,0-7,9.68,31.79,31.79,0,0,0-2.84,11.52Z"/><path class="cls-1" d="M989.18,265.34v-.62c0-36.05,28.12-52.69,68.24-52.69a122.9,122.9,0,0,1,41.38,6.78V216c0-19.41-12.32-30.2-36.33-30.2-18.32,0-31.27,3.39-46.75,8.94l-12-35.74c18.64-8,37-13.25,65.71-13.25,26.22,0,45.18,6.78,57.18,18.49,12.64,12.32,18.32,30.5,18.32,52.69v95.83h-46.43V294.92c-11.69,12.63-27.8,20.95-51.18,20.95C1015.4,315.87,989.18,298,989.18,265.34Zm110.25-10.79v-2.74a8.23,8.23,0,0,0-5.67-7.79,79,79,0,0,0-25-4c-20.53,0-33.17,8-33.17,22.8v.62c0,12.63,10.74,20,26.22,20C1084.27,283.52,1099.43,271.5,1099.43,254.55Z"/><g id="Symbol"><path class="cls-1" d="M177.87,284c7.82,28.94,35.89,51,50.06,50.11.5,0,53.76-10,82.92-58.68,22.69-37.92,15-74.52-15.9-75.32-11.1.81-132,28.75-117.08,83.89"/><path class="cls-1" d="M292.08,98.06l0,0,0,0a135.46,135.46,0,0,0-142.76-20.6,81.34,81.34,0,0,0-8.58,4.2c-1.9,1-3.81,2-5.65,3.12l.45.14a61.69,61.69,0,0,0-14.3,13.53c-38.88,51.36,91.43,88.7,161.1,88.82C314.4,210.23,323.4,122.44,292.08,98.06Z"/><path class="cls-2" d="M157.18,99.11C139.29,126,79.66,145,69.85,142l-.06-.13c.4-.81.81-1.62,1.22-2.42a143.53,143.53,0,0,1,11.61-18.71,145,145,0,0,1,14.27-16.63,143.3,143.3,0,0,1,16.64-14.27q5.5-4,11.39-7.54a42.09,42.09,0,0,1,19.72-5.25c26.55.5,12.69,21.82,12.54,22"/><path class="cls-2" d="M142.5,289.25c1.29,8.45,0,41.85-1.76,44.66-1.49.09-4.59.28-13.58-4.76a141.24,141.24,0,0,1-13.63-8.85A142.92,142.92,0,0,1,62.35,160c.48-1.43,1-2.86,1.5-4.27h0c10.3,13.69,22.2,26.08,32.33,39.9,9.64,13.17,22.9,34.63,25.6,39.21,16.76,28.47,19.43,46,20.71,54.47"/><path class="cls-2" d="M340.6,205.08a142.32,142.32,0,0,1-9.94,52.44c-16.81,18.07-130.19-26.42-131.3-26.91-15.51-6.79-62.7-27.47-67-60-6.13-46.72,88.67-79.28,130.33-80.52,5,.06,20.19.24,29.06,7.44a142.46,142.46,0,0,1,48.81,107.5"/><path class="cls-2" d="M263.85,331.7c-12.36,5.77-26,1.57-22.43-10.47,6.79-23.11,66.05-46.8,79.14-48.09,1.62-.16,2.3.94,1.59,2.2a144.23,144.23,0,0,1-58.3,56.36"/></g></g></svg>