<svg xmlns="http://www.w3.org/2000/svg" viewBox="0 0 150 30"><style>.st1{fill:#2845ae}.st3{fill:#5493f7}</style><path fill="#e7ebf6" d="M26.6 30H3.4C1.5 30 0 28.5 0 26.6V3.4C0 1.5 1.5 0 3.4 0h23.3C28.5 0 30 1.5 30 3.4v23.3c0 1.8-1.5 3.3-3.4 3.3z"/><path d="M21.6 7.4l-13.3 3v13c0 .4.1.7.3 1 .4.5 1.2.9 2.2.9.7 0 1.5-.2 2.3-.6 2-1 8.3-4.1 8.3-4.1.1 0 .2-.1.2-.2v-13zm-3.3-2.1l-1 .3 1 1V5.3z" class="st1"/><path d="M18.3 5v1.5L17 5.6l1.3-.6z" class="st1"/><path d="M17.5 5.5h-.1L9.9 9.1c-1.4.7-1.4 1.7-1 2.3.6.8 2.3 1.1 4 .2 2-1 7.9-3.7 7.9-3.7.1 0 .1-.1 0-.1l-3.3-2.3z" class="st3"/><path d="M10.9 12.4c-1 0-1.8-.3-2.2-.9-.3-.4-.4-.9-.3-1.4.1-.4.4-1 1.4-1.4l8.2-4c.1-.1.3 0 .4.1.1.1 0 .3-.1.4l-8.2 4c-.6.3-1 .6-1.1 1.1-.1.3 0 .7.2.9.5.7 2.1.9 3.8.1 2-1 8.3-4.1 8.3-4.1.1-.1.3 0 .4.1s0 .3-.1.4c-.1 0-6.3 3.2-8.3 4.1-1 .4-1.7.6-2.4.6z" class="st1"/><path d="M15.13 13.118l3.838-1.94.27.535-3.836 1.94z" class="st3"/><path d="M18.8 9.6h2.5v3.5h-2.5zm-5.7 1.6h2.5v3.5h-2.5z" class="st1"/><path d="M13.5 10.4l.3.2c.2.1.3.3.3.5v5.8s-.1.1-.1 0l-.6-.5h-.1l-.6 1.1h-.1v-5.6c0-.2-.1-.4-.2-.5l-.4-.3 1.5-.7z" class="st3"/><path d="M43.1 9.9H38V6.5h13.8v3.4h-5.1v13.3H43V9.9zm7.5 7c0-3.7 2.6-6.7 6.3-6.7 4.3 0 6.2 3.3 6.2 6.9v1h-8.9c.4 1.6 1.5 2.5 3.1 2.5 1.2 0 2.1-.4 3.1-1.3l2.1 1.8c-1.2 1.5-2.9 2.4-5.2 2.4-3.8 0-6.7-2.7-6.7-6.6zm9-1.1c-.2-1.6-1.2-2.7-2.7-2.7-1.5 0-2.5 1.1-2.8 2.7h5.5zm5.7-5.4H69V13c.7-1.8 1.9-2.9 4.1-2.8V14h-.2c-2.4 0-3.9 1.5-3.9 4.5v4.7h-3.6V10.4zm9.5 0h3.6V13c.7-1.8 1.9-2.9 4.1-2.8V14h-.2c-2.4 0-3.9 1.5-3.9 4.5v4.7h-3.6V10.4zm8.1 9.1c0-2.8 2.1-4.1 5.1-4.1 1.3 0 2.2.2 3.1.5v-.2c0-1.5-.9-2.3-2.7-2.3-1.4 0-2.4.3-3.5.7l-.9-2.8c1.4-.6 2.8-1 4.9-1 2 0 3.4.5 4.3 1.4 1 1 1.4 2.4 1.4 4.1v7.4h-3.5v-1.4c-.9 1-2.1 1.6-3.9 1.6-2.3 0-4.3-1.4-4.3-3.9zm8.3-.8V18c-.6-.3-1.4-.5-2.3-.5-1.5 0-2.5.6-2.5 1.8 0 1 .8 1.5 2 1.5 1.7.1 2.8-.8 2.8-2.1zM101.8 9h4.9c4.5 0 7.5 3.1 7.5 7.1 0 4-3.1 7.1-7.5 7.1h-4.9V9zm1.6 1.5v11.2h3.3c3.6 0 5.9-2.4 5.9-5.6 0-3.1-2.3-5.6-5.9-5.6h-3.3zm12.3 7.5c0-3 2.3-5.5 5.5-5.5 3.1 0 5.5 2.5 5.5 5.4 0 3-2.3 5.5-5.5 5.5-3.2.1-5.5-2.4-5.5-5.4zm9.3 0c0-2.3-1.7-4.1-3.9-4.1-2.3 0-3.8 1.8-3.8 4.1s1.7 4.1 3.9 4.1 3.8-1.9 3.8-4.1zm2.8 0c0-3 2.3-5.5 5.4-5.5 2 0 3.2.8 4.2 1.9l-1 1.1c-.8-.9-1.8-1.6-3.2-1.6-2.1 0-3.8 1.8-3.8 4.1s1.7 4.1 3.9 4.1c1.3 0 2.4-.7 3.2-1.6l1 .9c-1.1 1.2-2.3 2-4.3 2-3.1.1-5.4-2.4-5.4-5.4zm10.3 3.9l.8-1.1c1.1.9 2.4 1.3 3.6 1.3 1.3 0 2.2-.6 2.2-1.7s-1.2-1.5-2.6-1.8c-1.6-.5-3.5-1-3.5-3 0-1.8 1.5-3 3.6-3 1.3 0 2.7.4 3.8 1.2l-.7 1.2c-1-.6-2.1-1-3.1-1-1.2 0-2 .6-2 1.5 0 1 1.3 1.4 2.7 1.8 1.6.5 3.4 1.1 3.4 3 0 2-1.6 3.1-3.7 3.1-1.7 0-3.3-.6-4.5-1.5z" class="st1"/></svg>