<?xml version="1.0" encoding="utf-8"?>
<!-- Generator: Adobe Illustrator 24.1.0, SVG Export Plug-In . SVG Version: 6.00 Build 0)  -->
<svg version="1.1" id="Layer_1" xmlns="http://www.w3.org/2000/svg" xmlns:xlink="http://www.w3.org/1999/xlink" x="0px" y="0px"
	 viewBox="0 0 167 48" style="enable-background:new 0 0 167 48;" xml:space="preserve">
<style type="text/css">
	.st0{fill:#E7EBF6;}
	.st1{fill:#2845AE;}
	.st2{fill:#5493F7;}
</style>
<g>
	<g>
		<path class="st0" d="M42.6,48H5.4c-3,0-5.4-2.4-5.4-5.4V5.4C0,2.4,2.4,0,5.4,0h37.3C45.6,0,48,2.4,48,5.4v37.3
			C48,45.6,45.6,48,42.6,48z"/>
		<path class="st1" d="M34.6,11.8l-21.3,4.8v20.8c0,0.6,0.2,1.1,0.5,1.6c0.6,0.8,1.9,1.4,3.5,1.4c1.1,0,2.4-0.3,3.7-1
			c3.2-1.6,13.3-6.6,13.3-6.6c0.2,0,0.3-0.2,0.3-0.3C34.6,32.6,34.6,11.8,34.6,11.8z M29.3,8.5L27.7,9l1.6,1.6V8.5z"/>
		<path class="st1" d="M29.3,8v2.4L27.2,9L29.3,8z"/>
		<path class="st2" d="M28,8.8h-0.2l-12,5.8c-2.2,1.1-2.2,2.7-1.6,3.7c1,1.3,3.7,1.8,6.4,0.3c3.2-1.6,12.6-5.9,12.6-5.9
			c0.2,0,0.2-0.2,0-0.2C33.3,12.5,28,8.8,28,8.8z"/>
		<path class="st1" d="M17.4,19.8c-1.6,0-2.9-0.5-3.5-1.4c-0.5-0.6-0.6-1.4-0.5-2.2c0.2-0.6,0.6-1.6,2.2-2.2l13.1-6.4
			c0.2-0.2,0.5,0,0.6,0.2c0.2,0.2,0,0.5-0.2,0.6l-13.1,6.4c-1,0.5-1.6,1-1.8,1.8c-0.2,0.5,0,1.1,0.3,1.4c0.8,1.1,3.4,1.4,6.1,0.2
			c3.2-1.6,13.3-6.6,13.3-6.6c0.2-0.2,0.5,0,0.6,0.2s0,0.5-0.2,0.6c-0.2,0-10.1,5.1-13.3,6.6C19.7,19.5,18.6,19.8,17.4,19.8z"/>
		<path class="st2" d="M24.2,21l6.1-3.1l0.4,0.9l-6.1,3.1L24.2,21z"/>
		<path class="st1" d="M30.1,15.4h4V21h-4V15.4z M21,17.9h4v5.6h-4V17.9z"/>
		<path class="st2" d="M21.6,16.6l0.5,0.3c0.3,0.2,0.5,0.5,0.5,0.8V27c0,0-0.2,0.2-0.2,0l-1-0.8h-0.2l-1,1.8h-0.2v-9
			c0-0.3-0.2-0.6-0.3-0.8l-0.6-0.5C19.2,17.8,21.6,16.6,21.6,16.6z"/>
	</g>
	<path class="st1" d="M63.5,19.5h-5.1v-3.4h13.8v3.4h-5.1v13.3h-3.7L63.5,19.5L63.5,19.5z M71,26.5c0-3.7,2.6-6.7,6.3-6.7
		c4.3,0,6.2,3.3,6.2,6.9v1h-8.9c0.4,1.6,1.5,2.5,3.1,2.5c1.2,0,2.1-0.4,3.1-1.3l2.1,1.8c-1.2,1.5-2.9,2.4-5.2,2.4
		C73.9,33.1,71,30.4,71,26.5z M80,25.4c-0.2-1.6-1.2-2.7-2.7-2.7s-2.5,1.1-2.8,2.7H80z M85.7,20h3.7v2.6c0.7-1.8,1.9-2.9,4.1-2.8
		v3.8h-0.2c-2.4,0-3.9,1.5-3.9,4.5v4.7h-3.6V20H85.7z M95.2,20h3.6v2.6c0.7-1.8,1.9-2.9,4.1-2.8v3.8h-0.2c-2.4,0-3.9,1.5-3.9,4.5
		v4.7h-3.6V20z M103.3,29.1c0-2.8,2.1-4.1,5.1-4.1c1.3,0,2.2,0.2,3.1,0.5v-0.2c0-1.5-0.9-2.3-2.7-2.3c-1.4,0-2.4,0.3-3.5,0.7
		l-0.9-2.8c1.4-0.6,2.8-1,4.9-1c2,0,3.4,0.5,4.3,1.4c1,1,1.4,2.4,1.4,4.1v7.4h-3.5v-1.4c-0.9,1-2.1,1.6-3.9,1.6
		C105.3,33,103.3,31.6,103.3,29.1z M111.6,28.3v-0.7c-0.6-0.3-1.4-0.5-2.3-0.5c-1.5,0-2.5,0.6-2.5,1.8c0,1,0.8,1.5,2,1.5
		C110.5,30.5,111.6,29.6,111.6,28.3z M122.2,18.6h4.9c4.5,0,7.5,3.1,7.5,7.1s-3.1,7.1-7.5,7.1h-4.9V18.6z M123.8,20.1v11.2h3.3
		c3.6,0,5.9-2.4,5.9-5.6c0-3.1-2.3-5.6-5.9-5.6H123.8z M136.1,27.6c0-3,2.3-5.5,5.5-5.5c3.1,0,5.5,2.5,5.5,5.4c0,3-2.3,5.5-5.5,5.5
		C138.4,33.1,136.1,30.6,136.1,27.6z M145.4,27.6c0-2.3-1.7-4.1-3.9-4.1c-2.3,0-3.8,1.8-3.8,4.1s1.7,4.1,3.9,4.1
		C143.8,31.7,145.4,29.8,145.4,27.6z M148.2,27.6c0-3,2.3-5.5,5.4-5.5c2,0,3.2,0.8,4.2,1.9l-1,1.1c-0.8-0.9-1.8-1.6-3.2-1.6
		c-2.1,0-3.8,1.8-3.8,4.1s1.7,4.1,3.9,4.1c1.3,0,2.4-0.7,3.2-1.6l1,0.9c-1.1,1.2-2.3,2-4.3,2C150.5,33.1,148.2,30.6,148.2,27.6
		L148.2,27.6z M158.5,31.5l0.8-1.1c1.1,0.9,2.4,1.3,3.6,1.3c1.3,0,2.2-0.6,2.2-1.7s-1.2-1.5-2.6-1.8c-1.6-0.5-3.5-1-3.5-3
		c0-1.8,1.5-3,3.6-3c1.3,0,2.7,0.4,3.8,1.2l-0.7,1.2c-1-0.6-2.1-1-3.1-1c-1.2,0-2,0.6-2,1.5c0,1,1.3,1.4,2.7,1.8
		c1.6,0.5,3.4,1.1,3.4,3c0,2-1.6,3.1-3.7,3.1C161.3,33,159.7,32.4,158.5,31.5z"/>
</g>
</svg>
