<?xml version="1.0" encoding="utf-8"?>
<!-- Generator: Adobe Illustrator 24.0.0, SVG Export Plug-In . SVG Version: 6.00 Build 0)  -->
<svg version="1.1" id="Layer_1" xmlns="http://www.w3.org/2000/svg" xmlns:xlink="http://www.w3.org/1999/xlink" x="0px" y="0px"
	 viewBox="0 0 24 24" style="enable-background:new 0 0 24 24;" xml:space="preserve">
<style type="text/css">
	.st0{fill:none;}
	.st1{fill:#2043B5;}
</style>
<path class="st0" d="M0,0h24v24H0V0z"/>
<path class="st1" d="M8.4,14.4H1.3c-0.7,0-1.2,0.5-1.2,1.2s0.5,1.2,1.2,1.2h7.2v2.1c0,0.5,0.6,0.8,1,0.4l3.3-3.3
	c0.2-0.2,0.2-0.6,0-0.8l-3.3-3.3c-0.4-0.4-1-0.1-1,0.4V14.4z M15.6,11.8V9.6h7.2c0.7,0,1.2-0.5,1.2-1.2s-0.5-1.2-1.2-1.2h-7.2V5.1
	c0-0.5-0.6-0.8-1-0.4L11.2,8c-0.2,0.2-0.2,0.6,0,0.8l3.3,3.3C14.9,12.5,15.6,12.3,15.6,11.8z"/>
</svg>
