<?xml version="1.0" encoding="UTF-8"?>
<svg width="12px" height="12px" viewBox="0 0 12 12" version="1.1" xmlns="http://www.w3.org/2000/svg" xmlns:xlink="http://www.w3.org/1999/xlink">
    <!-- Generator: Sketch 57.1 (83088) - https://sketch.com -->
    <title>Group 14 Copy</title>
    <desc>Created with Sketch.</desc>
    <defs>
        <polygon id="path-1" points="0 1.25e-05 11.9999875 1.25e-05 11.9999875 12 0 12"></polygon>
        <polygon id="path-3" points="0.0456326828 0.0712940654 2.125 0.0712940654 2.125 4.64825823 0.0456326828 4.64825823"></polygon>
        <polygon id="path-5" points="0.05275 0 3.40732157 0 3.40732157 2.69341218 0.05275 2.69341218"></polygon>
    </defs>
    <g id="Page-1" stroke="none" stroke-width="1" fill="none" fill-rule="evenodd">
        <g id="Desktop-HD-Copy-3" transform="translate(-181.000000, -161.000000)">
            <g id="Group-14-Copy" transform="translate(181.000000, 161.000000)">
                <mask id="mask-2" fill="white">
                    <use xlink:href="#path-1"></use>
                </mask>
                <g id="Clip-2" opacity="0.399999976"></g>
                <path d="M5.9999875,12.0000125 C2.6862375,12.0000125 -1.25e-05,9.3137625 -1.25e-05,6.0000125 C-1.25e-05,2.6862625 2.6862375,1.25e-05 5.9999875,1.25e-05 C9.3137375,1.25e-05 11.9999875,2.6862625 11.9999875,6.0000125 C11.9999875,9.3137625 9.3137375,12.0000125 5.9999875,12.0000125 Z" id="Fill-1" fill="#0F0F0F" opacity="0.399999976" mask="url(#mask-2)"></path>
                <path d="M9.3001,10.66835 C9.41835,10.5306 9.594225,10.42235 9.747975,10.3336 C9.912975,10.237725 10.08685,10.200975 10.22485,10.071975 C10.392225,9.916475 10.3621,9.7366 10.373225,9.5191 C10.382725,9.332975 10.32385,9.130225 10.381475,8.953975 C10.4316,8.801225 10.608975,8.6676 10.713975,8.536475 C10.988475,8.192975 10.827725,7.7166 10.34935,7.760725 C10.163725,7.778225 10.00785,7.839725 9.81485,7.822475 C9.60135,7.803725 9.406975,7.7666 9.204225,7.725975 C9.0381,7.6921 8.57785,7.117725 8.2011,6.9731 C7.587975,6.737475 7.12735,6.868975 6.5246,6.903725 C5.79785,6.945475 5.496725,6.745475 5.2571,6.722475 C5.082225,6.705725 4.778725,6.643975 4.5241,6.79985 C4.28035,6.9491 3.9941,7.4701 4.347475,7.984475 C4.6481,8.4221 4.420225,9.0081 4.991725,9.70435 C5.56335,10.4006 5.9866,10.30935 6.14235,10.634475 C6.289725,10.941225 6.392975,11.393975 6.35785,11.739975 C6.34885,11.82585 6.349725,11.907725 6.353975,11.988725 C7.32435,11.932225 8.23235,11.64485 9.024975,11.180975 C9.0346,11.1691 9.045475,11.156725 9.0546,11.144975 C9.16985,10.9971 9.181975,10.8051 9.3001,10.66835" id="Fill-4" fill="#FFFFFF" opacity="0.5" mask="url(#mask-2)"></path>
                <g id="Group-8" opacity="0.5" mask="url(#mask-2)">
                    <g transform="translate(9.875000, 1.875000)">
                        <mask id="mask-4" fill="white">
                            <use xlink:href="#path-3"></use>
                        </mask>
                        <g id="Clip-7" stroke="none" fill="none"></g>
                        <path d="M0.7429,0.2945125 C0.711525,0.2931375 0.351775,-0.1189875 0.19865,0.1801375 C0.0456326828,0.4792625 0.32365,0.7920125 0.1089,1.3313875 C-0.10585,1.8706375 0.282025,2.5606375 0.4414,2.7792625 C0.600775,2.9978875 0.580025,3.2918875 0.5869,3.5482625 C0.5939,3.8046375 0.8364,4.0227625 1.162025,4.1250125 C1.487525,4.2272625 1.6709,4.7038875 1.8894,4.6428875 C2.107775,4.5818875 2.125025,4.1560125 2.125025,4.1250125 C2.125025,2.6686375 1.6059,1.3337625 0.7429,0.2945125" id="Fill-6" stroke="none" fill="#FFFFFF" fill-rule="evenodd" mask="url(#mask-4)"></path>
                    </g>
                </g>
                <g id="Group-11" opacity="0.5" mask="url(#mask-2)">
                    <g transform="translate(5.875000, 0.000000)">
                        <mask id="mask-6" fill="white">
                            <use xlink:href="#path-5"></use>
                        </mask>
                        <g id="Clip-10" stroke="none" fill="none"></g>
                        <path d="M1.213,0.7677125 C1.760375,0.9928375 1.8505,0.6905875 2.15175,0.9097125 C2.380375,1.0759625 2.64875,1.4533375 2.255125,1.8013375 C2.088,1.9488375 1.80525,2.0325875 1.907,2.3572125 C1.962875,2.5358375 2.14675,2.6480875 2.5075,2.6870875 C2.86825,2.7260875 3.470125,2.5903375 3.402,2.1228375 C3.3735,1.9269625 3.3295,1.7774625 3.298375,1.4812125 C3.267125,1.1850875 3.02025,1.0480875 3.05475,0.9393375 C3.070125,0.8907125 3.121,0.8604625 3.186,0.8397125 C2.28975,0.3068375 1.243375,-3.75e-05 0.125,-3.75e-05 C0.100875,-3.75e-05 0.077,0.0015875 0.05275,0.0018375 C0.24425,0.0724625 0.409125,0.1767125 0.590875,0.2874625 C0.85625,0.4490875 0.928125,0.6504625 1.213,0.7677125" id="Fill-9" stroke="none" fill="#FFFFFF" fill-rule="evenodd" mask="url(#mask-6)"></path>
                    </g>
                </g>
                <path d="M3.0796375,8.7794375 C3.1911375,8.6655625 3.1965125,8.4301875 2.9762625,8.3468125 C2.8426375,8.2971875 2.6022625,8.2903125 2.5051375,8.1875625 C2.3873875,8.0629375 2.5966375,7.8874375 2.3631375,7.6333125 C2.1296375,7.3791875 1.8586375,7.6061875 1.6440125,7.4348125 C1.4292625,7.2635625 1.3043875,7.0656875 1.4096375,6.8280625 C1.5123875,6.5961875 1.7495125,6.3789375 2.1755125,6.4671875 C2.6016375,6.5555625 3.0952625,6.6023125 3.3135125,6.4464375 C3.5317625,6.2905625 3.3817625,6.0053125 3.6490125,5.7738125 C3.9161375,5.5424375 4.1287625,5.3371875 4.2091375,4.9331875 C4.2895125,4.5291875 4.4532625,4.3231875 4.5493875,4.2334375 C4.6942625,4.0974375 4.9826375,4.1524375 5.1660125,4.0816875 C5.5052625,3.9513125 5.4308875,3.7603125 5.4177625,3.5144375 C5.4045125,3.2686875 5.6331375,3.1786875 5.5916375,2.9500625 C5.5500125,2.7214375 5.2590125,2.7490625 4.9750125,2.5759375 C4.6910125,2.4026875 4.4868875,2.0190625 4.1820125,1.9510625 C3.8772625,1.8831875 3.6260125,2.1633125 3.6102625,2.3578125 C3.5886375,2.6213125 3.5175125,2.7965625 3.2245125,2.8090625 C2.9793875,2.8188125 2.7426375,2.7421875 2.6915125,2.4720625 C2.6526375,2.2674375 2.8198875,2.1305625 3.1680125,1.7545625 C3.5161375,1.3784375 3.6460125,1.0321875 3.5161375,0.8581875 C3.3862625,0.6841875 2.9316375,0.8845625 2.8728875,0.8788125 C1.1498875,1.9331875 1.25e-05,3.8321875 1.25e-05,6.0000625 C1.25e-05,6.6284375 0.0971375,7.2343125 0.2762625,7.8034375 C0.4952625,7.9799375 0.7682625,8.2900625 1.0780125,8.4715625 C1.5213875,8.7313125 1.8452625,8.8393125 2.2482625,8.9301875 C2.6396375,9.0184375 2.9786375,8.8826875 3.0796375,8.7794375" id="Fill-12" fill="#FFFFFF" opacity="0.5" mask="url(#mask-2)"></path>
            </g>
        </g>
    </g>
</svg>