<svg xmlns="http://www.w3.org/2000/svg" id="e1aa135b-4e06-408e-96bb-0a5d67bbda72" data-name="Layer 1" viewBox="0 0 95 95">
  <path fill="#2043b5" d="M38.34 51.669c-.332-.553-1.917-3.134-3.1-4.719-1.216-1.659-2.654-3.17-3.907-4.829-.074.184-.111.332-.185.516a16.406 16.406 0 0 0-.663 2.654 17.853 17.853 0 0 0 0 5.6 16.406 16.406 0 0 0 .663 2.654 15.962 15.962 0 0 0 1.032 2.47 17.677 17.677 0 0 0 1.4 2.248 15.249 15.249 0 0 0 1.737 2.037 14.978 14.978 0 0 0 1.99 1.732c.553.406 1.106.737 1.659 1.069 1.069.627 1.438.59 1.622.59a24.192 24.192 0 0 0 .221-5.382 17.813 17.813 0 0 0-2.469-6.64Zm21.273-15.757a4.337 4.337 0 0 0-.7-.721 16.716 16.716 0 0 0-10.62-3.871 16.482 16.482 0 0 0-6.636 1.4l-.011.006a4.517 4.517 0 0 0-.542-.043 4.937 4.937 0 0 0-2.4.627c-.442.3-.921.59-1.364.921a18.489 18.489 0 0 0-2.027 1.733 14.86 14.86 0 0 0-1.733 1.991 14.632 14.632 0 0 0-1.4 2.285c-.036.111-.11.184-.147.3.684.207 3.257-.425 5.759-1.595a6.992 6.992 0 0 0 2.4 2.427 4.253 4.253 0 0 0-.566 2.67c.516 3.907 6.193 6.414 8.073 7.225.014.008.169.069.429.169A9.857 9.857 0 0 0 45.6 53.77a4.526 4.526 0 0 0-.775 3.981c1 3.65 4.387 6.267 6.193 6.267h.111a12.543 12.543 0 0 0 2-.582 2.419 2.419 0 0 0 2.353-.008 17.407 17.407 0 0 0 7.041-6.82c.11-.147 0-.258-.185-.258a5.655 5.655 0 0 0-.819.185A12.978 12.978 0 0 0 62.265 55a2.017 2.017 0 0 0 1.289-.49 17.74 17.74 0 0 0 1.18-6.34 17.233 17.233 0 0 0-5.121-12.258Zm-20.5 2.35a10.039 10.039 0 0 0 3.47-2.887 2.667 2.667 0 0 0 .449-1.594 16.268 16.268 0 0 1 5.265-.986 15.022 15.022 0 0 1 6.574 1.537c-3.906.279-10.793 2.48-13.8 5.826a5.724 5.724 0 0 1-1.962-1.896Zm13.784 23.67a12.289 12.289 0 0 1-1.873.574c-1.032-.036-3.907-2.064-4.755-5.16a3.139 3.139 0 0 1 .553-2.728 9.579 9.579 0 0 1 3.054-2.541c2.788 1 7.643 2.6 10.823 2.9-.159.347-.332.7-.533 1.043a12.935 12.935 0 0 1-.953 1.358c-2.513 1.06-5.588 2.797-6.32 4.554Z"/>
  <path fill="#2043b5" d="M75.14 47.5a27.616 27.616 0 0 0-34.875-26.668 6.223 6.223 0 0 0-10.936 5.852A27.636 27.636 0 1 0 75.14 47.5ZM35.046 20.99a3.228 3.228 0 1 1-3.229 3.228 3.231 3.231 0 0 1 3.229-3.228ZM47.5 72.14a24.632 24.632 0 0 1-16.345-43.067 6.22 6.22 0 0 0 10.118-4.855 6.07 6.07 0 0 0-.027-.542A24.636 24.636 0 1 1 47.5 72.14Z"/>
  <path fill="#2043b5" d="M90.319 47.5A42.819 42.819 0 1 0 7.244 62.092 8.007 8.007 0 0 0 15.25 75.62a42.732 42.732 0 0 0 50.325 10.689A9.087 9.087 0 0 0 79.98 75.385 42.687 42.687 0 0 0 90.319 47.5ZM47.5 86.319a38.729 38.729 0 0 1-28.912-12.95 8.008 8.008 0 0 0-7.749-13.129A38.816 38.816 0 1 1 77.2 72.489a9.1 9.1 0 0 0-13.672 10.36 38.419 38.419 0 0 1-16.028 3.47Zm24.7-1.13a5.1 5.1 0 1 1 5.1-5.1 5.108 5.108 0 0 1-5.1 5.1Z"/>
</svg>
