<svg xmlns="http://www.w3.org/2000/svg" id="aa4c68cf-9bea-492e-a3a8-d47745f1b8e3" data-name="Layer 1" viewBox="0 0 95 95">
  <path fill="#2043b5" d="M83.012 81.283a6.8 6.8 0 0 0-4.234-3.792l-1.6-21.1A29.554 29.554 0 0 0 60.485 29.8a6.058 6.058 0 0 0 .173-1.415v-.465a6.088 6.088 0 0 0-3.5-5.5l3.659-12.87a2.5 2.5 0 0 0-2.4-3.184H49.4l-.041-.456a2.5 2.5 0 0 0-2.995-2.226L33.05 6.43a2.5 2.5 0 0 0-1.825 3.356l5.261 13.508a6.071 6.071 0 0 0-2.144 4.628v.465a6.085 6.085 0 0 0 .172 1.412A29.543 29.543 0 0 0 17.82 56.391l-1.6 21.1a6.8 6.8 0 0 0-4.235 3.791 7.192 7.192 0 0 0 .556 6.893 7.094 7.094 0 0 0 5.933 3.192h58.049a7.094 7.094 0 0 0 5.933-3.192 7.19 7.19 0 0 0 .556-6.892Zm-43.67-53.361a1.084 1.084 0 0 1 1.083-1.083h14.15a1.084 1.084 0 0 1 1.083 1.083v.465a1.084 1.084 0 0 1-1.083 1.083h-14.15a1.084 1.084 0 0 1-1.083-1.083ZM44.63 9.148l.758 8.482a1.05 1.05 0 0 0 1.14.953l2.887-.258a1.051 1.051 0 0 0 .953-1.141l-.52-5.817H55.1l-2.976 10.472h-10.84l-4.326-11.11Zm33.655 76.27a2.107 2.107 0 0 1-1.762.949H18.477a2.108 2.108 0 0 1-1.762-.949 2.224 2.224 0 0 1-.126-2.178 1.993 1.993 0 0 1 1.864-1.092h.114a2.5 2.5 0 0 0 2.492-2.311l1.754-23.161c.005-.062.007-.126.007-.188a24.57 24.57 0 0 1 14.91-22.655 6.043 6.043 0 0 0 2.7.637h14.15a6.045 6.045 0 0 0 2.7-.639 24.574 24.574 0 0 1 14.9 22.657c0 .063 0 .126.007.188l1.754 23.161a2.5 2.5 0 0 0 2.493 2.311h.113a1.991 1.991 0 0 1 1.864 1.093 2.222 2.222 0 0 1-.126 2.177Z"/>
  <path fill="#2043b5" d="M34.739 58.369H59.68v5H34.739z" transform="rotate(-44.471 47.21 60.869)"/>
  <circle cx="40.248" cy="53.408" r="3.974" fill="#2043b5"/>
  <circle cx="54.752" cy="67.835" r="3.974" fill="#2043b5"/>
</svg>
