<?xml version="1.0" encoding="utf-8"?>
<!-- Generator: Adobe Illustrator 24.0.0, SVG Export Plug-In . SVG Version: 6.00 Build 0)  -->
<svg version="1.1" id="Layer_1" xmlns="http://www.w3.org/2000/svg" xmlns:xlink="http://www.w3.org/1999/xlink" x="0px" y="0px"
	 viewBox="0 0 90.2 85.6" style="enable-background:new 0 0 90.2 85.6;" xml:space="preserve">
<style type="text/css">
	.st0{fill:#2043B5;}
</style>
<title>117all</title>
<path class="st0" d="M90.2,47.1c0-0.1-0.1-0.3-0.2-0.4v-0.1c-0.1-0.1-0.2-0.3-0.3-0.4l-0.1-0.1c-0.1-0.1-0.2-0.2-0.4-0.2h-0.1
	l-20.4-9.4V12c0-0.2,0-0.3-0.1-0.5v-0.1c0-0.1-0.1-0.3-0.2-0.4v-0.1c-0.1-0.1-0.2-0.3-0.3-0.4l-0.1-0.1c-0.1-0.1-0.2-0.2-0.4-0.2
	h-0.1L46,0.2c-0.5-0.2-1.1-0.2-1.7,0l-21.7,10h0c-0.1,0.1-0.3,0.1-0.4,0.2l-0.1,0.1c-0.1,0.1-0.2,0.2-0.3,0.4v0.1
	c-0.1,0.1-0.1,0.3-0.2,0.4v0.1c0,0.2-0.1,0.3-0.1,0.5v24.5L1.1,45.9H1c-0.1,0.1-0.3,0.1-0.4,0.2l-0.1,0.1c-0.1,0.1-0.2,0.2-0.3,0.4
	v0.1c-0.1,0.1-0.1,0.3-0.2,0.4v0.1C0,47.3,0,47.5,0,47.7v25.9c0,0.8,0.4,1.5,1.1,1.8l21.7,10c0.5,0.2,1.1,0.2,1.7,0l20.7-9.5
	l20.7,9.5c0.5,0.2,1.1,0.2,1.7,0l21.7-10c0.7-0.3,1.2-1,1.2-1.8V47.7c0-0.2,0-0.3-0.1-0.5L90.2,47.1z M23.6,55.5L6.7,47.7L23.3,40
	l16.9,7.8L23.6,55.5z M43.1,72.4l-17.5,8.1V59l17.5-8.1V72.4z M43.1,44.8l-17.7-8.2V15.1l17.7,8.1V44.8z M47.1,23.3l17.7-8.1v21.5
	l-17.7,8.2V23.3z M64.6,80.5l-17.5-8.1V50.9L64.6,59L64.6,80.5z M66.6,55.5L50,47.8L66.9,40l16.6,7.7L66.6,55.5z"/>
</svg>
