<?xml version="1.0" encoding="utf-8"?>
<!-- Generator: Adobe Illustrator 24.0.0, SVG Export Plug-In . SVG Version: 6.00 Build 0)  -->
<svg version="1.1" id="Layer_1" xmlns="http://www.w3.org/2000/svg" xmlns:xlink="http://www.w3.org/1999/xlink" x="0px" y="0px"
	 viewBox="0 0 79 90.6" style="enable-background:new 0 0 79 90.6;" xml:space="preserve">
<style type="text/css">
	.st0{fill:#2043B5;}
</style>
<title>cube</title>
<g>
	<g>
		<path class="st0" d="M76.6,24.9c0-0.3-0.1-0.7-0.2-0.9l0,0c-0.2-0.3-0.4-0.5-0.7-0.7c0,0,0-0.1-0.1-0.1L40.5,3
			c-0.6-0.4-1.4-0.4-2,0L3.3,23.3c0,0,0,0.1-0.1,0.1C3,23.5,2.8,23.7,2.6,24l0,0c-0.2,0.3-0.2,0.6-0.2,0.9c0,0,0,0.1,0,0.1v40.6
			c0,0.7,0.4,1.4,1,1.8l35.1,20.3h0.1c0.6,0.3,1.3,0.3,1.9,0h0.1l35.1-20.3c0.6-0.4,1-1,1-1.8L76.6,24.9C76.7,25,76.6,25,76.6,24.9z
			 M39.5,7.1l31.1,18L39.5,43L8.4,25L39.5,7.1z M6.4,28.5l31.1,17.9v35.9L6.4,64.4V28.5z"/>
	</g>
</g>
</svg>
