<?xml version="1.0" encoding="utf-8"?>
<!-- Generator: Adobe Illustrator 24.1.0, SVG Export Plug-In . SVG Version: 6.00 Build 0)  -->
<svg version="1.1" id="Layer_1" xmlns="http://www.w3.org/2000/svg" xmlns:xlink="http://www.w3.org/1999/xlink" x="0px" y="0px"
	 viewBox="0 0 93.5 93.5" style="enable-background:new 0 0 93.5 93.5;" xml:space="preserve">
<style type="text/css">
	.st0{fill:#2745AE;}
</style>
<g>
	<path class="st0" d="M22.2,23l-0.5,1l5.2,1.9l0.4-1c3.2-7.2,10.8-11.8,19.4-11.8h1.2V8h-1.2C36,8,26.4,13.9,22.2,23z"/>
	<path class="st0" d="M46.7,0C27.3,0,11.4,14.5,11.4,32.2c0,0.6,0,1.1,0.1,1.7c0.6,12.2,7.2,19.3,12.6,25c4.1,4.5,7.7,8.4,7.7,13.5
		v7.4c0,7.5,6.7,13.7,15,13.7s15-6.1,15-13.7v-7.4c0-5.1,3.6-9,7.7-13.5c5.6-6.1,12-13,12.6-25.1c0-0.2,0-0.5,0-0.7
		c0-0.3,0-0.6,0-0.9C82.1,14.5,66.2,0,46.7,0z M37.1,69.9c-0.9-5.6-5-10-8.9-14.1l-0.1-0.1C23.1,50.2,17.4,44,17,33.7
		c0-0.3,0-0.6,0-0.8c0-0.2,0-0.4,0-0.7C17,17.3,30.4,5.1,46.7,5.1c16.4,0,29.8,12.2,29.8,27.2c0,0.4,0,0.9-0.1,1.3l0,0.1
		C76,43.9,70.3,50.1,65.3,55.6l-0.2,0.2c-4,4.4-7.8,8.5-8.7,14.1H37.1z M46.7,88.4c-4.6,0-8.6-3.1-9.3-7.2l-0.2-2.9v-3.4h18.8v4.9
		C56.2,84.6,51.9,88.4,46.7,88.4z"/>
</g>
</svg>
