<?xml version="1.0" encoding="utf-8"?>
<!-- Generator: Adobe Illustrator 24.0.0, SVG Export Plug-In . SVG Version: 6.00 Build 0)  -->
<svg version="1.1" id="Layer_1" focusable="false" xmlns="http://www.w3.org/2000/svg" xmlns:xlink="http://www.w3.org/1999/xlink"
	 x="0px" y="0px" viewBox="0 0 448 512" style="enable-background:new 0 0 448 512;" xml:space="preserve">
<style type="text/css">
	.st0{fill:#2043B5;}
</style>
<path class="st0" d="M429,203.3c-7.3-29.4-21.2-51.5-50.7-51.5h-38.1v45c0,35-29.6,64.4-63.5,64.4H175.3
	c-27.7,0-50.7,23.8-50.7,51.6v96.7c0,27.5,23.9,43.7,50.7,51.6c32.1,9.4,63,11.1,101.5,0c25.6-7.4,50.7-22.3,50.7-51.6v-38.7H226.1
	v-12.9h152.2c29.5,0,40.5-20.6,50.7-51.5C439.7,274.6,439.2,244,429,203.3L429,203.3z M283.1,396.6c10.5,0,19.1,8.6,19.1,19.3
	c0,10.7-8.5,19.4-19.1,19.4c-10.5,0-19.1-8.7-19.1-19.4C264.1,405.2,272.6,396.6,283.1,396.6z M170.6,248.5h101.5
	c28.2,0,50.7-23.3,50.7-51.6v-96.8c0-27.5-23.2-48.2-50.7-52.8c-34-5.6-71-5.3-101.5,0.1c-42.9,7.6-50.7,23.5-50.7,52.8v38.7h101.6
	v12.9H81.8c-29.5,0-55.4,17.8-63.5,51.5c-9.3,38.7-9.7,62.8,0,103.2c7.2,30,24.4,51.5,54,51.5h34.9v-46.4
	C107.2,278,136.1,248.5,170.6,248.5L170.6,248.5z M164.2,113c-10.5,0-19.1-8.6-19.1-19.3c0.1-10.7,8.6-19.4,19.1-19.4
	c10.4,0,19.1,8.7,19.1,19.4S174.8,113,164.2,113z"/>
</svg>
