<svg id="fca77121-2d93-4d82-bae3-dc9a977c3cf7" data-name="Layer 1" xmlns="http://www.w3.org/2000/svg" viewBox="0 0 500 500"><defs><style>.e3ca73d6-5abd-43ce-9d1b-26fac5712089{fill:#c0ddff;}.a6c2a5f0-3294-4a51-a22d-c76f032ff8b8{fill:#5493f7;}.b622ff09-4585-47d1-b0a0-7ec324fb9024{fill:#0e3ca5;}.f24a6100-8cab-405e-9859-5dfe43470911{fill:#072999;}.b2cc291e-2371-4122-94cd-cbc872a47159{fill:#01227c;}</style></defs><path class="e3ca73d6-5abd-43ce-9d1b-26fac5712089" d="M418.36,167.21c.67,1.23,1.32,2.47,2,3.72C419.68,169.68,419,168.44,418.36,167.21Z"/><path class="e3ca73d6-5abd-43ce-9d1b-26fac5712089" d="M420.73,171.73c.58,1.15,1.15,2.3,1.71,3.46C421.88,174,421.31,172.88,420.73,171.73Z"/><path class="e3ca73d6-5abd-43ce-9d1b-26fac5712089" d="M424.93,180.59c.5,1.14,1,2.28,1.47,3.43C425.92,182.87,425.43,181.73,424.93,180.59Z"/><path class="e3ca73d6-5abd-43ce-9d1b-26fac5712089" d="M426.82,185c.5,1.23,1,2.46,1.46,3.69C427.81,187.49,427.32,186.26,426.82,185Z"/><path class="e3ca73d6-5abd-43ce-9d1b-26fac5712089" d="M422.91,176.17c.53,1.12,1,2.24,1.55,3.37C424,178.41,423.44,177.29,422.91,176.17Z"/><path class="e3ca73d6-5abd-43ce-9d1b-26fac5712089" d="M428.59,189.5q1.73,4.56,3.21,9.22Q430.32,194.06,428.59,189.5Z"/><path class="e3ca73d6-5abd-43ce-9d1b-26fac5712089" d="M440.17,245.34c.05,1,.1,2.1.13,3.16C440.27,247.44,440.22,246.39,440.17,245.34Z"/><path class="e3ca73d6-5abd-43ce-9d1b-26fac5712089" d="M434.38,300.84c-.24.92-.48,1.84-.74,2.75C433.9,302.68,434.14,301.76,434.38,300.84Z"/><path class="e3ca73d6-5abd-43ce-9d1b-26fac5712089" d="M439.26,233.79c.13,1.15.24,2.29.34,3.44C439.5,236.08,439.39,234.94,439.26,233.79Z"/><path class="e3ca73d6-5abd-43ce-9d1b-26fac5712089" d="M439.74,238.7c.14,1.6.25,3.2.34,4.81C440,241.9,439.88,240.3,439.74,238.7Z"/><path class="e3ca73d6-5abd-43ce-9d1b-26fac5712089" d="M433.18,305.18c-.26.91-.52,1.81-.8,2.71C432.66,307,432.92,306.09,433.18,305.18Z"/><path class="e3ca73d6-5abd-43ce-9d1b-26fac5712089" d="M437.91,224.1q.22,1.35.42,2.7Q438.14,225.45,437.91,224.1Z"/><path class="e3ca73d6-5abd-43ce-9d1b-26fac5712089" d="M438.65,228.93c.13.94.24,1.88.36,2.82C438.89,230.81,438.78,229.87,438.65,228.93Z"/><path class="e3ca73d6-5abd-43ce-9d1b-26fac5712089" d="M430.47,313.73c-.3.88-.6,1.76-.92,2.63C429.87,315.49,430.17,314.61,430.47,313.73Z"/><path class="e3ca73d6-5abd-43ce-9d1b-26fac5712089" d="M431.88,309.48c-.28.89-.57,1.78-.86,2.67C431.31,311.26,431.6,310.37,431.88,309.48Z"/><path class="e3ca73d6-5abd-43ce-9d1b-26fac5712089" d="M439.75,269.56c-.07.9-.15,1.8-.24,2.69C439.6,271.36,439.68,270.46,439.75,269.56Z"/><path class="e3ca73d6-5abd-43ce-9d1b-26fac5712089" d="M439.32,274.12c-.1.91-.2,1.82-.32,2.73C439.12,275.94,439.22,275,439.32,274.12Z"/><path class="e3ca73d6-5abd-43ce-9d1b-26fac5712089" d="M438.77,278.65c-.13.92-.25,1.84-.39,2.76C438.52,280.49,438.64,279.57,438.77,278.65Z"/><path class="e3ca73d6-5abd-43ce-9d1b-26fac5712089" d="M437,219.29c.18.89.34,1.78.5,2.68C437.38,221.07,437.22,220.18,437,219.29Z"/><path class="e3ca73d6-5abd-43ce-9d1b-26fac5712089" d="M440.28,260.4c0,.85,0,1.7-.09,2.54C440.23,262.1,440.25,261.25,440.28,260.4Z"/><path class="e3ca73d6-5abd-43ce-9d1b-26fac5712089" d="M438.11,283.15c-.15.93-.3,1.86-.46,2.78C437.81,285,438,284.08,438.11,283.15Z"/><path class="e3ca73d6-5abd-43ce-9d1b-26fac5712089" d="M437.34,287.63c-.17.92-.35,1.85-.53,2.78C437,289.48,437.17,288.55,437.34,287.63Z"/><path class="e3ca73d6-5abd-43ce-9d1b-26fac5712089" d="M440.39,252.73c0-.75,0-1.49-.05-2.23,0,1,0,2,.05,3Z"/><path class="e3ca73d6-5abd-43ce-9d1b-26fac5712089" d="M440.38,255.79l0,2.44Z"/><path class="e3ca73d6-5abd-43ce-9d1b-26fac5712089" d="M440.07,265c-.05.88-.1,1.76-.16,2.63C440,266.75,440,265.87,440.07,265Z"/><path class="e3ca73d6-5abd-43ce-9d1b-26fac5712089" d="M436.05,214.49c.2.9.39,1.81.58,2.72C436.44,216.3,436.25,215.39,436.05,214.49Z"/><path class="e3ca73d6-5abd-43ce-9d1b-26fac5712089" d="M431.94,199.16c.43,1.36.85,2.73,1.24,4.11C432.79,201.89,432.37,200.52,431.94,199.16Z"/><path class="e3ca73d6-5abd-43ce-9d1b-26fac5712089" d="M433.59,204.71c.29,1,.58,2.1.86,3.16C434.17,206.81,433.88,205.76,433.59,204.71Z"/><path class="e3ca73d6-5abd-43ce-9d1b-26fac5712089" d="M434.9,209.66c.24,1,.47,1.9.7,2.85C435.38,211.56,435.14,210.61,434.9,209.66Z"/><path class="e3ca73d6-5abd-43ce-9d1b-26fac5712089" d="M429,318c-.32.86-.64,1.72-1,2.57C428.32,319.67,428.64,318.81,429,318Z"/><path class="a6c2a5f0-3294-4a51-a22d-c76f032ff8b8" d="M428,320.52c-.21.54-.43,1.07-.64,1.6C427.56,321.59,427.78,321.06,428,320.52Z"/><path class="a6c2a5f0-3294-4a51-a22d-c76f032ff8b8" d="M426.4,184l.42,1Z"/><path class="a6c2a5f0-3294-4a51-a22d-c76f032ff8b8" d="M436.63,217.21c.14.69.28,1.38.41,2.08C436.91,218.59,436.77,217.9,436.63,217.21Z"/><path class="a6c2a5f0-3294-4a51-a22d-c76f032ff8b8" d="M431.8,198.72c.05.15.09.3.14.44C431.89,199,431.85,198.87,431.8,198.72Z"/><path class="a6c2a5f0-3294-4a51-a22d-c76f032ff8b8" d="M440.4,254.24c0-.24,0-.46,0-.7,0,.75,0,1.5,0,2.25C440.38,255.27,440.4,254.76,440.4,254.24Z"/><path class="a6c2a5f0-3294-4a51-a22d-c76f032ff8b8" d="M422.44,175.19l.47,1Z"/><path class="a6c2a5f0-3294-4a51-a22d-c76f032ff8b8" d="M424.46,179.54c.16.35.32.7.47,1.05C424.78,180.24,424.62,179.89,424.46,179.54Z"/><path class="a6c2a5f0-3294-4a51-a22d-c76f032ff8b8" d="M420.32,170.93l.41.8Z"/><path class="a6c2a5f0-3294-4a51-a22d-c76f032ff8b8" d="M434.45,207.87c.16.59.3,1.19.45,1.79C434.75,209.06,434.61,208.46,434.45,207.87Z"/><path class="a6c2a5f0-3294-4a51-a22d-c76f032ff8b8" d="M429.55,316.36c-.19.53-.39,1.06-.59,1.59C429.16,317.42,429.36,316.89,429.55,316.36Z"/><path class="a6c2a5f0-3294-4a51-a22d-c76f032ff8b8" d="M433.18,203.27c.14.48.27,1,.41,1.44C433.45,204.23,433.32,203.75,433.18,203.27Z"/><path class="a6c2a5f0-3294-4a51-a22d-c76f032ff8b8" d="M435.6,212.51l.45,2Z"/><path class="a6c2a5f0-3294-4a51-a22d-c76f032ff8b8" d="M418.11,166.75l.25.46Z"/><path class="a6c2a5f0-3294-4a51-a22d-c76f032ff8b8" d="M428.28,188.72l.31.78Z"/><path class="a6c2a5f0-3294-4a51-a22d-c76f032ff8b8" d="M440.08,243.51c0,.61.06,1.22.09,1.83C440.14,244.73,440.12,244.12,440.08,243.51Z"/><path class="a6c2a5f0-3294-4a51-a22d-c76f032ff8b8" d="M440.35,258.23c0,.73,0,1.45-.07,2.17C440.31,259.68,440.33,259,440.35,258.23Z"/><path class="a6c2a5f0-3294-4a51-a22d-c76f032ff8b8" d="M439.91,267.62c-.05.65-.1,1.3-.16,1.94C439.81,268.92,439.86,268.27,439.91,267.62Z"/><path class="a6c2a5f0-3294-4a51-a22d-c76f032ff8b8" d="M439.51,272.25c-.06.63-.13,1.25-.19,1.87C439.38,273.5,439.45,272.88,439.51,272.25Z"/><path class="a6c2a5f0-3294-4a51-a22d-c76f032ff8b8" d="M439.6,237.23c0,.49.1,1,.14,1.47C439.7,238.21,439.65,237.72,439.6,237.23Z"/><path class="a6c2a5f0-3294-4a51-a22d-c76f032ff8b8" d="M437.65,285.93c-.1.57-.21,1.13-.31,1.7C437.44,287.06,437.55,286.5,437.65,285.93Z"/><path class="a6c2a5f0-3294-4a51-a22d-c76f032ff8b8" d="M440.3,248.5c0,.66,0,1.33,0,2C440.33,249.83,440.32,249.16,440.3,248.5Z"/><path class="a6c2a5f0-3294-4a51-a22d-c76f032ff8b8" d="M438.33,226.8c.11.71.22,1.42.32,2.13C438.55,228.22,438.44,227.51,438.33,226.8Z"/><path class="a6c2a5f0-3294-4a51-a22d-c76f032ff8b8" d="M431,312.15c-.18.53-.37,1.06-.55,1.58C430.65,313.21,430.84,312.68,431,312.15Z"/><path class="a6c2a5f0-3294-4a51-a22d-c76f032ff8b8" d="M432.38,307.89c-.16.53-.33,1.06-.5,1.59C432.05,309,432.22,308.42,432.38,307.89Z"/><path class="a6c2a5f0-3294-4a51-a22d-c76f032ff8b8" d="M439,276.85c-.07.6-.15,1.2-.23,1.8C438.85,278.05,438.93,277.45,439,276.85Z"/><path class="a6c2a5f0-3294-4a51-a22d-c76f032ff8b8" d="M437.54,222c.13.71.25,1.42.37,2.13C437.79,223.39,437.67,222.68,437.54,222Z"/><path class="a6c2a5f0-3294-4a51-a22d-c76f032ff8b8" d="M440.19,262.94l-.12,2.05Z"/><path class="a6c2a5f0-3294-4a51-a22d-c76f032ff8b8" d="M433.64,303.59c-.15.53-.3,1.06-.46,1.59C433.34,304.65,433.49,304.12,433.64,303.59Z"/><path class="a6c2a5f0-3294-4a51-a22d-c76f032ff8b8" d="M438.38,281.41c-.08.58-.18,1.16-.27,1.74C438.2,282.57,438.3,282,438.38,281.41Z"/><path class="a6c2a5f0-3294-4a51-a22d-c76f032ff8b8" d="M439,231.75c.08.68.18,1.36.25,2C439.19,233.11,439.09,232.43,439,231.75Z"/><path class="e3ca73d6-5abd-43ce-9d1b-26fac5712089" d="M434.19,301.82c.13-.5.26-1,.38-1.5h0C434.43,300.82,434.32,301.32,434.19,301.82Z"/><path class="b622ff09-4585-47d1-b0a0-7ec324fb9024" d="M158.91,117.82C108.79,184,276.77,232.16,366.58,232.32c38.56,27.68,51.23-69,19.94-107.6A182.66,182.66,0,0,0,162.61,98.33Z"/><path class="a6c2a5f0-3294-4a51-a22d-c76f032ff8b8" d="M205.23,118.73h0c.18-.28,18.06-27.76-16.18-28.41A57.25,57.25,0,0,0,170,94a183.44,183.44,0,0,0-76.5,80.23C108.53,176.81,182.65,152.68,205.23,118.73Z"/><path class="e3ca73d6-5abd-43ce-9d1b-26fac5712089" d="M75.14,255.75c0,.23,0,.45,0,.68,0-.42,0-.84,0-1.26Z"/><path class="e3ca73d6-5abd-43ce-9d1b-26fac5712089" d="M75.48,265.57l0-.56Z"/><path class="e3ca73d6-5abd-43ce-9d1b-26fac5712089" d="M75.15,252.25c0-.55,0-1.09,0-1.63C75.16,251.16,75.16,251.7,75.15,252.25Z"/><path class="e3ca73d6-5abd-43ce-9d1b-26fac5712089" d="M75.26,247.49c0-.43,0-.86,0-1.29C75.29,246.63,75.28,247.06,75.26,247.49Z"/><path class="e3ca73d6-5abd-43ce-9d1b-26fac5712089" d="M76.29,233.6l.3-2.47Z"/><path class="e3ca73d6-5abd-43ce-9d1b-26fac5712089" d="M75.87,237.79c.07-.77.15-1.55.23-2.32C76,236.24,75.94,237,75.87,237.79Z"/><path class="e3ca73d6-5abd-43ce-9d1b-26fac5712089" d="M75.84,270.3l-.09-1Z"/><path class="e3ca73d6-5abd-43ce-9d1b-26fac5712089" d="M78.27,288.12l-.06-.35Z"/><path class="e3ca73d6-5abd-43ce-9d1b-26fac5712089" d="M79.29,293.15c-.06-.31-.13-.62-.2-.92C79.16,292.53,79.23,292.84,79.29,293.15Z"/><path class="e3ca73d6-5abd-43ce-9d1b-26fac5712089" d="M76.25,274.54c0-.18,0-.35,0-.53C76.22,274.19,76.23,274.36,76.25,274.54Z"/><path class="e3ca73d6-5abd-43ce-9d1b-26fac5712089" d="M77.55,284c0-.33-.1-.66-.16-1C77.45,283.34,77.5,283.67,77.55,284Z"/><path class="e3ca73d6-5abd-43ce-9d1b-26fac5712089" d="M76.87,279.48l-.09-.67Z"/><path class="e3ca73d6-5abd-43ce-9d1b-26fac5712089" d="M75.25,260.71c0-.29,0-.6,0-.9C75.23,260.11,75.24,260.42,75.25,260.71Z"/><path class="e3ca73d6-5abd-43ce-9d1b-26fac5712089" d="M405.05,146.24a183.48,183.48,0,0,1,13.06,20.51A183.48,183.48,0,0,0,405.05,146.24Z"/><path class="e3ca73d6-5abd-43ce-9d1b-26fac5712089" d="M402.16,142.41q1.39,1.8,2.75,3.65Q403.56,144.22,402.16,142.41Z"/><path class="e3ca73d6-5abd-43ce-9d1b-26fac5712089" d="M76.81,229.48c.12-.87.24-1.74.37-2.61C77.05,227.74,76.93,228.61,76.81,229.48Z"/><path class="e3ca73d6-5abd-43ce-9d1b-26fac5712089" d="M399.13,138.61q1.41,1.72,2.78,3.49Q400.54,140.33,399.13,138.61Z"/><path class="e3ca73d6-5abd-43ce-9d1b-26fac5712089" d="M77.92,222.3q1-5.56,2.3-11Q78.9,216.75,77.92,222.3Z"/><path class="e3ca73d6-5abd-43ce-9d1b-26fac5712089" d="M77.39,225.55c.15-1,.3-1.94.47-2.9C77.69,223.61,77.54,224.58,77.39,225.55Z"/><path class="e3ca73d6-5abd-43ce-9d1b-26fac5712089" d="M80.26,211.14c.27-1.14.56-2.27.85-3.39C80.82,208.87,80.53,210,80.26,211.14Z"/><path class="e3ca73d6-5abd-43ce-9d1b-26fac5712089" d="M395.91,134.79c1,1.16,2,2.34,3,3.52C397.91,137.13,396.92,136,395.91,134.79Z"/><path class="e3ca73d6-5abd-43ce-9d1b-26fac5712089" d="M82.3,203.44c.33-1.14.67-2.27,1-3.4C83,201.17,82.63,202.3,82.3,203.44Z"/><path class="e3ca73d6-5abd-43ce-9d1b-26fac5712089" d="M81.25,207.22c.3-1.1.6-2.21.92-3.3C81.85,205,81.55,206.12,81.25,207.22Z"/><path class="e3ca73d6-5abd-43ce-9d1b-26fac5712089" d="M75.54,242c0-.69.1-1.38.15-2.07C75.64,240.66,75.58,241.35,75.54,242Z"/><path class="e3ca73d6-5abd-43ce-9d1b-26fac5712089" d="M395.8,134.66A183.08,183.08,0,0,0,375,114.23,183.08,183.08,0,0,1,395.8,134.66Z"/><path class="a6c2a5f0-3294-4a51-a22d-c76f032ff8b8" d="M75.17,250.62c0-1.05.06-2.09.09-3.13C75.23,248.53,75.19,249.57,75.17,250.62Z"/><path class="a6c2a5f0-3294-4a51-a22d-c76f032ff8b8" d="M75.69,240c.06-.72.11-1.45.18-2.18C75.8,238.52,75.75,239.25,75.69,240Z"/><path class="a6c2a5f0-3294-4a51-a22d-c76f032ff8b8" d="M76.59,231.13c.07-.55.14-1.1.22-1.65C76.73,230,76.66,230.58,76.59,231.13Z"/><path class="a6c2a5f0-3294-4a51-a22d-c76f032ff8b8" d="M76.1,235.47c.06-.62.12-1.25.19-1.87C76.22,234.22,76.16,234.85,76.1,235.47Z"/><path class="a6c2a5f0-3294-4a51-a22d-c76f032ff8b8" d="M75.31,246.2c.06-1.39.13-2.77.23-4.16C75.44,243.42,75.37,244.81,75.31,246.2Z"/><path class="a6c2a5f0-3294-4a51-a22d-c76f032ff8b8" d="M75.22,259.81c0-1.12,0-2.25-.07-3.38C75.17,257.56,75.19,258.69,75.22,259.81Z"/><path class="a6c2a5f0-3294-4a51-a22d-c76f032ff8b8" d="M75.13,254.24c0,.31,0,.62,0,.93,0-1,0-1.95,0-2.92C75.15,252.91,75.13,253.57,75.13,254.24Z"/><path class="a6c2a5f0-3294-4a51-a22d-c76f032ff8b8" d="M77.86,222.65l.06-.35Z"/><path class="a6c2a5f0-3294-4a51-a22d-c76f032ff8b8" d="M81.11,207.75c0-.18.1-.35.14-.53C81.21,207.4,81.16,207.57,81.11,207.75Z"/><path class="a6c2a5f0-3294-4a51-a22d-c76f032ff8b8" d="M77.18,226.87c.06-.44.14-.88.21-1.32C77.32,226,77.24,226.43,77.18,226.87Z"/><path class="a6c2a5f0-3294-4a51-a22d-c76f032ff8b8" d="M83.32,200l0-.1Z"/><path class="a6c2a5f0-3294-4a51-a22d-c76f032ff8b8" d="M82.17,203.92c0-.16.09-.32.13-.48C82.26,203.6,82.21,203.76,82.17,203.92Z"/><path class="a6c2a5f0-3294-4a51-a22d-c76f032ff8b8" d="M75.45,265c-.09-1.43-.15-2.86-.2-4.3C75.3,262.15,75.36,263.58,75.45,265Z"/><path class="a6c2a5f0-3294-4a51-a22d-c76f032ff8b8" d="M80.22,211.3a.94.94,0,0,1,0-.16A.94.94,0,0,0,80.22,211.3Z"/><path class="a6c2a5f0-3294-4a51-a22d-c76f032ff8b8" d="M75.75,269.29q-.15-1.86-.27-3.72Q75.6,267.43,75.75,269.29Z"/><path class="a6c2a5f0-3294-4a51-a22d-c76f032ff8b8" d="M76.78,278.81c-.2-1.42-.37-2.84-.53-4.27C76.41,276,76.58,277.39,76.78,278.81Z"/><path class="a6c2a5f0-3294-4a51-a22d-c76f032ff8b8" d="M78.21,287.77c-.23-1.25-.45-2.51-.66-3.77C77.76,285.26,78,286.52,78.21,287.77Z"/><path class="a6c2a5f0-3294-4a51-a22d-c76f032ff8b8" d="M76.2,274c-.14-1.23-.25-2.47-.36-3.71C76,271.54,76.06,272.78,76.2,274Z"/><path class="a6c2a5f0-3294-4a51-a22d-c76f032ff8b8" d="M79.09,292.23c-.28-1.37-.56-2.73-.82-4.11C78.53,289.5,78.81,290.86,79.09,292.23Z"/><path class="a6c2a5f0-3294-4a51-a22d-c76f032ff8b8" d="M77.39,283c-.18-1.18-.36-2.35-.52-3.53C77,280.66,77.21,281.83,77.39,283Z"/><path class="a6c2a5f0-3294-4a51-a22d-c76f032ff8b8" d="M401.91,142.1l.25.31C402.07,142.31,402,142.2,401.91,142.1Z"/><path class="a6c2a5f0-3294-4a51-a22d-c76f032ff8b8" d="M398.88,138.31l.25.3Z"/><path class="a6c2a5f0-3294-4a51-a22d-c76f032ff8b8" d="M395.8,134.66l.11.13Z"/><path class="a6c2a5f0-3294-4a51-a22d-c76f032ff8b8" d="M375,114.16h0l.08.07Z"/><path class="a6c2a5f0-3294-4a51-a22d-c76f032ff8b8" d="M404.91,146.06l.14.18Z"/><path class="a6c2a5f0-3294-4a51-a22d-c76f032ff8b8" d="M81.38,306.55c.12.42.24.85.37,1.28-.13-.43-.24-.85-.36-1.28Z"/><path class="a6c2a5f0-3294-4a51-a22d-c76f032ff8b8" d="M126.6,243.09C113.81,225.63,98.84,210,85.76,192.74c-.85,2.37-1.65,4.78-2.41,7.2l0,.1c-.35,1.13-.69,2.26-1,3.4,0,.16-.09.32-.13.48-.32,1.09-.62,2.2-.92,3.3,0,.18-.09.35-.14.53-.29,1.12-.58,2.25-.85,3.39a.94.94,0,0,0,0,.16q-1.32,5.43-2.3,11l-.06.35c-.17,1-.32,1.93-.47,2.9-.07.44-.15.88-.21,1.32-.13.87-.25,1.74-.37,2.61-.08.55-.15,1.1-.22,1.65l-.3,2.47c-.07.62-.13,1.25-.19,1.87-.08.77-.16,1.55-.23,2.32s-.12,1.46-.18,2.18-.11,1.38-.15,2.07c-.1,1.39-.17,2.77-.23,4.16,0,.43,0,.86,0,1.29,0,1-.07,2.08-.09,3.13,0,.54,0,1.08,0,1.63,0,1,0,1.95,0,2.92,0,.42,0,.84,0,1.26,0,1.13,0,2.26.07,3.38,0,.3,0,.61,0,.9,0,1.44.11,2.87.2,4.3l0,.56q.12,1.86.27,3.72l.09,1c.11,1.24.22,2.48.36,3.71,0,.18,0,.35,0,.53.16,1.43.33,2.85.53,4.27l.09.67c.16,1.18.34,2.35.52,3.53.06.33.11.66.16,1,.21,1.25.42,2.49.65,3.73L162,297.86c-.79-1.39-1.59-2.79-2.44-4.22C156.12,287.73,139,260.06,126.6,243.09Z"/><path class="a6c2a5f0-3294-4a51-a22d-c76f032ff8b8" d="M439.75,269.56c.06-.64.11-1.29.16-1.94.06-.87.11-1.75.16-2.63l.12-2.05c0-.84.06-1.69.09-2.54s.05-1.44.07-2.17l0-2.44c0-.75,0-1.5,0-2.25,0-1,0-2-.05-3,0-.67,0-1.34,0-2,0-1.06-.08-2.11-.13-3.16,0-.61-.05-1.22-.09-1.83-.09-1.61-.2-3.21-.34-4.81,0-.49-.09-1-.14-1.47-.1-1.15-.21-2.29-.34-3.44-.07-.68-.17-1.36-.25-2-.12-.94-.23-1.88-.36-2.82-.1-.71-.21-1.42-.32-2.13q-.19-1.35-.42-2.7c-.12-.71-.24-1.42-.37-2.13-.16-.9-.32-1.79-.5-2.68-.13-.7-.27-1.39-.41-2.08-.19-.91-.38-1.82-.58-2.72l-.45-2c-.23-.95-.46-1.9-.7-2.85-.15-.6-.29-1.2-.45-1.79-.28-1.06-.57-2.11-.86-3.16-.14-.48-.27-1-.41-1.44-.39-1.38-.81-2.75-1.24-4.11-.05-.14-.09-.29-.14-.44q-1.49-4.66-3.21-9.22l-.31-.78c-.47-1.23-1-2.46-1.46-3.69l-.42-1c-.48-1.15-1-2.29-1.47-3.43-.15-.35-.31-.7-.47-1.05-.51-1.13-1-2.25-1.55-3.37l-.47-1c-.56-1.16-1.13-2.31-1.71-3.46l-.41-.8c-.64-1.25-1.29-2.49-2-3.72l-.25-.46a183.48,183.48,0,0,0-13.06-20.51l-.14-.18q-1.35-1.84-2.75-3.65l-.25-.31q-1.37-1.77-2.78-3.49l-.25-.3c-1-1.18-2-2.36-3-3.52l-.11-.13A183.08,183.08,0,0,0,375,114.23l-.08-.07c-11.55-6.72-27.88-6.91-33.65-7-53.71,1.59-175.91,43.56-168,103.8,5.48,41.87,66.33,68.53,86.32,77.29.2.08,3.25,1.29,8.38,3.22,6.94,2.61,17.71,6.57,30.48,10.93L439.53,272C439.61,271.21,439.68,270.39,439.75,269.56Z"/><path class="e3ca73d6-5abd-43ce-9d1b-26fac5712089" d="M85.69,192.94c-.24.67-.47,1.35-.7,2C85.22,194.29,85.45,193.61,85.69,192.94Z"/><path class="f24a6100-8cab-405e-9859-5dfe43470911" d="M418.72,306.13l-2.61.86a426.75,426.75,0,0,1-63.58,14.74,664.6,664.6,0,0,1-103,7.71q-7.93,0-15.82-.18c-20.45-.45-40.56-1.78-59.81-3.91-34.58-3.82-66.4-10.23-92.51-18.8.12.43.23.85.36,1.28s.23.8.35,1.2l.84,2.74c.14.42.27.85.41,1.28.37,1.16.76,2.32,1.16,3.47l.33,1c.35,1,.71,2,1.07,3,.18.49.37,1,.56,1.47.29.77.59,1.54.89,2.3.2.49.39,1,.6,1.48.43,1.07.88,2.14,1.34,3.21.22.52.45,1,.68,1.55l1,2.15c.26.57.52,1.13.79,1.69s.59,1.25.89,1.87.54,1.13.82,1.69c.5,1,1,2,1.53,3,.31.6.63,1.2,1,1.8s.58,1.08.88,1.62l1,1.85.85,1.49c.75,1.31,1.52,2.6,2.3,3.89.15.25.3.51.46.76.4.66.81,1.31,1.22,2,.27.41.53.83.8,1.25.42.65.84,1.3,1.27,1.95l.75,1.12c1,1.42,1.92,2.81,2.9,4.2l.27.38c.49.68,1,1.35,1.48,2l.74,1c.5.67,1,1.34,1.51,2l.6.77c1.09,1.4,2.2,2.79,3.33,4.15l.3.37,1.7,2,.68.79,1.76,2,.33.37c1.26,1.4,2.54,2.79,3.84,4.15l.35.37c.63.66,1.26,1.31,1.9,1.95l.64.65q3.12,3.12,6.39,6.1l.39.36c.69.63,1.39,1.25,2.09,1.86l.58.51q3.34,2.93,6.84,5.67l.44.35c.74.59,1.5,1.17,2.26,1.74l.51.39q3.58,2.7,7.29,5.23l.46.31c.81.55,1.63,1.09,2.44,1.62l.38.24c2.55,1.66,5.16,3.26,7.8,4.79l.45.26c.87.5,1.74,1,2.62,1.49l.16.08q4.11,2.28,8.37,4.35l.41.2c1.73.84,3.48,1.64,5.24,2.43l.53.24h0a183,183,0,0,0,144.47,1.28c.46,0,.93,0,1.41-.05a183.28,183.28,0,0,0,77.48-63.66l.87-1.26.78-1.15a182.26,182.26,0,0,0,17.06-31.43h0c.07-.15.12-.3.19-.45.35-.83.68-1.67,1-2.51.21-.53.43-1.06.64-1.6.33-.85.65-1.71,1-2.57.2-.53.4-1.06.59-1.59.32-.87.62-1.75.92-2.63.18-.52.37-1.05.54-1.58q.45-1.34.87-2.67c.17-.53.34-1.06.5-1.59.28-.9.54-1.8.8-2.71.16-.53.31-1.06.46-1.59.26-.91.5-1.83.74-2.74.14-.54.29-1.07.42-1.61s.24-1,.37-1.5C429.56,302.34,424.26,304.28,418.72,306.13Z"/><path class="b2cc291e-2371-4122-94cd-cbc872a47159" d="M240.29,418.68h0l-.57-.28c-1.88-.9-3.75-1.82-5.6-2.78l-.44-.24q-4.54-2.37-8.95-5l-.16-.1c-.94-.56-1.88-1.13-2.81-1.71l-.47-.29q-4.25-2.64-8.35-5.51l-.4-.27-2.61-1.86-.49-.36q-4-2.91-7.8-6l-.55-.44c-.81-.66-1.61-1.33-2.41-2l-.47-.4q-3.73-3.17-7.31-6.52l-.63-.58L188,382.21l-.42-.41q-3.5-3.42-6.83-7c-.23-.24-.45-.49-.68-.74l-2-2.24-.37-.42q-2.08-2.36-4.1-4.78l-.36-.42c-.63-.76-1.25-1.53-1.87-2.3-.25-.3-.49-.61-.73-.91-.61-.77-1.22-1.54-1.82-2.32-.11-.13-.22-.27-.32-.41-1.21-1.57-2.4-3.17-3.56-4.78l-.65-.88c-.54-.76-1.08-1.53-1.61-2.3-.27-.37-.53-.75-.79-1.13-.53-.78-1.06-1.55-1.58-2.33-.1-.14-.19-.29-.29-.44-1-1.58-2.08-3.19-3.1-4.81l-.81-1.29L154.74,340l-.85-1.43c-.43-.75-.87-1.49-1.31-2.25-.16-.29-.32-.58-.49-.87q-1.25-2.22-2.45-4.47c-.31-.57-.61-1.14-.91-1.71s-.73-1.41-1.09-2.12-.63-1.25-.94-1.87l-1-2.06c-.29-.61-.58-1.23-.86-1.84-23.33-3.75-44.83-8.75-63.43-14.86.12.43.23.85.36,1.28s.23.8.35,1.2l.84,2.74c.14.42.27.85.41,1.28.37,1.16.76,2.32,1.16,3.47l.33,1c.35,1,.71,2,1.07,3,.18.49.37,1,.56,1.47.29.77.59,1.54.89,2.3.2.49.39,1,.6,1.48.43,1.07.88,2.14,1.34,3.21.22.52.45,1,.68,1.55l1,2.15c.26.57.52,1.13.79,1.69s.59,1.25.89,1.87.54,1.13.82,1.69c.5,1,1,2,1.53,3,.31.6.63,1.2,1,1.8s.58,1.08.88,1.62l1,1.85.85,1.49c.75,1.31,1.52,2.6,2.3,3.89.15.25.3.51.46.76.4.66.81,1.31,1.22,2,.27.41.53.83.8,1.25.42.65.84,1.3,1.27,1.95l.75,1.12c1,1.42,1.92,2.81,2.9,4.2l.27.38c.49.68,1,1.35,1.48,2l.74,1c.5.67,1,1.34,1.51,2l.6.77c1.09,1.4,2.2,2.79,3.33,4.15l.3.37,1.7,2,.68.79,1.76,2,.33.37c1.26,1.4,2.54,2.79,3.84,4.15l.35.37c.63.66,1.26,1.31,1.9,1.95l.64.65q3.12,3.12,6.39,6.1l.39.36c.69.63,1.39,1.25,2.09,1.86l.58.51q3.34,2.93,6.84,5.67l.44.35c.74.59,1.5,1.17,2.26,1.74l.51.39q3.58,2.7,7.29,5.23l.46.31c.81.55,1.63,1.09,2.44,1.62l.38.24c2.55,1.66,5.16,3.26,7.8,4.79l.45.26c.87.5,1.74,1,2.62,1.49l.16.08q4.11,2.28,8.37,4.35l.41.2c1.73.84,3.48,1.64,5.24,2.43l.53.24h0a183.14,183.14,0,0,0,113.32,11.18A183.8,183.8,0,0,1,240.29,418.68Z"/><path class="e3ca73d6-5abd-43ce-9d1b-26fac5712089" d="M85,195c-.17.49-.34,1-.5,1.46C84.65,195.93,84.82,195.45,85,195Z"/><path class="e3ca73d6-5abd-43ce-9d1b-26fac5712089" d="M85.69,192.94c0-.07,0-.13.07-.2h0A1.18,1.18,0,0,0,85.69,192.94Z"/><path class="e3ca73d6-5abd-43ce-9d1b-26fac5712089" d="M84.49,196.42c-.39,1.16-.77,2.34-1.14,3.52C83.72,198.76,84.1,197.58,84.49,196.42Z"/><path class="f24a6100-8cab-405e-9859-5dfe43470911" d="M433.89,172.46a191.89,191.89,0,0,1,13.89,41.75c8.84,6.45,13,12.53,13,17.23,0,6.4-7.39,13-11.79,16.37a86.71,86.71,0,0,1-8.63,5.72c-9.27,5.43-21.24,10.57-35.23,15.09-41.18,13.31-96.24,20.63-155,20.63s-113.84-7.32-155-20.63c-7.4-2.39-14-4.88-19.85-7.42-24.57-10.64-35.8-22-35.8-29.76,0-6.39,7.39-13,11.79-16.36A106.12,106.12,0,0,1,70.19,204a192.17,192.17,0,0,1,14.74-38.24c-62.57,20.43-75.75,47-75.75,65.71,0,27.86,28.12,49.31,70.64,64.08,45.77,15.89,108.24,24,170.33,24,61.85,0,120.21-7.85,164.33-22.1,8.38-2.71,15.88-5.53,22.59-8.42,44-19,54-41.26,54-57.59C491.11,206.64,468.8,186.91,433.89,172.46Z"/><path class="f24a6100-8cab-405e-9859-5dfe43470911" d="M470.09,309.48c-7.92,4.37-10.16,14.36-10.16,14.36h0s-2.34-10.07-10.15-14.36c7.81-4.29,10.14-14.35,10.15-14.36h0s2.24,10,10.16,14.36Z"/><path class="f24a6100-8cab-405e-9859-5dfe43470911" d="M95.92,137.68c-7.3,4-9.36,13.23-9.36,13.23h0s-2.16-9.28-9.36-13.23c7.2-4,9.34-13.22,9.36-13.24h0s2.06,9.22,9.36,13.24Z"/></svg>