<svg id="f6a745a6-c094-41bf-a60d-161add9ab8e5" data-name="Layer 1" xmlns="http://www.w3.org/2000/svg" viewBox="0 0 500 500"><defs><style>.af2cf06f-4c2d-4a34-8f12-8e174fba62c5{fill:#022c66;}.e7422011-4709-4387-8031-ebee1753c912{fill:#053075;}.f6a94a2e-cdec-4ced-9b0d-c0b71919d236{fill:#10459b;}.a25078e9-3744-4c8d-8e77-05723be10c28{fill:#fff;}.a052698f-e922-4557-be91-3f75420116bf{fill:#7db8ff;}</style></defs><circle class="af2cf06f-4c2d-4a34-8f12-8e174fba62c5" cx="250" cy="250" r="219.98"/><path class="e7422011-4709-4387-8031-ebee1753c912" d="M400.64,243.56c-17.24,1.26-205,44.64-181.81,130.26,12.15,44.94,55.73,79.23,77.74,77.81.77-.05,83.48-15.47,128.76-91.12C460.57,301.64,448.57,244.8,400.64,243.56Z"/><path class="e7422011-4709-4387-8031-ebee1753c912" d="M130.93,85.69c-60.38,79.76,142,137.72,250.14,137.91,46.45,33.35,61.71-83.14,24-129.61a220,220,0,0,0-269.7-31.78Z"/><path class="f6a94a2e-cdec-4ced-9b0d-c0b71919d236" d="M186.72,86.78h0c.22-.33,21.75-33.43-19.49-34.22A69.14,69.14,0,0,0,144.33,57a221,221,0,0,0-92.14,96.64C70.25,156.74,159.52,127.67,186.72,86.78Z"/><path class="f6a94a2e-cdec-4ced-9b0d-c0b71919d236" d="M163.92,382h0c-2-13.11-6.13-40.38-32.16-84.58C127.57,290.34,107,257,92,236.58c-15.4-21-33.44-39.92-49.19-60.66a220.21,220.21,0,0,0,118.4,275.4C163.89,446.53,165.91,395.11,163.92,382Z"/><path class="f6a94a2e-cdec-4ced-9b0d-c0b71919d236" d="M148.23,197.9c6.61,50.43,79.9,82.54,104,93.09,1.67.73,165.71,65.09,200.61,44.35A220.22,220.22,0,0,0,391.15,81.28c-13.92-8.09-33.59-8.33-40.55-8.41C285.92,74.79,138.72,125.34,148.23,197.9Z"/><path class="f6a94a2e-cdec-4ced-9b0d-c0b71919d236" d="M439.78,358c-20.32,2-112.34,38.79-122.88,74.68-4.07,13.85,6.48,21,20,20.14a220.8,220.8,0,0,0,104.55-94.62A3.57,3.57,0,0,0,439.78,358Z"/><path class="a25078e9-3744-4c8d-8e77-05723be10c28" d="M168.69,226.23a16.36,16.36,0,0,1-.69,4.93,14.74,14.74,0,0,1-1.84,3.87,12.32,12.32,0,0,1-2.67,2.85,16.65,16.65,0,0,1-3.17,1.92,15.89,15.89,0,0,1-3.33,1.11,15.32,15.32,0,0,1-3.19.35H118.06V232H153.8a5.42,5.42,0,0,0,4.15-1.57,5.85,5.85,0,0,0,1.48-4.2,6.87,6.87,0,0,0-.39-2.36,5.36,5.36,0,0,0-1.13-1.85,5,5,0,0,0-1.78-1.21,6,6,0,0,0-2.33-.43H132.49a16.37,16.37,0,0,1-4.85-.8,14.5,14.5,0,0,1-4.83-2.58,14.14,14.14,0,0,1-3.7-4.67,15.32,15.32,0,0,1-1.48-7.06,15.13,15.13,0,0,1,1.48-7,14.16,14.16,0,0,1,8.53-7.27,16.37,16.37,0,0,1,4.85-.8H164v9.26H132.49a5.33,5.33,0,0,0-4.12,1.6,6,6,0,0,0-1.48,4.24,5.91,5.91,0,0,0,1.48,4.23,5.44,5.44,0,0,0,4.12,1.55h21.38a16,16,0,0,1,3.17.41,15.85,15.85,0,0,1,3.33,1.15,16.68,16.68,0,0,1,3.16,2,13.5,13.5,0,0,1,2.65,2.87,14.15,14.15,0,0,1,1.84,3.85A16.59,16.59,0,0,1,168.69,226.23Z"/><path class="a25078e9-3744-4c8d-8e77-05723be10c28" d="M224.39,211.55a18.94,18.94,0,0,1-.78,5.66,15.9,15.9,0,0,1-2.12,4.4,15,15,0,0,1-3.08,3.26,17.84,17.84,0,0,1-3.66,2.21,18.11,18.11,0,0,1-3.84,1.25,18.71,18.71,0,0,1-3.66.39H186.3v-9.26h20.95a11,11,0,0,0,3.23-.73,7.77,7.77,0,0,0,2.47-1.59,6.85,6.85,0,0,0,1.61-2.41,8.38,8.38,0,0,0,.57-3.18v-4.21a12.36,12.36,0,0,0-.75-3.21,7.67,7.67,0,0,0-1.55-2.49,6.85,6.85,0,0,0-2.37-1.62,8.24,8.24,0,0,0-3.21-.59H186.37a3.81,3.81,0,0,0-2.81,1,3.77,3.77,0,0,0-1,2.78v38.09h-9.26V203.17a13,13,0,0,1,1.3-6.06,12.32,12.32,0,0,1,3.24-4,12.76,12.76,0,0,1,4.23-2.23,14.59,14.59,0,0,1,4.2-.69h20.95a18.19,18.19,0,0,1,5.63.8,16.06,16.06,0,0,1,4.4,2.13,14.73,14.73,0,0,1,3.25,3.09,19.41,19.41,0,0,1,2.21,3.65,17.51,17.51,0,0,1,1.26,3.85,18.54,18.54,0,0,1,.39,3.65Z"/><path class="a25078e9-3744-4c8d-8e77-05723be10c28" d="M279.52,241.26h-9.26V228.72H237.69v12.54h-9.27V215.71a26.78,26.78,0,0,1,1.93-10.29,23.88,23.88,0,0,1,5.34-8.09,24.33,24.33,0,0,1,8.09-5.28A26.9,26.9,0,0,1,254,190.17h20.88a4.61,4.61,0,0,1,4.32,2.85,4.78,4.78,0,0,1,.35,1.81Zm-41.83-21.8h32.57v-20H254q-.42,0-1.8.12a19.55,19.55,0,0,0-7,2.16,13.14,13.14,0,0,0-3.67,2.85,14.7,14.7,0,0,0-2.77,4.54,18,18,0,0,0-1.08,6.61Z"/><path class="a25078e9-3744-4c8d-8e77-05723be10c28" d="M333.12,241.26H299.69a14,14,0,0,1-2.76-.3A14.59,14.59,0,0,1,294,240a13.58,13.58,0,0,1-2.76-1.66,11.43,11.43,0,0,1-2.34-2.46,12.56,12.56,0,0,1-1.62-3.35,14.25,14.25,0,0,1-.6-4.29V203.17a14,14,0,0,1,.3-2.76,14.39,14.39,0,0,1,.94-2.92,13,13,0,0,1,1.68-2.76,11.54,11.54,0,0,1,2.48-2.34,12,12,0,0,1,3.33-1.62,14.07,14.07,0,0,1,4.27-.6h33.43v9.26H299.69a3.79,3.79,0,0,0-2.78,1,3.87,3.87,0,0,0-1,2.85v25a3.41,3.41,0,0,0,3.74,3.74h33.43Z"/><path class="a25078e9-3744-4c8d-8e77-05723be10c28" d="M385.15,241.26H351.72a14.86,14.86,0,0,1-4.2-.67,12.27,12.27,0,0,1-7.47-6.26,13,13,0,0,1-1.3-6.07V194.83a4.6,4.6,0,0,1,.36-1.81,4.75,4.75,0,0,1,1-1.5,4.35,4.35,0,0,1,1.48-1,4.69,4.69,0,0,1,1.85-.35h41.73v9.26H348v28.83a3.77,3.77,0,0,0,1,2.78,3.81,3.81,0,0,0,2.81,1h33.36ZM381,220.38H351.72v-9.33H381Z"/><path class="a25078e9-3744-4c8d-8e77-05723be10c28" d="M185.05,317.84H151.63a13.84,13.84,0,0,1-2.76-.3,14.72,14.72,0,0,1-2.93-1,13.58,13.58,0,0,1-2.76-1.66,10.89,10.89,0,0,1-2.33-2.45,12.12,12.12,0,0,1-1.62-3.35,14,14,0,0,1-.61-4.3V279.75a14.2,14.2,0,0,1,1.25-5.69,12.78,12.78,0,0,1,1.67-2.76A11.48,11.48,0,0,1,144,269a12,12,0,0,1,3.33-1.62,13.78,13.78,0,0,1,4.28-.61h33.42V276H151.63a3.77,3.77,0,0,0-2.78,1,3.87,3.87,0,0,0-1,2.85v25a3.42,3.42,0,0,0,3.75,3.74h33.42Z"/><path class="a25078e9-3744-4c8d-8e77-05723be10c28" d="M241,317.84h-9.27V305.3H199.2v12.54h-9.26V292.29a27,27,0,0,1,1.92-10.3,24,24,0,0,1,5.35-8.09,24.42,24.42,0,0,1,8.08-5.27,27,27,0,0,1,10.2-1.89h20.88a4.61,4.61,0,0,1,4.31,2.85,4.65,4.65,0,0,1,.36,1.82ZM199.2,296h32.57V276H215.49c-.29,0-.89.05-1.8.13a18.18,18.18,0,0,0-3.18.62,20.27,20.27,0,0,0-3.79,1.54,13.06,13.06,0,0,0-3.67,2.85,14.38,14.38,0,0,0-2.76,4.54,17.76,17.76,0,0,0-1.09,6.61Z"/><path class="a25078e9-3744-4c8d-8e77-05723be10c28" d="M308.35,317.84H299V287.41l-16.42,28.9A4.12,4.12,0,0,1,280.9,318a5,5,0,0,1-2.34.57,4.65,4.65,0,0,1-2.26-.57,4.11,4.11,0,0,1-1.66-1.67l-16.5-28.9v30.43h-9.26V270.7a4.63,4.63,0,0,1,.94-2.86,4.55,4.55,0,0,1,2.48-1.67,5,5,0,0,1,1.49-.13,5.1,5.1,0,0,1,1.45.33,4.22,4.22,0,0,1,1.26.74,4.57,4.57,0,0,1,1,1.16l21.09,36.67,21.1-36.67a4.51,4.51,0,0,1,2.26-1.92,4.82,4.82,0,0,1,3-.18,4.69,4.69,0,0,1,3.42,4.53Z"/><path class="a25078e9-3744-4c8d-8e77-05723be10c28" d="M367.11,288.12a19.05,19.05,0,0,1-.78,5.67,15.9,15.9,0,0,1-2.12,4.4,15.2,15.2,0,0,1-3.08,3.26,17.89,17.89,0,0,1-7.5,3.45,18,18,0,0,1-3.66.4H329V296h21a10.7,10.7,0,0,0,3.23-.73,7.65,7.65,0,0,0,2.48-1.59,6.92,6.92,0,0,0,1.6-2.4,8.44,8.44,0,0,0,.57-3.19v-4.2a12.17,12.17,0,0,0-.75-3.21,7.61,7.61,0,0,0-1.55-2.5,7,7,0,0,0-2.37-1.62A8.21,8.21,0,0,0,350,276H329.09a3.82,3.82,0,0,0-2.81,1,3.75,3.75,0,0,0-1,2.78v38.09h-9.27V279.75a12.92,12.92,0,0,1,1.3-6.06,12.36,12.36,0,0,1,3.24-4,13,13,0,0,1,4.23-2.23,14.59,14.59,0,0,1,4.2-.69h21a18.49,18.49,0,0,1,5.63.8,16.58,16.58,0,0,1,4.41,2.14,14.64,14.64,0,0,1,3.24,3.08,19.73,19.73,0,0,1,2.21,3.65,17.86,17.86,0,0,1,1.26,3.85,18.63,18.63,0,0,1,.39,3.66Z"/><path class="a052698f-e922-4557-be91-3f75420116bf" d="M37,305.22c-9.53,17.92-11.83,34.87-5.37,49.4,22.44,50.49,142.05,52.62,267.15,4.76s208.32-127.6,185.87-178.09c-6.12-13.78-19.48-23.95-38.21-30.49l.25.52c15.06,6,25.78,14.72,30.9,26.22C498.69,225,416.44,301.46,293.89,348.35s-239,46.44-260.08-1c-5.46-12.29-4-26.52,3.31-41.68Z"/><path class="a25078e9-3744-4c8d-8e77-05723be10c28" d="M394.87,347.17c-7.58,4.18-9.72,13.74-9.72,13.74h0s-2.25-9.64-9.72-13.74c7.47-4.1,9.7-13.73,9.72-13.75h0s2.14,9.57,9.72,13.75Z"/><path class="a25078e9-3744-4c8d-8e77-05723be10c28" d="M119.9,170.61c-5.65,3.12-7.24,10.25-7.24,10.25h0s-1.67-7.19-7.25-10.25c5.58-3.06,7.24-10.23,7.25-10.24h0s1.59,7.13,7.24,10.24Z"/></svg>