<?xml version="1.0" encoding="utf-8"?>
<!-- Generator: Adobe Illustrator 24.1.0, SVG Export Plug-In . SVG Version: 6.00 Build 0)  -->
<svg version="1.1" id="Layer_1" xmlns="http://www.w3.org/2000/svg" xmlns:xlink="http://www.w3.org/1999/xlink" x="0px" y="0px"
	 viewBox="0 0 167 48" style="enable-background:new 0 0 167 48;" xml:space="preserve">
<style type="text/css">
	.st0{fill:#2043B5;}
	.st1{fill:#2845AE;}
	.st2{fill:#FFFFFF;}
	.st3{fill:#5493F7;}
	.st4{opacity:0.3;fill:#2845AE;enable-background:new    ;}
	.st5{opacity:0.15;fill:#FFFFFF;enable-background:new    ;}
</style>
<desc>Created with Sketch.</desc>
<g id="Page-1">
	<g id="Desktop-HD-Copy-3" transform="translate(-182.000000, -40.000000)">
		<g id="Group-2" transform="translate(182.000000, 40.000000)">
			<path id="TerraJigu" class="st0" d="M57.6,33V20.3h-5v-4.1h14.7v4.1h-5V33H57.6z M73.3,33.3c-4.1,0-7-2.7-7-6.7v0
				c0-3.8,2.7-6.8,6.6-6.8c4.5,0,6.5,3.3,6.5,7.1c0,0.3,0,0.6,0,0.9h-8.7c0.4,1.4,1.4,2.1,2.8,2.1c1.1,0,1.9-0.4,2.9-1.3l2.5,2.1
				C77.7,32.3,75.9,33.3,73.3,33.3z M70.6,25.4h4.5c-0.2-1.4-1-2.4-2.3-2.4C71.7,23.1,70.9,24,70.6,25.4z M81.4,33V20h4.6v2.6
				c0.7-1.8,1.9-2.9,4.1-2.8v4.8h-0.4c-2.4,0-3.7,1.4-3.7,4.3V33H81.4z M91.6,33V20h4.6v2.6c0.7-1.8,1.9-2.9,4.1-2.8v4.8h-0.4
				c-2.4,0-3.7,1.4-3.7,4.3V33H91.6z M105,33.3c-2.5,0-4.3-1.4-4.3-4v0c0-2.7,2-4.1,5.1-4.1c1.2,0,2.4,0.2,3.1,0.5v-0.2
				c0-1.4-0.8-2.1-2.6-2.1c-1.4,0-2.4,0.3-3.6,0.7l-0.9-3.2c1.5-0.6,3-1,5.3-1c2.3,0,3.9,0.6,4.9,1.6c1,1,1.4,2.3,1.4,4.1V33h-4.5
				v-1.4C108,32.6,106.7,33.3,105,33.3z M106.7,30.4c1.3,0,2.3-0.8,2.3-2.1v-0.6c-0.5-0.2-1.1-0.3-1.8-0.3c-1.3,0-2.1,0.6-2.1,1.6v0
				C105.1,29.9,105.7,30.4,106.7,30.4z M124.6,33.2c-2.5,0-4.1-1.2-5.2-3l1.4-1.2c1,1.6,2.1,2.4,3.8,2.4c1.9,0,3.3-1.4,3.3-4V16.2
				h1.9v11.2c0,2-0.6,3.5-1.5,4.4C127.4,32.8,126.1,33.2,124.6,33.2z M134.1,17.9v-2h2.1v2H134.1z M134.2,33V20.6h1.8V33H134.2z
				 M145.8,36.9c-2.1,0-4-0.6-5.6-1.7l0.8-1.4c1.4,1,3,1.6,4.8,1.6c2.7,0,4.5-1.5,4.5-4.4v-1.5c-1.1,1.4-2.6,2.6-4.9,2.6
				c-3,0-5.8-2.2-5.8-5.8v0c0-3.6,2.9-5.9,5.8-5.9c2.3,0,3.8,1.2,4.8,2.5v-2.2h1.8v10.2c0,1.9-0.6,3.4-1.6,4.4
				C149.4,36.3,147.8,36.9,145.8,36.9z M145.8,30.4c2.4,0,4.6-1.7,4.6-4.2v0c0-2.5-2.2-4.2-4.6-4.2c-2.4,0-4.3,1.6-4.3,4.2v0
				C141.5,28.7,143.5,30.4,145.8,30.4z M160.8,33.3c-3,0-4.8-2-4.8-5v-7.7h1.8v7.2c0,2.3,1.2,3.7,3.4,3.7c2.1,0,3.7-1.6,3.7-3.9
				v-7.1h1.8V33h-1.8v-2.2C164.2,32.2,163,33.3,160.8,33.3z"/>
			<g id="logo">
				<path id="Path" class="st1" d="M19.5,0.7L0.6,11.6C0.2,11.8,0,12.3,0,12.7v22.5c0,0.5,0.2,0.9,0.6,1.1l19.5,11.2
					c0.4,0.2,0.9,0.2,1.3,0l19.5-11.2c0.4-0.2,0.6-0.7,0.6-1.1V12.7c0-0.5-0.2-0.9-0.6-1.1L22.1,0.7C21.3,0.3,20.3,0.3,19.5,0.7z"/>
				<circle id="Oval" class="st2" cx="20.8" cy="24" r="12.5"/>
				<path id="Path_1_" class="st3" d="M25.8,34.7c0.3-0.2,0.7-0.4,1-0.5c0.4-0.1,0.7-0.2,1.1-0.4c0.4-0.3,0.4-0.6,0.5-1.1
					c0.1-0.4,0-0.8,0.2-1.2c0.2-0.3,0.6-0.5,0.8-0.7c0.7-0.6,0.5-1.6-0.5-1.7c-0.4,0-0.7,0-1.1-0.1c-0.4-0.1-0.8-0.3-1.2-0.4
					c-0.3-0.1-1.1-1.5-1.8-1.9c-1.2-0.7-2.2-0.6-3.4-0.7c-1.5-0.2-2-0.7-2.5-0.8c-0.4-0.1-0.9-0.3-1.5-0.1c-0.9,0.4-1.2,1.5-0.8,2.4
					c0.5,1-0.2,2.1,0.7,3.7c0.9,1.6,1.8,1.6,2,2.3c0.2,0.8,0.2,1.6,0,2.3c0,0.2-0.1,0.3-0.1,0.5c1.9,0.2,3.9,0,5.8-0.7
					c0,0,0.1,0,0.1-0.1C25.4,35.3,25.5,34.9,25.8,34.7z"/>
				<path id="Path_2_" class="st3" d="M30.5,16.2c-0.3-0.2-0.6-0.5-0.9-0.1c-0.3,0.6,0.2,1.3-0.3,2.4c-0.5,1.1,0.3,2.6,0.6,3
					c0.3,0.5,0.2,1.1,0.2,1.6c0,0.5,0.5,1,1.1,1.2c0.7,0.2,1,1.2,1.5,1.1c0.3-0.1,0.4-0.4,0.5-0.7C33.4,21.7,32.4,18.6,30.5,16.2
					L30.5,16.2z"/>
				<path id="Path_3_" class="st3" d="M23.4,13.1c1.1,0.5,1.3-0.1,1.9,0.4c0.5,0.4,1,1.2,0.1,1.9c-0.4,0.3-0.9,0.4-0.8,1.1
					c0.1,0.4,0.5,0.6,1.2,0.7c0.7,0.1,2-0.1,1.9-1.1c0-0.4-0.1-0.7-0.2-1.3c0-0.6-0.5-0.9-0.5-1.1c0-0.1,0.1-0.1,0.2-0.2
					c-1.9-1.2-4-1.9-6.3-1.9c0.3,0.2,0.7,0.4,1,0.6C22.7,12.5,22.9,12.9,23.4,13.1z"/>
				<path id="Path_4_" class="st3" d="M13.8,28.6c0.2-0.1,0.2-0.3,0.2-0.5c0-0.2-0.1-0.4-0.3-0.4c-0.3-0.2-0.7-0.3-0.9-0.5
					c-0.2-0.3,0.3-0.6-0.1-1.2c-0.4-0.6-1-0.2-1.4-0.7c-0.4-0.4-0.6-0.9-0.3-1.3s0.9-0.8,1.7-0.5c0.8,0.3,1.8,0.6,2.3,0.4
					c0.5-0.2,0.3-0.9,0.9-1.3c0.6-0.4,1.1-0.7,1.4-1.5c0.2-0.5,0.5-1,0.9-1.3c0.3-0.2,0.9,0,1.3-0.1c0.7-0.1,0.7-0.6,0.7-1.1
					c0.1-0.5,0.6-0.6,0.6-1.1c0-0.5-0.6-0.5-1.1-1c-0.5-0.5-0.8-1.3-1.4-1.6c-0.5-0.2-1.1,0.1-1.3,0.6c-0.1,0.5-0.3,0.9-1,0.8
					c-0.5-0.1-1-0.3-1-0.9c0-0.4,0.4-0.7,1.2-1.3c0.8-0.6,1.2-1.3,1-1.7c-0.2-0.4-1.2-0.2-1.3-0.2c-5.3,2.1-8.6,7.6-7.8,13.2
					c0.4,0.4,0.8,1.2,1.4,1.7c0.7,0.6,1.4,1,2.2,1.4C12.8,28.9,13.5,28.8,13.8,28.6z"/>
				<g id="Group">
					<polygon id="Path_5_" class="st4" points="41.5,36 41.5,12 20.8,24 20.8,47.9 					"/>
					<polygon id="Path_6_" class="st5" points="0,12 20.8,24 41.5,12 20.8,0 					"/>
				</g>
			</g>
		</g>
	</g>
</g>
</svg>
