<svg xmlns="http://www.w3.org/2000/svg" viewBox="0 0 95.47 147.91"><defs><style>.cls-1{fill:#2845ae;}.cls-2,.cls-4{fill:none;}.cls-3{fill:#5493f7;}.cls-4{stroke:#2845ae;stroke-linecap:round;stroke-miterlimit:10;stroke-width:4px;}</style></defs><title>terracoredocs</title><g id="Layer_2" data-name="Layer 2"><g id="Terra_White-paper_헌법책"><path class="cls-1" d="M95.47,19.51,0,41.19v93.09H0a12.33,12.33,0,0,0,2.35,7.25c2.77,3.87,8.5,6.39,15.62,6.39a37.54,37.54,0,0,0,16.5-4.11C49,136.65,93.9,114.2,94.36,114a2,2,0,0,0,1.1-1.76h0Z"/><polygon class="cls-1" points="71.26 4.29 64.17 6.23 71.26 13.31 71.26 4.29 71.26 4.29"/><path class="cls-2" d="M71.26,4.29"/><path class="cls-1" d="M71.77,2.08V13L62.1,6.48l9.49-4.57A.17.17,0,0,1,71.77,2.08Z"/><path class="cls-3" d="M66,5.57a.66.66,0,0,0-.74-.13L10.76,31.78C.35,36.61.84,44.09,3.88,48.35,8,54.11,20.19,55.92,32.32,49.93,46.39,43,89.1,23.14,89.1,23.14a.66.66,0,0,0,.18-1.06Z"/><path class="cls-4" d="M69.77,2,11.15,30.6C.31,35.63.82,43.41,4,47.84c4.28,6,17,7.88,29.6,1.64,14.64-7.23,59.87-29.82,59.87-29.82"/><rect class="cls-3" x="48.01" y="52.8" width="31.11" height="4.01" transform="translate(-17.9 34.59) rotate(-26.83)"/><rect class="cls-1" x="75.27" y="35.41" width="17.89" height="25.41"/><rect class="cls-1" x="33.8" y="46.61" width="17.89" height="25.41"/><path class="cls-3" d="M36.74,41l2.43,1.76A4.36,4.36,0,0,1,41,46.3V87.79a.35.35,0,0,1-.59.26L36,84.1a.35.35,0,0,0-.55.09l-4.38,8.12a.35.35,0,0,1-.67-.17V51.57A4.36,4.36,0,0,0,28.66,48l-2.44-1.78Z"/></g></g></svg>